<svg width="511" height="479" viewBox="0 0 511 479" fill="none" xmlns="http://www.w3.org/2000/svg">
<g opacity="0.2">
<path d="M436.734 462.89C477.388 462.89 510.346 454.555 510.346 444.273C510.346 433.991 477.388 425.656 436.734 425.656C396.079 425.656 363.122 433.991 363.122 444.273C363.122 454.555 396.079 462.89 436.734 462.89Z" fill="#241A40"/>
<path d="M367.485 467.398C367.485 473.309 348.016 478.097 324.017 478.097C302.637 478.097 284.871 474.302 281.231 469.298C280 468.622 278.998 468.073 277.767 467.398C277.67 467.398 277.573 467.398 277.476 467.398C262.524 467.398 248.609 466.261 236.995 464.323C236.266 464.211 235.551 464.267 234.849 464.506C221.299 469.027 199.698 471.947 175.376 471.947C134.306 471.947 101.007 463.607 101.007 453.33V453.274C101.035 450.634 99.0851 448.43 96.4481 448.5C92.6328 448.584 88.7194 448.627 84.7498 448.627C38.1953 448.627 0.449585 442.407 0.449585 434.713C0.449585 427.033 38.1953 420.799 84.7498 420.799C131.304 420.799 169.05 427.033 169.05 434.713V434.783C171.14 434.741 173.244 434.713 175.376 434.713C190.539 434.713 204.65 435.85 216.39 437.816C217.12 437.928 217.849 437.872 218.55 437.633C231.974 433.098 253.378 430.164 277.476 430.164C318.126 430.164 351.088 438.504 351.088 448.781C351.088 450.101 350.544 451.391 349.509 452.636C347.551 454.99 348.908 458.58 351.906 459.196C361.427 461.156 367.485 464.104 367.485 467.398Z" fill="#241A40"/>
<path d="M357.653 391.981C316.574 391.981 280.196 388.931 257.854 384.247C257.662 384.207 257.471 384.181 257.276 384.167C214.233 381.265 184.213 374.735 184.213 367.142C184.213 356.865 239.296 348.525 307.241 348.525C348.605 348.525 385.215 351.614 407.517 356.346C407.532 356.346 407.546 356.346 407.56 356.36C450.635 359.252 480.667 365.767 480.667 373.362C480.667 383.641 425.598 391.981 357.653 391.981Z" fill="#241A40"/>
</g>
<path d="M393.356 353.243H237.176V203.783H393.355C398.956 203.783 403.496 208.327 403.496 213.934V343.09C403.497 348.698 398.957 353.243 393.356 353.243Z" fill="#D65F6D"/>
<path d="M460.798 346.797H278.979C276.248 346.797 274.033 344.58 274.033 341.846V253.835C274.033 251.102 276.248 248.885 278.979 248.885H460.798C463.529 248.885 465.744 251.102 465.744 253.835V341.846C465.744 344.581 463.53 346.797 460.798 346.797Z" fill="#EBE5FD"/>
<path d="M335.291 299.197C335.291 304.778 330.776 309.281 325.217 309.281H296.327C290.768 309.281 286.253 304.778 286.253 299.197C286.253 293.633 290.768 289.114 296.327 289.114H325.217C330.776 289.114 335.291 293.632 335.291 299.197Z" fill="#9D7DF7"/>
<path d="M407.425 268.559C407.425 262.978 411.94 258.476 417.499 258.476H446.39C451.948 258.476 456.464 262.978 456.464 268.559C456.464 274.123 451.948 278.643 446.39 278.643H417.499C411.939 278.643 407.425 274.123 407.425 268.559Z" fill="#9D7DF7"/>
<path d="M456.462 329.834C456.462 335.415 451.947 339.918 446.388 339.918H417.499C411.94 339.918 407.425 335.415 407.425 329.834C407.425 324.27 411.94 319.75 417.499 319.75H446.39C451.948 319.75 456.462 324.27 456.462 329.834Z" fill="#9D7DF7"/>
<path d="M335.291 329.834C335.291 335.415 330.776 339.918 325.217 339.918H296.327C290.768 339.918 286.253 335.415 286.253 329.834C286.253 324.27 290.768 319.75 296.327 319.75H325.217C330.776 319.75 335.291 324.27 335.291 329.834Z" fill="#9D7DF7"/>
<path d="M395.868 329.834C395.868 335.415 391.353 339.918 385.794 339.918H356.904C351.345 339.918 346.83 335.415 346.83 329.834C346.83 324.27 351.345 319.75 356.904 319.75H385.794C391.353 319.75 395.868 324.27 395.868 329.834Z" fill="#9D7DF7"/>
<path d="M335.291 268.559C335.291 274.123 330.776 278.643 325.217 278.643H296.327C290.768 278.643 286.253 274.123 286.253 268.559C286.253 262.978 290.768 258.476 296.327 258.476H325.217C330.776 258.476 335.291 262.978 335.291 268.559Z" fill="#9D7DF7"/>
<path d="M456.462 299.197C456.462 304.761 451.947 309.281 446.388 309.281H417.499C411.94 309.281 407.425 304.761 407.425 299.197C407.425 293.616 411.94 289.114 417.499 289.114H446.39C451.948 289.114 456.462 293.615 456.462 299.197Z" fill="#9D7DF7"/>
<path d="M395.868 268.559C395.868 274.14 391.353 278.643 385.794 278.643H356.904C351.345 278.643 346.83 274.14 346.83 268.559C346.83 262.995 351.345 258.476 356.904 258.476H385.794C391.353 258.476 395.868 262.995 395.868 268.559Z" fill="#9D7DF7"/>
<path d="M395.868 299.197C395.868 304.761 391.353 309.281 385.794 309.281H356.904C351.345 309.281 346.83 304.761 346.83 299.197C346.83 293.616 351.345 289.114 356.904 289.114H385.794C391.353 289.114 395.868 293.615 395.868 299.197Z" fill="#9D7DF7"/>
<path d="M284.562 267.209C284.562 261.628 289.078 257.125 294.636 257.125H323.527C329.086 257.125 333.601 261.628 333.601 267.209C333.601 272.773 329.086 277.292 323.527 277.292H294.636C289.078 277.292 284.562 272.774 284.562 267.209Z" fill="#FFFCF8"/>
<path d="M284.562 267.209C284.562 261.628 289.078 257.125 294.636 257.125H309.09V277.292H294.636C289.078 277.292 284.562 272.774 284.562 267.209Z" fill="#D65F6D"/>
<path d="M288.397 271.602C289.874 273.375 291.221 274.585 293.544 274.879C297.01 275.315 300.574 275.262 304.054 275.078C306.203 274.964 306.215 271.605 304.054 271.718C301.599 271.847 299.146 271.881 296.691 271.755C294.087 271.62 292.51 271.314 290.769 269.226C289.386 267.565 287.023 269.952 288.397 271.602Z" fill="#FFFCF8"/>
<path d="M333.601 297.841C333.601 303.422 329.086 307.924 323.527 307.924H294.636C289.078 307.924 284.562 303.422 284.562 297.841C284.562 292.277 289.078 287.757 294.636 287.757H323.527C329.086 287.757 333.601 292.277 333.601 297.841Z" fill="#FFFCF8"/>
<path d="M333.601 297.841C333.601 303.422 329.086 307.924 323.527 307.924H309.073V287.757H323.526C329.086 287.757 333.601 292.277 333.601 297.841Z" fill="#D65F6D"/>
<path d="M329.766 293.448C328.289 291.674 326.943 290.464 324.62 290.171C321.154 289.734 317.59 289.787 314.11 289.971C311.961 290.085 311.948 293.445 314.11 293.331C316.564 293.202 319.016 293.168 321.472 293.295C324.078 293.429 325.654 293.735 327.394 295.823C328.777 297.485 331.141 295.097 329.766 293.448Z" fill="#FFFCF8"/>
<path d="M333.601 328.474C333.601 334.055 329.086 338.557 323.527 338.557H294.636C289.078 338.557 284.562 334.055 284.562 328.474C284.562 322.91 289.078 318.39 294.636 318.39H323.527C329.086 318.39 333.601 322.91 333.601 328.474Z" fill="#FFFCF8"/>
<path d="M333.601 328.474C333.601 334.055 329.086 338.557 323.527 338.557H309.073V318.39H323.526C329.086 318.39 333.601 322.91 333.601 328.474Z" fill="#D65F6D"/>
<path d="M329.766 324.08C328.289 322.307 326.943 321.097 324.62 320.803C321.154 320.367 317.59 320.42 314.11 320.604C311.961 320.718 311.948 324.078 314.11 323.964C316.564 323.835 319.016 323.801 321.472 323.927C324.078 324.062 325.654 324.368 327.394 326.456C328.777 328.118 331.141 325.73 329.766 324.08Z" fill="#FFFCF8"/>
<path d="M394.191 267.209C394.191 272.789 389.676 277.292 384.117 277.292H355.226C349.667 277.292 345.152 272.789 345.152 267.209C345.152 261.644 349.667 257.125 355.226 257.125H384.117C389.677 257.125 394.191 261.644 394.191 267.209Z" fill="#FFFCF8"/>
<path d="M394.191 267.209C394.191 272.789 389.676 277.292 384.117 277.292H369.664V257.125H384.117C389.677 257.125 394.191 261.644 394.191 267.209Z" fill="#D65F6D"/>
<path d="M390.356 262.815C388.879 261.042 387.532 259.832 385.209 259.538C381.743 259.102 378.179 259.155 374.699 259.339C372.55 259.453 372.538 262.812 374.699 262.697C377.154 262.568 379.607 262.534 382.062 262.661C384.667 262.796 386.243 263.102 387.983 265.189C389.368 266.853 391.73 264.466 390.356 262.815Z" fill="#FFFCF8"/>
<path d="M345.153 297.841C345.153 292.26 349.669 287.757 355.227 287.757H384.118C389.677 287.757 394.192 292.26 394.192 297.841C394.192 303.405 389.677 307.924 384.118 307.924H355.227C349.667 307.924 345.153 303.405 345.153 297.841Z" fill="#FFFCF8"/>
<path d="M345.153 297.841C345.153 292.26 349.669 287.757 355.227 287.757H369.68V307.924H355.227C349.667 307.924 345.153 303.405 345.153 297.841Z" fill="#D65F6D"/>
<path d="M348.987 302.234C350.464 304.007 351.81 305.218 354.133 305.511C357.599 305.948 361.163 305.894 364.643 305.71C366.792 305.597 366.805 302.237 364.643 302.351C362.189 302.48 359.737 302.514 357.281 302.387C354.676 302.252 353.1 301.946 351.359 299.859C349.976 298.196 347.614 300.584 348.987 302.234Z" fill="#FFFCF8"/>
<path d="M394.191 328.474C394.191 334.055 389.676 338.557 384.117 338.557H355.226C349.667 338.557 345.152 334.055 345.152 328.474C345.152 322.91 349.667 318.39 355.226 318.39H384.117C389.677 318.39 394.191 322.91 394.191 328.474Z" fill="#FFFCF8"/>
<path d="M394.191 328.474C394.191 334.055 389.676 338.557 384.117 338.557H369.664V318.39H384.117C389.677 318.39 394.191 322.91 394.191 328.474Z" fill="#D65F6D"/>
<path d="M390.356 324.08C388.879 322.307 387.532 321.097 385.209 320.803C381.743 320.367 378.179 320.42 374.699 320.604C372.55 320.718 372.538 324.078 374.699 323.964C377.154 323.835 379.607 323.801 382.062 323.927C384.667 324.062 386.243 324.368 387.983 326.456C389.368 328.118 391.73 325.73 390.356 324.08Z" fill="#FFFCF8"/>
<path d="M405.743 267.209C405.743 261.628 410.258 257.125 415.817 257.125H444.708C450.267 257.125 454.782 261.628 454.782 267.209C454.782 272.773 450.267 277.292 444.708 277.292H415.817C410.258 277.292 405.743 272.774 405.743 267.209Z" fill="#FFFCF8"/>
<path d="M405.743 267.209C405.743 261.628 410.258 257.125 415.817 257.125H430.27V277.292H415.817C410.258 277.292 405.743 272.774 405.743 267.209Z" fill="#D65F6D"/>
<path d="M409.578 271.602C411.055 273.375 412.401 274.585 414.724 274.879C418.19 275.315 421.754 275.262 425.234 275.078C427.383 274.964 427.396 271.605 425.234 271.718C422.78 271.847 420.327 271.881 417.872 271.755C415.267 271.62 413.691 271.314 411.951 269.226C410.567 267.565 408.203 269.952 409.578 271.602Z" fill="#FFFCF8"/>
<path d="M405.743 297.841C405.743 292.26 410.258 287.757 415.817 287.757H444.708C450.267 287.757 454.782 292.26 454.782 297.841C454.782 303.405 450.267 307.924 444.708 307.924H415.817C410.258 307.924 405.743 303.405 405.743 297.841Z" fill="#FFFCF8"/>
<path d="M405.743 297.841C405.743 292.26 410.258 287.757 415.817 287.757H430.27V307.924H415.817C410.258 307.924 405.743 303.405 405.743 297.841Z" fill="#D65F6D"/>
<path d="M409.578 302.234C411.055 304.007 412.401 305.218 414.724 305.511C418.19 305.948 421.754 305.894 425.234 305.71C427.383 305.597 427.396 302.237 425.234 302.351C422.78 302.48 420.327 302.514 417.872 302.387C415.267 302.252 413.691 301.946 411.951 299.859C410.567 298.196 408.203 300.584 409.578 302.234Z" fill="#FFFCF8"/>
<path d="M454.782 328.474C454.782 334.055 450.267 338.557 444.708 338.557H415.817C410.258 338.557 405.743 334.055 405.743 328.474C405.743 322.91 410.258 318.39 415.817 318.39H444.708C450.267 318.39 454.782 322.91 454.782 328.474Z" fill="#FFFCF8"/>
<path d="M454.782 328.474C454.782 334.055 450.267 338.557 444.708 338.557H430.255V318.39H444.708C450.267 318.39 454.782 322.91 454.782 328.474Z" fill="#D65F6D"/>
<path d="M450.947 324.08C449.47 322.307 448.123 321.097 445.8 320.803C442.334 320.367 438.77 320.42 435.29 320.604C433.141 320.718 433.129 324.078 435.29 323.964C437.745 323.835 440.197 323.801 442.653 323.927C445.258 324.062 446.834 324.368 448.575 326.456C449.958 328.118 452.321 325.73 450.947 324.08Z" fill="#FFFCF8"/>
<path d="M340.589 257.125C340.878 263.911 341.014 270.697 341.127 277.483C341.242 284.269 341.232 291.055 341.291 297.841C341.236 304.627 341.242 311.413 341.129 318.199L340.934 328.378C340.818 331.771 340.749 335.164 340.591 338.557C340.432 335.164 340.363 331.771 340.247 328.378L340.052 318.199C339.94 311.413 339.945 304.627 339.891 297.841C339.95 291.055 339.938 284.269 340.053 277.483C340.164 270.697 340.3 263.912 340.589 257.125Z" fill="#9D7DF7"/>
<path d="M285.624 283.318C299.668 283.028 313.713 282.892 327.756 282.78L369.888 282.616L412.02 282.777L433.085 282.974L454.152 283.318L433.085 283.662L412.02 283.857L369.888 284.018L327.756 283.854C313.713 283.743 299.668 283.608 285.624 283.318Z" fill="#9D7DF7"/>
<path d="M285.624 313.321C299.668 313.032 313.713 312.896 327.756 312.783L369.888 312.619L412.02 312.781L433.085 312.976L454.152 313.32L433.085 313.664L412.02 313.86L369.888 314.022L327.756 313.857C313.713 313.747 299.668 313.61 285.624 313.321Z" fill="#9D7DF7"/>
<path d="M401.023 257.125C401.312 263.911 401.448 270.697 401.56 277.483C401.675 284.269 401.666 291.055 401.723 297.841C401.668 304.627 401.674 311.413 401.562 318.199L401.367 328.378C401.25 331.771 401.182 335.164 401.023 338.557C400.865 335.164 400.796 331.771 400.68 328.378L400.485 318.199C400.372 311.413 400.378 304.627 400.323 297.841C400.382 291.055 400.371 284.269 400.487 277.483C400.598 270.697 400.734 263.912 401.023 257.125Z" fill="#9D7DF7"/>
<path d="M373.172 203.777H206.859V353.245H373.172V203.777Z" fill="#FFFCF8"/>
<path d="M363.624 353.243H206.856V203.78H274.914C274.914 203.78 227.745 269.658 254.126 311.46C280.523 353.243 363.624 353.243 363.624 353.243Z" fill="#9D7DF7"/>
<path d="M290.016 203.252C285.898 211.954 282.011 220.676 278.607 229.549C275.17 238.397 272.117 247.349 269.844 256.398C267.561 265.422 266.053 274.605 266.247 283.503C266.43 292.437 268.562 300.74 273.724 307.623C276.203 311.104 279.155 314.362 282.585 317.208C285.961 320.1 289.605 322.78 293.523 325.136C301.292 329.939 309.78 333.858 318.506 337.272C327.236 340.705 336.249 343.6 345.381 346.22C354.511 348.887 363.787 351.125 373.173 353.241C363.531 353.361 353.913 352.416 344.337 351.076C334.77 349.665 325.261 347.621 315.909 344.791C313.564 344.112 311.255 343.29 308.927 342.526C306.629 341.661 304.314 340.847 302.044 339.872C297.464 338.047 293.008 335.839 288.643 333.396C279.991 328.448 271.643 322.144 265.484 313.474C263.901 311.357 262.639 308.983 261.384 306.627L259.797 302.918C259.278 301.678 258.947 300.371 258.54 299.093C257.136 293.926 256.6 288.677 256.682 283.548C256.861 273.272 259.099 263.455 262.248 254.151C265.409 244.833 269.463 235.947 274.134 227.456C278.868 219.002 283.993 210.791 290.016 203.252Z" fill="#9D7DF7"/>
<path opacity="0.2" d="M373.172 313.864V353.245H206.859V203.777C206.859 203.777 229.281 323.819 373.172 313.864Z" fill="#241A40"/>
<path d="M422.55 378.494H240.731C238 378.494 235.785 376.277 235.785 373.543V285.532C235.785 282.798 238 280.582 240.731 280.582H422.55C425.281 280.582 427.496 282.798 427.496 285.532V373.543C427.496 376.277 425.282 378.494 422.55 378.494Z" fill="#EBE5FD"/>
<path d="M297.043 330.894C297.043 336.475 292.528 340.978 286.97 340.978H258.079C252.52 340.978 248.005 336.475 248.005 330.894C248.005 325.33 252.52 320.811 258.079 320.811H286.97C292.528 320.811 297.043 325.329 297.043 330.894Z" fill="#9D7DF7"/>
<path d="M369.177 300.256C369.177 294.675 373.692 290.172 379.251 290.172H408.142C413.7 290.172 418.216 294.675 418.216 300.256C418.216 305.82 413.7 310.339 408.142 310.339H379.251C373.691 310.339 369.177 305.82 369.177 300.256Z" fill="#9D7DF7"/>
<path d="M418.214 361.531C418.214 367.112 413.699 371.614 408.14 371.614H379.25C373.691 371.614 369.176 367.112 369.176 361.531C369.176 355.967 373.691 351.447 379.25 351.447H408.14C413.7 351.447 418.214 355.967 418.214 361.531Z" fill="#9D7DF7"/>
<path d="M297.043 361.531C297.043 367.112 292.528 371.614 286.97 371.614H258.079C252.52 371.614 248.005 367.112 248.005 361.531C248.005 355.967 252.52 351.447 258.079 351.447H286.97C292.528 351.447 297.043 355.967 297.043 361.531Z" fill="#9D7DF7"/>
<path d="M357.62 361.531C357.62 367.112 353.105 371.614 347.546 371.614H318.656C313.097 371.614 308.582 367.112 308.582 361.531C308.582 355.967 313.097 351.447 318.656 351.447H347.546C353.105 351.447 357.62 355.967 357.62 361.531Z" fill="#9D7DF7"/>
<path d="M297.043 300.256C297.043 305.82 292.528 310.339 286.97 310.339H258.079C252.52 310.339 248.005 305.82 248.005 300.256C248.005 294.675 252.52 290.172 258.079 290.172H286.97C292.528 290.172 297.043 294.675 297.043 300.256Z" fill="#9D7DF7"/>
<path d="M418.214 330.894C418.214 336.458 413.699 340.978 408.14 340.978H379.25C373.691 340.978 369.176 336.458 369.176 330.894C369.176 325.313 373.691 320.811 379.25 320.811H408.14C413.7 320.811 418.214 325.312 418.214 330.894Z" fill="#9D7DF7"/>
<path d="M357.62 300.256C357.62 305.837 353.105 310.339 347.546 310.339H318.656C313.097 310.339 308.582 305.837 308.582 300.256C308.582 294.692 313.097 290.172 318.656 290.172H347.546C353.105 290.172 357.62 294.692 357.62 300.256Z" fill="#9D7DF7"/>
<path d="M357.62 330.894C357.62 336.458 353.105 340.978 347.546 340.978H318.656C313.097 340.978 308.582 336.458 308.582 330.894C308.582 325.313 313.097 320.811 318.656 320.811H347.546C353.105 320.811 357.62 325.312 357.62 330.894Z" fill="#9D7DF7"/>
<path d="M246.315 298.905C246.315 293.324 250.83 288.822 256.389 288.822H285.279C290.838 288.822 295.353 293.324 295.353 298.905C295.353 304.469 290.838 308.989 285.279 308.989H256.389C250.83 308.989 246.315 304.469 246.315 298.905Z" fill="#FFFCF8"/>
<path d="M246.315 298.905C246.315 293.324 250.83 288.822 256.389 288.822H270.843V308.989H256.389C250.83 308.989 246.315 304.469 246.315 298.905Z" fill="#9D7DF7"/>
<path d="M250.149 303.298C251.626 305.072 252.973 306.282 255.296 306.575C258.762 307.012 262.326 306.959 265.806 306.775C267.955 306.661 267.968 303.301 265.806 303.415C263.351 303.544 260.898 303.578 258.443 303.452C255.839 303.317 254.262 303.011 252.523 300.923C251.138 299.262 248.775 301.649 250.149 303.298Z" fill="#FFFCF8"/>
<path d="M246.315 329.538C246.315 323.957 250.83 319.454 256.389 319.454H285.279C290.838 319.454 295.353 323.957 295.353 329.538C295.353 335.102 290.838 339.621 285.279 339.621H256.389C250.83 339.621 246.315 335.102 246.315 329.538Z" fill="#FFFCF8"/>
<path d="M246.315 329.538C246.315 323.957 250.83 319.454 256.389 319.454H270.843V339.621H256.389C250.83 339.621 246.315 335.102 246.315 329.538Z" fill="#9D7DF7"/>
<path d="M250.149 333.931C251.626 335.704 252.973 336.914 255.296 337.208C258.762 337.645 262.326 337.591 265.806 337.407C267.955 337.293 267.968 333.934 265.806 334.047C263.351 334.177 260.898 334.21 258.443 334.084C255.839 333.949 254.262 333.643 252.523 331.555C251.138 329.893 248.775 332.281 250.149 333.931Z" fill="#FFFCF8"/>
<path d="M295.353 360.17C295.353 365.751 290.838 370.254 285.279 370.254H256.389C250.83 370.254 246.315 365.751 246.315 360.17C246.315 354.606 250.83 350.087 256.389 350.087H285.279C290.838 350.087 295.353 354.606 295.353 360.17Z" fill="#FFFCF8"/>
<path d="M295.353 360.17C295.353 365.751 290.838 370.254 285.279 370.254H270.826V350.087H285.279C290.838 350.087 295.353 354.606 295.353 360.17Z" fill="#9D7DF7"/>
<path d="M291.518 355.777C290.041 354.004 288.695 352.794 286.372 352.5C282.906 352.064 279.342 352.117 275.862 352.301C273.713 352.415 273.7 355.774 275.862 355.661C278.316 355.531 280.77 355.498 283.224 355.624C285.831 355.759 287.406 356.065 289.145 358.153C290.529 359.815 292.893 357.427 291.518 355.777Z" fill="#FFFCF8"/>
<path d="M355.943 298.905C355.943 304.486 351.428 308.989 345.869 308.989H316.978C311.419 308.989 306.904 304.486 306.904 298.905C306.904 293.341 311.419 288.822 316.978 288.822H345.869C351.429 288.822 355.943 293.341 355.943 298.905Z" fill="#FFFCF8"/>
<path d="M355.943 298.905C355.943 304.486 351.428 308.989 345.869 308.989H331.416V288.822H345.869C351.429 288.822 355.943 293.341 355.943 298.905Z" fill="#9D7DF7"/>
<path d="M352.108 294.512C350.631 292.739 349.284 291.529 346.962 291.235C343.496 290.798 339.931 290.852 336.451 291.036C334.302 291.149 334.29 294.509 336.451 294.396C338.906 294.266 341.359 294.233 343.814 294.359C346.419 294.494 347.995 294.8 349.735 296.888C351.12 298.55 353.484 296.163 352.108 294.512Z" fill="#FFFCF8"/>
<path d="M306.906 329.538C306.906 323.957 311.421 319.454 316.979 319.454H345.87C351.429 319.454 355.944 323.957 355.944 329.538C355.944 335.102 351.429 339.621 345.87 339.621H316.979C311.421 339.621 306.906 335.102 306.906 329.538Z" fill="#FFFCF8"/>
<path d="M306.906 329.538C306.906 323.957 311.421 319.454 316.979 319.454H331.433V339.621H316.979C311.421 339.621 306.906 335.102 306.906 329.538Z" fill="#9D7DF7"/>
<path d="M310.74 333.931C312.217 335.704 313.564 336.914 315.887 337.208C319.353 337.645 322.917 337.591 326.397 337.407C328.546 337.293 328.558 333.934 326.397 334.047C323.942 334.177 321.489 334.21 319.034 334.084C316.43 333.949 314.853 333.643 313.112 331.555C311.728 329.893 309.366 332.281 310.74 333.931Z" fill="#FFFCF8"/>
<path d="M306.906 360.17C306.906 354.59 311.421 350.087 316.979 350.087H345.87C351.429 350.087 355.944 354.59 355.944 360.17C355.944 365.735 351.429 370.254 345.87 370.254H316.979C311.421 370.254 306.906 365.735 306.906 360.17Z" fill="#FFFCF8"/>
<path d="M306.906 360.17C306.906 354.59 311.421 350.087 316.979 350.087H331.433V370.254H316.979C311.421 370.254 306.906 365.735 306.906 360.17Z" fill="#9D7DF7"/>
<path d="M310.74 364.564C312.217 366.337 313.564 367.547 315.887 367.841C319.353 368.277 322.917 368.224 326.397 368.04C328.546 367.926 328.558 364.567 326.397 364.68C323.942 364.809 321.489 364.843 319.034 364.717C316.43 364.582 314.853 364.276 313.112 362.188C311.728 360.526 309.366 362.914 310.74 364.564Z" fill="#FFFCF8"/>
<path d="M416.534 298.905C416.534 304.486 412.019 308.989 406.46 308.989H377.569C372.01 308.989 367.495 304.486 367.495 298.905C367.495 293.341 372.01 288.822 377.569 288.822H406.46C412.019 288.822 416.534 293.341 416.534 298.905Z" fill="#FFFCF8"/>
<path d="M416.534 298.905C416.534 304.486 412.019 308.989 406.46 308.989H392.005V288.822H406.46C412.019 288.822 416.534 293.341 416.534 298.905Z" fill="#9D7DF7"/>
<path d="M412.699 294.512C411.222 292.739 409.875 291.529 407.552 291.235C404.086 290.798 400.522 290.852 397.042 291.036C394.893 291.149 394.881 294.509 397.042 294.396C399.497 294.266 401.949 294.233 404.405 294.359C407.01 294.494 408.586 294.8 410.326 296.888C411.71 298.55 414.073 296.163 412.699 294.512Z" fill="#FFFCF8"/>
<path d="M416.534 329.538C416.534 335.118 412.019 339.621 406.46 339.621H377.569C372.01 339.621 367.495 335.118 367.495 329.538C367.495 323.974 372.01 319.454 377.569 319.454H406.46C412.019 319.454 416.534 323.974 416.534 329.538Z" fill="#FFFCF8"/>
<path d="M416.534 329.538C416.534 335.118 412.019 339.621 406.46 339.621H392.005V319.454H406.46C412.019 319.454 416.534 323.974 416.534 329.538Z" fill="#9D7DF7"/>
<path d="M412.699 325.144C411.222 323.371 409.875 322.161 407.552 321.867C404.086 321.431 400.522 321.484 397.042 321.668C394.893 321.782 394.881 325.142 397.042 325.028C399.497 324.899 401.949 324.865 404.405 324.991C407.01 325.126 408.586 325.432 410.326 327.52C411.71 329.182 414.073 326.794 412.699 325.144Z" fill="#FFFCF8"/>
<path d="M367.495 360.17C367.495 354.59 372.01 350.087 377.569 350.087H406.46C412.019 350.087 416.534 354.59 416.534 360.17C416.534 365.735 412.019 370.254 406.46 370.254H377.569C372.01 370.254 367.495 365.735 367.495 360.17Z" fill="#FFFCF8"/>
<path d="M367.495 360.17C367.495 354.59 372.01 350.087 377.569 350.087H392.022V370.254H377.569C372.01 370.254 367.495 365.735 367.495 360.17Z" fill="#9D7DF7"/>
<path d="M371.33 364.564C372.807 366.337 374.154 367.547 376.476 367.841C379.942 368.277 383.507 368.224 386.987 368.04C389.135 367.926 389.148 364.567 386.987 364.68C384.532 364.809 382.079 364.843 379.624 364.717C377.018 364.582 375.443 364.276 373.703 362.188C372.319 360.526 369.955 362.914 371.33 364.564Z" fill="#FFFCF8"/>
<path d="M302.341 288.822C302.63 295.607 302.766 302.394 302.879 309.18C302.994 315.965 302.984 322.752 303.043 329.538C302.988 336.323 302.994 343.11 302.881 349.896L302.685 360.075C302.569 363.468 302.5 366.86 302.341 370.254C302.183 366.86 302.114 363.468 301.998 360.075L301.801 349.896C301.689 343.11 301.695 336.323 301.64 329.538C301.699 322.752 301.688 315.965 301.804 309.18C301.916 302.394 302.052 295.609 302.341 288.822Z" fill="#9D7DF7"/>
<path d="M247.376 315.016C261.42 314.727 275.465 314.591 289.508 314.478L331.64 314.314L373.772 314.475L394.839 314.671L415.905 315.015L394.839 315.359L373.772 315.554L331.64 315.715L289.508 315.551C275.465 315.44 261.42 315.305 247.376 315.016Z" fill="#9D7DF7"/>
<path d="M247.376 345.018C261.42 344.729 275.465 344.593 289.508 344.48L331.64 344.316L373.772 344.477L394.839 344.674L415.905 345.018L394.839 345.362L373.772 345.557L331.64 345.719L289.508 345.554C275.465 345.443 261.42 345.307 247.376 345.018Z" fill="#9D7DF7"/>
<path d="M362.775 288.822C363.064 295.607 363.2 302.394 363.312 309.18C363.427 315.965 363.418 322.752 363.477 329.538C363.422 336.323 363.427 343.11 363.315 349.896L363.12 360.075C363.004 363.468 362.935 366.86 362.777 370.254C362.618 366.86 362.549 363.468 362.433 360.075L362.238 349.896C362.126 343.11 362.131 336.323 362.077 329.538C362.136 322.752 362.124 315.965 362.241 309.18C362.35 302.394 362.486 295.609 362.775 288.822Z" fill="#9D7DF7"/>
<path d="M144.136 253.973V418.317C144.136 425.024 138.717 430.465 132.017 430.465H30.0641C23.3636 430.465 17.9451 425.024 17.9451 418.317V253.973C17.9451 242.346 27.371 232.911 38.9879 232.911H123.093C134.725 232.911 144.136 242.346 144.136 253.973Z" fill="#D65F6D"/>
<path d="M123.09 219.309H38.8196V233.43H123.09V219.309Z" fill="#D65F6D"/>
<path opacity="0.2" d="M123.09 219.309H38.8196V229.325H123.09V219.309Z" fill="#241A40"/>
<path d="M137.622 195.881H24.459V219.308H137.622V195.881Z" fill="#9D7DF7"/>
<path d="M92.3117 297.814H69.5983V364.937H92.3117V297.814Z" fill="#FFFCF8"/>
<path d="M47.4253 320.009V342.744H114.484V320.009H47.4253Z" fill="#FFFCF8"/>
<path opacity="0.2" d="M30.5705 198.889H28.2266V216.481H30.5705V198.889Z" fill="#241A40"/>
<path opacity="0.2" d="M36.6356 198.889H34.2917V216.481H36.6356V198.889Z" fill="#241A40"/>
<path opacity="0.2" d="M42.7021 198.889H40.3583V216.481H42.7021V198.889Z" fill="#241A40"/>
<path opacity="0.2" d="M48.7673 198.889H46.4234V216.481H48.7673V198.889Z" fill="#241A40"/>
<path opacity="0.2" d="M54.8324 198.889H52.4885V216.481H54.8324V198.889Z" fill="#241A40"/>
<path opacity="0.2" d="M60.8975 198.889H58.5536V216.481H60.8975V198.889Z" fill="#241A40"/>
<path opacity="0.2" d="M66.9641 198.889H64.6202V216.481H66.9641V198.889Z" fill="#241A40"/>
<path opacity="0.2" d="M73.0292 198.889H70.6854V216.481H73.0292V198.889Z" fill="#241A40"/>
<path opacity="0.2" d="M79.0944 198.889H76.7505V216.481H79.0944V198.889Z" fill="#241A40"/>
<path opacity="0.2" d="M85.1595 198.889H82.8156V216.481H85.1595V198.889Z" fill="#241A40"/>
<path opacity="0.2" d="M91.226 198.889H88.8821V216.481H91.226V198.889Z" fill="#241A40"/>
<path opacity="0.2" d="M97.2911 198.889H94.9473V216.481H97.2911V198.889Z" fill="#241A40"/>
<path opacity="0.2" d="M103.356 198.889H101.012V216.481H103.356V198.889Z" fill="#241A40"/>
<path opacity="0.2" d="M109.421 198.889H107.078V216.481H109.421V198.889Z" fill="#241A40"/>
<path opacity="0.2" d="M115.488 198.889H113.144V216.481H115.488V198.889Z" fill="#241A40"/>
<path opacity="0.2" d="M121.553 198.889H119.209V216.481H121.553V198.889Z" fill="#241A40"/>
<path opacity="0.2" d="M127.618 198.889H125.274V216.481H127.618V198.889Z" fill="#241A40"/>
<path opacity="0.2" d="M133.683 198.889H131.339V216.481H133.683V198.889Z" fill="#241A40"/>
<path opacity="0.2" d="M144.136 412.617V418.317C144.136 425.024 138.717 430.464 132.017 430.464H30.0641C23.3636 430.464 17.9451 425.024 17.9451 418.317V276.156C17.9451 276.156 24.2893 400.128 88.8765 416.903C111.995 422.912 130.231 419.486 144.136 412.617Z" fill="#241A40"/>
<path d="M224.461 245.854H149.071C149.071 245.854 158.01 341.261 154.18 374.828C153.84 377.768 153.499 380.788 153.126 383.84C149.963 387.137 146.944 390.27 144.186 393.113C135.88 401.688 129.829 407.794 129.066 408.508C127.946 409.564 132.035 416.044 137.405 423.026C140.471 427.037 143.959 431.211 147.156 434.637C146.052 446.02 145.679 454.043 146.847 455.114C149.686 457.745 192.827 463.332 194.27 460.376C195.713 457.421 173.454 446.557 173.454 446.557C173.454 446.557 180.106 423.903 185.055 391.002L185.071 390.985C188.024 388.289 191.026 385.497 194.043 382.671C213.642 364.303 233.305 344.296 236.144 335.512C242.067 317.243 224.461 245.854 224.461 245.854ZM201.896 325.182C201.766 326.774 201.523 328.089 201.133 329.097C200.209 331.5 195.974 336.941 189.971 343.908C189.939 343.957 189.89 344.004 189.857 344.054C189.988 341.568 190.085 339.068 190.166 336.551V336.501C190.798 316.771 190.02 296.033 186.84 275.783L194.336 273.152C194.336 273.152 203.097 310.356 201.896 325.182Z" fill="#302355"/>
<path d="M194.044 382.671C191.027 385.497 188.025 388.29 185.073 390.985L185.056 391.002C185.056 391.002 185.056 391.002 185.056 390.985C185.056 390.968 185.073 390.936 185.073 390.904C185.073 390.871 185.088 390.839 185.088 390.79C185.105 390.644 185.137 390.433 185.185 390.172C185.217 389.913 185.266 389.653 185.299 389.408C185.753 386.242 186.808 378.723 187.814 369.694C187.976 368.167 188.154 366.592 188.3 365C189.03 358.13 189.664 350.725 189.971 343.905C195.974 336.938 200.208 331.498 201.133 329.094C201.523 328.087 201.766 326.772 201.896 325.18C201.896 325.182 203.34 355.583 194.044 382.671Z" fill="#241A40"/>
<path d="M153.127 383.84C153.127 383.84 149.233 418.463 147.157 434.637C143.961 431.211 140.474 427.037 137.406 423.025L144.188 393.112C146.945 390.27 149.963 387.136 153.127 383.84Z" fill="#241A40"/>
<path d="M283.419 142.228C283.046 142.001 282.673 141.758 282.283 141.514C278.454 139.127 274.026 136.805 270.846 135.603C270.149 135.343 269.516 135.133 268.963 134.97C267.925 134.71 267.146 134.645 266.772 134.873C266.269 135.165 265.329 136.643 264.096 138.867C258.596 148.708 247.597 173.133 246.493 173.587C245.131 174.123 216.575 128.652 210.573 124.593C208.302 123.05 203.467 121.296 198.259 119.721C194.852 118.665 191.282 117.723 188.168 116.944C188.055 116.927 187.941 116.895 187.844 116.879C187.682 116.83 187.52 116.798 187.375 116.765C186.774 116.619 186.206 116.473 185.655 116.343C185.363 116.294 185.087 116.229 184.812 116.165C183.643 115.905 182.605 115.694 181.746 115.514C180.335 115.255 179.393 115.109 179.085 115.158C177.803 115.321 176.327 115.58 174.737 115.922C171.833 116.506 168.523 117.334 165.132 118.276C164.629 118.422 164.11 118.568 163.591 118.714C163.072 118.877 162.553 119.023 162.034 119.185C161.807 119.234 161.596 119.315 161.369 119.38C161.288 119.397 161.206 119.429 161.125 119.444C159.778 119.85 158.432 120.273 157.118 120.695C150.125 122.968 144.139 125.372 142.792 126.688C139.953 129.465 101.437 180.489 104.066 189.956C104.617 191.986 114.984 199.326 126.05 207.95C132.426 212.935 139.046 218.359 144.14 223.426C143.329 245.512 141.951 266.737 139.678 272.647C138.688 275.214 166.577 290.397 197.176 287.198C198.538 287.052 199.739 278.998 200.989 273.768C201.589 271.332 202.19 269.514 202.822 269.4C203.714 269.237 204.331 271.527 204.883 274.418C205.792 279.257 206.489 285.769 207.998 285.314C214.861 283.301 224.075 279.436 230.533 274.808C230.696 274.694 230.81 274.126 230.874 273.151C231.442 265 228.878 228.963 226.688 207.593C226.088 201.601 225.505 196.761 225.018 194.016C225.018 194.016 250.004 207.95 255.682 205.514C257.579 204.702 261.831 198.466 266.73 190.411C275.346 176.282 285.972 156.535 289.315 150.607C289.818 149.764 290.142 149.195 290.305 148.968C291.061 147.864 287.766 145.055 283.419 142.228ZM139.462 183.298C138.311 182.438 137.32 181.74 136.51 181.236C134.887 180.212 145.352 164.574 145.352 164.574C145.352 164.574 145.335 167.594 145.288 172.629C145.238 176.576 145.174 181.772 145.077 187.715C142.983 186.011 141.07 184.5 139.462 183.298Z" fill="#FFFCF8"/>
<path d="M195.228 123.781L184.601 136.773L155.803 129.87C155.803 129.87 163.915 122.968 165.132 118.292C165.57 116.587 164.775 112.737 163.608 108.531C161.515 101.174 158.237 92.7305 158.237 92.7305H184.001C184.001 92.7305 184.537 107.07 185.266 113.729C185.444 115.304 185.624 116.457 185.818 116.879C186.823 119.105 195.228 123.781 195.228 123.781Z" fill="#F4D1A2"/>
<path d="M185.266 113.729C178.246 114.105 169.594 112.312 163.608 108.533C161.515 101.176 158.237 92.7319 158.237 92.7319H184.001C184.001 92.7319 184.536 107.071 185.266 113.729Z" fill="#D3AA7D"/>
<path d="M161.446 118.233C161.446 118.233 193.869 171.044 196.708 176.83C196.708 176.83 191.075 126.928 186.857 115.154C186.857 115.154 175.406 121.864 161.446 118.233Z" fill="#9D7DF7"/>
<path opacity="0.2" d="M161.446 118.233C161.446 118.233 193.869 171.044 196.708 176.83C196.708 176.83 191.075 126.928 186.857 115.154C186.857 115.154 175.406 121.864 161.446 118.233Z" fill="#302355"/>
<path d="M180.105 117.285C178.758 117.285 174.804 123.918 174.629 124.864C174.455 125.81 178.347 128.315 179.09 128.653C179.834 128.992 184.547 127.3 185.266 126.691C185.986 126.081 187.135 121.886 186.797 120.938C186.459 119.992 181.321 117.285 180.105 117.285Z" fill="#302355"/>
<path d="M179.09 128.653C179.09 128.653 181.018 156.701 182.944 159.644C184.871 162.588 197.636 182.65 197.636 182.65C197.893 181.737 198.458 156.159 197.951 154.637C197.444 153.115 185.266 126.692 185.266 126.692C185.266 126.692 180.51 127.029 179.09 128.653Z" fill="#302355"/>
<path d="M187.752 114.752C187.832 113.226 204.575 123.104 204.711 124.323C204.846 125.542 195.228 127.165 195.228 127.165C195.228 127.165 205.252 132.984 205.658 134.338C206.064 135.691 198.763 145.334 197.952 183.344C197.952 183.344 187.422 121.015 187.752 114.752Z" fill="#EBE5FD"/>
<path d="M160.708 118.96C159.184 118.151 145.087 130.005 145.358 131.224C145.628 132.443 163.475 132.577 163.475 132.577C163.475 132.577 152.253 139.885 153.335 141.239C154.416 142.592 189.434 167.933 197.951 183.343C197.951 183.343 171.53 124.695 160.708 118.96Z" fill="#EBE5FD"/>
<path d="M180.002 116.778C176.198 117.866 165.919 111.352 164.093 111.656C162.268 111.961 159.327 117.035 159.835 117.848C160.341 118.659 168.486 128.247 170.492 129.161C172.498 130.075 180.002 117.591 180.002 117.591C180.002 117.591 186.999 123.173 188.013 123.173C189.027 123.173 188.34 111.729 185.534 110.487C184.16 109.876 182.843 115.965 180.002 116.778Z" fill="#9D7DF7"/>
<path d="M197.951 183.343C198.927 190.467 199.669 197.619 200.341 204.775C201.013 211.933 201.501 219.105 202 226.276C202.378 233.455 202.739 240.636 202.912 247.826C203.058 255.015 203.09 262.209 202.818 269.394C202.627 265.802 202.554 262.213 202.341 258.626C202.213 255.037 202.011 251.451 201.835 247.867C201.439 240.697 201.088 233.526 200.602 226.362L197.951 183.343Z" fill="#EBE5FD"/>
<path d="M145.353 187.929C150.045 190.963 154.436 194.394 158.694 197.983C160.808 199.795 162.897 201.64 164.894 203.588C166.903 205.521 168.836 207.547 170.586 209.726L164.163 204.402L157.787 199.051C153.572 195.44 149.357 191.825 145.353 187.929Z" fill="#EBE5FD"/>
<path d="M207.844 195.881C207.844 197.032 206.912 197.964 205.762 197.964C204.612 197.964 203.681 197.032 203.681 195.881C203.681 194.73 204.612 193.797 205.762 193.797C206.911 193.797 207.844 194.73 207.844 195.881Z" fill="#EBE5FD"/>
<path d="M209.06 210.502C209.06 211.653 208.128 212.586 206.978 212.586C205.828 212.586 204.897 211.653 204.897 210.502C204.897 209.351 205.829 208.418 206.978 208.418C208.127 208.418 209.06 209.351 209.06 210.502Z" fill="#EBE5FD"/>
<path d="M210.11 225.231C210.11 226.383 209.178 227.315 208.029 227.315C206.879 227.315 205.947 226.383 205.947 225.231C205.947 224.08 206.879 223.148 208.029 223.148C209.179 223.148 210.11 224.08 210.11 225.231Z" fill="#EBE5FD"/>
<path d="M209.06 253.932C210.209 253.932 211.141 252.999 211.141 251.849C211.141 250.698 210.209 249.765 209.06 249.765C207.91 249.765 206.978 250.698 206.978 251.849C206.978 252.999 207.91 253.932 209.06 253.932Z" fill="#EBE5FD"/>
<path d="M209.06 240.624C210.209 240.624 211.141 239.691 211.141 238.54C211.141 237.389 210.209 236.457 209.06 236.457C207.91 236.457 206.978 237.389 206.978 238.54C206.978 239.691 207.91 240.624 209.06 240.624Z" fill="#EBE5FD"/>
<path d="M291.729 150.946C291.729 150.946 270.844 148.85 263.402 137.914C261.916 135.731 267.273 128.246 267.91 128.181C275.285 127.436 294.059 138.348 294.464 140.555C294.868 142.762 292.674 150.578 291.729 150.946Z" fill="#EBE5FD"/>
<path d="M268.292 135.428C268.292 135.428 276.999 142.088 285.031 141.595C285.031 141.595 286.956 134.07 288.776 133.206C290.598 132.343 297.87 131.48 302.059 129.013C306.249 126.546 319.307 111.619 315.364 109.275C311.421 106.932 302.8 118.404 299.965 119.391C297.13 120.378 281.496 118.281 277.897 121.242C274.298 124.203 275.037 129.26 274.668 130.37C274.296 131.481 268.292 135.428 268.292 135.428Z" fill="#D3AA7D"/>
<path d="M270.483 136.291C270.483 136.291 279.19 142.953 287.222 142.459C287.222 142.459 289.146 134.935 290.967 134.07C292.789 133.206 300.061 132.343 304.25 129.876C308.44 127.409 321.498 112.483 317.555 110.139C313.61 107.795 304.991 119.267 302.156 120.254C299.321 121.241 280.269 117.788 276.67 120.747C273.07 123.708 273.81 129.26 273.441 130.369C273.07 131.481 270.483 136.291 270.483 136.291Z" fill="#F4D1A2"/>
<path opacity="0.1" d="M200.985 273.769C199.735 278.998 198.534 287.052 197.172 287.2C166.573 290.399 138.685 275.215 139.674 272.649C141.945 266.738 143.324 245.512 144.136 223.427C144.136 223.427 146.919 225.137 149.885 228.308C150.207 228.65 148.97 229.728 149.278 230.151C152.32 234.312 157.97 236.458 157.97 236.458C165.433 257.697 175.464 268.637 200.985 273.769Z" fill="#241A40"/>
<path opacity="0.1" d="M230.87 273.151C230.805 274.126 230.692 274.694 230.529 274.808C224.071 279.436 214.857 283.301 207.994 285.314C206.484 285.769 205.787 279.257 204.878 274.418C212.52 275.424 221.135 275.117 230.87 273.151Z" fill="#241A40"/>
<path d="M144.143 223.433C145.585 223.791 146.774 224.518 147.888 225.347C148.429 225.781 148.96 226.233 149.428 226.761C149.901 227.28 150.341 227.849 150.649 228.535C149.264 228.017 148.132 227.284 147.032 226.459C145.962 225.602 144.937 224.688 144.143 223.433Z" fill="#EBE5FD"/>
<path d="M149.278 230.15C149.278 230.15 154.011 212.016 171.652 208.419C174.239 207.891 179.362 215.562 179.09 216.143C174.832 225.232 160.173 236.876 157.97 236.456C155.768 236.037 149.278 231.165 149.278 230.15Z" fill="#EBE5FD"/>
<path d="M180.407 222.877C180.407 222.877 187.818 222.212 191.059 221.155C194.301 220.097 193.588 227.638 185.771 228.262C177.954 228.885 180.407 222.877 180.407 222.877Z" fill="#D3AA7D"/>
<path d="M158.156 225.604C158.156 225.604 162.944 215.075 174.342 216.114C174.342 216.114 187.735 226.403 189.063 232.364C190.392 238.325 187.832 248.153 185.689 247.823C183.547 247.494 184.409 234.661 183.262 233.58C182.115 232.497 179.953 228.77 179.953 228.77C179.953 228.77 182.556 233.01 182.767 234.579C182.977 236.149 184.665 248.708 181.677 249.717C178.689 250.727 178.71 236.048 177.929 235.185C177.149 234.321 173.767 229.842 173.767 229.842C173.767 229.842 176.467 233.688 177.263 235.385C178.058 237.083 179.646 247.611 176.773 248.092C173.901 248.572 173.551 238.366 172.785 236.926C172.335 236.078 168.862 232.094 168.862 232.094C168.862 232.094 172.898 234.829 172.412 238.637C172.196 240.335 173.52 247.242 170.67 246.619C167.82 245.995 167.486 237.385 166.501 235.551C165.518 233.715 160.407 233.407 158.156 225.604Z" fill="#F4D1A2"/>
<path opacity="0.1" d="M266.725 190.413C261.825 198.467 257.574 204.702 255.676 205.515C249.998 207.951 225.012 194.018 225.012 194.018C225.499 196.763 226.082 201.602 226.683 207.595L219.869 166.817C219.869 166.817 219.869 166.817 219.885 166.834C219.885 166.849 219.902 166.866 219.902 166.866C220.925 167.971 247.824 197.299 255.952 195.885C258.678 195.397 262.636 193.188 266.725 190.413Z" fill="#241A40"/>
<path d="M225.011 194.016C224.199 190.745 223.5 187.46 222.8 184.176L220.762 174.32L218.762 164.466C218.439 162.821 218.065 161.191 217.69 159.555L217.119 157.105L216.474 154.668C217.923 157.722 218.906 160.969 219.811 164.211C220.723 167.457 221.464 170.744 222.137 174.04C222.783 177.343 223.394 180.652 223.858 183.985C224.338 187.317 224.771 190.654 225.011 194.016Z" fill="#EBE5FD"/>
<path d="M198.04 56.5677C198.04 56.5677 207.811 46.6681 214.163 54.7411C220.55 62.8604 209.092 78.2876 198.04 74.939V56.5677Z" fill="#D3AA7D"/>
<path d="M199.764 70.439C201.318 59.207 211.729 58.8013 211.729 58.8013L199.764 70.439Z" fill="#D3AA7D"/>
<path d="M210.614 66.1764C210.614 66.1764 204.682 64.4509 199.764 70.439L210.614 66.1764Z" fill="#D3AA7D"/>
<path d="M195.922 14.1655C207.82 21.8566 208.294 55.7787 209.713 66.1318C211.133 76.4849 212.35 92.7235 199.979 98.4083C187.609 104.092 158.811 106.528 146.034 78.7186C133.257 50.9082 137.312 29.8805 145.628 20.2561C158.607 5.23329 186.188 7.8714 195.922 14.1655Z" fill="#F4D1A2"/>
<path d="M149.819 69.7289C155.196 68.2954 151.848 39.0656 148.333 33.517C148.333 33.517 179.428 36.9006 186.189 33.517C192.949 30.1333 182.133 24.3151 182.133 24.3151C182.133 24.3151 200.767 30.1768 214.715 22.285C227.154 15.2481 225.865 5.43977 223.368 4.01611C217.285 0.546831 214.839 6.45206 185.377 6.58684C185.377 6.58684 188.484 3.33939 187.54 1.3092C186.596 -0.720983 158.437 1.30921 142.231 18.6318C142.231 18.6318 143.69 10.9182 140.399 10.9182C137.11 10.9182 136.772 17.0073 136.806 22.4212C136.806 22.4212 125.753 23.6398 126.023 27.9698C126.294 32.2997 134.947 29.729 134.947 29.729C134.947 29.729 127.375 35.0066 132.513 49.0803C137.651 63.154 142.924 71.5668 149.819 69.7289Z" fill="#6045AA"/>
<path d="M149.38 71.1257C149.38 66.1232 146.041 61.5532 141.15 60.5227C138.501 59.9653 135.639 60.4651 133.257 63.4922C126.869 71.6115 138.327 87.0386 149.379 83.6901L149.38 71.1257Z" fill="#F4D1A2"/>
<path d="M147.657 79.1905C146.102 67.9585 135.692 67.5527 135.692 67.5527L147.657 79.1905Z" fill="#D3AA7D"/>
<path d="M136.806 74.9279C136.806 74.9279 142.737 73.2024 147.655 79.1905L136.806 74.9279Z" fill="#D3AA7D"/>
<path d="M175.323 43.3943C173.679 39.8857 158.886 44.0387 159.833 48.3631C160.78 52.6874 176.968 46.9029 175.323 43.3943Z" fill="#6045AA"/>
<path d="M195.203 39.7126C196.035 36.3037 209.569 37.5771 209.48 41.6009C209.394 45.6248 194.371 43.1215 195.203 39.7126Z" fill="#6045AA"/>
<path d="M177.216 60.9608C177.216 63.3209 175.389 65.2346 173.133 65.2346C170.879 65.2346 169.05 63.3209 169.05 60.9608C169.05 58.6007 170.878 56.687 173.133 56.687C175.389 56.687 177.216 58.6007 177.216 60.9608Z" fill="#302355"/>
<path d="M207.57 56.4992C207.57 58.7554 205.822 60.5848 203.666 60.5848C201.511 60.5848 199.763 58.7554 199.763 56.4992C199.763 54.2429 201.511 52.4121 203.666 52.4121C205.822 52.4135 207.57 54.2429 207.57 56.4992Z" fill="#302355"/>
<path d="M192.779 46.3789C193.208 48.7306 193.577 51.0809 193.894 53.4298L194.399 56.9384L194.677 58.6695C194.776 59.2143 194.908 59.8559 195.062 60.2013L195.058 60.1929C195.058 60.1929 195.06 60.2013 195.044 60.1844C195.011 60.1409 194.963 60.1002 194.908 60.0721C194.869 60.0455 194.762 60.0272 194.775 60.03L194.796 60.0314L194.838 60.0384C194.931 60.0426 195.05 60.0469 195.187 60.0384C195.451 60.0272 195.747 59.9963 196.039 59.9696C196.632 59.9163 197.244 59.8489 197.893 59.87C198.526 59.9345 199.276 59.8882 199.998 60.593C200.174 60.746 200.276 61.0198 200.349 61.2094C200.397 61.3947 200.442 61.5786 200.449 61.7611C200.484 62.1276 200.433 62.4786 200.366 62.8198C200.045 64.1873 199.032 65.1995 197.931 65.7752C196.803 66.3312 195.6 66.6077 194.402 66.6218C195.549 66.2975 196.669 65.8819 197.566 65.1925C198.477 64.5439 199.147 63.6046 199.292 62.6134C199.313 62.3691 199.327 62.122 199.279 61.8987C199.266 61.7822 199.233 61.6811 199.202 61.5786C199.151 61.5084 199.165 61.4719 199.104 61.4382C198.966 61.2683 198.394 61.1841 197.878 61.2023C197.339 61.2122 196.768 61.2683 196.182 61.3371C195.883 61.3694 195.59 61.4073 195.26 61.4284C195.102 61.441 194.924 61.4452 194.72 61.434L194.541 61.4115C194.492 61.4003 194.441 61.4172 194.225 61.3006C194.141 61.2515 194.062 61.1897 193.999 61.1237C193.96 61.0788 193.949 61.0577 193.924 61.0226C193.88 60.9595 193.838 60.8907 193.803 60.8247C193.496 60.0721 193.444 59.5274 193.327 58.9082C193.232 58.3059 193.146 57.712 193.086 57.1139C192.97 55.9191 192.86 54.7313 192.81 53.5393C192.674 51.1539 192.668 48.7671 192.779 46.3789Z" fill="#D3AA7D"/>
<path d="M189.731 86.2468C189.731 86.2468 188.756 80.7123 194.096 76.9257C194.096 76.9257 185.749 76.468 183.028 75.5049C180.307 74.5403 173.355 73.4382 172.818 78.0489C171.857 86.2946 181.963 87.3097 189.731 86.2468Z" fill="#FFFCF8"/>
<path d="M172.506 78.1699C174.774 79.0207 177.038 79.7803 179.351 80.3826C180.501 80.7013 181.668 80.9583 182.84 81.1969C184.011 81.4497 185.199 81.5971 186.398 81.7992C183.979 81.9888 181.52 81.6883 179.172 81.0607C177.998 80.742 176.838 80.363 175.723 79.8744C174.606 79.3942 173.512 78.8551 172.506 78.1699Z" fill="#D7D7D7"/>
<path d="M198.564 75.7928C195.134 77.1238 191.344 77.6812 187.596 77.1673C185.686 76.902 183.987 76.3053 182.201 76.0048C180.443 75.6608 178.646 75.3983 176.981 75.6398C176.15 75.7465 175.38 76.0203 174.767 76.4906C174.153 76.9511 173.699 77.6489 173.417 78.3902C173.135 79.1245 173.059 79.9332 173.276 80.704C173.492 81.4734 173.923 82.1937 174.471 82.8395C175.622 84.1003 177.219 85.0003 178.921 85.5478C180.616 86.1572 182.432 86.4239 184.265 86.5798C180.654 86.8409 176.622 86.32 173.691 83.585C172.996 82.8886 172.398 82.0378 172.094 81.0396C171.774 80.0455 171.826 78.9266 172.165 77.9452C172.502 76.9694 173.086 76.068 173.93 75.4053C174.77 74.7468 175.793 74.3874 176.776 74.2526C180.746 73.8034 184.342 75.293 187.78 76.1087C189.523 76.4752 191.336 76.5833 193.144 76.4934C194.957 76.4541 196.768 76.1873 198.564 75.7928Z" fill="#D3AA7D"/>
<path d="M481.093 402.667C481.421 410.338 475.481 416.791 467.841 417.119L428.132 418.823C420.492 419.15 414.022 413.229 413.693 405.558C413.367 397.91 419.306 391.432 426.946 391.105L466.654 389.402C474.296 389.073 480.766 395.019 481.093 402.667Z" fill="#FFFCF8"/>
<path d="M481.093 402.667C481.421 410.338 475.481 416.791 467.841 417.119L447.975 417.972L446.788 390.254L466.654 389.402C474.296 389.073 480.766 395.019 481.093 402.667Z" fill="#9D7DF7"/>
<path d="M475.565 396.854C473.43 394.504 471.508 392.919 468.299 392.653C463.51 392.258 458.614 392.541 453.842 392.999C450.895 393.281 451.074 397.9 454.04 397.615C457.405 397.292 460.775 397.101 464.157 397.131C467.747 397.162 469.93 397.49 472.444 400.258C474.444 402.462 477.551 399.042 475.565 396.854Z" fill="#FFFCF8"/>
<path d="M441.385 420.055C443.998 427.274 440.267 435.214 433.077 437.823L395.71 451.375C388.52 453.983 380.572 450.278 377.959 443.06C375.354 435.863 379.077 427.901 386.267 425.292L423.634 411.739C430.824 409.132 438.78 412.858 441.385 420.055Z" fill="#FFFCF8"/>
<path d="M441.385 420.055C443.998 427.274 440.267 435.214 433.077 437.823L414.382 444.603L404.941 418.519L423.636 411.739C430.824 409.132 438.78 412.858 441.385 420.055Z" fill="#9D7DF7"/>
<path d="M434.367 416.173C431.627 414.572 429.318 413.637 426.177 414.349C421.489 415.409 416.904 417.152 412.49 419.022C409.765 420.176 411.32 424.528 414.062 423.366C417.176 422.047 420.332 420.852 423.568 419.865C427.001 418.818 429.183 418.474 432.411 420.358C434.98 421.858 436.919 417.661 434.367 416.173Z" fill="#FFFCF8"/>
<path d="M496.228 439.909C495.26 447.526 488.318 452.885 480.732 451.92L441.306 446.901C433.719 445.935 428.339 439.008 429.307 431.391C430.272 423.797 437.216 418.414 444.802 419.38L484.228 424.399C491.815 425.364 497.193 432.316 496.228 439.909Z" fill="#FFFCF8"/>
<path d="M496.228 439.909C495.26 447.526 488.318 452.885 480.733 451.92L461.008 449.41L464.505 421.889L484.229 424.399C491.815 425.364 497.193 432.316 496.228 439.909Z" fill="#D65F6D"/>
<path d="M491.756 433.249C490.048 430.573 488.421 428.686 485.301 427.882C480.647 426.683 475.773 426.139 470.992 425.785C468.041 425.567 467.439 430.15 470.41 430.369C473.782 430.619 477.136 430.999 480.465 431.599C483.996 432.235 486.095 432.926 488.108 436.079C489.708 438.587 493.347 435.739 491.756 433.249Z" fill="#FFFCF8"/>
<path d="M332.504 409.035C332.504 410.592 330.931 412.062 328.204 413.271C325.284 414.584 321.07 415.599 316.088 416.176C314.549 416.368 312.94 416.509 311.263 416.596C309.724 416.683 308.15 416.718 306.524 416.718C297.467 416.718 289.494 415.335 284.845 413.27C282.135 412.045 280.544 410.592 280.544 409.034C280.544 405.831 287.189 403.084 296.612 401.928C298.15 401.736 299.759 401.595 301.437 401.508C303.081 401.403 304.777 401.351 306.524 401.351C320.878 401.352 332.504 404.782 332.504 409.035Z" fill="#FFFCF8"/>
<path d="M332.504 409.035V417.505C332.504 417.873 332.417 418.24 332.242 418.608C330.441 422.318 319.619 425.188 306.523 425.188C293.444 425.188 282.623 422.318 280.803 418.608C280.628 418.24 280.541 417.872 280.541 417.505V409.035C280.541 410.592 282.132 412.045 284.842 413.271C289.493 415.336 297.464 416.719 306.521 416.719C308.147 416.719 309.721 416.684 311.26 416.597C312.939 416.51 314.546 416.37 316.085 416.177H316.137C316.748 416.107 317.343 416.037 317.919 415.932C318.549 415.845 319.178 415.756 319.791 415.652C320.315 415.547 320.84 415.46 321.329 415.355C321.871 415.249 322.414 415.127 322.92 415.005C323.48 414.865 324.039 414.726 324.564 414.567C324.983 414.462 325.386 414.323 325.77 414.199C326.225 414.059 326.644 413.901 327.047 413.744C327.449 413.587 327.833 413.43 328.201 413.272C330.932 412.062 332.504 410.592 332.504 409.035Z" fill="#EBE5FD"/>
<path d="M316.088 416.176C314.549 416.368 312.94 416.509 311.262 416.596L296.61 401.93C298.149 401.737 299.758 401.597 301.435 401.51L316.088 416.176Z" fill="#EBE5FD"/>
<path d="M209.803 424.793C209.803 426.35 211.377 427.82 214.104 429.029C217.024 430.342 221.238 431.357 226.22 431.934C227.759 432.127 229.368 432.267 231.045 432.354C232.584 432.441 234.158 432.476 235.783 432.476C244.84 432.476 252.813 431.093 257.463 429.028C260.173 427.804 261.764 426.35 261.764 424.792C261.764 421.59 255.119 418.842 245.696 417.686C244.157 417.494 242.548 417.354 240.871 417.267C239.227 417.161 237.531 417.109 235.783 417.109C221.43 417.112 209.803 420.542 209.803 424.793Z" fill="#FFFCF8"/>
<path d="M209.803 424.793V433.264C209.803 433.632 209.89 433.998 210.066 434.366C211.867 438.077 222.69 440.946 235.785 440.946C248.863 440.946 259.685 438.077 261.504 434.366C261.679 433.998 261.766 433.632 261.766 433.264V424.793C261.766 426.35 260.176 427.804 257.466 429.029C252.815 431.095 244.842 432.478 235.786 432.478C234.161 432.478 232.587 432.442 231.048 432.355C229.369 432.268 227.762 432.128 226.223 431.936H226.171C225.559 431.865 224.965 431.795 224.388 431.691C223.758 431.604 223.13 431.516 222.517 431.412C221.992 431.307 221.468 431.22 220.978 431.114C220.437 431.009 219.894 430.887 219.388 430.765C218.828 430.624 218.268 430.485 217.744 430.327C217.324 430.221 216.922 430.082 216.537 429.959C216.083 429.818 215.664 429.661 215.261 429.504C214.858 429.347 214.474 429.189 214.107 429.031C211.377 427.822 209.803 426.352 209.803 424.793Z" fill="#EBE5FD"/>
<path d="M226.221 431.934C227.76 432.127 229.369 432.267 231.047 432.354L245.697 417.688C244.159 417.495 242.55 417.355 240.872 417.268L226.221 431.934Z" fill="#EBE5FD"/>
<path d="M294.356 451.956C294.356 453.513 295.93 454.983 298.657 456.191C301.577 457.504 305.79 458.519 310.773 459.096C312.311 459.289 313.92 459.429 315.598 459.516C317.137 459.603 318.71 459.638 320.336 459.638C329.393 459.638 337.366 458.255 342.016 456.19C344.726 454.964 346.316 453.513 346.316 451.954C346.316 448.752 339.672 446.004 330.249 444.849C328.71 444.656 327.101 444.516 325.424 444.429C323.78 444.323 322.084 444.271 320.336 444.271C305.983 444.273 294.356 447.703 294.356 451.956Z" fill="#FFFCF8"/>
<path d="M294.356 451.956V460.426C294.356 460.794 294.443 461.16 294.618 461.528C296.419 465.237 307.242 468.109 320.338 468.109C333.416 468.109 344.238 465.239 346.057 461.528C346.232 461.16 346.319 460.792 346.319 460.426V451.956C346.319 453.513 344.728 454.966 342.019 456.191C337.367 458.257 329.395 459.64 320.339 459.64C318.713 459.64 317.139 459.605 315.601 459.517C313.922 459.43 312.314 459.29 310.776 459.098H310.722C310.111 459.028 309.516 458.957 308.939 458.852C308.31 458.765 307.681 458.676 307.068 458.573C306.544 458.467 306.019 458.38 305.53 458.275C304.988 458.17 304.445 458.047 303.939 457.925C303.379 457.785 302.82 457.645 302.295 457.487C301.876 457.382 301.473 457.243 301.089 457.119C300.634 456.979 300.215 456.822 299.812 456.665C299.41 456.507 299.025 456.35 298.658 456.193C295.928 454.983 294.356 453.513 294.356 451.956Z" fill="#EBE5FD"/>
<path d="M310.773 459.095C312.311 459.287 313.92 459.428 315.598 459.515L330.249 444.85C328.71 444.658 327.101 444.517 325.424 444.43L310.773 459.095Z" fill="#EBE5FD"/>
<path d="M291.824 392.292C292.513 393.531 292.77 394.93 292.633 396.448C292.485 398.233 291.81 400.151 290.684 402.12C288.982 405.07 286.291 408.111 282.822 410.905C281.818 411.725 280.747 412.502 279.615 413.272C278.504 414.011 277.354 414.711 276.147 415.384C269.424 419.128 262.57 420.942 257.223 420.756C254.958 420.676 252.974 420.238 251.381 419.423C250.02 418.739 248.968 417.783 248.28 416.544C245.688 411.88 249.274 404.655 256.572 398.528C257.553 397.701 258.591 396.903 259.723 396.132C261.043 395.196 262.468 394.303 263.964 393.469C275.989 386.77 288.466 386.251 291.824 392.292Z" fill="#FFFCF8"/>
<path d="M291.824 392.292L295.726 399.312C299.084 405.352 292.065 415.69 280.042 422.387C268.018 429.084 255.541 429.604 252.183 423.562L248.281 416.542C248.97 417.781 250.022 418.737 251.382 419.422C252.976 420.236 254.959 420.674 257.225 420.754C262.57 420.941 269.425 419.126 276.148 415.383C282.871 411.638 288.024 406.765 290.684 402.119C291.81 400.151 292.485 398.233 292.633 396.447C292.77 394.929 292.513 393.531 291.824 392.292Z" fill="#EBE5FD"/>
<path d="M282.822 410.904C281.818 411.724 280.747 412.5 279.615 413.271L256.574 398.528C257.554 397.701 258.592 396.903 259.724 396.132L282.822 410.904Z" fill="#EBE5FD"/>
<path d="M293.471 434.403C293.471 435.953 293.068 437.44 292.304 438.842C291.434 440.457 290.097 441.944 288.378 443.261C283.986 446.616 277.152 448.782 269.471 448.782C268.325 448.782 267.179 448.74 266.077 448.634C264.485 448.506 262.957 448.273 261.472 447.954C257.143 447.04 253.366 445.383 250.587 443.261C248.869 441.965 247.532 440.457 246.661 438.842C245.897 437.441 245.494 435.954 245.494 434.403C245.494 426.48 256.23 420.045 269.471 420.045C270.617 420.045 271.763 420.088 272.867 420.215C274.458 420.322 275.987 420.555 277.45 420.874H277.471C286.808 422.828 293.471 428.159 293.471 434.403Z" fill="#FFFCF8"/>
<path d="M293.471 434.403V443.259C293.471 451.203 282.735 457.617 269.473 457.617C256.233 457.617 245.495 451.202 245.495 443.259V434.403C245.495 435.953 245.898 437.44 246.663 438.842C247.532 440.457 248.869 441.965 250.589 443.261C254.98 446.616 261.813 448.783 269.473 448.783C277.154 448.783 283.986 446.616 288.379 443.261C290.097 441.944 291.434 440.457 292.305 438.842C293.068 437.44 293.471 435.954 293.471 434.403Z" fill="#EBE5FD"/>
<path d="M277.472 420.874L266.078 448.634C264.486 448.506 262.959 448.273 261.473 447.954L272.868 420.215L277.451 420.874H277.472Z" fill="#EBE5FD"/>
</svg>
