<svg width="455" height="432" viewBox="0 0 455 432" fill="none" xmlns="http://www.w3.org/2000/svg">
<path opacity="0.6" d="M357.164 17.1597C281.863 -5.04345 209.294 -3.04009 133.227 10.3607C92.3016 17.5706 43.1952 27.5287 22.1757 82.1478C7.44515 120.423 24.8202 130.859 34.19 161.748C43.3044 191.794 24.4388 210.858 14.0868 233.989C3.07032 258.603 -4.03074 296.644 4.04589 324.23C35.7466 432.503 172.707 436.261 242.817 429.304C303.972 423.238 423.809 428.029 449.937 331.455C463.799 280.208 440.772 227.659 440.833 175.965C440.874 142.364 447.197 109.153 432.886 78.5331C415.742 41.8545 387.444 26.0882 357.164 17.1597Z" fill="white"/>
<g opacity="0.6">
<path d="M69.4258 65.31C62.9263 65.2894 62.7982 63.6381 57.0854 61.7727C50.2369 59.536 47.9903 60.0017 41.7077 62.2452C40.028 62.8442 35.1592 62.3559 34.6708 65.171C34.1801 67.9954 39.2213 68.9371 39.334 70.994C39.5941 75.7408 33.8261 71.9816 32.1936 74.0668C29.5666 77.4217 36.1022 78.2075 37.9491 78.0709C37.9882 78.6836 37.9946 79.2052 37.9382 79.8146C34.1987 80.8304 30.948 81.4181 32.3341 86.061C33.1321 88.7327 36.4203 93.6298 39.3465 91.3259C41.0649 97.3105 32.4605 94.5522 31.4456 98.7932C34.3496 98.5052 39.7556 94.6067 42.3904 93.2778C46.3377 91.2881 47.9389 88.5414 50.3312 85.0565C51.1407 85.9016 51.6364 89.0163 52.6922 89.4148C55.426 90.4443 56.0223 86.6258 57.7997 85.9219C62.5893 84.0244 61.9967 88.2748 65.5131 90.2232C66.9827 91.0376 68.9329 90.1072 70.2641 90.7915C72.3359 91.8574 72.0348 92.8471 73.4657 94.6077C75.2147 96.759 79.0658 99.1801 77.4106 102.194C84.5153 103.055 79.15 107.826 78.7871 111.194C78.5532 113.366 79.5254 116.143 79.3632 118.413C79.1422 121.513 78.7656 122.246 80.0907 125.039C82.0281 129.123 84.1594 132.003 85.4354 136.302C86.6489 140.392 88.7123 145.461 91.9752 148.146C92.7591 143.933 88.5465 141.581 89.2841 136.864C90.8825 137.319 92.7369 143.013 93.5856 144.757C94.7741 147.2 95.3455 151.202 97.8515 153.399C100.627 155.831 104.629 154.813 107.595 156.338C109.131 157.128 109.704 158.789 111.136 159.445C112.723 160.172 115.321 159.408 116.612 160.63C119.266 163.145 117.034 166.87 122.37 167.649C126.258 168.217 129.759 164.754 127.622 170.957C126.493 174.235 123 175.396 122.396 178.532C121.826 181.496 123.18 186.705 124.304 188.951C126.306 192.949 129.49 198.723 133.688 199.004C135.13 202.58 133.592 206.023 133.272 209.33C132.92 212.97 134.307 217.637 133.19 221.102C131.796 225.425 130.203 225.691 131.517 230.602C132.002 232.408 133.054 231.947 132.951 234.142C132.884 235.557 130.846 237.117 130.904 239.252C131.001 242.876 136.296 251.209 136.878 247.461C137.699 242.171 139.036 237.98 139.487 236.214C139.823 234.896 139.722 231.221 140.524 229.389C140.845 228.655 142.787 226.518 143.357 226.059C146.606 223.446 147.234 223.501 149.437 219.787C149.683 219.374 151.411 217.687 151.407 217.177C156.015 214.237 157.997 206.354 161.842 203.298C165.811 200.142 166.712 202.21 168.003 196.551C168.85 192.839 168.688 189.017 171.667 186.581C173.935 184.725 180.078 183.633 176.087 178.9C174.011 176.437 169.621 178.359 166.477 176.634C165.201 175.933 164.525 174.349 163.159 173.79C161.619 173.159 158.762 174.106 157.448 173.337C155.569 172.238 156.433 170.963 155.575 169.521C153.733 166.43 156.06 167.939 152.731 166.202C150.822 165.206 149.989 166.457 148.098 164.674C146.942 163.582 147.183 160.847 145.643 159.897C143.427 158.53 138.101 160.163 135.667 160.511C133.5 160.821 132.81 160.472 131.021 161.564C129.418 162.544 131.389 164.258 128.534 164.8C127.872 164.925 126.022 162.89 124.764 162.883C122.986 162.874 121.453 163.679 120.119 164.706C118.726 162.013 121.445 158.612 120.058 156.578C117.712 153.138 115.808 157.385 116.127 151.87C116.295 148.952 119.16 146.649 114.195 149.025C112.471 149.85 110.672 155.036 107.309 151.869C102.858 147.677 108.97 140.164 112.545 138.34C114.803 137.19 118.938 135.734 121.455 137.161C123.819 138.5 122.997 142.724 126.589 141.946C126.73 139.148 125.742 134.65 126.755 132.048C128.144 128.479 131.706 129.349 133.426 126.865C134.423 125.426 133.528 123.34 134.246 122.103C135.294 120.298 135.856 120.963 137.089 119.729C138.384 118.435 138.899 119.338 139.931 117.357C140.542 116.182 140.409 113.585 140.478 112.224C143.232 111.26 146.369 111.038 146.663 114.439C150.81 112.94 148.407 107.76 147.114 105.147C150.141 100.657 154.295 103.662 153.751 108.265C156.582 109.282 162.263 109.688 161.18 105.112C152.722 101.991 160.69 100.554 157.838 94.598C156.994 92.835 154.101 92.2599 153.076 90.457C151.99 88.545 152.33 84.6512 151.702 82.3405C149.392 82.7252 148.428 85.0372 145.691 84.568C145.395 80.443 140.25 76.391 136.72 80.4751C133.195 84.5533 137.28 90.441 137.963 94.041C133.557 94.3392 134.407 99.4573 130.524 98.3183C130.416 96.1819 130.488 93.9589 130.381 91.8223C124.62 91.5113 118.34 90.5592 120.024 82.741C120.928 78.5432 122.572 80.3199 125.724 78.958C128.724 77.6597 128.303 76.064 130.545 74.2977C133.075 72.3036 134.985 74.3022 135.653 69.9131C136.145 66.6787 135.177 65.8542 132.219 65.5284C129.299 65.2062 130.656 68.5453 127.134 65.1948C125.095 63.2542 126.276 60.6349 122.515 60.0508C121.443 62.2202 121.93 65.155 122.323 67.4964C119.32 68.4577 109.306 64.0219 108.161 66.1925C107.044 72.7193 102.721 67.5238 99.7453 66.0137C96.2248 64.2257 92.527 64.3382 88.7413 63.7702C84.7058 63.1655 82.6441 63.5173 78.6798 64.1415C74.9629 64.7259 74.6601 63.7588 71.4295 64.6244L69.4258 65.31Z" fill="#8FCBEC"/>
<path d="M169.321 39.589C166.947 41.0648 164.718 38.1291 161.834 38.7371C161.278 38.8532 160.581 40.681 159.471 41.1151C158.312 41.5683 156.534 41.6718 155.173 41.5569C155.578 42.5638 155.469 44.2617 155.976 45.2091C154.904 44.9701 153.404 45.5748 152.329 45.3504C152.195 49.423 153.243 50.0323 156.049 51.4445C159.184 53.0206 160.541 51.6495 161.736 55.714C162.166 57.1762 161.28 59.0076 161.82 60.4526C162.262 61.6347 164.103 62.3134 164.463 63.4182C165.447 66.4351 164.149 68.3106 163.634 71.3604C163.005 75.0789 164.585 89.0638 171.715 84.5666C174.193 83.0029 172.12 78.2469 173.693 76.2087C175.592 73.7476 179.234 74.7611 182.037 74.5971C183.637 69.4554 188.365 71.0474 192.94 70.815C193.543 69.4495 193.726 67.6854 193.425 66.2164C192.886 66.0887 192.219 66.0798 191.673 66.0739C191.985 63.4045 199.288 62.0162 194.635 57.6101C199.747 56.388 200.88 54.229 201.08 49.5721C201.226 46.1782 199.84 47.638 202.003 44.8047C203.535 42.7993 206.891 44.0133 205.749 40.1344C203.402 39.9919 200.02 41.4543 197.738 40.5602C194.893 39.4441 195.105 36.2954 193.007 34.9422C189.033 32.3809 182.367 36.7198 177.925 36.8144C178.163 41.372 175.324 40.6114 173.133 39.7527L169.321 39.589Z" fill="#8FCBEC"/>
<path d="M377.886 185.17C375.45 185.784 378.031 180.48 376.391 179.076C370.835 178.127 371.176 182.063 366.995 183.864C365.449 184.53 361.766 183.462 361.309 183.715C358.512 185.256 360.551 187.523 359.398 189.911C357.187 194.487 352.397 191.834 352.184 198.817C352.046 203.333 355.091 206.946 353.772 211.618C361.397 215.152 365.519 200.997 373.501 208.525C374.597 209.558 374.534 211.657 375.636 212.579C377.193 213.879 379.287 213.276 380.636 214.191C384.365 216.726 383.023 219.803 388.22 216.813C392.46 214.371 398.893 205.876 399.217 201.294C399.466 197.761 397.211 195.051 394.975 192.652C391.829 189.278 390.04 187.077 387.972 182.799C385.982 178.686 385.496 178.931 384.715 181.411C383.615 183.994 384.764 183.302 383.967 186.036C380.485 188.083 380.638 183.088 379.097 184.511L377.886 185.17Z" fill="#8FCBEC"/>
<path d="M417.227 66.1448C416.522 61.98 411.874 63.6177 408.223 63.2999C403.565 62.8923 402.581 60.8502 398.86 58.9143C394.303 56.542 393.305 59.8287 388.764 60.4404C384.967 60.9519 383.824 58.207 380.36 56.5434C375.848 54.3761 375.095 56.6356 370.776 57.6196C366.324 58.6345 363.115 56.474 359.494 54.6337C355.194 52.4482 354.361 53.4378 349.551 54.406C347.4 54.8387 340.477 55.5379 338.521 54.7976C337.282 54.3296 336.633 52.7112 336.577 51.5258C330.811 49.4667 324.907 52.4732 318.977 52.1679C316.765 50.2707 315.343 50.9027 312.025 50.9027C308.841 50.9027 305.705 47.5842 302.861 49.7968C297.569 53.9137 289.367 48.6149 291.545 58.0112C288.685 58.4349 281.619 58.1398 280.632 55.3202C274.681 54.4457 278.593 61.9948 276.457 63.6771C274.32 65.3604 266.646 63.8718 263.65 65.0789C260.054 66.5277 248.021 78.7656 247.105 73.3767C256.956 70.2357 242.479 62.093 237.212 62.9324C234.755 63.324 229.821 65.3866 227.995 67.0927C225.156 69.7462 225.461 73.9792 223.475 77.168C221.67 80.0664 218.251 81.5298 219.093 85.5877C219.865 89.3083 219.886 86.5601 221.937 88.4326C222.435 88.8881 223.314 85.5957 224.017 86.311C224.906 87.2153 225.34 89.8915 226.861 90.2628C229.154 90.8231 228.284 88.0351 228.441 86.4691C228.874 82.1528 229.782 83.3463 231.891 79.8968C233.098 77.922 232.868 76.4289 235.563 75.7002C237.064 78.1761 235.07 81.0483 235.674 83.5947C235.923 84.6424 237.726 84.1562 238.065 86.0614C238.388 87.8848 237.619 89.3368 236.502 90.7091C231.881 96.384 226.704 90.4289 222.02 91.8342C219.849 95.7416 218.559 99.9109 214.827 102.553C212.181 104.426 210.075 102.865 211.394 106.95C212.213 109.485 215.844 108.167 214.744 112.062C211.88 114.148 207.359 112.189 205.443 113.637C203.57 115.053 204.876 121.224 206.758 122.007C211.341 123.914 211.224 117.175 213.392 115.581C216.106 113.587 221.942 117.021 221.061 111.74C228.017 110.017 226.055 119.408 230.873 119.657C231.078 114.932 230.172 113.817 227.674 110.236C232.392 111.127 234.762 118.004 237.605 119.901C240.212 120.138 240.616 116.961 240.495 114.586C246.607 115.175 243.892 107.143 250.507 108.695C255.017 109.752 259.202 115.794 251.801 115.484C249.596 115.393 248.54 112.99 245.981 114.375C244.299 115.285 242.878 119.121 244.182 120.595C246.749 123.5 255.892 118.786 253.613 126.76C248.261 128.467 244.413 127.324 239.001 127.308C235.891 127.299 227.99 129.728 228.016 123.607C226.494 122.765 224.949 122.88 223.833 123.998L224.781 123.524C218.625 129.196 208.35 120.613 205.466 129.344C205.232 130.051 204.694 133.594 204.41 133.968C202.946 135.887 201.998 134.707 200.239 135.961C197.965 137.583 196.195 140.989 195.763 143.811C195.37 146.374 195.377 152.536 196.437 155.19C197.564 158.016 201.583 160.311 203.344 162.884C205.754 166.408 205.494 168.01 211.035 166.558C214.758 165.583 217.241 163.01 221.117 165.137C224.182 166.818 223.742 169.934 228.583 168.146C230.332 171.669 226.804 174.661 228.679 178.4C229.609 180.257 231.443 180.529 231.89 182.801C232.321 184.99 231.007 186.458 230.944 188.49C230.792 193.34 233.254 194.732 235.104 198.554C236.686 201.822 235.547 205.614 237.698 208.763C241.204 213.898 249.896 209.338 253.801 206.06C255.967 204.242 257.772 199.719 258.46 197.63C258.91 196.266 258.862 194.13 259.408 192.733C260.248 190.589 260.548 191.454 262.344 189.555C268.965 182.557 256.132 179.265 264.122 172.486C267.672 169.475 270.433 167.951 271.233 162.883C272.07 157.575 271.614 154.981 266.102 155.213C262.25 148.209 282.221 146.954 280.17 138.294C277.734 137.824 265.629 133.942 272.183 131.113C276.165 129.394 283.794 134.602 287.35 136.221C291.339 138.035 291.536 140.257 294.449 142.989C296.346 144.77 298.644 144.449 300.175 146.734C301.447 148.633 301.272 151.963 302.612 154.244C303.812 156.286 306.357 159.315 308.348 160.819C309.747 157.705 308.4 153.575 309.725 150.649C311.353 147.052 317.093 148.223 316.337 143.513C324.101 141.418 325.239 155.547 329.941 156.171C329.986 154.509 330.035 152.761 330.083 151.1C334.391 149.942 334.142 156.501 337.975 154.726C341.718 152.99 338.121 147.476 337.477 145.456C334.366 135.682 347.439 142.203 350.522 134.431C351.91 130.932 351.005 125.868 349.305 123.155C347.959 121.009 343.202 118.642 343.26 115.961C343.373 110.819 349.047 113.007 350.866 115.464C352.739 117.996 351.805 123.169 356.001 122.966C357.278 119.715 354.344 116.954 355.112 114.514C356.179 111.13 361.444 110.943 363.071 107.387C364.393 104.5 363.527 101.178 363.773 98.2869C364.134 94.0402 365.006 94.0572 360.824 92.2249C357.895 90.9413 354.016 91.3433 357.029 86.525C358.727 83.8122 362.914 83.4308 365.562 82.384C369.34 80.8909 371.074 80.6895 374.947 80.9638C376.925 81.1051 376.155 82.72 378.488 81.4342C379.908 80.6517 380.89 77.1659 381.287 75.7002C385.538 74.6388 386.026 81.7008 384.879 84.0708C382.998 87.9553 380.971 87.6331 380.73 92.7009C380.548 96.5423 381.928 101.924 384.415 96.0183C385.108 94.3728 383.759 91.8729 384.618 90.3185C385.868 88.0589 388.561 88.9212 390.209 87.6241C393.569 84.9774 392.92 81.6758 397.689 80.2672C401.976 79.002 405.369 80.9697 406.338 75.155C406.65 73.2837 404.209 71.6519 406.213 70.2737C408.048 69.0106 408.953 71.3021 410.488 71.835C412.227 72.4396 412.221 73.9782 414.513 72.8178C415.653 72.241 417.425 67.3085 417.227 66.1448Z" fill="#8FCBEC"/>
</g>
<path d="M347.284 386.434H84.7368L122.143 349.323H309.878L347.284 386.434Z" fill="#5470B4"/>
<path d="M303.243 355.236C298.09 355.236 292.92 353.971 291.728 352.457C291.607 352.304 291.543 352.155 291.511 352.009H140.427C140.419 352.196 140.345 352.391 140.186 352.592C138.992 354.112 133.812 355.378 128.652 355.378C128.335 355.378 128.026 355.374 127.726 355.364L108.69 376.748C109.678 376.66 110.672 376.609 111.655 376.609C117.919 376.609 121.513 378.531 119.615 380.988C119.477 381.168 119.306 381.344 119.118 381.52H316.534C316.228 381.271 315.957 381.02 315.751 380.761C313.848 378.385 317.128 376.518 323.028 376.409L304.167 355.221C303.867 355.23 303.56 355.236 303.243 355.236Z" fill="#88ABD8"/>
<path d="M253.606 364.795C256.186 372.249 239.507 379.088 216.01 379.088C192.514 379.088 175.833 372.249 178.414 364.795C180.684 358.241 197.41 353.48 216.01 353.48C234.61 353.48 251.337 358.241 253.606 364.795Z" fill="#5470B4"/>
<path d="M214.31 355.811H219.49L219.536 357.146C223.784 357.271 227.514 357.778 230.763 358.68L225.093 361.054C222.864 360.461 221.017 360.093 219.536 359.947L219.642 363.052C228.243 363.915 232.78 365.552 233.16 368.032C233.358 369.325 232.371 370.434 230.17 371.353C227.932 372.286 224.511 372.906 219.914 373.207L219.993 375.562H213.897L213.939 373.233H212.949C210.699 373.233 208.088 373.003 205.13 372.548C202.195 372.095 199.963 371.519 198.431 370.828L204.984 368.105C207.508 369.044 210.52 369.639 213.998 369.881L214.07 365.823C209.922 365.467 206.808 364.853 204.731 363.991C202.686 363.141 201.751 362.175 201.895 361.097C202.046 359.979 203.164 359.053 205.23 358.31C207.265 357.578 210.278 357.185 214.287 357.127L214.31 355.811ZM214.129 362.49L214.176 359.864C212.154 360.086 211.125 360.503 211.096 361.118C211.065 361.791 212.073 362.25 214.129 362.49ZM219.76 366.514L219.867 369.668C222.296 369.452 223.479 368.92 223.424 368.081C223.373 367.326 222.149 366.805 219.76 366.514Z" fill="#88ABD8"/>
<path d="M294.783 364.795C296.184 366.728 292.627 368.345 286.793 368.345C280.958 368.345 275.36 366.728 274.322 364.795C273.321 362.93 276.973 361.464 282.45 361.464C287.926 361.464 293.429 362.93 294.783 364.795Z" fill="#5470B4"/>
<path d="M157.698 364.795C156.661 366.728 151.062 368.345 145.228 368.345C139.393 368.345 135.836 366.728 137.238 364.795C138.591 362.93 144.094 361.464 149.57 361.464C155.047 361.464 158.7 362.93 157.698 364.795Z" fill="#5470B4"/>
<path d="M347.284 386.434H84.7368L122.143 349.323H309.878L347.284 386.434Z" fill="#4A63A0"/>
<path d="M303.243 355.236C298.09 355.236 292.92 353.971 291.728 352.457C291.607 352.304 291.543 352.155 291.511 352.009H140.427C140.419 352.196 140.345 352.391 140.186 352.592C138.992 354.112 133.812 355.378 128.652 355.378C128.335 355.378 128.026 355.374 127.726 355.364L108.69 376.748C109.678 376.66 110.672 376.609 111.655 376.609C117.919 376.609 121.513 378.531 119.615 380.988C119.477 381.168 119.306 381.344 119.118 381.52H316.534C316.228 381.271 315.957 381.02 315.751 380.761C313.848 378.385 317.128 376.518 323.028 376.409L304.167 355.221C303.867 355.23 303.56 355.236 303.243 355.236Z" fill="#88ABD8"/>
<path d="M253.606 364.795C256.186 372.249 239.507 379.088 216.01 379.088C192.514 379.088 175.833 372.249 178.414 364.795C180.684 358.241 197.41 353.48 216.01 353.48C234.61 353.48 251.337 358.241 253.606 364.795Z" fill="#5470B4"/>
<path d="M214.31 355.811H219.49L219.536 357.146C223.784 357.271 227.514 357.778 230.763 358.68L225.093 361.054C222.864 360.461 221.017 360.093 219.536 359.947L219.642 363.052C228.243 363.915 232.78 365.552 233.16 368.032C233.358 369.325 232.371 370.434 230.17 371.353C227.932 372.286 224.511 372.906 219.914 373.207L219.993 375.562H213.897L213.939 373.233H212.949C210.699 373.233 208.088 373.003 205.13 372.548C202.195 372.095 199.963 371.519 198.431 370.828L204.984 368.105C207.508 369.044 210.52 369.639 213.998 369.881L214.07 365.823C209.922 365.467 206.808 364.853 204.731 363.991C202.686 363.141 201.751 362.175 201.895 361.097C202.046 359.979 203.164 359.053 205.23 358.31C207.265 357.578 210.278 357.185 214.287 357.127L214.31 355.811ZM214.129 362.49L214.176 359.864C212.154 360.086 211.125 360.503 211.096 361.118C211.065 361.791 212.073 362.25 214.129 362.49ZM219.76 366.514L219.867 369.668C222.296 369.452 223.479 368.92 223.424 368.081C223.373 367.326 222.149 366.805 219.76 366.514Z" fill="#88ABD8"/>
<path d="M294.783 364.795C296.184 366.728 292.627 368.345 286.793 368.345C280.958 368.345 275.36 366.728 274.322 364.795C273.321 362.93 276.973 361.464 282.45 361.464C287.926 361.464 293.429 362.93 294.783 364.795Z" fill="#5470B4"/>
<path d="M157.698 364.795C156.661 366.728 151.062 368.345 145.228 368.345C139.393 368.345 135.836 366.728 137.238 364.795C138.591 362.93 144.094 361.464 149.57 361.464C155.047 361.464 158.7 362.93 157.698 364.795Z" fill="#5470B4"/>
<path d="M347.284 379.331H84.7368L122.143 342.22H309.878L347.284 379.331Z" fill="#506BAD"/>
<path d="M303.243 348.133C298.09 348.133 292.92 346.87 291.728 345.355C291.607 345.202 291.543 345.052 291.511 344.908H140.427C140.419 345.094 140.345 345.289 140.186 345.491C138.992 347.01 133.812 348.277 128.652 348.277C128.335 348.277 128.026 348.272 127.726 348.262L108.69 369.646C109.678 369.558 110.672 369.507 111.655 369.507C117.919 369.507 121.513 371.428 119.615 373.886C119.477 374.065 119.306 374.242 119.118 374.417H316.534C316.228 374.169 315.957 373.916 315.751 373.659C313.848 371.283 317.128 369.416 323.028 369.306L304.167 348.119C303.867 348.128 303.56 348.133 303.243 348.133Z" fill="#88ABD8"/>
<path d="M253.606 357.693C256.186 365.147 239.507 371.986 216.01 371.986C192.514 371.986 175.833 365.147 178.414 357.693C180.684 351.138 197.41 346.379 216.01 346.379C234.61 346.379 251.337 351.138 253.606 357.693Z" fill="#5470B4"/>
<path d="M214.31 348.708H219.49L219.536 350.043C223.784 350.169 227.514 350.676 230.763 351.577L225.093 353.952C222.864 353.359 221.017 352.991 219.536 352.844L219.642 355.95C228.243 356.813 232.78 358.449 233.16 360.93C233.358 362.221 232.371 363.332 230.17 364.25C227.932 365.182 224.511 365.804 219.914 366.104L219.993 368.459H213.897L213.939 366.131H212.949C210.699 366.131 208.088 365.901 205.13 365.444C202.195 364.992 199.963 364.417 198.431 363.726L204.984 361.003C207.508 361.941 210.52 362.537 213.998 362.778L214.07 358.719C209.922 358.364 206.808 357.75 204.731 356.887C202.686 356.039 201.751 355.072 201.895 353.994C202.046 352.876 203.164 351.95 205.23 351.207C207.265 350.474 210.278 350.083 214.287 350.023L214.31 348.708ZM214.129 355.389L214.176 352.761C212.154 352.984 211.125 353.401 211.096 354.016C211.065 354.688 212.073 355.148 214.129 355.389ZM219.76 359.412L219.867 362.565C222.296 362.35 223.479 361.818 223.424 360.979C223.373 360.224 222.149 359.704 219.76 359.412Z" fill="#88ABD8"/>
<path d="M294.783 357.693C296.184 359.625 292.627 361.242 286.793 361.242C280.958 361.242 275.36 359.625 274.322 357.693C273.321 355.828 276.973 354.361 282.45 354.361C287.926 354.361 293.429 355.828 294.783 357.693Z" fill="#5470B4"/>
<path d="M157.698 357.693C156.661 359.625 151.062 361.242 145.228 361.242C139.393 361.242 135.836 359.625 137.238 357.693C138.591 355.828 144.094 354.361 149.57 354.361C155.047 354.361 158.7 355.828 157.698 357.693Z" fill="#5470B4"/>
<path d="M347.284 372.229H84.7368L122.143 335.118H309.878L347.284 372.229Z" fill="#4A63A0"/>
<path d="M303.243 341.031C298.09 341.031 292.92 339.767 291.728 338.252C291.607 338.099 291.543 337.95 291.511 337.804H140.427C140.419 337.992 140.345 338.186 140.186 338.387C138.992 339.907 133.812 341.174 128.652 341.174C128.335 341.174 128.026 341.169 127.726 341.159L108.69 362.543C109.678 362.454 110.672 362.403 111.655 362.403C117.919 362.403 121.513 364.326 119.615 366.782C119.477 366.962 119.306 367.139 119.118 367.314H316.534C316.228 367.066 315.957 366.814 315.751 366.556C313.848 364.181 317.128 362.313 323.028 362.203L304.167 341.016C303.867 341.026 303.56 341.031 303.243 341.031Z" fill="#88ABD8"/>
<path d="M253.606 350.59C256.186 358.045 239.507 364.882 216.01 364.882C192.514 364.882 175.833 358.045 178.414 350.59C180.684 344.036 197.41 339.275 216.01 339.275C234.61 339.275 251.337 344.036 253.606 350.59Z" fill="#5470B4"/>
<path d="M214.31 341.606H219.49L219.536 342.941C223.784 343.066 227.514 343.574 230.763 344.475L225.093 346.849C222.864 346.256 221.017 345.889 219.536 345.742L219.642 348.848C228.243 349.71 232.78 351.347 233.16 353.827C233.358 355.119 232.371 356.23 230.17 357.148C227.932 358.08 224.511 358.702 219.914 359.002L219.993 361.357H213.897L213.939 359.028H212.949C210.699 359.028 208.088 358.798 205.13 358.342C202.195 357.889 199.963 357.315 198.431 356.622L204.984 353.9C207.508 354.838 210.52 355.435 213.998 355.676L214.07 351.617C209.922 351.262 206.808 350.647 204.731 349.785C202.686 348.936 201.751 347.97 201.895 346.892C202.046 345.774 203.164 344.848 205.23 344.104C207.265 343.372 210.278 342.98 214.287 342.921L214.31 341.606ZM214.129 348.287L214.176 345.659C212.154 345.882 211.125 346.298 211.096 346.913C211.065 347.586 212.073 348.046 214.129 348.287ZM219.76 352.309L219.867 355.463C222.296 355.248 223.479 354.715 223.424 353.876C223.373 353.121 222.149 352.602 219.76 352.309Z" fill="#88ABD8"/>
<path d="M294.783 350.59C296.184 352.523 292.627 354.14 286.793 354.14C280.958 354.14 275.36 352.523 274.322 350.59C273.321 348.725 276.973 347.259 282.45 347.259C287.926 347.259 293.429 348.725 294.783 350.59Z" fill="#5470B4"/>
<path d="M157.698 350.59C156.661 352.523 151.062 354.14 145.228 354.14C139.393 354.14 135.836 352.523 137.238 350.59C138.591 348.725 144.094 347.259 149.57 347.259C155.047 347.259 158.7 348.725 157.698 350.59Z" fill="#5470B4"/>
<path d="M347.284 365.127H84.7368L122.143 328.016H309.878L347.284 365.127Z" fill="#5470B4"/>
<path d="M303.243 333.928C298.09 333.928 292.92 332.664 291.728 331.15C291.607 330.997 291.543 330.848 291.511 330.702H140.427C140.419 330.889 140.345 331.084 140.186 331.285C138.992 332.805 133.812 334.072 128.652 334.072C128.335 334.072 128.026 334.066 127.726 334.056L108.69 355.44C109.678 355.353 110.672 355.301 111.655 355.301C117.919 355.301 121.513 357.223 119.615 359.68C119.477 359.86 119.306 360.037 119.118 360.212H316.534C316.228 359.964 315.957 359.712 315.751 359.454C313.848 357.078 317.128 355.21 323.028 355.101L304.167 333.914C303.867 333.923 303.56 333.928 303.243 333.928Z" fill="#88ABD8"/>
<path d="M253.606 343.488C256.186 350.943 239.507 357.78 216.01 357.78C192.514 357.78 175.833 350.943 178.414 343.488C180.684 336.933 197.41 332.173 216.01 332.173C234.61 332.173 251.337 336.933 253.606 343.488Z" fill="#5470B4"/>
<path d="M214.31 334.503H219.49L219.536 335.839C223.784 335.964 227.514 336.471 230.763 337.373L225.093 339.747C222.864 339.154 221.017 338.786 219.536 338.64L219.642 341.744C228.243 342.608 232.78 344.244 233.16 346.725C233.358 348.016 232.371 349.126 230.17 350.044C227.932 350.978 224.511 351.599 219.914 351.9L219.993 354.255H213.897L213.939 351.926H212.949C210.699 351.926 208.088 351.696 205.13 351.239C202.195 350.787 199.963 350.212 198.431 349.521L204.984 346.798C207.508 347.736 210.52 348.332 213.998 348.573L214.07 344.516C209.922 344.159 206.808 343.545 204.731 342.683C202.686 341.834 201.751 340.867 201.895 339.789C202.046 338.671 203.164 337.745 205.23 337.003C207.265 336.27 210.278 335.878 214.287 335.818L214.31 334.503ZM214.129 341.183L214.176 338.557C212.154 338.779 211.125 339.196 211.096 339.811C211.065 340.484 212.073 340.943 214.129 341.183ZM219.76 345.207L219.867 348.36C222.296 348.145 223.479 347.613 223.424 346.774C223.373 346.019 222.149 345.498 219.76 345.207Z" fill="#88ABD8"/>
<path d="M294.783 343.488C296.184 345.42 292.627 347.037 286.793 347.037C280.958 347.037 275.36 345.42 274.322 343.488C273.321 341.623 276.973 340.157 282.45 340.157C287.926 340.157 293.429 341.623 294.783 343.488Z" fill="#5470B4"/>
<path d="M157.698 343.488C156.661 345.42 151.062 347.037 145.228 347.037C139.393 347.037 135.836 345.42 137.238 343.488C138.591 341.623 144.094 340.157 149.57 340.157C155.047 340.157 158.7 341.623 157.698 343.488Z" fill="#5470B4"/>
<path d="M347.284 358.025H84.7368L122.143 320.913H309.878L347.284 358.025Z" fill="#4A63A0"/>
<path d="M303.243 326.826C298.09 326.826 292.92 325.563 291.728 324.048C291.607 323.895 291.543 323.745 291.511 323.6H140.427C140.419 323.788 140.345 323.982 140.186 324.183C138.992 325.703 133.812 326.969 128.652 326.969C128.335 326.969 128.026 326.965 127.726 326.955L108.69 348.339C109.678 348.251 110.672 348.2 111.655 348.2C117.919 348.2 121.513 350.121 119.615 352.578C119.477 352.757 119.306 352.934 119.118 353.109H316.534C316.228 352.861 315.957 352.609 315.751 352.352C313.848 349.976 317.128 348.108 323.028 347.999L304.167 326.811C303.867 326.821 303.56 326.826 303.243 326.826Z" fill="#88ABD8"/>
<path d="M253.606 336.386C256.186 343.84 239.507 350.679 216.01 350.679C192.514 350.679 175.833 343.84 178.414 336.386C180.684 329.831 197.41 325.071 216.01 325.071C234.61 325.071 251.337 329.831 253.606 336.386Z" fill="#5470B4"/>
<path d="M214.31 327.401H219.49L219.536 328.736C223.784 328.861 227.514 329.369 230.763 330.27L225.093 332.644C222.864 332.052 221.017 331.684 219.536 331.537L219.642 334.643C228.243 335.506 232.78 337.141 233.16 339.623C233.358 340.914 232.371 342.025 230.17 342.943C227.932 343.875 224.511 344.497 219.914 344.798L219.993 347.153H213.897L213.939 344.823H212.949C210.699 344.823 208.088 344.594 205.13 344.137C202.195 343.684 199.963 343.11 198.431 342.419L204.984 339.696C207.508 340.634 210.52 341.23 213.998 341.471L214.07 337.413C209.922 337.057 206.808 336.443 204.731 335.58C202.686 334.732 201.751 333.765 201.895 332.687C202.046 331.569 203.164 330.643 205.23 329.9C207.265 329.167 210.278 328.776 214.287 328.717L214.31 327.401ZM214.129 334.081L214.176 331.454C212.154 331.677 211.125 332.093 211.096 332.709C211.065 333.382 212.073 333.841 214.129 334.081ZM219.76 338.104L219.867 341.259C222.296 341.043 223.479 340.511 223.424 339.671C223.373 338.917 222.149 338.397 219.76 338.104Z" fill="#88ABD8"/>
<path d="M294.783 336.386C296.184 338.318 292.627 339.935 286.793 339.935C280.958 339.935 275.36 338.318 274.322 336.386C273.321 334.521 276.973 333.054 282.45 333.054C287.926 333.054 293.429 334.521 294.783 336.386Z" fill="#5470B4"/>
<path d="M157.698 336.386C156.661 338.318 151.062 339.935 145.228 339.935C139.393 339.935 135.836 338.318 137.238 336.386C138.591 334.521 144.094 333.054 149.57 333.054C155.047 333.054 158.7 334.521 157.698 336.386Z" fill="#5470B4"/>
<path d="M347.284 350.923H84.7368L122.143 313.811H309.878L347.284 350.923Z" fill="#5470B4"/>
<path d="M303.243 319.724C298.09 319.724 292.92 318.461 291.728 316.946C291.607 316.792 291.543 316.643 291.511 316.498H140.427C140.419 316.684 140.345 316.88 140.186 317.081C138.992 318.6 133.812 319.868 128.652 319.868C128.335 319.868 128.026 319.862 127.726 319.853L108.69 341.236C109.678 341.149 110.672 341.097 111.655 341.097C117.919 341.097 121.513 343.019 119.615 345.476C119.477 345.656 119.306 345.832 119.118 346.007H316.534C316.228 345.759 315.957 345.507 315.751 345.249C313.848 342.873 317.128 341.007 323.028 340.896L304.167 319.709C303.867 319.719 303.56 319.724 303.243 319.724Z" fill="#88ABD8"/>
<path d="M253.606 329.283C256.186 336.738 239.507 343.577 216.01 343.577C192.514 343.577 175.833 336.738 178.414 329.283C180.684 322.729 197.41 317.969 216.01 317.969C234.61 317.969 251.337 322.729 253.606 329.283Z" fill="#5470B4"/>
<path d="M214.31 320.299H219.49L219.536 321.634C223.784 321.759 227.514 322.267 230.763 323.168L225.093 325.543C222.864 324.949 221.017 324.582 219.536 324.436L219.642 327.541C228.243 328.404 232.78 330.04 233.16 332.522C233.358 333.813 232.371 334.924 230.17 335.841C227.932 336.774 224.511 337.396 219.914 337.695L219.993 340.051H213.897L213.939 337.722H212.949C210.699 337.722 208.088 337.492 205.13 337.036C202.195 336.583 199.963 336.009 198.431 335.316L204.984 332.593C207.508 333.532 210.52 334.127 213.998 334.369L214.07 330.311C209.922 329.955 206.808 329.341 204.731 328.479C202.686 327.629 201.751 326.664 201.895 325.586C202.046 324.468 203.164 323.541 205.23 322.798C207.265 322.066 210.278 321.674 214.287 321.615L214.31 320.299ZM214.129 326.98L214.176 324.352C212.154 324.574 211.125 324.991 211.096 325.606C211.065 326.279 212.073 326.739 214.129 326.98ZM219.76 331.002L219.867 334.157C222.296 333.94 223.479 333.408 223.424 332.569C223.373 331.814 222.149 331.294 219.76 331.002Z" fill="#88ABD8"/>
<path d="M294.783 329.283C296.184 331.216 292.627 332.833 286.793 332.833C280.958 332.833 275.36 331.216 274.322 329.283C273.321 327.418 276.973 325.952 282.45 325.952C287.926 325.952 293.429 327.418 294.783 329.283Z" fill="#5470B4"/>
<path d="M157.698 329.283C156.661 331.216 151.062 332.833 145.228 332.833C139.393 332.833 135.836 331.216 137.238 329.283C138.591 327.418 144.094 325.952 149.57 325.952C155.047 325.952 158.7 327.418 157.698 329.283Z" fill="#5470B4"/>
<path d="M166.031 166.032C163.664 167.958 161.419 170.072 161.725 170.993L161.786 171.178C162.027 171.119 162.27 171.061 162.512 171.003C162.512 171.003 161.87 171.39 162.796 170.935C162.869 170.917 162.943 170.898 163.016 170.88C162.398 171.551 162.091 172.326 162.462 173.21C163.681 176.12 167.968 174.472 170.133 173.872C171.891 173.384 178.512 170.552 180.114 169.695C181.991 168.689 183.996 164.872 182.41 162.928C180.783 160.935 173.875 166.257 172.557 164.648C171.826 163.758 173.731 160.634 170.944 162.289C170.394 162.712 168.164 164.296 166.031 166.032Z" fill="#EAB1B8"/>
<path d="M94.2645 333.305C94.2645 333.305 88.646 347.674 100.231 393.922C101.158 397.624 104.042 397.39 105.584 396.197C106.619 395.397 106.625 393.888 106.625 393.888C106.625 393.888 112.083 341.197 110.709 334.695C109.334 328.193 94.2645 333.305 94.2645 333.305Z" fill="#EAB1B8"/>
<path d="M109.17 226.934H82.3225C82.3253 227.054 82.3286 227.173 82.3286 227.288C82.347 232.428 82.3845 237.569 82.4539 242.71C82.6302 255.711 82.3407 252.368 83.0948 265.35C83.7367 276.392 91.8043 326.573 92.961 329.247C94.1354 331.962 93.577 336.897 95.9139 338.95C99.632 342.216 106.901 343.946 110.022 339.867C112.131 337.112 111.18 322.982 111.562 319.471C111.888 316.487 111.876 313.43 112.013 310.642C112.561 299.433 111.802 288.197 111.757 276.986C111.693 261.272 111.648 246.102 109.17 226.934Z" fill="#3A507B"/>
<path d="M122.278 398.665C120.45 398.399 119.882 398.651 118.05 398.351C116.245 398.055 114.467 397.422 112.831 396.608C111.212 395.804 108.854 394.162 107.465 393.051C107.289 392.91 107.111 392.794 106.933 392.688C104.459 393.83 103.043 393.754 100.393 392.632C100.142 392.526 99.9778 392.371 99.8863 392.193C99.8099 392.254 99.7406 392.324 99.6786 392.404C99.2541 392.946 99.1789 393.697 99.0794 394.355C98.8933 395.581 98.3172 400.677 98.5681 401.884C98.9228 403.591 108.211 405.626 111.258 405.815C115.362 406.07 118.493 406.242 122.545 405.586C126.495 404.946 125.374 399.117 122.278 398.665Z" fill="#374D7E"/>
<path d="M74.893 331.745C74.893 331.745 80.512 346.115 68.9269 392.364C67.9997 396.066 65.1169 395.831 63.5737 394.638C62.539 393.838 62.5338 392.328 62.5338 392.328C62.5338 392.328 59.7498 338.684 61.125 332.184C62.4989 325.681 74.893 331.745 74.893 331.745Z" fill="#EAB1B8"/>
<path d="M60.8664 226.934C60.2693 228.236 59.8687 229.42 59.7399 230.396C57.433 247.938 57.466 259.585 57.4011 275.426C57.3556 286.639 58.5868 321.335 59.2685 334.367C59.5367 339.498 70.942 343.133 74.6594 339.867C76.9966 337.813 78.6381 336.053 79.8122 333.338C80.9688 330.664 85.1689 270.983 85.8108 259.941C86.565 246.959 86.527 254.153 86.7034 241.151C86.7675 236.412 86.8024 231.674 86.8222 226.934L60.8664 226.934Z" fill="#3A507B"/>
<path d="M84.2808 399.238C82.4518 398.97 81.884 399.223 80.0522 398.924C78.2468 398.628 76.4697 397.995 74.8327 397.181C73.2138 396.377 70.8564 394.735 69.4665 393.623C69.2911 393.483 69.1135 393.365 68.9347 393.259C66.4611 394.402 65.045 394.326 62.3949 393.205C62.1438 393.099 61.9799 392.944 61.8877 392.766C61.812 392.825 61.7426 392.896 61.6799 392.976C61.2552 393.519 61.1807 394.269 61.0805 394.928C60.8949 396.154 60.3188 401.249 60.5699 402.456C60.9246 404.164 70.2126 406.198 73.26 406.386C77.3639 406.642 80.4948 406.814 84.5463 406.158C88.4972 405.518 87.3763 399.69 84.2808 399.238Z" fill="#374D7E"/>
<path d="M107.959 393.926C109.449 378.529 111.721 339.483 110.709 334.695C109.334 328.193 94.2648 333.305 94.2648 333.305C94.2648 333.305 87.5415 347.705 99.4807 393.579L107.959 393.926Z" fill="#3A507B"/>
<path d="M70.2375 394.012C79.83 352.573 80.274 328.722 80.274 328.722C80.274 328.722 58.9553 320.845 59.5097 332.876C59.7431 337.935 60.2308 378.137 61.2172 394.216L70.2375 394.012Z" fill="#3A507B"/>
<path d="M135.681 202.542C133.765 201.775 128.5 198.633 128.704 195.589C128.874 193.039 129.999 192.459 129.997 192.46C141.206 184.036 152.014 177.204 161.248 172.371C170.327 167.619 166.662 176.689 166.662 176.689C158.51 184.719 151.482 192.96 135.681 202.542Z" fill="#EAB1B8"/>
<path d="M141.528 195.026C135.076 175.447 130.722 174.703 125.09 165.943C116.841 153.117 99.0105 142.212 96.5389 151.749C95.3275 156.423 128.553 194.172 133.741 201.604C136.473 200.561 138.465 196.807 141.528 195.026Z" fill="#EAB1B8"/>
<path d="M133.05 204.373C128.524 198.236 109.909 173.685 107.959 171.482C96.603 158.656 91.2423 153.28 96.324 146.224C102.081 138.23 116.175 151.638 125.609 163.173C131.838 170.79 134.78 174.944 143.085 190.525C144.358 195.684 138.463 206.393 133.05 204.373Z" fill="#568CCA"/>
<path d="M159.232 173.272C150.362 178.043 139.151 183.803 128.585 191.744C127.694 195.415 128.874 193.038 128.704 195.588C128.5 198.632 134.896 203.208 136.812 203.976C151.108 195.306 157.065 186.999 164.329 179.688L159.232 173.272Z" fill="#568CCA"/>
<path d="M161.45 182.728C162.426 181.66 163.383 180.64 164.328 179.688L159.231 173.272C158.004 173.933 156.734 174.636 155.433 175.371L161.45 182.728Z" fill="white"/>
<path d="M103.339 143.85C102.053 143.398 93.7074 141.623 92.1951 141.35C90.43 142.946 88.2756 140.631 85.6489 140.526C82.9111 140.417 79.7002 142.453 77.8755 141.033C77.7685 140.95 77.6831 140.862 77.6017 140.773C76.2543 140.847 79.8118 140.96 78.4219 141.081C74.7859 141.497 63.6833 146.796 61.3492 148.236C51.7862 154.136 55.223 162.427 55.4256 165.799C55.9634 174.762 56.8143 245.673 55.1952 255.354C55.1952 255.354 113.332 255.354 113.335 255.354C114.317 254.496 111.948 176.048 111.258 164.646C110.335 149.413 110.782 146.47 103.339 143.85Z" fill="#568CCA"/>
<path d="M84.8582 91.9602C81.7448 91.4421 78.7377 92.2357 75.9602 93.6321C74.6734 94.2778 73.762 94.7164 72.3669 95.0898C67.6563 96.3505 66.5989 103.395 66.9677 107.457C67.1698 109.688 68.072 111.894 68.6974 114.026C70.3408 119.628 74.9135 125.308 81.2885 125.025C85.3525 124.845 89.5302 122.611 92.0392 119.423C98.3145 111.456 96.64 93.9202 84.8582 91.9602Z" fill="#4865A2"/>
<path d="M73.0478 117.702C74.1339 120.065 78.5144 122.523 78.9134 120.186C79.1579 118.755 78.9662 115.782 77.8803 113.419C76.7944 111.056 77.133 110.638 74.9798 111.63C72.8263 112.62 71.9611 115.339 73.0478 117.702Z" fill="#EAB1B8"/>
<path d="M78.8357 122.216C79.2283 117.074 94.2963 126.633 94.2963 126.633L92.6834 146.251C92.6834 146.251 92.5268 145.463 85.1161 145.639C80.6 145.745 77.7889 147.168 78.0143 142.947C78.1532 140.337 78.6996 123.994 78.8357 122.216Z" fill="#EAB1B8"/>
<path d="M78.6091 127.176C80.7418 134.067 86.8623 139.035 93.2708 138.523L94.2964 126.633C94.2964 126.633 79.2283 117.074 78.8357 122.216C78.794 122.76 78.8909 121.151 78.6631 123.402C78.7548 123.512 78.5584 127.013 78.6091 127.176Z" fill="#E5958A"/>
<path d="M97.6798 129.44C93.3879 132.89 84.9288 131.936 81.2075 128.128C78.9559 125.823 77.6877 123.25 77.1776 120.189C76.6034 116.741 76.8741 113.486 76.3245 110.017C76.087 108.52 75.8837 107.008 75.9646 105.49C76.0926 103.063 76.9668 100.663 78.4439 98.6805C79.8966 96.7298 82.1778 95.7389 84.2138 94.4827C85.9379 93.4202 87.8687 92.1082 89.9036 91.753C91.3071 91.5081 92.2513 92.3451 93.412 93.0672C99.7134 96.9838 102.884 105.903 103.062 113.054C103.194 118.378 102.097 125.888 97.6798 129.44Z" fill="#EAB1B8"/>
<path d="M95.2727 203.581C95.2727 203.581 89.7341 219.822 88.0702 219.895C86.099 219.981 81.54 203.581 81.54 203.581L84.6712 148.583H89.17L95.2727 203.581Z" fill="#EB5161"/>
<path d="M91.1169 145.921C91.1169 148.374 89.3353 150.364 87.1371 150.364C84.9395 150.364 83.1575 148.374 83.1575 145.921C83.1575 143.467 85.1126 140.958 87.3104 140.958C89.5084 140.958 91.1169 143.467 91.1169 145.921Z" fill="#EB5161"/>
<path d="M87.8294 148.424C85.5779 147.623 84.0215 145.923 83.5871 143.898C83.3162 144.54 83.1575 145.231 83.1575 145.921C83.1575 148.374 84.9395 150.364 87.1371 150.364C88.4439 150.364 89.5994 149.658 90.3253 148.572C89.5716 148.767 88.7411 148.749 87.8294 148.424Z" fill="#CC4554"/>
<path d="M78.7741 135.072L86.2721 140.265L82.1328 149.044L71.1743 143.389C71.1743 143.389 74.8518 135.419 78.7741 135.072Z" fill="white"/>
<path d="M86.2722 140.265L92.746 148.12L98.7305 142.805C98.7305 142.805 97.1156 137.612 93.5395 137.035L86.2722 140.265Z" fill="white"/>
<path d="M103.46 88.349C103.274 85.8517 101.768 85.821 99.615 86.1466C97.5186 86.4632 95.4491 87.0848 93.2942 87.1794C90.8995 87.2865 88.8119 86.8116 86.4993 86.4448C82.5036 85.8127 78.3719 86.8366 74.7369 88.7385C69.2801 91.5914 65.9618 101.048 66.9498 107.261C67.2764 109.313 68.0775 108.83 69.6426 110.198C70.3564 110.822 71.3001 111.603 72.2045 111.924C73.0029 112.208 74.1004 111.833 74.9349 111.747C75.2752 111.28 76.2218 112.128 76.5097 112.524C76.9764 113.166 77.2613 114.432 78.338 114.11C79.3043 113.82 79.6385 112.59 79.7371 111.728C79.9465 109.895 79.6908 108.058 79.7545 106.222C79.8854 102.447 83.3514 102.443 86.3302 101.894C91.4365 100.951 96.1294 100.229 100.392 96.8435C102.75 94.9725 103.675 91.2463 103.46 88.349Z" fill="#4865A2"/>
<path d="M175.485 188.952C159.055 188.952 145.737 175.628 145.737 159.192C145.737 142.755 159.055 129.431 175.485 129.431C191.915 129.431 205.234 142.755 205.234 159.192C205.234 175.628 191.915 188.952 175.485 188.952ZM233.839 166.641V151.63H227.924C227.658 149.773 227.302 147.945 226.85 146.156L232.316 143.91L226.618 130.023L221.127 132.278C220.123 130.579 219.035 128.935 217.854 127.364L222.052 123.163L211.442 112.549L207.237 116.756C205.756 115.645 204.21 114.614 202.613 113.661L204.909 108.167L191.064 102.378L188.772 107.867C186.883 107.379 184.951 107.002 182.988 106.724V100.758H167.982V106.724C166.132 106.986 164.31 107.34 162.526 107.789L160.266 102.282L146.385 107.981L148.646 113.494C146.948 114.494 145.304 115.578 143.733 116.756L139.528 112.549L128.918 123.163L133.116 127.364C132.002 128.846 130.967 130.391 130.01 131.987L124.538 129.699L118.752 143.55L124.202 145.829C123.71 147.723 123.328 149.66 123.046 151.63H117.132V166.641H123.032C123.293 168.502 123.647 170.332 124.097 172.126L118.654 174.361L124.352 188.248L129.79 186.015C130.795 187.724 131.882 189.377 133.066 190.957L128.917 195.108L139.528 205.722L143.669 201.579C145.159 202.699 146.712 203.74 148.317 204.702L146.061 210.104L159.905 215.893L162.156 210.505C164.057 210.998 166.004 211.379 167.982 211.66V217.514H182.987V211.66C184.852 211.395 186.688 211.038 188.485 210.585L190.703 215.991L204.585 210.29L202.36 204.869C204.069 203.86 205.72 202.767 207.299 201.579L211.441 205.722L222.052 195.108L217.902 190.957C219.019 189.467 220.054 187.912 221.011 186.306L226.431 188.572L232.217 174.721L226.795 172.455C227.285 170.557 227.659 168.615 227.937 166.641H233.839Z" fill="#E76C63"/>
<path d="M175.485 132.884C160.993 132.884 149.244 144.638 149.244 159.136C149.244 173.634 160.993 185.388 175.485 185.388C189.978 185.388 201.726 173.634 201.726 159.136C201.726 144.638 189.978 132.884 175.485 132.884ZM175.485 171.963C168.404 171.963 162.663 166.22 162.663 159.137C162.663 152.052 168.404 146.309 175.485 146.309C182.567 146.309 188.307 152.052 188.307 159.137C188.307 166.22 182.567 171.963 175.485 171.963Z" fill="#E76C63"/>
<path d="M97.914 204.749C93.2324 184.674 88.9618 183.545 84.1317 174.318C77.0596 160.806 60.2708 148.356 56.9593 157.633C55.3364 162.181 85.0674 202.743 89.5719 210.608C92.3856 209.813 94.7039 206.25 97.914 204.749Z" fill="#EAB1B8"/>
<path d="M88.6358 213.305C84.6749 206.788 67.0056 182.812 65.4445 180.319C54.6008 163.009 51.5477 158.687 57.2379 152.112C63.6839 144.664 76.527 159.276 84.8958 171.606C90.4214 179.747 92.9816 184.148 99.866 200.406C100.673 205.658 93.848 215.799 88.6358 213.305Z" fill="#75A0D5"/>
<path d="M91.7003 209.82C90.1818 208.422 86.3732 203.615 87.6436 200.842C88.708 198.518 89.9654 198.375 89.9625 198.376C103.431 194.479 115.958 191.928 126.305 190.689C136.48 189.47 129.835 196.649 129.835 196.649C119.365 201.262 109.872 206.47 91.7003 209.82Z" fill="#EAB1B8"/>
<path d="M130.732 187.959C128.366 189.885 126.12 191.998 126.426 192.921L126.488 193.105C126.728 193.047 126.971 192.989 127.213 192.931C127.213 192.931 126.57 193.318 127.497 192.861C127.57 192.844 127.643 192.825 127.717 192.808C127.099 193.478 126.792 194.253 127.162 195.138C128.382 198.046 132.67 196.4 134.834 195.8C136.592 195.312 143.213 192.48 144.816 191.621C146.692 190.617 148.698 186.799 147.11 184.854C145.484 182.861 138.576 188.184 137.258 186.576C136.528 185.684 138.432 182.561 135.645 184.215C135.095 184.639 132.864 186.223 130.732 187.959Z" fill="#EAB1B8"/>
<path d="M124.101 190.817C114.116 192.128 101.592 193.533 88.8972 197.206C86.7616 200.322 88.7083 198.518 87.6438 200.842C86.3735 203.615 87.9893 212.194 89.5084 213.592C105.949 210.561 117.207 202.88 126.59 198.624L124.101 190.817Z" fill="#75A0D5"/>
<path d="M122.82 200.445C124.113 199.792 125.368 199.178 126.59 198.624L124.101 190.817C122.719 190.998 121.282 191.204 119.805 191.43L122.82 200.445Z" fill="white"/>
<path d="M373.017 114.645C373.368 115.474 373.647 116.304 373.837 117.131C375.064 122.485 373.028 130.442 372.124 135.858C370.689 142.675 381.711 148.217 386.214 151.654C392.238 156.253 394.66 162.673 394.036 170.559C393.491 177.461 388.738 185.322 382.208 188.216C377.968 190.093 373.207 188.736 369.527 192.097C365.699 195.593 365.489 203.417 358.313 199.839C353.564 197.47 350.196 189.494 347.425 185.234C342.986 178.407 342.012 169.89 337.368 163.216C332.34 155.989 325.428 155.587 329.456 145.135C331.443 139.98 328.49 135.377 327.229 130.4C325.759 124.6 327.099 119.193 329.565 114.037C330.974 111.092 330.446 108.073 332.133 105.186C333.961 102.057 335.503 99.2342 338.689 97.2481C345.432 93.0446 356.238 94.976 361.721 100.351C365.481 104.037 370.752 109.304 373.017 114.645Z" fill="#E76C63"/>
<path d="M301.538 158.538C307.64 157.288 315.668 156.752 318.016 156.059C331.699 152.026 344.812 148.758 346.797 155.007C349.046 162.087 334.82 168.677 322.894 171.61C312.523 174.16 305.047 173.694 293.85 174.226C293.991 169.71 297.61 161.883 301.538 158.538Z" fill="#53A4C5"/>
<path d="M356.383 122.538C355.925 124.827 352.61 127.888 351.775 125.929C351.264 124.731 350.813 122.092 351.271 119.802C351.728 117.512 351.345 117.218 353.433 117.635C355.52 118.052 356.841 120.247 356.383 122.538Z" fill="#EAB1B8"/>
<path d="M352.115 130.17C351.763 125.552 338.231 134.136 338.231 134.136L339.679 151.754C339.679 151.754 339.82 151.047 346.475 151.205C350.531 151.3 353.971 151.105 353.769 147.314C353.644 144.971 352.237 131.767 352.115 130.17Z" fill="#EAB1B8"/>
<path d="M352.319 134.624C350.404 140.812 344.907 145.273 339.152 144.815L338.231 134.136C338.231 134.136 351.763 125.552 352.116 130.17C352.153 130.659 352.311 132.238 352.515 134.258C352.433 134.357 352.364 134.478 352.319 134.624Z" fill="#E5958A"/>
<path d="M337.306 137.92C341.773 140.041 348.964 137.447 351.423 133.344C352.911 130.862 353.483 128.351 353.293 125.571C353.077 122.439 352.163 119.651 351.922 116.506C351.818 115.15 351.681 113.786 351.295 112.478C350.678 110.384 349.416 108.469 347.713 107.044C346.038 105.642 343.839 105.252 341.799 104.579C340.072 104.009 338.112 103.264 336.261 103.378C334.984 103.457 334.333 104.384 333.469 105.255C328.779 109.99 327.864 118.442 329.196 124.725C330.188 129.404 332.709 135.737 337.306 137.92Z" fill="#EAB1B8"/>
<path d="M333.227 248.326C333.65 257.127 336.283 262.91 338.195 267.919C348.152 294.01 355.369 318.751 359.586 325.852C364.198 333.618 377.797 319.661 377.797 319.661C377.797 319.661 359.033 241.889 354.708 236.892C350.381 231.895 332.889 241.271 333.227 248.326Z" fill="#EAB1B8"/>
<path d="M333.227 248.326C333.65 257.127 336.283 262.91 338.195 267.919C348.152 294.01 355.369 318.751 359.586 325.852C364.198 333.618 378.938 322.819 378.938 322.819C378.938 322.819 362.284 242.363 357.958 237.366C353.632 232.368 332.889 241.271 333.227 248.326Z" fill="#3F578E"/>
<path d="M362.023 336.394C362.023 336.394 365.464 347.564 392.423 380.819C396.029 385.266 397.468 378.833 397.468 378.833C397.468 378.833 376.458 329.213 372.875 324.442C369.292 319.67 362.023 336.394 362.023 336.394Z" fill="#EAB1B8"/>
<path d="M371.476 363.872C361.999 346.672 358.653 324.452 358.653 324.452C358.653 324.452 374.888 317.348 378.471 322.12C380.28 324.528 386.814 338.843 392.927 352.676C388.169 355.041 371.524 363.852 371.476 363.872Z" fill="#3F578E"/>
<path d="M333.904 244.274C328.978 251.578 327.629 257.788 326.164 262.945C318.532 289.809 314.686 310.426 313.817 318.638C312.866 327.622 326.937 328.108 326.937 328.108C326.937 328.108 358.429 254.569 357.953 247.975C357.477 241.38 337.854 238.419 333.904 244.274Z" fill="#EAB1B8"/>
<path d="M314.095 336.179C314.095 336.179 312.169 348.12 322.572 389.652C323.964 395.206 328.314 389.622 328.314 389.622C328.314 389.622 330.096 343.266 328.863 337.427C327.628 331.59 314.095 336.179 314.095 336.179Z" fill="#EAB1B8"/>
<path d="M310.388 373.67C306.977 348.179 312.138 321.886 312.138 321.886C312.138 321.886 327.691 322.345 328.925 328.184C329.62 331.472 335.032 360.53 335.22 373.67H310.388Z" fill="#4865A2"/>
<path d="M314.297 305.651C316.35 294.195 319.034 282.852 322.334 271.693C326.08 259.021 329.249 247.904 334.445 235.784C335.779 232.672 334.016 219.45 336.049 218.102C340.786 214.96 352.894 218.793 359.352 220.069C360.892 220.374 361.871 221.156 363.199 221.993C365.369 223.361 368.235 230.733 368.97 233.191C370.971 239.873 369.465 248.206 365.906 253.888C363.057 258.436 360.37 263.084 357.752 267.769C355.504 271.794 352.72 275.386 350.411 279.432C345.263 288.453 341.913 298.264 338.155 307.965C336.884 311.247 328.81 326.809 328.773 329.086C328.576 341.13 317.813 324.016 314.119 322.936C311.991 322.314 312.114 321.92 312.243 319.628C312.342 317.877 312.595 316.138 312.855 314.406C313.295 311.482 313.775 308.563 314.297 305.651Z" fill="#4865A2"/>
<path d="M335.076 224.315C334.033 203.469 329.982 172.8 332.608 169.834C337.231 164.613 337.449 153.209 340.794 149.026C345.797 142.769 350.119 139.831 356.372 148.886C358.492 151.955 361.112 170.359 361.612 172.659C362.721 177.754 363.141 203.137 364.398 223.582L335.076 224.315Z" fill="#EAB1B8"/>
<path d="M335.077 224.314C333.996 209.048 332.968 196.419 331.643 187.397C331.242 184.662 330.409 182.017 329.956 179.323C329.538 176.83 330.719 173.401 331.721 171.151C332.743 168.858 333.816 166.564 334.788 164.245C335.745 161.965 336.49 159.603 337.237 157.248C337.469 156.514 338.707 151.178 339.445 151.115C339.525 151.108 342.313 150.87 343.416 150.632C345.395 150.205 347.24 149.438 348.978 148.402C349.453 148.119 353.221 145.045 353.338 145.169C359.424 151.574 362.909 160.83 363.884 169.046C364.237 172.014 363.706 217.365 364.773 223.743L335.077 224.314Z" fill="white"/>
<path d="M337.726 196.448C337.452 187.18 337.734 177.796 340.47 168.865C342.826 161.176 346.343 154.067 350.531 147.225C351.762 146.266 353.264 145.092 353.337 145.169C359.424 151.574 362.909 160.83 363.884 169.046C364.236 172.014 370.643 226.637 371.71 233.015L342.564 238.614C341.003 228.951 338.015 206.17 337.726 196.448Z" fill="#53A4C5"/>
<path d="M338.435 211.726C338.994 212.292 345.9 215.345 347.17 212.517C352.31 201.068 354.873 193.592 357.731 185.037C361.624 173.384 361.87 159.168 354.533 158.026C348.057 157.017 345.703 174.675 343.211 188.726C342.68 191.713 340.896 195.192 338.734 204.806C338.734 204.806 337.309 209.895 338.435 211.726Z" fill="#EAB1B8"/>
<path d="M342.575 96.2149C341.834 96.7002 341.266 97.4414 340.4 98.2728C338.662 99.94 337.004 101.773 336.295 104.132C335.841 105.647 335.617 107.47 335.479 109.042C335.223 111.968 336.289 114.63 338.608 116.387C340.402 117.746 342.378 118.388 344.565 118.723C345.694 118.896 347.115 119.185 348.038 119.905C348.707 120.428 348.806 121.373 349.44 121.85C351.606 123.484 351.597 119.996 351.799 118.878C351.693 119.465 351.818 119.026 352.174 117.561C352.948 114.353 352.931 111.734 354.794 108.942C356.43 106.491 357.073 102.032 355.358 99.4512C353.422 96.5358 348.015 95.6475 344.823 95.6247C343.825 95.618 343.148 95.8403 342.575 96.2149Z" fill="#E76C63"/>
<path d="M308.323 393.208C309.964 392.968 310.475 393.194 312.12 392.926C313.741 392.659 315.337 392.091 316.807 391.361C318.261 390.639 320.378 389.164 321.626 388.165C321.784 388.039 321.943 387.934 322.103 387.838C324.325 388.864 325.596 388.796 327.976 387.789C328.202 387.693 328.349 387.554 328.432 387.395C328.501 387.45 328.563 387.512 328.618 387.584C329 388.072 329.067 388.746 329.157 389.336C329.323 390.438 329.841 395.013 329.616 396.097C329.297 397.631 320.956 399.458 318.219 399.628C314.534 399.856 311.722 400.011 308.084 399.421C304.536 398.848 305.543 393.613 308.323 393.208Z" fill="#374D7E"/>
<path d="M379.547 387.641C381.003 386.844 381.561 386.88 383.009 386.055C384.437 385.242 385.736 384.153 386.86 382.957C387.972 381.774 389.444 379.656 390.267 378.285C390.371 378.111 390.484 377.958 390.602 377.813C393.041 378.002 394.21 377.495 396.091 375.723C396.269 375.555 396.359 375.374 396.381 375.195C396.464 375.222 396.544 375.26 396.622 375.308C397.149 375.632 397.446 376.24 397.735 376.763C398.275 377.738 400.35 381.848 400.516 382.942C400.75 384.491 393.564 389.106 391.058 390.217C387.682 391.714 385.099 392.837 381.483 393.551C377.957 394.245 377.082 388.989 379.547 387.641Z" fill="#374D7E"/>
<path d="M328.134 113.934C328.786 110.152 329.775 106.055 331.957 102.832C333.507 100.54 335.932 97.9017 338.484 96.7937C339.878 96.1878 341.987 95.319 343.477 95.5285C345.36 99.2434 341.833 104.483 340.169 107.86C339.04 110.15 337.082 110.729 335.422 112.345C334.155 113.578 333.283 115.121 332.211 116.51C331.063 117.997 329.714 119.059 328.905 120.804C327.387 120.107 327.911 115.23 328.134 113.934Z" fill="#E76C63"/>
<path d="M326.435 153.42V141.647H317.023C316.858 140.6 316.647 139.571 316.401 138.554L325.187 135.083L320.864 124.132L311.975 127.644C311.222 126.371 310.405 125.143 309.52 123.967L316.305 117.18L307.982 108.855L301.135 115.705C300.145 114.983 299.123 114.302 298.068 113.671L301.787 104.709L290.918 100.194L287.181 109.199C285.982 108.904 284.765 108.66 283.526 108.477V98.7202H271.757V108.477C270.75 108.626 269.759 108.82 268.778 109.043L265.197 99.9684L254.25 104.293L257.815 113.327C256.548 114.055 255.323 114.848 254.149 115.705L247.301 108.855L238.979 117.18L245.763 123.967C245.017 124.958 244.319 125.986 243.666 127.045L234.836 123.378L230.322 134.252L239.044 137.875C238.723 139.109 238.463 140.368 238.26 141.647H228.849V153.42H238.146C238.293 154.488 238.482 155.542 238.711 156.581L230.097 159.983L234.419 170.934L242.93 167.573C243.688 168.912 244.519 170.203 245.423 171.44L238.978 177.887L247.3 186.212L253.68 179.829C254.73 180.621 255.818 181.362 256.945 182.048L253.496 190.358L264.365 194.872L267.795 186.607C269.091 186.936 270.414 187.2 271.756 187.399V196.347H283.525V187.399C284.633 187.235 285.722 187.019 286.797 186.766L290.086 195.098L301.032 190.775L297.727 182.4C299.069 181.615 300.366 180.761 301.602 179.829L307.981 186.212L316.304 177.887L309.86 171.44C310.625 170.391 311.34 169.304 312.003 168.181L320.447 171.689L324.961 160.815L316.413 157.265C316.715 156.006 316.957 154.723 317.137 153.42H326.435V153.42ZM277.642 170.591C264.913 170.591 254.594 160.268 254.594 147.534C254.594 134.799 264.913 124.476 277.642 124.476C290.371 124.476 300.69 134.799 300.69 147.534C300.69 160.268 290.371 170.591 277.642 170.591Z" fill="#5470B4"/>
<path d="M339.398 212.13C340.993 211.187 345.238 207.678 344.641 205.005C344.141 202.764 343.064 202.403 343.066 202.405C331.967 196.459 321.441 191.871 312.586 188.844C303.878 185.867 308.369 193.418 308.369 193.418C316.702 199.431 324.065 205.783 339.398 212.13Z" fill="#EAB1B8"/>
<path d="M338.018 199.776C339.62 193.754 342.72 186.327 343.147 183.915C345.641 169.864 348.562 156.665 355.039 157.674C362.376 158.816 361.93 174.494 359.235 186.48C356.893 196.905 353.143 203.392 348.627 213.655C344.65 211.515 339.259 204.785 338.018 199.776Z" fill="white"/>
<path d="M285.964 191.551C290.022 192.273 292.634 192.601 292.634 192.601L295.514 190.831C295.514 190.831 294.745 189.823 291.306 189.373C289.968 189.199 286.455 188.588 287.103 187.435C287.752 186.284 293.544 187.317 296.838 186.976C298.107 186.844 299.547 187.202 300.735 187.624L300.736 187.623L311.141 188.502L309.943 193.305L293.763 196.404L283.631 192.985C283.63 192.985 281.906 190.829 285.964 191.551Z" fill="#EAB1B8"/>
<path d="M294.027 158.753C294.59 155.998 296.409 153.488 299.443 153.531C301.989 153.568 302.719 156.333 303.127 158.361C303.813 161.762 303.331 163.434 299.931 165.093C295.114 167.443 293.193 162.83 294.027 158.753Z" fill="#EAB1B8"/>
<path d="M204.721 253.034C193.535 253.034 184.633 249.532 178.264 242.623C166.235 229.572 167.735 209.202 167.804 208.341C167.916 206.972 169.06 205.917 170.434 205.917H200.576C202.034 205.917 203.214 207.097 203.214 208.555C203.214 210.012 202.034 211.194 200.576 211.194H172.998C173.011 216.663 173.939 230.166 182.161 239.065C187.489 244.833 195.079 247.758 204.721 247.758C206.178 247.758 207.359 248.939 207.359 250.396C207.359 251.853 206.178 253.034 204.721 253.034Z" fill="#FEC463"/>
<path d="M198.692 206.042C200.15 206.042 201.33 207.223 201.33 208.68C201.33 209.858 200.56 210.853 199.496 211.194H200.576C202.033 211.194 203.214 210.012 203.214 208.555C203.214 207.097 202.033 205.917 200.576 205.917H170.433C170.155 205.917 169.887 205.961 169.634 206.042H198.692Z" fill="#FAAD5E"/>
<path d="M204.721 247.758C195.079 247.758 187.489 244.833 182.161 239.065C174 230.231 173.026 216.864 172.999 211.319H171.114C171.127 216.788 172.056 230.291 180.277 239.191C185.605 244.959 193.195 247.883 202.837 247.883C204.294 247.883 205.475 249.064 205.475 250.522C205.475 251.678 204.731 252.657 203.696 253.015C204.038 253.02 204.375 253.034 204.721 253.034C206.178 253.034 207.359 251.853 207.359 250.397C207.359 248.939 206.178 247.758 204.721 247.758Z" fill="#FAAD5E"/>
<path d="M203.104 207.801C202.779 206.711 201.771 205.917 200.576 205.917H170.434C169.247 205.917 203.104 207.801 203.104 207.801Z" fill="#FFF7C2"/>
<path d="M250.227 252.532C261.414 252.532 270.315 249.029 276.684 242.12C288.714 229.07 287.213 208.7 287.144 207.839C287.033 206.469 285.889 205.414 284.515 205.414H254.371C252.915 205.414 251.734 206.595 251.734 208.052C251.734 209.509 252.915 210.69 254.371 210.69H281.95C281.937 216.16 281.009 229.663 272.787 238.562C267.459 244.331 259.869 247.254 250.227 247.254C248.77 247.254 247.59 248.436 247.59 249.893C247.59 251.351 248.77 252.532 250.227 252.532Z" fill="#FEC463"/>
<path d="M256.256 205.539C254.799 205.539 253.618 206.72 253.618 208.178C253.618 209.355 254.389 210.351 255.452 210.69H254.372C252.915 210.69 251.734 209.509 251.734 208.052C251.734 206.595 252.915 205.414 254.372 205.414H284.515C284.793 205.414 285.061 205.458 285.314 205.539H256.256Z" fill="#FAAD5E"/>
<path d="M250.227 247.254C259.869 247.254 267.459 244.331 272.788 238.563C280.948 229.729 281.922 216.362 281.949 210.817H283.834C283.821 216.286 282.893 229.789 274.672 238.689C269.343 244.456 261.753 247.381 252.111 247.381C250.654 247.381 249.473 248.562 249.473 250.019C249.473 251.175 250.218 252.155 251.252 252.511C250.911 252.518 250.573 252.532 250.227 252.532C248.77 252.532 247.59 251.351 247.59 249.893C247.59 248.436 248.77 247.254 250.227 247.254Z" fill="#FAAD5E"/>
<path d="M251.845 207.298C252.169 206.209 253.177 205.414 254.371 205.414H284.515C285.701 205.414 251.845 207.298 251.845 207.298Z" fill="#FFF7C2"/>
<path d="M198.127 198.377V237.985C198.127 253.167 210.429 265.473 225.604 265.473H230.184C245.358 265.473 257.661 253.167 257.661 237.985V198.377H198.127Z" fill="#FFD686"/>
<path d="M204.287 217.046C221.664 210.92 239.765 207.467 257.661 203.267V198.377H198.127V219.336C200.167 218.542 202.22 217.775 204.287 217.046Z" fill="#FEC463"/>
<path d="M264.443 198C264.443 200.499 262.713 202.524 260.578 202.524H195.21C193.075 202.524 191.345 200.499 191.345 198V195.362C191.345 192.864 193.075 190.838 195.21 190.838H260.579C262.713 190.838 264.443 192.864 264.443 195.362L264.443 198Z" fill="#FFD686"/>
<path d="M256.153 226.837C256.153 236.1 254.803 243.611 253.139 243.611C251.474 243.611 250.125 236.1 250.125 226.837C250.125 217.573 251.474 210.063 253.139 210.063C254.804 210.063 256.153 217.573 256.153 226.837Z" fill="#FFF7C2"/>
<path d="M204.784 191.467C204.784 192.507 218.42 193.351 235.241 193.351C247.887 193.351 258.73 192.874 263.335 192.195C262.634 191.358 261.658 190.838 260.578 190.838H206.524C205.401 191.035 204.784 191.246 204.784 191.467Z" fill="#FFF7C2"/>
<path d="M235.619 264.343H220.17V272.259H235.619V264.343Z" fill="#FEC463"/>
<path d="M232.793 272.259H222.996V313.346H232.793V272.259Z" fill="#FFD686"/>
<path d="M239.386 302.037H216.402L208.866 313.346H246.922L239.386 302.037Z" fill="#FEC463"/>
<path d="M237.336 302.037H231.668C227.811 305.781 223.975 309.544 220.175 313.346H226.164C229.899 309.588 233.623 305.818 237.336 302.037Z" fill="#FFD686"/>
<path d="M228.797 302.037H226.113C222.355 305.802 218.602 309.57 214.856 313.346H217.359C221.142 309.547 224.957 305.779 228.797 302.037Z" fill="#FFD686"/>
<path d="M255.588 312.969H200.2V320.885H255.588V312.969Z" fill="#FBAA34"/>
<path d="M205.098 312.969H200.2V320.885H205.098V312.969Z" fill="#FEC463"/>
</svg>
