<svg width="750" height="500" viewBox="0 0 750 500" fill="none" xmlns="http://www.w3.org/2000/svg">
<g clip-path="url(#clip0_127_3632)">
<path d="M750 0H0V500H750V0Z" fill="white"/>
<path opacity="0.81" d="M78.6659 244.311C73.1299 235.385 75.8779 223.662 84.8039 218.126C93.7299 212.59 111.654 211.492 117.19 220.418C122.726 229.344 109.04 238.497 103.899 247.656C96.7289 260.429 84.2019 253.236 78.6659 244.311Z" fill="#ECF1F7"/>
<path opacity="0.47" d="M670.747 326.171C659.067 322.562 652.525 310.167 656.135 298.486C659.744 286.806 674.646 272.148 686.327 275.757C698.007 279.367 692.981 297.861 695.463 309.831C698.924 326.527 682.427 329.78 670.747 326.171Z" fill="#ECF1F7"/>
<path opacity="0.47" d="M657.717 87.5659C653.535 101.101 639.172 108.682 625.637 104.499C612.102 100.316 595.117 83.0479 599.3 69.5129C603.483 55.9779 624.913 61.8019 638.784 58.9259C658.13 54.9159 661.9 74.0319 657.717 87.5659Z" fill="#ECF1F7"/>
<path opacity="0.47" d="M625.314 404.844C635.829 380.239 645.324 362.052 633.28 330.752C624.299 307.412 648.7 288.19 658.14 266.464C666.542 247.128 669.308 223.875 667.258 202.807C664.46 174.043 651 145.23 627.688 124.639C591.363 92.554 536.416 84.467 488.259 91.885C468.088 94.992 448.084 100.495 427.431 98.763C397.308 96.237 370.773 78.919 343.347 66.224C319.826 55.337 254.738 45.249 223.528 51.162C178.527 59.686 132.061 111.153 129 154C126 196 154 201 145 234C139.814 253.015 95.2427 278.055 96.4107 321.414C97.7397 370.754 111.786 381.265 130.74 409.992C131.387 410.973 619.628 418.151 625.314 404.844Z" fill="#ECF1F7"/>
<path d="M593.22 398.075C601.136 386.805 606.661 373.752 609.405 360.108C614.479 334.879 606.345 313.359 604.316 288.621C602.395 265.2 610.714 245.504 615.329 223.197C619.436 203.345 618.068 180.859 612.912 161.348C605.873 134.71 589.662 110.043 566.306 95.006C529.913 71.575 481.378 74.334 441.178 90.451C424.34 97.202 408.032 106.184 389.999 108.456C363.698 111.77 338.1 100.433 312.48 93.6321C277.605 84.3741 239.32 83.6871 206.415 98.2991C169.106 114.866 142.578 152.264 145.678 193.455C147.082 212.119 154.267 230.538 151.724 249.079C149.145 267.884 137.973 283.616 132.059 301.327C122.606 329.638 123.199 373.534 144.119 397.08C144.832 397.884 592.679 398.846 593.22 398.075Z" fill="#ECF1F7"/>
<path opacity="0.58" d="M678.5 146C680.985 146 683 143.985 683 141.5C683 139.015 680.985 137 678.5 137C676.015 137 674 139.015 674 141.5C674 143.985 676.015 146 678.5 146Z" fill="#3E479B"/>
<path opacity="0.58" d="M354.5 39C356.985 39 359 36.9853 359 34.5C359 32.0147 356.985 30 354.5 30C352.015 30 350 32.0147 350 34.5C350 36.9853 352.015 39 354.5 39Z" fill="#3E479B"/>
<path opacity="0.58" d="M695.5 193C697.433 193 699 191.433 699 189.5C699 187.567 697.433 186 695.5 186C693.567 186 692 187.567 692 189.5C692 191.433 693.567 193 695.5 193Z" fill="#EF929C"/>
<path opacity="0.58" d="M112.5 112C114.985 112 117 109.985 117 107.5C117 105.015 114.985 103 112.5 103C110.015 103 108 105.015 108 107.5C108 109.985 110.015 112 112.5 112Z" fill="#EF929C"/>
<path opacity="0.58" d="M145.5 54C147.433 54 149 52.433 149 50.5C149 48.567 147.433 47 145.5 47C143.567 47 142 48.567 142 50.5C142 52.433 143.567 54 145.5 54Z" fill="#3E479B"/>
<path opacity="0.58" d="M83.5 131C84.3284 131 85 130.328 85 129.5C85 128.672 84.3284 128 83.5 128C82.6716 128 82 128.672 82 129.5C82 130.328 82.6716 131 83.5 131Z" fill="#3E479B"/>
<path opacity="0.58" d="M430.459 45.217C429.836 48.136 426.964 49.996 424.046 49.373C421.127 48.75 419.267 45.878 419.89 42.96C420.513 40.041 423.385 38.181 426.303 38.804C429.221 39.427 431.082 42.298 430.459 45.217Z" fill="#EF929C"/>
<path opacity="0.58" d="M87.4592 45.217C86.8362 48.136 83.9642 49.996 81.0462 49.373C78.1272 48.75 76.2672 45.878 76.8902 42.96C77.5132 40.041 80.3852 38.181 83.3032 38.804C86.2212 39.427 88.0822 42.298 87.4592 45.217Z" fill="#EF929C"/>
<path opacity="0.58" d="M401.361 74.0271C401.153 75.0001 400.196 75.6201 399.223 75.4121C398.25 75.2041 397.63 74.2471 397.838 73.2741C398.046 72.3011 399.003 71.6811 399.976 71.8891C400.949 72.0971 401.569 73.0541 401.361 74.0271Z" fill="#3E479B"/>
<path opacity="0.58" d="M669.361 363.027C669.153 364 668.196 364.62 667.223 364.412C666.25 364.204 665.63 363.247 665.838 362.274C666.046 361.301 667.003 360.681 667.976 360.889C668.949 361.097 669.569 362.054 669.361 363.027Z" fill="#3E479B"/>
<g opacity="0.68">
<g opacity="0.89">
<path d="M257.498 200.51H104.295C102.913 200.51 101.793 199.39 101.793 198.008V101.343C101.793 99.9611 102.913 98.8411 104.295 98.8411H257.498C258.88 98.8411 260 99.9611 260 101.343V198.008C260 199.389 258.88 200.51 257.498 200.51Z" fill="#4C65BA"/>
</g>
<path d="M235 158.388H122.584C122.17 158.388 121.834 158.052 121.834 157.638C121.834 157.224 122.17 156.888 122.584 156.888H235C235.414 156.888 235.75 157.224 235.75 157.638C235.75 158.052 235.414 158.388 235 158.388Z" fill="white"/>
<path d="M168.572 180.368H122.584C122.17 180.368 121.834 180.032 121.834 179.618C121.834 179.204 122.17 178.868 122.584 178.868H168.572C168.986 178.868 169.322 179.204 169.322 179.618C169.322 180.032 168.986 180.368 168.572 180.368Z" fill="white"/>
<path d="M181.347 170.377H122.584C122.17 170.377 121.834 170.041 121.834 169.627C121.834 169.213 122.17 168.877 122.584 168.877H181.347C181.761 168.877 182.097 169.213 182.097 169.627C182.097 170.041 181.761 170.377 181.347 170.377Z" fill="white"/>
<path d="M217.967 170.377H192.418C192.004 170.377 191.668 170.041 191.668 169.627C191.668 169.213 192.004 168.877 192.418 168.877H217.967C218.381 168.877 218.717 169.213 218.717 169.627C218.717 170.041 218.381 170.377 217.967 170.377Z" fill="white"/>
<path d="M235 124.418H122.584C122.17 124.418 121.834 124.082 121.834 123.668C121.834 123.254 122.17 122.918 122.584 122.918H235C235.414 122.918 235.75 123.254 235.75 123.668C235.75 124.082 235.414 124.418 235 124.418Z" fill="white"/>
<path d="M168.572 146.398H122.584C122.17 146.398 121.834 146.062 121.834 145.648C121.834 145.234 122.17 144.898 122.584 144.898H168.572C168.986 144.898 169.322 145.234 169.322 145.648C169.322 146.063 168.986 146.398 168.572 146.398Z" fill="white"/>
<path d="M181.347 136.407H122.584C122.17 136.407 121.834 136.071 121.834 135.657C121.834 135.243 122.17 134.907 122.584 134.907H181.347C181.761 134.907 182.097 135.243 182.097 135.657C182.097 136.071 181.761 136.407 181.347 136.407Z" fill="white"/>
<path d="M217.967 136.407H192.418C192.004 136.407 191.668 136.071 191.668 135.657C191.668 135.243 192.004 134.907 192.418 134.907H217.967C218.381 134.907 218.717 135.243 218.717 135.657C218.717 136.071 218.381 136.407 217.967 136.407Z" fill="white"/>
<g opacity="0.59">
<path d="M252.757 114.427C252.565 114.427 252.373 114.354 252.227 114.207L245.083 107.064C244.79 106.771 244.79 106.296 245.083 106.003C245.376 105.71 245.851 105.71 246.144 106.003L253.288 113.147C253.581 113.44 253.581 113.915 253.288 114.207C253.141 114.354 252.949 114.427 252.757 114.427Z" fill="white"/>
<path d="M245.614 114.427C245.422 114.427 245.23 114.354 245.084 114.207C244.791 113.914 244.791 113.439 245.084 113.147L252.228 106.003C252.521 105.71 252.996 105.71 253.289 106.003C253.582 106.296 253.582 106.771 253.289 107.064L246.145 114.207C245.998 114.354 245.806 114.427 245.614 114.427Z" fill="white"/>
</g>
</g>
<path d="M142.458 74.105H92.106C90.943 74.105 90 75.048 90 76.211V81.622V84.27V110.316V112.577V112.921C90 114.084 90.943 115.027 92.106 115.027H142.458C143.621 115.027 144.564 114.084 144.564 112.921V112.487V110.458V82.267V79.629V76.212C144.564 75.049 143.621 74.105 142.458 74.105Z" fill="white"/>
<path opacity="0.8" d="M111.215 92.41L116.736 95.308C117.065 95.48 117.456 95.476 117.781 95.293L142.296 80.864L144.141 79.778C144.275 79.699 144.419 79.651 144.565 79.629V76.212C144.565 75.049 143.622 74.106 142.459 74.106H92.106C90.943 74.106 90 75.049 90 76.212V81.623L91.331 82.3L111.215 92.41Z" fill="#4C65BA"/>
<path opacity="0.8" d="M90 84.271V110.317L109.509 94.191L90 84.271Z" fill="#4C65BA"/>
<path opacity="0.8" d="M144.564 110.46V82.2668L124.83 93.8829L144.564 110.46Z" fill="#4C65BA"/>
<path opacity="0.8" d="M143.193 112.391L122.672 95.1528L118.958 97.3388C118.418 97.6428 117.827 97.7948 117.239 97.7948C116.69 97.7948 116.142 97.6628 115.639 97.3988L111.75 95.3568C111.696 95.4278 111.635 95.4958 111.563 95.5558L91.189 112.397C90.969 112.579 90.702 112.668 90.438 112.668C90.288 112.668 90.14 112.635 90 112.579V112.923C90 114.086 90.943 115.029 92.106 115.029H142.458C143.621 115.029 144.564 114.086 144.564 112.923V112.489C144.377 112.603 144.166 112.668 143.951 112.668C143.684 112.668 143.414 112.577 143.193 112.391Z" fill="#4C65BA"/>
<path d="M144.564 79.6289C144.419 79.6509 144.275 79.6979 144.14 79.7779L142.295 80.8639L117.78 95.2929C117.455 95.4759 117.065 95.4809 116.735 95.3079L111.214 92.4099L91.33 82.2999L90 81.6229V84.2709L109.509 94.1909L90 110.317V112.579C90.14 112.635 90.288 112.668 90.438 112.668C90.703 112.668 90.969 112.579 91.189 112.397L111.563 95.5559C111.635 95.4959 111.696 95.4289 111.75 95.3569L115.639 97.3989C116.142 97.6629 116.689 97.7949 117.239 97.7949C117.827 97.7949 118.418 97.6429 118.958 97.3389L122.672 95.1529L143.193 112.391C143.414 112.577 143.684 112.668 143.951 112.668C144.166 112.668 144.377 112.603 144.564 112.489V110.46L124.83 93.8829L144.564 82.2669V79.6289Z" fill="#4C65BA"/>
<g opacity="0.68">
<g opacity="0.89">
<path d="M607.498 342H458.502C457.12 342 456 340.88 456 339.498V290.502C456 289.12 457.12 288 458.502 288H607.498C608.88 288 610 289.12 610 290.502V339.498C610 340.88 608.88 342 607.498 342Z" fill="#4C65BA"/>
</g>
<path d="M582.524 305.388H516.584C516.17 305.388 515.834 305.052 515.834 304.638C515.834 304.224 516.17 303.888 516.584 303.888H582.524C582.938 303.888 583.274 304.224 583.274 304.638C583.274 305.052 582.938 305.388 582.524 305.388Z" fill="white"/>
<path d="M543.56 327.368H516.584C516.17 327.368 515.834 327.032 515.834 326.618C515.834 326.204 516.17 325.868 516.584 325.868H543.56C543.974 325.868 544.31 326.204 544.31 326.618C544.31 327.032 543.974 327.368 543.56 327.368Z" fill="white"/>
<path d="M551.053 317.377H516.584C516.17 317.377 515.834 317.041 515.834 316.627C515.834 316.213 516.17 315.877 516.584 315.877H551.053C551.467 315.877 551.803 316.213 551.803 316.627C551.803 317.041 551.467 317.377 551.053 317.377Z" fill="white"/>
<path d="M572.533 317.377H557.547C557.133 317.377 556.797 317.041 556.797 316.627C556.797 316.213 557.133 315.877 557.547 315.877H572.533C572.947 315.877 573.283 316.213 573.283 316.627C573.283 317.041 572.947 317.377 572.533 317.377Z" fill="white"/>
<g opacity="0.59">
<path d="M601.758 302.427C601.566 302.427 601.374 302.354 601.228 302.207L594.085 295.064C593.792 294.771 593.792 294.296 594.085 294.003C594.378 293.71 594.853 293.71 595.145 294.003L602.289 301.147C602.582 301.44 602.582 301.915 602.289 302.207C602.142 302.353 601.95 302.427 601.758 302.427Z" fill="white"/>
<path d="M594.614 302.427C594.422 302.427 594.23 302.354 594.084 302.207C593.791 301.914 593.791 301.44 594.084 301.147L601.227 294.003C601.52 293.71 601.995 293.71 602.288 294.003C602.581 294.296 602.581 294.771 602.288 295.064L595.144 302.207C594.998 302.353 594.807 302.427 594.614 302.427Z" fill="white"/>
</g>
</g>
<path d="M640.833 321H589.027C587.83 321 586.86 321.97 586.86 323.167V328.734V331.459V358.258V360.585V360.939C586.86 362.136 587.83 363.106 589.027 363.106H640.833C642.03 363.106 643 362.136 643 360.939V360.493V358.405V329.398V326.683V323.167C643 321.97 642.03 321 640.833 321Z" fill="white"/>
<path opacity="0.89" d="M608.687 339.833L614.368 342.815C614.707 342.992 615.108 342.987 615.443 342.799L640.666 327.953L642.564 326.836C642.702 326.754 642.85 326.705 643 326.683V323.167C643 321.97 642.03 321 640.833 321H589.027C587.83 321 586.86 321.97 586.86 323.167V328.734L588.229 329.43L608.687 339.833Z" fill="#4C65BA"/>
<path opacity="0.89" d="M586.859 331.459V358.258L606.932 341.665L586.859 331.459Z" fill="#4C65BA"/>
<path opacity="0.89" d="M643 358.405V329.398L622.696 341.349L643 358.405Z" fill="#4C65BA"/>
<path opacity="0.89" d="M641.589 360.392L620.475 342.656L616.654 344.905C616.098 345.218 615.49 345.374 614.885 345.374C614.32 345.374 613.756 345.238 613.239 344.966L609.238 342.865C609.182 342.938 609.12 343.008 609.046 343.069L588.083 360.397C587.856 360.584 587.582 360.675 587.31 360.675C587.156 360.675 587.004 360.641 586.859 360.583V360.937C586.859 362.134 587.829 363.104 589.026 363.104H640.832C642.029 363.104 642.999 362.134 642.999 360.937V360.491C642.806 360.609 642.589 360.675 642.368 360.675C642.094 360.676 641.817 360.583 641.589 360.392Z" fill="#4C65BA"/>
<path d="M643 326.683C642.85 326.705 642.702 326.755 642.564 326.836L640.666 327.953L615.443 342.8C615.109 342.988 614.707 342.993 614.368 342.816L608.687 339.834L588.229 329.431L586.86 328.735V331.46L606.932 341.666L586.86 358.258V360.585C587.004 360.643 587.156 360.677 587.311 360.677C587.583 360.677 587.857 360.586 588.084 360.399L609.047 343.071C609.121 343.01 609.183 342.94 609.239 342.867L613.24 344.968C613.757 345.24 614.321 345.376 614.886 345.376C615.491 345.376 616.099 345.22 616.655 344.907L620.476 342.658L641.59 360.394C641.818 360.585 642.095 360.679 642.37 360.679C642.591 360.679 642.808 360.612 643.001 360.495V358.407L622.697 341.351L643 329.398V326.683Z" fill="#4C65BA"/>
<g opacity="0.43">
<path d="M438 233.085H314.671V246.275H438V233.085Z" fill="white"/>
<path d="M438 256.469H286.21V264.972H438V256.469Z" fill="white"/>
<path d="M438 275.602H286.21V284.105H438V275.602Z" fill="white"/>
</g>
<path d="M498.997 61C441.134 61 394.227 107.907 394.227 165.77C394.227 187.433 400.803 207.559 412.066 224.264C412.025 224.578 411.376 227.778 410.958 229.929C409 238.004 403.95 252.805 391.846 263.397C382.465 271.297 410.35 277.557 430.426 264.298C434.527 261.612 438.321 258.069 441.43 253.487C441.458 253.446 441.481 253.406 441.509 253.365C458.014 264.219 477.766 270.54 498.998 270.54C556.861 270.54 603.769 223.633 603.769 165.77C603.769 107.907 556.86 61 498.997 61Z" fill="white"/>
<path d="M389.756 268.746C389.08 267.843 387.869 265.437 391.186 262.644C403.124 252.199 408.087 237.516 409.975 229.738C410.139 228.895 410.338 227.89 410.522 226.961C410.706 226.036 410.908 225.019 411.009 224.487C399.372 207.086 393.225 186.792 393.225 165.771C393.225 107.449 440.673 60.001 498.996 60.001C557.319 60.001 604.766 107.449 604.766 165.771C604.766 224.093 557.318 271.541 498.996 271.541C478.604 271.541 458.844 265.733 441.78 254.735C438.861 258.851 435.229 262.347 430.975 265.132C422.432 270.775 412.468 272.95 404.402 272.95C397.274 272.95 391.629 271.252 389.756 268.746ZM441.427 253.486L440.675 252.81L441.226 251.983L442.057 252.529C458.979 263.658 478.668 269.541 498.995 269.541C556.215 269.541 602.765 222.99 602.765 165.771C602.765 108.552 556.215 62 498.995 62C441.775 62 395.224 108.551 395.224 165.77C395.224 186.527 401.333 206.561 412.892 223.705L413.104 224.019L413.054 224.394C413.027 224.598 412.868 225.409 412.483 227.35C412.299 228.277 412.101 229.279 411.927 230.165C409.975 238.218 404.854 253.341 392.487 264.162C390.24 266.055 391.081 267.18 391.356 267.549C394.455 271.696 414.085 273.89 429.875 263.462C434.143 260.666 437.752 257.121 440.6 252.926L441.427 253.486Z" fill="#ECF1F7"/>
<mask id="mask0_127_3632" style="mask-type:luminance" maskUnits="userSpaceOnUse" x="390" y="61" width="215" height="211">
<path d="M499.997 61C442.134 61 395.227 107.907 395.227 165.77C395.227 187.433 401.803 207.559 413.066 224.264C413.025 224.578 412.376 227.778 411.958 229.929C410 238.004 404.95 252.805 392.846 263.397C383.465 271.297 411.35 277.557 431.426 264.298C435.527 261.612 439.321 258.069 442.43 253.487C442.458 253.446 442.481 253.406 442.509 253.365C459.014 264.219 478.766 270.54 499.998 270.54C557.861 270.54 604.769 223.633 604.769 165.77C604.769 107.907 557.86 61 499.997 61Z" fill="white"/>
</mask>
<g mask="url(#mask0_127_3632)">
<path d="M507.789 199.589H493.074C493.074 199.589 484.433 199.644 483.282 199.856C474.517 200.661 461 206 457 212C449.455 223.317 443.98 259.076 435 276L454.72 282.112H540.954L542.131 218.177C542.13 207.911 526.755 199.589 507.789 199.589Z" fill="#EF929C"/>
<path d="M550.978 166.86C549.69 152.888 545.562 139.388 540.889 126.222C540.339 124.672 539.809 123.044 539.274 121.372C536.252 111.915 533.098 101.048 525.477 94.963C518.519 89.408 509.232 87.602 500.036 88.072C490.839 87.602 481.552 89.407 474.594 94.963C466.973 101.048 463.819 111.915 460.797 121.372C460.263 123.044 459.733 124.672 459.182 126.222C454.509 139.388 450.381 152.888 449.093 166.86C448.546 172.791 448.538 178.912 450.506 184.533C450.992 185.922 451.642 187.329 452.81 188.225C454.373 189.423 456.507 189.456 458.477 189.438C472.33 189.307 486.181 189.186 500.035 189.174C513.889 189.186 527.739 189.307 541.593 189.438C543.563 189.457 545.696 189.423 547.26 188.225C548.428 187.33 549.078 185.922 549.564 184.533C551.533 178.911 551.525 172.791 550.978 166.86Z" fill="#373449"/>
<path d="M527.31 141.345H525.529L523.038 146.995C523.038 146.995 519.748 139.792 518 128C509.26 124.547 503.62 121.441 502.72 115.944C493.932 123.821 482.825 128.688 470.96 128.371C470.926 128.871 470.902 129.374 470.902 129.882V160.054C470.902 170.078 477.667 178.581 487.076 181.683V204.484C487.076 211.715 491.94 217.578 497.939 217.578C503.939 217.578 508.802 211.716 508.802 204.484V181.683C518.211 178.581 524.976 170.078 524.976 160.054V158.593H527.31C530.804 158.593 533.636 154.732 533.636 149.97C533.636 145.206 530.804 141.345 527.31 141.345Z" fill="#F9DCD2"/>
<path opacity="0.16" d="M494.921 182.951C492.406 182.951 489.982 182.581 487.703 181.897L487.575 181.981L508.173 190.501V181.897C505.895 182.58 503.471 182.95 500.956 182.95H494.921V182.951Z" fill="#EF929C"/>
<path d="M531.456 149.985C531.18 149.985 530.956 149.761 530.956 149.485C530.956 144.727 526.776 144.672 526.599 144.672C526.323 144.672 526.099 144.448 526.099 144.172C526.099 143.896 526.323 143.672 526.599 143.672C526.653 143.672 531.956 143.738 531.956 149.485C531.956 149.761 531.732 149.985 531.456 149.985Z" fill="#EF929C"/>
<path opacity="0.11" d="M483.968 159.725H478.655C476.978 159.725 475.619 158.366 475.619 156.689C475.619 155.012 476.978 153.653 478.655 153.653H483.968C485.645 153.653 487.004 155.012 487.004 156.689C487.003 158.366 485.644 159.725 483.968 159.725Z" fill="#EF929C"/>
<path opacity="0.11" d="M512.843 159.725H507.53C505.853 159.725 504.494 158.366 504.494 156.689C504.494 155.012 505.853 153.653 507.53 153.653H512.843C514.52 153.653 515.879 155.012 515.879 156.689C515.879 158.366 514.52 159.725 512.843 159.725Z" fill="#EF929C"/>
<path d="M492.923 175.201C492.837 175.201 492.751 175.18 492.673 175.134C492.434 174.996 492.352 174.69 492.49 174.451C493.324 173.01 494.875 172.115 496.538 172.115C498.2 172.115 499.751 173.01 500.586 174.45C500.725 174.689 500.643 174.994 500.404 175.133C500.166 175.27 499.859 175.191 499.72 174.951C499.064 173.818 497.844 173.114 496.537 173.114C495.229 173.114 494.011 173.818 493.354 174.951C493.263 175.112 493.095 175.201 492.923 175.201Z" fill="#EF929C"/>
<path d="M482.262 150.431C481.388 150.431 480.679 149.722 480.679 148.848V145.681C480.679 144.806 481.388 144.098 482.262 144.098C483.137 144.098 483.845 144.807 483.845 145.681V148.848C483.845 149.723 483.136 150.431 482.262 150.431Z" fill="#373449"/>
<path d="M486.512 137.154C485.963 137.58 485.142 137.71 484.357 137.881C483.563 138.036 482.768 138.212 482.084 138.389C481.398 138.566 480.617 138.796 479.847 139.045C479.077 139.275 478.292 139.56 477.614 139.45C476.961 139.353 476.538 138.702 477.008 137.645C477.442 136.623 478.915 135.253 481.183 134.661C483.452 134.081 485.375 134.575 486.224 135.266C487.12 135.971 487.043 136.751 486.512 137.154Z" fill="#373449"/>
<path d="M506.009 150.431C505.134 150.431 504.426 149.722 504.426 148.848V145.681C504.426 144.806 505.135 144.098 506.009 144.098C506.884 144.098 507.592 144.807 507.592 145.681V148.848C507.592 149.723 506.883 150.431 506.009 150.431Z" fill="#373449"/>
<path d="M503.256 135.901C503.945 135.804 504.721 136.099 505.487 136.341C506.254 136.601 507.03 136.843 507.712 137.029C508.395 137.216 509.187 137.404 509.98 137.571C510.763 137.754 511.585 137.897 512.119 138.329C512.637 138.738 512.681 139.513 511.748 140.196C510.863 140.867 508.905 141.325 506.642 140.711C504.385 140.087 502.961 138.703 502.568 137.681C502.141 136.625 502.594 135.986 503.256 135.901Z" fill="#373449"/>
<path d="M497.974 163.28C497.293 163.28 496.579 163.124 495.846 162.757C495.599 162.633 495.499 162.333 495.622 162.086C495.746 161.839 496.046 161.742 496.293 161.862C499.864 163.646 502.587 159.215 502.701 159.025C502.843 158.789 503.148 158.712 503.387 158.855C503.623 158.997 503.7 159.304 503.558 159.541C502.665 161.031 500.559 163.28 497.974 163.28Z" fill="#EF929C"/>
<path d="M503.198 151.82C503.015 151.82 502.839 151.719 502.751 151.544C502.628 151.297 502.727 150.997 502.975 150.873C506.232 149.245 508.686 150.836 508.789 150.904C509.018 151.057 509.081 151.367 508.928 151.597C508.775 151.827 508.467 151.887 508.237 151.737C508.154 151.682 506.144 150.407 503.423 151.767C503.35 151.803 503.273 151.82 503.198 151.82Z" fill="#EF929C"/>
<path d="M478.912 151.82C478.729 151.82 478.553 151.719 478.465 151.544C478.342 151.297 478.442 150.997 478.689 150.873C481.945 149.245 484.399 150.836 484.503 150.904C484.732 151.057 484.795 151.367 484.642 151.597C484.488 151.827 484.18 151.887 483.951 151.737C483.867 151.682 481.857 150.407 479.137 151.767C479.063 151.803 478.987 151.82 478.912 151.82Z" fill="#EF929C"/>
<path d="M496.573 156.722H496.326C493.8 156.722 491.528 155.318 490.398 153.059L489.915 152.093C489.654 151.57 489.682 150.961 489.989 150.465C490.296 149.968 490.829 149.671 491.413 149.671H491.856C492.513 149.671 493.047 149.137 493.047 148.48V142.102C493.047 141.826 493.271 141.602 493.547 141.602C493.823 141.602 494.047 141.826 494.047 142.102V148.48C494.047 149.688 493.064 150.671 491.856 150.671H491.413C491.174 150.671 490.965 150.788 490.84 150.991C490.714 151.194 490.703 151.433 490.81 151.647L491.293 152.613C492.252 154.532 494.181 155.723 496.326 155.723H496.573C496.849 155.723 497.073 155.947 497.073 156.223C497.073 156.498 496.85 156.722 496.573 156.722Z" fill="#EF929C"/>
<path d="M481.012 202H515.919C517.023 202 517.919 201.105 517.919 200V199.768C517.919 198.663 517.023 197.768 515.919 197.768H481.012C479.907 197.768 479.012 198.663 479.012 199.768V200C479.012 201.105 479.907 202 481.012 202Z" fill="#EF929C"/>
<path d="M525.486 174.396L521.503 173.334C521.064 173.217 520.802 172.766 520.92 172.326L529.642 139.62C529.759 139.181 530.21 138.919 530.65 139.036L534.633 140.098C535.072 140.215 535.334 140.666 535.217 141.106L526.495 173.812C526.376 174.252 525.925 174.513 525.486 174.396Z" fill="#4C65BA"/>
<path d="M547.018 181.384L536.378 155.5C536.35 154.943 536.023 154.419 535.477 154.188L523.618 149.168C522.858 148.846 521.974 149.205 521.652 149.965L521.495 150.336C521.173 151.096 521.532 151.98 522.292 152.302L529.307 155.271L529.066 155.828L521.317 152.548C520.557 152.226 519.673 152.585 519.351 153.345L519.194 153.716C518.872 154.476 519.231 155.361 519.991 155.682L527.713 158.95L527.471 159.507L520.493 156.553C519.733 156.231 518.849 156.59 518.527 157.35L518.37 157.721C518.049 158.481 518.407 159.365 519.167 159.687L526.119 162.629L525.6 163.828L521.955 162.075C521.112 161.669 520.09 162.027 519.685 162.871C519.279 163.714 519.638 164.736 520.481 165.141L524.247 166.952L531.625 176.61L531.879 186.297L547.018 181.384Z" fill="#F9DCD2"/>
<path opacity="0.16" d="M547.018 181.384L536.378 155.5C536.35 154.943 536.023 154.419 535.477 154.188L523.618 149.168C522.858 148.846 521.974 149.205 521.652 149.965L521.495 150.336C521.173 151.096 521.532 151.98 522.292 152.302L529.307 155.271L529.066 155.828L521.317 152.548C520.557 152.226 519.673 152.585 519.351 153.345L519.194 153.716C518.872 154.476 519.231 155.361 519.991 155.682L527.713 158.95L527.471 159.507L520.493 156.553C519.733 156.231 518.849 156.59 518.527 157.35L518.37 157.721C518.049 158.481 518.407 159.365 519.167 159.687L526.119 162.629L525.6 163.828L521.955 162.075C521.112 161.669 520.09 162.027 519.685 162.871C519.279 163.714 519.638 164.736 520.481 165.141L524.247 166.952L531.625 176.61L531.879 186.297L547.018 181.384Z" fill="#EF929C"/>
<path d="M538 273L525.385 187.847L549.794 177.956L575 268C580.587 289.41 538 273 538 273Z" fill="#EF929C"/>
<path opacity="0.05" d="M538 273L525.385 187.847L549.794 177.956L575 268C580.587 289.41 538 273 538 273Z" fill="#373449"/>
</g>
<path opacity="0.89" d="M610.804 51.457C586.947 51.457 567.608 70.797 567.608 94.653C567.608 103.584 570.319 111.882 574.963 118.77C574.946 118.899 574.679 120.219 574.506 121.106C573.699 124.435 571.617 130.538 566.626 134.905C562.758 138.162 574.255 140.743 582.532 135.277C584.223 134.17 585.787 132.709 587.069 130.82C587.08 130.803 587.09 130.787 587.102 130.77C593.907 135.245 602.051 137.851 610.804 137.851C634.661 137.851 654 118.511 654 94.655C654 70.797 634.66 51.457 610.804 51.457Z" fill="#4C65BA"/>
<path d="M608.521 100.761C606.826 101.097 605.099 100.36 604.167 98.906L604.16 98.895C603.457 97.794 603.105 96.493 603.105 94.992C603.105 93.54 603.492 92.45 604.265 91.723C605.039 90.997 606.175 90.446 607.675 90.07L613.159 88.734C615.503 88.125 616.675 87 616.675 85.359C616.675 84.469 616.241 83.696 615.374 83.039C614.506 82.383 613.019 82.054 610.909 82.054C608.987 82.054 607.182 82.3 605.495 82.792C604.71 83.021 603.995 83.268 603.352 83.533C601.899 84.131 600.235 83.618 599.379 82.3C598.816 81.433 598.535 80.39 598.535 79.171C598.535 77.953 598.887 76.886 599.59 75.972C600.293 75.058 601.266 74.309 602.508 73.722C603.75 73.137 605.226 72.703 606.938 72.421C608.648 72.14 610.535 71.999 612.598 71.999C618.128 71.999 622.312 73.23 625.148 75.69C627.984 78.151 629.402 81.374 629.402 85.358C629.402 92.858 624.104 97.663 613.512 99.772L608.521 100.761ZM604.09 110.391C604.09 108.469 604.687 106.887 605.883 105.645C607.078 104.404 608.731 103.782 610.84 103.782C612.949 103.782 614.602 104.404 615.797 105.645C616.992 106.888 617.59 108.469 617.59 110.391C617.59 112.314 616.992 113.896 615.797 115.137C614.602 116.379 612.949 117.001 610.84 117.001C608.731 117.001 607.078 116.379 605.883 115.137C604.688 113.895 604.09 112.313 604.09 110.391Z" fill="white"/>
<path d="M660.165 206H562.502C561.12 206 560 204.88 560 203.498V172.502C560 171.12 561.12 170 562.502 170H660.165C661.547 170 662.667 171.12 662.667 172.502V203.498C662.667 204.88 661.547 206 660.165 206Z" fill="white"/>
<g opacity="0.53">
<path d="M660.165 206H562.502C561.12 206 560 204.88 560 203.498V172.502C560 171.12 561.12 170 562.502 170H660.165C661.547 170 662.667 171.12 662.667 172.502V203.498C662.667 204.88 661.547 206 660.165 206Z" fill="#599AF2"/>
</g>
<path d="M644.35 181.842H573C572.586 181.842 572.25 181.506 572.25 181.092C572.25 180.678 572.586 180.342 573 180.342H644.35C644.764 180.342 645.1 180.678 645.1 181.092C645.1 181.506 644.764 181.842 644.35 181.842Z" fill="white"/>
<path d="M602.188 196.495H573C572.586 196.495 572.25 196.159 572.25 195.745C572.25 195.331 572.586 194.995 573 194.995H602.188C602.602 194.995 602.938 195.331 602.938 195.745C602.938 196.159 602.602 196.495 602.188 196.495Z" fill="white"/>
<path d="M610.297 189.835H573C572.586 189.835 572.25 189.499 572.25 189.085C572.25 188.671 572.586 188.335 573 188.335H610.297C610.711 188.335 611.047 188.671 611.047 189.085C611.047 189.499 610.711 189.835 610.297 189.835Z" fill="white"/>
<path d="M633.539 189.835H617.323C616.909 189.835 616.573 189.499 616.573 189.085C616.573 188.671 616.909 188.335 617.323 188.335H633.539C633.953 188.335 634.289 188.671 634.289 189.085C634.289 189.499 633.953 189.835 633.539 189.835Z" fill="white"/>
<g opacity="0.59">
<path d="M657.172 179.868C656.98 179.868 656.788 179.795 656.642 179.648L651.879 174.885C651.586 174.592 651.586 174.117 651.879 173.824C652.172 173.531 652.647 173.531 652.94 173.824L657.703 178.587C657.996 178.88 657.996 179.355 657.703 179.648C657.556 179.795 657.364 179.868 657.172 179.868Z" fill="white"/>
<path d="M652.409 179.868C652.217 179.868 652.025 179.795 651.879 179.648C651.586 179.355 651.586 178.88 651.879 178.587L656.642 173.824C656.935 173.531 657.41 173.531 657.702 173.824C657.995 174.117 657.995 174.592 657.702 174.885L652.939 179.648C652.793 179.795 652.602 179.868 652.409 179.868Z" fill="white"/>
</g>
<path d="M346.631 349.205C338.662 331.032 329.454 313.929 321.078 299.675L291.859 316.567V334.85L311.367 363.993C318.748 374.289 337.903 376.845 345.238 365.771C348.487 360.865 348.995 354.594 346.631 349.205Z" fill="#F9DCD2"/>
<path d="M431.111 318.232C430.978 317.018 429.741 316.318 428.618 316.821L415.954 322.495L429.747 313.92C430.565 313.412 430.9 312.373 430.523 311.516L430.438 311.323C430.029 310.392 428.934 310.016 428.004 310.488L413.853 317.668L424.723 310.072C425.591 309.465 425.829 308.272 425.249 307.432L425.001 307.074C424.471 306.308 423.438 306.102 422.611 306.598L411.827 313.068C411.744 313.117 411.658 313.161 411.57 313.197L402.575 316.896C401.199 317.462 399.828 316.268 400.178 314.81L402.018 307.14C402.241 306.212 401.751 305.293 400.88 305.003L400.565 304.898C399.744 304.625 398.821 304.991 398.363 305.772L392.127 316.396C388.568 321.922 387.419 325.697 387.261 328.206L326.723 341.152C319.633 342.686 314.475 348.817 314.177 356.065C313.752 366.402 323.142 374.395 333.279 372.324L396.329 344.593C396.401 344.575 396.472 344.559 396.543 344.532C402.639 342.201 417.486 333.49 418.715 332.766C418.773 332.732 418.828 332.704 418.888 332.676L428.515 328.292C429.564 327.814 429.985 326.511 429.398 325.556C428.988 324.89 428.192 324.585 427.423 324.801L418.164 327.393L430.175 320.645C430.856 320.262 431.252 319.501 431.168 318.734L431.111 318.232Z" fill="#F9DCD2"/>
<path opacity="0.11" d="M304.077 297.343L291.366 338.849L286 289L304.077 297.343Z" fill="#EF929C"/>
<path d="M321.078 299.674L321.573 299.388C306.672 271.305 289.081 256.986 275.664 249.71C270.044 245.756 263.297 243.171 255.962 242.478C255.071 242.33 254.589 242.288 254.589 242.288L254.626 242.381C253.747 242.326 252.864 242.288 251.97 242.288H247.309H234.878H230.217C228.038 242.288 225.901 242.461 223.817 242.78L223.839 242.718C223.839 242.718 170.011 248.765 158.058 288.301L154.051 297.972L156.452 299.724L190.009 324.212L191.695 325.442V406.762L291.859 407.762V334.849V316.566L321.078 299.674Z" fill="#599AF2"/>
<path d="M127.038 360.157C122.024 371.791 127.648 386.086 140.918 386.657C146.797 386.911 154.821 384.523 158.219 379.719C170.962 361.703 181.765 341.539 190.01 324.213L156.453 299.725L127.038 360.157Z" fill="#F9DCD2"/>
<path opacity="0.11" d="M127.038 360.157C122.024 371.791 127.648 386.086 140.918 386.657C146.797 386.911 154.821 384.523 158.219 379.719C170.962 361.703 181.765 341.539 190.01 324.213L156.453 299.725L127.038 360.157Z" fill="#EF929C"/>
<path d="M254.105 329.075C253.96 327.743 252.601 326.974 251.368 327.527L237.469 333.754L252.607 324.343C253.504 323.785 253.873 322.645 253.459 321.705L253.366 321.493C252.917 320.471 251.715 320.059 250.694 320.577L235.163 328.456L247.093 320.12C248.046 319.454 248.307 318.144 247.67 317.223L247.398 316.83C246.817 315.989 245.683 315.764 244.775 316.308L232.939 323.409C232.848 323.463 232.754 323.511 232.656 323.551L222.784 327.611C221.274 328.232 219.769 326.922 220.153 325.322L222.173 316.904C222.417 315.885 221.88 314.877 220.923 314.559L220.577 314.444C219.676 314.145 218.663 314.547 218.16 315.403L211.316 327.063C207.41 333.128 206.149 337.271 205.975 340.025L139.534 354.233C131.753 355.917 126.092 362.645 125.765 370.6C125.299 381.945 135.604 390.718 146.73 388.445L215.928 358.011C216.006 357.991 216.085 357.974 216.163 357.945C222.853 355.386 239.148 345.826 240.497 345.032C240.56 344.995 240.621 344.964 240.687 344.934L251.252 340.123C252.404 339.598 252.865 338.168 252.221 337.12C251.771 336.389 250.898 336.055 250.053 336.291L239.891 339.136L253.073 331.73C253.82 331.31 254.255 330.474 254.163 329.632L254.105 329.075Z" fill="#F9DCD2"/>
<path d="M295.21 144.589C295.049 138.437 290.297 132.923 284.442 131.031C279.442 129.416 273.902 130.219 269.253 132.531C268.215 133.047 267.374 133.871 266.263 133.709C265.225 133.557 263.767 132.243 262.769 131.785C260.344 130.672 257.754 130 255.076 130C254.455 130 253.834 130.037 253.216 130.096C249.09 130.415 245.323 132.009 242.323 134.505C241.973 134.506 241.608 134.446 241.234 134.346C238.34 132.306 234.818 131.098 231.008 131.098C221.184 131.098 213.219 139.062 213.219 148.887C213.219 149.101 213.244 149.309 213.251 149.522C206.258 150.31 200.821 156.238 200.821 163.442C200.821 171.182 207.096 177.457 214.836 177.457C216.404 177.457 250.631 184.044 269.117 187.624C276.515 189.057 283.944 184.993 286.569 177.929C289.861 169.071 289.131 163.483 286.9 159.957C288.991 158.383 290.856 156.398 292.409 153.893C294.047 151.251 295.17 148.218 295.213 145.117C295.215 144.941 295.214 144.765 295.21 144.589Z" fill="#373449"/>
<path d="M278.94 205.383C284.886 205.383 289.706 198.876 289.706 190.849C289.706 182.822 284.886 176.315 278.94 176.315C272.994 176.315 268.174 182.822 268.174 190.849C268.174 198.876 272.994 205.383 278.94 205.383Z" fill="#3E479B"/>
<path opacity="0.89" d="M278.94 201.077C283.124 201.077 286.516 196.498 286.516 190.849C286.516 185.2 283.124 180.621 278.94 180.621C274.756 180.621 271.364 185.2 271.364 190.849C271.364 196.498 274.756 201.077 278.94 201.077Z" fill="#4C65BA"/>
<path d="M232.223 209.94L224.797 258.799C224.788 267.504 231.526 274.728 240.211 275.324C249.525 275.964 257.524 268.776 257.88 259.447L266.81 218.487L232.223 209.94Z" fill="#F9DCD2"/>
<path opacity="0.27" d="M228.41 237.814L226.292 247.872L254.585 240.5C254.03 240.546 253.468 240.555 252.9 240.492L228.41 237.814Z" fill="#EF929C"/>
<path d="M254.725 168.831C249.964 168.831 245.609 167.11 242.233 164.265C241.531 164.204 240.858 164.147 240.202 164.094C237.516 165.722 234.377 166.676 231.008 166.676C230.458 166.676 229.919 166.635 229.384 166.58C228.964 167.498 228.394 168.342 227.654 169.073C226.3 172.154 223.877 174.655 220.846 176.098L220.372 181.403C220.372 181.403 206.539 179 206.539 191.075L206.54 192.13C206.543 197.5 210.898 201.85 216.267 201.848H216.518L216.526 217.501C216.531 227.249 224.51 235.221 234.259 235.216H234.3L266.349 234.974C273.181 233.81 280.803 226.616 280.798 215.883L280.791 201.816L280.781 181.316L280.775 169.822C279.934 170.158 279.021 170.355 278.06 170.355C274.82 170.355 272.076 168.254 271.101 165.341C269.223 165.517 267.32 165.599 265.417 165.614C262.349 167.643 258.677 168.831 254.725 168.831Z" fill="#F9DCD2"/>
<path d="M280.794 216.634C281.253 214.742 281.486 212.789 279.927 211.69C276.975 209.609 270.791 206.856 258.391 207.193C237.128 207.771 234.333 217.329 229.16 209.662C223.988 201.995 226.382 176.578 226.382 176.578C226.382 176.578 217.085 166.885 217.716 184.416C217.891 189.279 217.681 194.817 216.896 201.082C216.703 202.621 216.592 204.101 216.531 205.544L216.453 205.487V219.058C216.453 231.212 226.305 241.064 238.459 241.064H270.58C276.412 241.064 281.139 236.337 281.139 230.505L280.794 216.634Z" fill="#373449"/>
<path d="M210.274 191.663C210.048 191.663 209.865 191.48 209.864 191.254C209.862 186.835 213.943 186.782 213.984 186.782C214.209 186.782 214.392 186.964 214.393 187.19C214.394 187.415 214.211 187.6 213.985 187.601C213.85 187.602 210.68 187.663 210.682 191.254C210.683 191.479 210.5 191.663 210.274 191.663Z" fill="#EF929C"/>
<path d="M275.273 193.305C276.239 193.304 277.022 192.521 277.021 191.555L277.019 188.057C277.019 187.091 276.235 186.309 275.269 186.309C274.303 186.31 273.521 187.093 273.521 188.059L273.523 191.557C273.524 192.523 274.307 193.305 275.273 193.305Z" fill="#373449"/>
<path d="M248.451 193.318C249.417 193.318 250.199 192.534 250.199 191.568L250.197 188.07C250.196 187.104 249.413 186.322 248.447 186.322C247.481 186.323 246.699 187.106 246.699 188.072L246.701 191.57C246.701 192.536 247.485 193.318 248.451 193.318Z" fill="#373449"/>
<path d="M266.62 178.365C267.429 178.933 268.546 178.917 269.623 178.981C270.71 179.016 271.8 179.087 272.744 179.191C273.691 179.294 274.773 179.461 275.844 179.663C276.912 179.833 278.009 180.091 278.894 179.709C279.747 179.355 280.195 178.124 279.378 176.461C278.616 174.845 276.408 172.937 273.277 172.584C270.149 172.251 267.673 173.646 266.664 175.068C265.598 176.527 265.84 177.833 266.62 178.365Z" fill="#373449"/>
<path d="M236.413 179.827C237.349 180.37 238.52 180.267 239.662 180.252C240.81 180.206 241.965 180.197 242.973 180.235C243.983 180.272 245.146 180.367 246.302 180.499C247.45 180.598 248.642 180.788 249.513 180.312C250.355 179.869 250.638 178.521 249.526 176.809C248.479 175.144 245.867 173.28 242.524 173.145C239.186 173.032 236.797 174.711 235.955 176.306C235.059 177.945 235.511 179.319 236.413 179.827Z" fill="#373449"/>
<path d="M248.465 192.033C249.42 192.032 250.541 192.237 251.763 192.848C252.078 193.005 252.205 193.387 252.048 193.702C251.89 194.016 251.509 194.144 251.194 193.987C248.235 192.508 246.053 193.892 245.962 193.952C245.668 194.144 245.273 194.061 245.081 193.77C244.888 193.478 244.966 193.086 245.258 192.891C245.334 192.84 246.574 192.034 248.465 192.033Z" fill="#EF929C"/>
<path d="M275.287 192.02C276.242 192.02 277.364 192.224 278.585 192.835C278.9 192.992 279.027 193.374 278.87 193.689C278.712 194.003 278.33 194.131 278.016 193.974C275.056 192.495 272.875 193.879 272.784 193.939C272.489 194.131 272.096 194.048 271.903 193.757C271.71 193.465 271.788 193.073 272.08 192.878C272.157 192.827 273.396 192.021 275.287 192.02Z" fill="#EF929C"/>
<path d="M262.357 202.508L254.488 202.512C254.16 202.512 253.894 202.284 253.894 202.001C253.894 201.718 254.159 201.49 254.488 201.49L262.357 201.486C265.316 201.484 267.723 199.411 267.721 196.865L267.72 195.586C267.72 194.858 267.031 194.266 266.185 194.267C263.703 194.268 262.16 192.67 262.158 190.096L261.929 183.53C261.92 183.248 262.177 183.012 262.505 183.004C262.813 183.012 263.106 183.217 263.116 183.5L263.345 190.081C263.345 190.835 263.551 193.247 266.184 193.246C267.684 193.245 268.906 194.295 268.907 195.586L268.908 196.865C268.91 199.975 265.971 202.506 262.357 202.508Z" fill="#EF929C"/>
<path d="M257.712 221.455H262.458C263.941 221.455 265.143 220.253 265.143 218.77V213.525C265.143 212.628 264.416 211.901 263.519 211.901H248.157C248.158 217.178 252.435 221.455 257.712 221.455Z" fill="white"/>
<path d="M225.158 192.109C225.158 192.109 232.058 184.248 232.62 167.548C232.766 163.21 229.471 159.61 225.382 159.61H220.509C216.439 159.61 212.47 161.411 209.93 164.786C208.849 166.222 208.012 167.938 207.826 169.91C207.034 178.313 216.733 188.026 221.05 191.902C222.197 192.932 223.908 193.014 225.158 192.109Z" fill="#373449"/>
<path d="M240.182 220.379H222.417C216.819 220.379 212.266 215.825 212.266 210.228V192.464C212.266 191.912 212.714 191.464 213.266 191.464C213.818 191.464 214.266 191.912 214.266 192.464V210.228C214.266 214.723 217.923 218.379 222.417 218.379H240.182C240.734 218.379 241.182 218.827 241.182 219.379C241.182 219.932 240.734 220.379 240.182 220.379Z" fill="#4C65BA"/>
<path d="M241.988 221.533H237.298C235.923 221.533 234.798 220.408 234.798 219.033V218.65C234.798 217.275 235.923 216.15 237.298 216.15H241.988C243.363 216.15 244.488 217.275 244.488 218.65V219.033C244.488 220.408 243.363 221.533 241.988 221.533Z" fill="#3E479B"/>
<path d="M213.266 190.734C212.437 190.734 211.766 190.063 211.766 189.234V170.251C211.766 155.849 223.483 144.131 237.886 144.131C238.715 144.131 239.386 144.802 239.386 145.631C239.386 146.46 238.715 147.131 237.886 147.131C225.137 147.131 214.766 157.502 214.766 170.251V189.234C214.766 190.063 214.094 190.734 213.266 190.734Z" fill="#3E479B"/>
<path d="M213.266 205.383C219.807 205.383 225.109 198.876 225.109 190.849C225.109 182.823 219.807 176.315 213.266 176.315C206.725 176.315 201.423 182.823 201.423 190.849C201.423 198.876 206.725 205.383 213.266 205.383Z" fill="#3E479B"/>
<path opacity="0.89" d="M213.266 201.077C217.868 201.077 221.6 196.498 221.6 190.849C221.6 185.201 217.868 180.621 213.266 180.621C208.663 180.621 204.932 185.201 204.932 190.849C204.932 196.498 208.663 201.077 213.266 201.077Z" fill="#4C65BA"/>
<path d="M218.529 190.311C218.529 193.879 216.172 196.771 213.266 196.771C210.359 196.771 208.002 193.879 208.002 190.311C208.002 186.743 210.359 183.851 213.266 183.851C216.173 183.851 218.529 186.743 218.529 190.311Z" fill="#3E479B"/>
<path d="M360.983 123.692C332.255 123.692 308.966 146.981 308.966 175.709C308.966 186.464 312.231 196.457 317.823 204.751C317.802 204.907 317.481 206.495 317.273 207.564C316.301 211.573 313.794 218.922 307.784 224.181C303.126 228.103 316.971 231.211 326.938 224.628C328.974 223.295 330.858 221.535 332.401 219.26C332.415 219.24 332.427 219.22 332.44 219.199C340.635 224.588 350.441 227.726 360.982 227.726C389.71 227.726 412.999 204.437 412.999 175.709C412.999 146.981 389.711 123.692 360.983 123.692Z" fill="#EF929C"/>
<path d="M370.941 188.5H365.058C363.846 188.5 362.86 187.514 362.86 186.302V181.755C361.295 181.327 359.789 180.703 358.373 179.895L355.156 183.112C354.3 183.97 352.905 183.97 352.048 183.112L347.889 178.953C347.032 178.096 347.032 176.701 347.889 175.845L351.106 172.628C350.298 171.212 349.674 169.707 349.246 168.141H344.699C343.487 168.141 342.501 167.155 342.501 165.943V160.06C342.501 158.848 343.487 157.862 344.699 157.862H349.246C349.674 156.297 350.298 154.791 351.106 153.375L347.889 150.158C347.032 149.301 347.032 147.907 347.889 147.05L352.048 142.891C352.905 142.033 354.3 142.033 355.156 142.891L358.373 146.108C359.789 145.3 361.294 144.676 362.86 144.248V139.701C362.86 138.489 363.846 137.503 365.058 137.503H370.941C372.153 137.503 373.139 138.489 373.139 139.701V144.248C374.704 144.676 376.211 145.3 377.626 146.108L380.843 142.891C381.7 142.035 383.094 142.033 383.951 142.891L388.111 147.05C388.968 147.907 388.968 149.302 388.111 150.158L384.893 153.375C385.702 154.79 386.326 156.296 386.754 157.862H391.301C392.513 157.862 393.499 158.848 393.499 160.06V165.943C393.499 167.155 392.513 168.141 391.301 168.141H386.754C386.325 169.707 385.701 171.213 384.893 172.628L388.111 175.845C388.968 176.702 388.968 178.096 388.111 178.953L383.951 183.112C383.093 183.97 381.7 183.969 380.843 183.112L377.626 179.895C376.211 180.703 374.705 181.328 373.139 181.755V186.302C373.139 187.514 372.153 188.5 370.941 188.5ZM358.215 178.639L358.55 178.839C360.09 179.76 361.75 180.448 363.483 180.884L363.861 180.979V186.302C363.861 186.963 364.398 187.5 365.059 187.5H370.942C371.603 187.5 372.14 186.962 372.14 186.302V180.979L372.518 180.884C374.25 180.448 375.91 179.76 377.451 178.839L377.786 178.639L381.551 182.404C382.019 182.872 382.779 182.871 383.245 182.404L387.405 178.245C387.872 177.778 387.872 177.018 387.405 176.551L383.639 172.785L383.839 172.45C384.76 170.91 385.448 169.25 385.885 167.517L385.98 167.139H391.302C391.963 167.139 392.5 166.602 392.5 165.941V160.058C392.5 159.397 391.963 158.86 391.302 158.86H385.98L385.885 158.482C385.448 156.749 384.76 155.089 383.839 153.549L383.639 153.214L387.405 149.448C387.872 148.981 387.872 148.221 387.405 147.754L383.245 143.595C382.779 143.129 382.018 143.128 381.551 143.595L377.786 147.36L377.451 147.16C375.91 146.239 374.25 145.551 372.518 145.115L372.14 145.02V139.697C372.14 139.036 371.603 138.499 370.942 138.499H365.059C364.398 138.499 363.861 139.037 363.861 139.697V145.02L363.483 145.115C361.751 145.551 360.091 146.239 358.55 147.16L358.215 147.36L354.449 143.595C353.982 143.128 353.222 143.128 352.755 143.595L348.596 147.754C348.129 148.221 348.129 148.981 348.596 149.448L352.361 153.214L352.161 153.549C351.24 155.09 350.552 156.749 350.116 158.482L350.021 158.86H344.698C344.037 158.86 343.5 159.397 343.5 160.058V165.941C343.5 166.602 344.038 167.139 344.698 167.139H350.021L350.116 167.517C350.552 169.249 351.24 170.909 352.161 172.45L352.361 172.785L348.596 176.551C348.129 177.018 348.129 177.778 348.596 178.245L352.755 182.404C353.222 182.871 353.982 182.871 354.449 182.404L358.215 178.639ZM368 176.902C360.335 176.902 354.098 170.666 354.098 163C354.098 155.334 360.334 149.098 368 149.098C375.666 149.098 381.902 155.334 381.902 163C381.902 170.666 375.666 176.902 368 176.902ZM368 150.098C360.886 150.098 355.098 155.886 355.098 163C355.098 170.114 360.886 175.902 368 175.902C375.114 175.902 380.902 170.114 380.902 163C380.902 155.886 375.114 150.098 368 150.098Z" fill="white"/>
<path d="M364.37 202.802L361.906 201.467C362.168 200.442 362.271 199.398 362.227 198.367L364.914 197.568C365.425 197.416 365.715 196.879 365.564 196.368L364.612 193.165C364.46 192.654 363.923 192.364 363.413 192.515L360.726 193.314C360.2 192.427 359.542 191.609 358.763 190.893L360.098 188.429C360.352 187.96 360.178 187.375 359.709 187.122L356.771 185.531C356.303 185.277 355.717 185.451 355.464 185.92L354.129 188.384C353.104 188.122 352.06 188.019 351.029 188.063L350.23 185.376C350.078 184.865 349.541 184.575 349.031 184.726L345.828 185.678C345.317 185.83 345.027 186.367 345.178 186.877L345.977 189.564C345.09 190.09 344.272 190.747 343.556 191.527L341.092 190.192C340.624 189.938 340.038 190.112 339.785 190.581L338.194 193.519C337.94 193.987 338.114 194.573 338.583 194.826L341.047 196.161C340.785 197.186 340.682 198.23 340.726 199.261L338.039 200.06C337.528 200.212 337.237 200.749 337.389 201.259L338.341 204.462C338.493 204.973 339.03 205.263 339.54 205.112L342.227 204.313C342.753 205.2 343.41 206.018 344.19 206.734L342.855 209.198C342.601 209.666 342.775 210.252 343.244 210.505L346.182 212.096C346.651 212.35 347.236 212.176 347.49 211.707L348.825 209.243C349.851 209.505 350.894 209.608 351.925 209.564L352.724 212.251C352.876 212.762 353.413 213.052 353.923 212.901L357.126 211.949C357.637 211.797 357.927 211.26 357.776 210.749L356.977 208.062C357.864 207.536 358.682 206.878 359.397 206.099L361.861 207.434C362.329 207.688 362.915 207.514 363.168 207.045L364.759 204.107C365.012 203.641 364.838 203.055 364.37 202.802ZM347.85 205.509C344.153 203.507 342.779 198.886 344.781 195.189C346.783 191.492 351.404 190.118 355.101 192.12C358.798 194.122 360.172 198.743 358.17 202.44C356.167 206.138 351.547 207.512 347.85 205.509Z" fill="white"/>
<g opacity="0.36">
<path d="M345.521 180.325L343.625 179.298C343.826 178.509 343.906 177.706 343.872 176.913L345.94 176.298C346.333 176.181 346.557 175.768 346.44 175.375L345.707 172.91C345.59 172.517 345.177 172.293 344.784 172.41L342.716 173.025C342.311 172.342 341.805 171.713 341.206 171.162L342.233 169.266C342.428 168.905 342.294 168.455 341.934 168.26L339.673 167.035C339.313 166.84 338.862 166.974 338.667 167.334L337.64 169.23C336.851 169.029 336.048 168.949 335.255 168.983L334.64 166.915C334.523 166.522 334.11 166.298 333.717 166.415L331.252 167.148C330.859 167.265 330.635 167.678 330.752 168.071L331.367 170.139C330.684 170.544 330.055 171.05 329.504 171.649L327.608 170.622C327.247 170.427 326.797 170.561 326.602 170.921L325.377 173.182C325.182 173.543 325.316 173.993 325.676 174.188L327.572 175.215C327.371 176.004 327.291 176.807 327.325 177.6L325.257 178.215C324.864 178.332 324.64 178.745 324.757 179.138L325.49 181.603C325.607 181.996 326.02 182.22 326.413 182.103L328.481 181.488C328.886 182.171 329.392 182.8 329.991 183.351L328.964 185.247C328.769 185.607 328.903 186.058 329.263 186.253L331.524 187.478C331.884 187.673 332.335 187.539 332.53 187.179L333.557 185.283C334.346 185.484 335.149 185.564 335.942 185.53L336.557 187.598C336.674 187.991 337.087 188.215 337.48 188.098L339.945 187.365C340.338 187.248 340.562 186.835 340.445 186.442L339.83 184.374C340.513 183.969 341.142 183.463 341.693 182.864L343.589 183.891C343.95 184.086 344.4 183.952 344.595 183.592L345.82 181.331C346.016 180.971 345.882 180.52 345.521 180.325ZM332.808 182.408C329.963 180.867 328.905 177.311 330.446 174.466C331.987 171.621 335.543 170.563 338.388 172.105C341.233 173.646 342.291 177.202 340.75 180.047C339.209 182.892 335.653 183.95 332.808 182.408Z" fill="white"/>
</g>
<path d="M491.087 350.167H489.6V344.914C489.6 344.281 489.086 343.767 488.453 343.767H460.971C460.435 343.767 460 344.202 460 344.738V376.354C460 379.473 462.528 382.001 465.647 382.001H483.953C487.072 382.001 489.6 379.473 489.6 376.354V374.367H491.087C494.898 374.367 498 371.266 498 367.455V357.08C498 353.268 494.898 350.167 491.087 350.167ZM496 367.454C496 370.163 493.796 372.366 491.087 372.366H489.6V352.167H491.087C493.796 352.167 496 354.37 496 357.079V367.454Z" fill="#EF929C"/>
<path d="M459.759 381.619H351.398L375.943 292.643C376.845 289.373 379.819 287.109 383.211 287.109H478.051C483.144 287.109 486.793 292.022 485.322 296.898L459.759 381.619Z" fill="#3E479B"/>
<path opacity="0.89" d="M469.904 286.914H375.064C371.672 286.914 368.698 289.179 367.796 292.448L345.948 371.647H343.251H282.406C281.25 371.647 280.56 372.936 281.202 373.898L286.22 381.424H343.252H451.613L477.176 296.702C478.646 291.827 474.997 286.914 469.904 286.914Z" fill="#4C65BA"/>
<path d="M420.068 329.884C424.39 329.884 427.906 333.4 427.906 337.722V339.23C427.906 343.552 424.39 347.068 420.068 347.068H418.56C414.238 347.068 410.722 343.552 410.722 339.23V337.722C410.722 333.4 414.238 329.884 418.56 329.884H420.068ZM420.068 327.884H418.56C413.149 327.884 408.722 332.311 408.722 337.722V339.23C408.722 344.641 413.149 349.068 418.56 349.068H420.068C425.479 349.068 429.906 344.641 429.906 339.23V337.722C429.905 332.311 425.478 327.884 420.068 327.884Z" fill="white"/>
<path d="M117.579 409H625.42C628.501 409 630.999 406.502 630.999 403.421V387.539C630.999 384.458 628.501 381.96 625.42 381.96H117.579C114.498 381.96 112 384.458 112 387.539V403.421C112 406.501 114.498 409 117.579 409Z" fill="#373449"/>
</g>
<defs>
<clipPath id="clip0_127_3632">
<rect width="750" height="500" fill="white"/>
</clipPath>
</defs>
</svg>
