<svg width="598" height="598" viewBox="0 0 598 598" fill="none" xmlns="http://www.w3.org/2000/svg">
<path d="M538.082 476.599H498.468V476.898H538.082V476.599Z" fill="#EBEBEB"/>
<path d="M396.139 479.845H385.742V480.144H396.139V479.845Z" fill="#EBEBEB"/>
<path d="M497.27 465.493H474.316V465.792H497.27V465.493Z" fill="#EBEBEB"/>
<path d="M114.4 467.502H62.7412V467.801H114.4V467.502Z" fill="#EBEBEB"/>
<path d="M132.623 467.502H125.049V467.801H132.623V467.502Z" fill="#EBEBEB"/>
<path d="M269.276 472.553H157.239V472.852H269.276V472.553Z" fill="#EBEBEB"/>
<path d="M285.128 404.009H54.1813C50.4174 404.009 47.3545 400.946 47.3545 397.182V72.5494C47.3545 68.7856 50.4174 65.7226 54.1813 65.7226H285.128C288.89 65.7226 291.953 68.7856 291.953 72.5494V397.182C291.953 400.946 288.89 404.009 285.128 404.009ZM54.1813 66.0228C50.5813 66.0228 47.6535 68.9506 47.6535 72.5506V397.183C47.6535 400.783 50.5813 403.711 54.1813 403.711H285.128C288.726 403.711 291.654 400.783 291.654 397.183V72.5494C291.654 68.9506 288.726 66.0216 285.128 66.0216L54.1813 66.0228Z" fill="#EBEBEB"/>
<path d="M543.819 404.009H312.872C309.11 404.009 306.047 400.946 306.047 397.182V72.5494C306.047 68.7856 309.11 65.7226 312.872 65.7226H543.819C547.584 65.7226 550.646 68.7856 550.646 72.5494V397.182C550.646 400.946 547.583 404.009 543.819 404.009ZM312.872 66.0228C309.274 66.0228 306.346 68.9506 306.346 72.5506V397.183C306.346 400.783 309.274 403.711 312.872 403.711H543.819C547.419 403.711 550.347 400.783 550.347 397.183V72.5494C550.347 68.9506 547.419 66.0216 543.819 66.0216L312.872 66.0228Z" fill="#EBEBEB"/>
<path d="M598 457.348H0V457.647H598V457.348Z" fill="#EBEBEB"/>
<path d="M478.4 307.53C470.909 305.214 465.977 303.691 460.12 301.88C458.784 301.467 459.139 299.486 460.536 299.56C467.367 299.92 472.959 300.216 481.601 300.676C476.626 292.023 473.689 286.623 470.338 279.848C469.723 278.607 471.368 277.496 472.289 278.532C476.786 283.59 480.549 287.7 486.579 294.171C488.019 285.795 489.685 278.087 491.772 270.337C492.148 268.941 494.23 269.303 494.103 270.743C493.546 277.031 493.343 283.373 493.494 289.501C493.776 289.601 493.788 289.605 494.069 289.705C499.131 283.935 504.445 278.388 509.981 273.072C511.047 272.048 512.64 273.517 511.725 274.677C506.352 281.491 501.377 288.618 496.852 296.026C504.081 293.299 511.353 290.653 518.65 288.091C520.012 287.613 520.886 289.535 519.629 290.246C512.059 294.537 504.573 298.927 497.097 303.473C504.983 305.985 510.127 307.623 516.36 309.607C517.692 310.032 517.325 312.009 515.929 311.924C509.542 311.538 504.238 311.218 496.134 310.73C500.046 315.312 502.766 318.454 505.929 322.01C506.854 323.049 505.544 324.557 504.385 323.788C500.406 321.148 496.905 318.805 491.811 315.384C492.327 319.455 492.777 322.604 493.315 325.695C493.561 327.108 491.562 327.666 491.039 326.329C489.716 322.944 488.506 319.575 486.969 315.109C481.216 342.636 482.708 369.319 488.27 396.682C485.512 396.183 484.135 395.935 481.377 395.437C477.347 367.382 478.39 342.262 484.609 314.683C481.154 318.247 478.615 320.939 476.193 323.648C475.235 324.72 473.549 323.476 474.292 322.244C475.917 319.548 477.685 316.804 480.044 313.259C473.89 314.608 469.674 315.541 465.027 316.587C463.658 316.896 462.981 314.991 464.237 314.366C468.57 312.212 472.545 310.299 478.4 307.53Z" fill="#EBEBEB"/>
<path d="M468.676 317.039C474.354 314.03 478.441 311.862 482.713 309.597C484.368 308.719 483.406 306.201 481.586 306.647C476.254 307.954 471.295 309.173 464.251 310.903C467.076 302.764 468.862 297.29 470.602 291.263C471.118 289.477 468.67 288.411 467.71 290.001C464.86 294.724 462.146 299.097 458.147 305.44C455.723 298.962 453.234 292.945 450.507 287.035C449.697 285.282 447.056 286.234 447.534 288.106C448.73 292.79 449.72 297.51 450.482 302.146C450.225 302.295 450.214 302.302 449.957 302.452C445.419 298.909 440.765 295.516 436.009 292.274C434.373 291.158 432.572 293.417 434.033 294.753C439.043 299.335 443.84 304.149 448.401 309.18C442.258 308.108 436.099 307.091 429.931 306.133C428.017 305.835 427.347 308.574 429.177 309.207C435.986 311.562 442.76 314 449.548 316.544C443.498 319.819 439.197 322.146 434.614 324.627C432.967 325.518 433.946 328.028 435.761 327.568C440.686 326.32 445.335 325.143 451.849 323.495C449.518 327.576 447.736 330.662 445.905 333.759C444.959 335.36 447.06 337.004 448.388 335.703C450.978 333.164 453.555 330.625 456.964 327.259C457.114 329.681 457.225 331.782 457.302 333.744C457.377 335.655 460.144 335.826 460.46 333.94C460.855 331.581 461.239 329.065 461.669 326.087C472.458 352.057 475.973 378.55 475.616 406.469C478.232 405.466 479.54 404.963 482.155 403.96C480.878 375.646 475.165 351.162 463.908 325.228C466.387 326.972 468.47 328.461 470.372 329.859C471.932 331.005 473.804 328.901 472.476 327.492C471.183 326.119 469.765 324.651 468.126 322.977C472.923 323.113 476.57 323.219 480.139 323.334C482.021 323.395 482.428 320.71 480.611 320.211C477.092 319.243 473.47 318.284 468.676 317.039Z" fill="#F0F0F0"/>
<path d="M493.468 332.124C489.225 329.875 486.199 328.271 482.999 326.573C481.826 325.952 482.506 324.169 483.794 324.484C487.781 325.463 491.445 326.361 496.694 327.651C494.596 321.609 493.285 317.582 491.995 313.092C491.631 311.827 493.362 311.071 494.041 312.199C496.168 315.726 498.167 318.95 501.143 323.671C502.954 318.83 504.815 314.342 506.862 309.93C507.438 308.691 509.309 309.367 508.968 310.69C508.051 314.243 507.295 317.826 506.719 321.342C506.883 321.438 506.89 321.442 507.055 321.539C510.501 318.846 514.038 316.271 517.657 313.817C518.818 313.03 520.082 314.642 519.044 315.587C515.275 319.015 511.67 322.622 508.248 326.398C512.847 325.595 517.459 324.835 522.077 324.12C523.429 323.91 523.908 325.849 522.614 326.295C517.532 328.05 512.476 329.868 507.411 331.766C511.925 334.209 515.104 335.929 518.534 337.785C519.7 338.417 519.006 340.193 517.722 339.867C514.035 338.933 510.596 338.063 505.734 336.833C507.488 339.903 508.815 342.201 510.196 344.532C510.867 345.666 509.381 346.833 508.44 345.911C506.489 343.999 504.57 342.11 502.005 339.577C501.888 341.477 501.803 343.106 501.747 344.629C501.697 345.981 499.739 346.109 499.513 344.775C499.206 342.96 498.91 341.032 498.576 338.722C490.712 357.653 488.148 376.966 488.409 397.318C486.503 396.586 485.548 396.22 483.642 395.488C484.574 374.848 488.738 357 496.944 338.095C495.008 339.457 493.403 340.606 491.936 341.688C490.835 342.5 489.51 341.012 490.446 340.013C491.457 338.936 492.568 337.783 493.869 336.454C490.246 336.556 487.522 336.636 484.83 336.723C483.496 336.766 483.21 334.867 484.496 334.512C487.147 333.78 489.849 333.064 493.468 332.124Z" fill="#F5F5F5"/>
<path d="M463.94 457.151H499.607C502.101 457.151 504.164 455.211 504.317 452.721L508.098 391.204C508.265 388.489 455.282 388.489 455.45 391.204L459.23 452.721C459.382 455.211 461.446 457.151 463.94 457.151Z" fill="#E0E0E0"/>
<path d="M461.773 315.006C460.831 314.226 460.347 313.022 460.49 311.807L461.292 304.99L459.462 308.16C458.38 310.037 455.898 310.541 454.169 309.237L450.592 306.537L453.861 311.815C454.798 313.326 454.493 315.293 453.143 316.45L448.916 320.072L453.06 319.128C454.876 318.714 456.708 319.751 457.287 321.52L458.714 325.874L459.626 321.242C460.036 319.161 462.145 317.882 464.181 318.48L466.965 319.3L461.773 315.006Z" fill="#E6E6E6"/>
<path d="M485.566 303.26C486.254 302.691 486.607 301.811 486.503 300.923L485.917 295.943L487.253 298.258C488.044 299.629 489.857 299.997 491.12 299.044L493.733 297.072L491.345 300.927C490.66 302.031 490.884 303.467 491.87 304.313L494.958 306.959L491.931 306.269C490.604 305.967 489.266 306.724 488.843 308.017L487.801 311.197L487.135 307.813C486.836 306.293 485.295 305.359 483.809 305.796L481.775 306.394L485.566 303.26Z" fill="#F5F5F5"/>
<path d="M499.664 331.801C500.158 331.392 500.412 330.762 500.337 330.125L499.916 326.551L500.875 328.213C501.443 329.197 502.743 329.461 503.65 328.777L505.525 327.362L503.811 330.128C503.321 330.92 503.481 331.952 504.188 332.557L506.403 334.457L504.231 333.961C503.279 333.745 502.318 334.288 502.015 335.215L501.267 337.497L500.789 335.069C500.573 333.978 499.468 333.307 498.402 333.622L496.942 334.051L499.664 331.801Z" fill="#E6E6E6"/>
<path d="M460.022 171.491H428.725C427.854 171.491 427.147 170.785 427.147 169.913V163.823C427.147 162.953 427.854 162.246 428.725 162.246H460.022C460.893 162.246 461.599 162.953 461.599 163.823V169.913C461.599 170.785 460.893 171.491 460.022 171.491Z" fill="#F5F5F5"/>
<path d="M449.502 182.949H418.204C417.333 182.949 416.626 182.243 416.626 181.371V175.281C416.626 174.409 417.333 173.703 418.204 173.703H449.502C450.372 173.703 451.079 174.409 451.079 175.281V181.371C451.079 182.242 450.372 182.949 449.502 182.949Z" fill="#F5F5F5"/>
<path d="M485.561 182.949H454.264C453.393 182.949 452.687 182.243 452.687 181.371V175.281C452.687 174.409 453.393 173.703 454.264 173.703H485.561C486.432 173.703 487.139 174.409 487.139 175.281V181.371C487.139 182.242 486.433 182.949 485.561 182.949Z" fill="#F0F0F0"/>
<path d="M145.156 235.856H111.764C110.892 235.856 110.187 235.149 110.187 234.278V227.626C110.187 226.756 110.892 226.049 111.764 226.049H145.156C146.028 226.049 146.734 226.756 146.734 227.626V234.278C146.734 235.149 146.027 235.856 145.156 235.856Z" fill="#F5F5F5"/>
<path d="M145.156 260.189H111.764C110.892 260.189 110.187 259.483 110.187 258.611V251.959C110.187 251.087 110.892 250.381 111.764 250.381H145.156C146.028 250.381 146.734 251.087 146.734 251.959V258.611C146.734 259.482 146.027 260.189 145.156 260.189Z" fill="#F5F5F5"/>
<path d="M133.996 248.01H100.604C99.7332 248.01 99.0264 247.303 99.0264 246.432V239.78C99.0264 238.908 99.7332 238.203 100.604 238.203H133.996C134.868 238.203 135.574 238.908 135.574 239.78V246.432C135.574 247.303 134.867 248.01 133.996 248.01Z" fill="#F5F5F5"/>
<path d="M172.248 248.01H138.856C137.984 248.01 137.278 247.303 137.278 246.432V239.78C137.278 238.908 137.984 238.203 138.856 238.203H172.248C173.12 238.203 173.826 238.908 173.826 239.78V246.432C173.826 247.303 173.12 248.01 172.248 248.01Z" fill="#F0F0F0"/>
<path d="M455.002 240.327H489.587C490.458 240.327 491.165 241.032 491.165 241.904V248.877C491.165 249.749 490.458 250.454 489.587 250.454H455.002C454.132 250.454 453.425 249.749 453.425 248.877V241.904C453.425 241.033 454.13 240.327 455.002 240.327Z" fill="#F5F5F5"/>
<path d="M466.526 227.777H501.111C501.981 227.777 502.688 228.483 502.688 229.355V236.327C502.688 237.198 501.981 237.905 501.111 237.905H466.526C465.654 237.905 464.948 237.198 464.948 236.327V229.355C464.948 228.483 465.655 227.777 466.526 227.777Z" fill="#F5F5F5"/>
<path d="M427.026 227.777H461.61C462.481 227.777 463.188 228.483 463.188 229.355V236.327C463.188 237.198 462.481 237.905 461.61 237.905H427.026C426.155 237.905 425.448 237.198 425.448 236.327V229.355C425.448 228.483 426.155 227.777 427.026 227.777Z" fill="#F0F0F0"/>
<path d="M98.9887 189.731H135.541C136.413 189.731 137.118 190.437 137.118 191.309V198.809C137.118 199.681 136.413 200.386 135.541 200.386H98.9887C98.1168 200.386 97.4111 199.681 97.4111 198.809V191.309C97.4111 190.438 98.118 189.731 98.9887 189.731Z" fill="#F5F5F5"/>
<path d="M117.537 176.527H154.09C154.96 176.527 155.667 177.233 155.667 178.105V185.605C155.667 186.476 154.96 187.182 154.09 187.182H117.537C116.666 187.182 115.96 186.476 115.96 185.605V178.105C115.96 177.234 116.666 176.527 117.537 176.527Z" fill="#F5F5F5"/>
<path d="M75.9779 176.527H112.53C113.402 176.527 114.108 177.233 114.108 178.105V185.605C114.108 186.476 113.402 187.182 112.53 187.182H75.9779C75.106 187.182 74.4004 186.476 74.4004 185.605V178.105C74.4004 177.234 75.1072 176.527 75.9779 176.527Z" fill="#F0F0F0"/>
<path d="M174.615 73.8135H173V121.675H174.615V73.8135Z" fill="#E6E6E6"/>
<path d="M122.666 148.271L173.807 117.362L224.949 148.271H122.666Z" fill="#F0F0F0"/>
<path d="M177.337 148.271L173.807 117.362L196.796 148.271H177.337Z" fill="#F5F5F5"/>
<path d="M424.999 73.8135H423.385V121.675H424.999V73.8135Z" fill="#E6E6E6"/>
<path d="M373.05 148.271L424.192 117.362L475.333 148.271H373.05Z" fill="#F0F0F0"/>
<path d="M427.722 148.271L424.192 117.362L447.181 148.271H427.722Z" fill="#F5F5F5"/>
<path d="M293.233 506.762C421.303 506.762 525.124 500.699 525.124 493.22C525.124 485.74 421.303 479.677 293.233 479.677C165.163 479.677 61.3418 485.74 61.3418 493.22C61.3418 500.699 165.163 506.762 293.233 506.762Z" fill="#F5F5F5"/>
<path d="M227.09 173.116H221.11V167.136C221.11 165.485 222.449 164.146 224.1 164.146C225.752 164.146 227.09 165.485 227.09 167.136V173.116Z" fill="#263238"/>
<path d="M376.889 173.116H370.909V167.136C370.909 165.485 372.248 164.146 373.899 164.146C375.551 164.146 376.889 165.485 376.889 167.136V173.116Z" fill="#263238"/>
<g opacity="0.5">
<path d="M227.09 173.116H221.11V167.136C221.11 165.485 222.449 164.146 224.1 164.146C225.752 164.146 227.09 165.485 227.09 167.136V173.116Z" fill="white"/>
<path d="M376.889 173.116H370.909V167.136C370.909 165.485 372.248 164.146 373.899 164.146C375.551 164.146 376.889 165.485 376.889 167.136V173.116Z" fill="white"/>
</g>
<path d="M395.381 285.873H202.62C198.892 285.873 195.871 282.85 195.871 279.124V179.204C195.871 175.476 198.893 172.455 202.62 172.455H395.381C399.109 172.455 402.13 175.477 402.13 179.204V279.124C402.13 282.85 399.107 285.873 395.381 285.873Z" fill="#407BFF"/>
<path opacity="0.8" d="M395.381 285.873H202.62C198.892 285.873 195.871 282.85 195.871 279.124V179.204C195.871 175.476 198.893 172.455 202.62 172.455H395.381C399.109 172.455 402.13 175.477 402.13 179.204V279.124C402.13 282.85 399.107 285.873 395.381 285.873Z" fill="white"/>
<path d="M395.379 288.862H202.62C197.25 288.862 192.881 284.494 192.881 279.122V179.201C192.881 173.831 197.25 169.462 202.62 169.462H395.38C400.75 169.462 405.119 173.831 405.119 179.201V279.122C405.118 284.494 400.75 288.862 395.379 288.862ZM202.62 175.444C200.547 175.444 198.861 177.13 198.861 179.203V279.124C198.861 281.195 200.547 282.883 202.62 282.883H395.38C397.453 282.883 399.139 281.196 399.139 279.124V179.203C399.139 177.13 397.453 175.444 395.38 175.444H202.62Z" fill="#407BFF"/>
<g opacity="0.4">
<path d="M395.379 288.862H202.62C197.25 288.862 192.881 284.494 192.881 279.122V179.201C192.881 173.831 197.25 169.462 202.62 169.462H395.38C400.75 169.462 405.119 173.831 405.119 179.201V279.122C405.118 284.494 400.75 288.862 395.379 288.862ZM202.62 175.444C200.547 175.444 198.861 177.13 198.861 179.203V279.124C198.861 281.195 200.547 282.883 202.62 282.883H395.38C397.453 282.883 399.139 281.196 399.139 279.124V179.203C399.139 177.13 397.453 175.444 395.38 175.444H202.62Z" fill="white"/>
</g>
<path d="M259.98 195.093C267.691 195.446 277.149 200.181 279.085 208.407C281.416 218.309 268.31 222.34 260.937 222.572C253.917 222.793 241.973 220.291 240.744 211.76C239.351 202.094 253.228 200.036 259.982 199.877C260.558 199.864 260.56 198.967 259.982 198.98C252.949 199.145 239.701 201.134 239.676 210.641C239.65 220.507 253.401 223.695 260.937 223.469C268.395 223.245 280.718 219.558 280.247 210.059C279.768 200.421 268.355 194.578 259.982 194.196C259.404 194.169 259.405 195.066 259.98 195.093Z" fill="#263238"/>
<path d="M236.36 246.651C236.447 249.195 236.711 251.787 236.625 254.328C236.6 255.078 237.461 254.63 236.174 254.601C234.96 254.575 233.729 254.686 232.516 254.728C229.395 254.835 226.274 254.943 223.154 255.051C221.965 255.091 220.675 255.002 219.495 255.177C218.203 255.369 219.072 255.49 219.001 255.112C218.494 252.423 218.801 249.327 218.707 246.589C218.692 246.182 218.537 245.539 218.657 245.15C218.836 244.568 217.95 245.529 218.356 245.343C218.976 245.058 220.259 245.277 220.955 245.253C226.213 245.071 231.469 244.889 236.727 244.709C237.302 244.688 237.306 243.791 236.727 243.812C230.552 244.025 224.376 244.239 218.2 244.452C217.964 244.46 217.743 244.65 217.751 244.9C217.876 248.486 217.999 252.071 218.123 255.658C218.132 255.894 218.322 256.115 218.572 256.107C224.747 255.894 230.923 255.68 237.099 255.467C237.335 255.458 237.556 255.268 237.547 255.018C237.451 252.229 237.355 249.44 237.258 246.651C237.236 246.076 236.339 246.072 236.36 246.651Z" fill="#263238"/>
<path d="M281.632 247.394C281.752 250.903 282.487 254.866 282.01 258.33C281.823 259.689 282.969 258.567 281.176 258.909C279.53 259.223 277.632 259.031 275.964 259.088C271.518 259.241 267.073 259.396 262.627 259.549C260.925 259.607 259.119 259.841 257.415 259.728C255.522 259.604 256.892 260.32 256.522 259.445C255.241 256.424 256.217 250.616 256.102 247.304C256.059 246.073 256.276 245.042 255.793 245.339C256.506 244.903 258.624 245.241 259.495 245.211C266.984 244.953 274.472 244.693 281.962 244.435C282.537 244.415 282.541 243.518 281.962 243.538C273.165 243.842 264.367 244.145 255.571 244.449C255.335 244.458 255.114 244.648 255.122 244.898C255.298 250.006 255.475 255.114 255.651 260.222C255.659 260.458 255.849 260.679 256.099 260.671C264.896 260.367 273.694 260.063 282.49 259.759C282.726 259.751 282.947 259.561 282.939 259.311C282.801 255.338 282.664 251.365 282.527 247.393C282.508 246.819 281.611 246.816 281.632 247.394Z" fill="#263238"/>
<path d="M381.261 196.669C381.34 198.961 381.675 201.384 381.503 203.666C381.338 205.865 382.473 204.23 380.882 204.819C377.452 206.089 371.652 205.138 367.974 205.265C362.343 205.46 356.713 205.653 351.083 205.848C349.161 205.914 347.224 206.059 345.301 206.048C344.971 206.047 344.134 206.261 343.853 206.098C342.974 205.591 344.472 207.144 343.865 205.951C343.036 204.328 343.68 200.617 343.616 198.764C343.6 198.305 343.207 196.101 343.511 195.717C343.277 196.011 343.075 196.305 343.786 195.98C346.705 194.639 352.818 195.668 355.956 195.559C364.512 195.264 373.069 194.968 381.625 194.673C382.2 194.653 382.202 193.756 381.625 193.776C368.769 194.22 355.912 194.665 343.056 195.108C342.821 195.117 342.599 195.307 342.608 195.557C342.734 199.225 342.861 202.893 342.988 206.561C342.996 206.797 343.187 207.018 343.436 207.01C356.292 206.566 369.149 206.122 382.005 205.677C382.241 205.669 382.462 205.479 382.454 205.229C382.356 202.376 382.256 199.523 382.158 196.669C382.139 196.094 381.242 196.091 381.261 196.669Z" fill="#263238"/>
<path d="M388.409 211.245C371.302 211.247 354.196 211.248 337.09 211.251C336.512 211.251 336.512 212.148 337.09 212.148C354.196 212.145 371.302 212.143 388.409 212.142C388.986 212.142 388.986 211.245 388.409 211.245Z" fill="#263238"/>
<path d="M383.89 221.177C375.337 221.18 366.784 221.181 358.23 221.183C357.652 221.183 357.652 222.08 358.23 222.08C366.783 222.078 375.337 222.077 383.89 222.074C384.468 222.074 384.468 221.177 383.89 221.177Z" fill="#263238"/>
<path d="M376.889 225.14C370.67 225.142 364.451 225.145 358.23 225.146C357.652 225.146 357.652 226.043 358.23 226.043C364.449 226.04 370.669 226.039 376.889 226.037C377.467 226.037 377.467 225.14 376.889 225.14Z" fill="#263238"/>
<path d="M275.921 209.008C267.367 209.011 258.815 209.012 250.261 209.014C249.684 209.014 249.683 209.911 250.261 209.911C258.815 209.909 267.367 209.908 275.921 209.905C276.498 209.905 276.499 209.008 275.921 209.008Z" fill="#263238"/>
<path d="M268.92 212.971C262.701 212.973 256.481 212.974 250.261 212.977C249.684 212.977 249.683 213.874 250.261 213.874C256.48 213.871 262.699 213.87 268.92 213.868C269.497 213.868 269.497 212.971 268.92 212.971Z" fill="#263238"/>
<path d="M383.738 235.756C375.185 235.758 366.632 235.76 358.078 235.762C357.5 235.762 357.5 236.659 358.078 236.659C366.63 236.656 375.184 236.655 383.738 236.653C384.316 236.653 384.317 235.756 383.738 235.756Z" fill="#263238"/>
<path d="M370.908 255.206C366.631 255.208 362.356 255.21 358.079 255.212C357.501 255.212 357.501 256.109 358.079 256.109C362.356 256.107 366.631 256.105 370.908 256.103C371.486 256.103 371.486 255.206 370.908 255.206Z" fill="#263238"/>
<path d="M233.505 250.334C229.228 250.336 224.951 250.337 220.675 250.34C220.098 250.34 220.098 251.237 220.675 251.237C224.952 251.234 229.229 251.233 233.505 251.231C234.081 251.231 234.083 250.334 233.505 250.334Z" fill="#263238"/>
<path d="M276.22 250.558C271.147 250.959 266.072 251.36 260.999 251.76C260.427 251.806 260.422 252.703 260.999 252.657C266.072 252.257 271.147 251.856 276.22 251.455C276.792 251.41 276.797 250.512 276.22 250.558Z" fill="#263238"/>
<path d="M312.407 230.143C307.732 230.145 303.057 230.146 298.381 230.149C297.804 230.149 297.804 231.046 298.381 231.046C303.057 231.043 307.732 231.042 312.407 231.04C312.985 231.04 312.985 230.143 312.407 230.143Z" fill="#263238"/>
<path d="M383.738 251.655C375.185 251.658 366.632 251.659 358.078 251.661C357.5 251.661 357.5 252.558 358.078 252.558C366.63 252.556 375.184 252.555 383.738 252.552C384.316 252.552 384.317 251.655 383.738 251.655Z" fill="#263238"/>
<path d="M294.115 226.044C293.995 229.523 293.875 233.004 293.754 236.483C293.746 236.731 293.967 236.923 294.203 236.931C301.907 237.198 309.612 237.463 317.317 237.73C317.565 237.738 317.757 237.517 317.765 237.282C317.919 232.807 318.074 228.334 318.229 223.86C318.237 223.611 318.016 223.42 317.781 223.412C310.076 223.145 302.371 222.879 294.667 222.614C294.089 222.594 294.09 223.491 294.667 223.511C301.226 223.737 307.784 223.964 314.343 224.19C315.088 224.217 316.839 223.92 317.467 224.298C318.105 224.682 317.024 223.463 317.321 224.172C317.447 224.471 317.325 225.279 317.271 225.624C316.741 229.073 317.923 233.282 316.892 236.6C316.64 237.412 317.785 236.725 316.165 236.792C314.789 236.849 313.376 236.696 312.002 236.649C307.975 236.51 303.946 236.37 299.92 236.232C298.398 236.179 296.877 236.106 295.354 236.074C293.743 236.04 294.771 236.527 294.68 235.622C294.371 232.533 294.903 229.155 295.011 226.044C295.033 225.466 294.136 225.468 294.115 226.044Z" fill="#263238"/>
<path d="M243.767 223.559C237.72 227.175 232.673 233.11 230.405 239.773C230.218 240.321 231.084 240.555 231.27 240.011C233.457 233.582 238.381 227.825 244.22 224.333C244.714 224.037 244.263 223.262 243.767 223.559Z" fill="#263238"/>
<path d="M228.411 235.228C228.809 237.554 229.209 239.879 229.607 242.204C229.669 242.568 230.125 242.594 230.357 242.402C232.284 240.8 234.21 239.199 236.137 237.596C236.581 237.227 235.944 236.595 235.503 236.962C233.576 238.564 231.65 240.165 229.723 241.768C229.973 241.834 230.223 241.899 230.473 241.965C230.075 239.639 229.675 237.314 229.277 234.989C229.179 234.422 228.314 234.662 228.411 235.228Z" fill="#263238"/>
<path d="M276.071 220.375C281.288 222.452 286.035 226.516 288.659 231.465C288.93 231.976 289.705 231.523 289.434 231.013C286.694 225.845 281.743 221.673 276.311 219.51C275.774 219.297 275.54 220.164 276.071 220.375Z" fill="#263238"/>
<path d="M289.596 227.067C289.577 229.02 289.558 230.973 289.539 232.926C289.764 232.797 289.988 232.667 290.213 232.538C288.428 231.483 286.641 230.429 284.855 229.374C284.356 229.079 283.906 229.854 284.402 230.149C286.187 231.204 287.974 232.258 289.76 233.313C290.055 233.488 290.431 233.264 290.434 232.926C290.454 230.973 290.473 229.02 290.492 227.067C290.499 226.489 289.602 226.489 289.596 227.067Z" fill="#263238"/>
<path d="M265.615 227.883C266.401 231.575 266.986 235.314 267.508 239.05C267.588 239.62 268.452 239.377 268.373 238.812C267.85 235.076 267.266 231.337 266.48 227.645C266.36 227.081 265.494 227.32 265.615 227.883Z" fill="#263238"/>
<path d="M269.235 236.088C268.746 237.473 268.256 238.857 267.766 240.242C268.016 240.176 268.266 240.11 268.516 240.043C267.503 238.858 266.49 237.673 265.477 236.487C265.102 236.047 264.47 236.685 264.843 237.121C265.856 238.307 266.869 239.492 267.882 240.677C268.118 240.953 268.528 240.772 268.632 240.48C269.121 239.096 269.612 237.711 270.101 236.327C270.292 235.782 269.426 235.546 269.235 236.088Z" fill="#263238"/>
<path d="M349.286 225.143C346.645 225.143 344.004 225.143 341.362 225.143C341.511 225.293 341.661 225.442 341.81 225.592C341.81 222.95 341.81 220.309 341.81 217.667C341.661 217.817 341.511 217.966 341.362 218.116C344.004 218.116 346.644 218.116 349.286 218.116C349.137 217.966 348.987 217.817 348.838 217.667C348.838 220.308 348.838 222.95 348.838 225.592C348.838 226.17 349.735 226.17 349.735 225.592C349.735 222.95 349.735 220.309 349.735 217.667C349.735 217.424 349.529 217.219 349.286 217.219C346.645 217.219 344.004 217.219 341.362 217.219C341.119 217.219 340.913 217.424 340.913 217.667C340.913 220.308 340.913 222.95 340.913 225.592C340.913 225.835 341.119 226.04 341.362 226.04C344.004 226.04 346.644 226.04 349.286 226.04C349.863 226.04 349.864 225.143 349.286 225.143Z" fill="#263238"/>
<path d="M349.286 239.721C346.645 239.721 344.004 239.721 341.362 239.721C341.511 239.871 341.661 240.02 341.81 240.17C341.81 237.529 341.81 234.887 341.81 232.245C341.661 232.395 341.511 232.544 341.362 232.694C344.004 232.694 346.644 232.694 349.286 232.694C349.137 232.544 348.987 232.395 348.838 232.245C348.838 234.886 348.838 237.528 348.838 240.17C348.838 240.748 349.735 240.748 349.735 240.17C349.735 237.529 349.735 234.887 349.735 232.245C349.735 232.002 349.529 231.797 349.286 231.797C346.645 231.797 344.004 231.797 341.362 231.797C341.119 231.797 340.913 232.002 340.913 232.245C340.913 234.886 340.913 237.528 340.913 240.17C340.913 240.413 341.119 240.618 341.362 240.618C344.004 240.618 346.644 240.618 349.286 240.618C349.863 240.618 349.864 239.721 349.286 239.721Z" fill="#263238"/>
<path d="M349.286 254.299C346.645 254.299 344.004 254.299 341.362 254.299C341.511 254.449 341.661 254.598 341.81 254.748C341.81 252.107 341.81 249.465 341.81 246.823C341.661 246.973 341.511 247.122 341.362 247.272C344.004 247.272 346.644 247.272 349.286 247.272C349.137 247.122 348.987 246.973 348.838 246.823C348.838 249.464 348.838 252.106 348.838 254.748C348.838 255.326 349.735 255.326 349.735 254.748C349.735 252.107 349.735 249.465 349.735 246.823C349.735 246.581 349.529 246.375 349.286 246.375C346.645 246.375 344.004 246.375 341.362 246.375C341.119 246.375 340.913 246.581 340.913 246.823C340.913 249.464 340.913 252.106 340.913 254.748C340.913 254.991 341.119 255.196 341.362 255.196C344.004 255.196 346.644 255.196 349.286 255.196C349.863 255.196 349.864 254.299 349.286 254.299Z" fill="#263238"/>
<path d="M339.238 219.35C341.212 220.237 343.037 221.542 344.345 223.275C344.523 223.511 344.816 223.578 345.05 223.366C347.631 221.02 350.844 218.695 354.342 218.099C354.911 218.002 354.669 217.137 354.105 217.234C350.433 217.859 348.067 220.29 345.062 222.169C344.082 222.781 344.98 222.444 344.656 222.208C344.037 221.758 343.54 221.032 342.922 220.542C341.938 219.765 340.838 219.09 339.691 218.575C339.169 218.341 338.712 219.113 339.238 219.35Z" fill="#263238"/>
<path d="M339.238 234.61C341.212 235.497 343.037 236.802 344.345 238.535C344.523 238.771 344.816 238.838 345.05 238.626C347.631 236.279 350.844 233.954 354.342 233.359C354.911 233.262 354.669 232.397 354.105 232.494C350.433 233.118 348.067 235.55 345.062 237.429C344.082 238.041 344.98 237.704 344.656 237.468C344.037 237.017 343.54 236.291 342.922 235.802C341.938 235.025 340.838 234.35 339.691 233.835C339.169 233.6 338.712 234.373 339.238 234.61Z" fill="#263238"/>
<path d="M339.238 248.506C341.212 249.394 343.037 250.698 344.345 252.431C344.523 252.667 344.816 252.734 345.05 252.522C347.631 250.176 350.844 247.851 354.342 247.255C354.911 247.158 354.669 246.293 354.105 246.39C350.433 247.015 348.067 249.446 345.062 251.325C344.082 251.937 344.98 251.6 344.656 251.365C344.037 250.914 343.54 250.188 342.922 249.698C341.938 248.921 340.838 248.247 339.691 247.731C339.169 247.497 338.712 248.269 339.238 248.506Z" fill="#263238"/>
<g opacity="0.3">
<path d="M259.98 195.093C267.691 195.446 277.149 200.181 279.085 208.407C281.416 218.309 268.31 222.34 260.937 222.572C253.917 222.793 241.973 220.291 240.744 211.76C239.351 202.094 253.228 200.036 259.982 199.877C260.558 199.864 260.56 198.967 259.982 198.98C252.949 199.145 239.701 201.134 239.676 210.641C239.65 220.507 253.401 223.695 260.937 223.469C268.395 223.245 280.718 219.558 280.247 210.059C279.768 200.421 268.355 194.578 259.982 194.196C259.404 194.169 259.405 195.066 259.98 195.093Z" fill="white"/>
</g>
<g opacity="0.3">
<path d="M236.36 246.651C236.447 249.195 236.711 251.787 236.625 254.328C236.6 255.078 237.461 254.63 236.174 254.601C234.96 254.575 233.729 254.686 232.516 254.728C229.395 254.835 226.274 254.943 223.154 255.051C221.965 255.091 220.675 255.002 219.495 255.177C218.203 255.369 219.072 255.49 219.001 255.112C218.494 252.423 218.801 249.327 218.707 246.589C218.692 246.182 218.537 245.539 218.657 245.15C218.836 244.568 217.95 245.529 218.356 245.343C218.976 245.058 220.259 245.277 220.955 245.253C226.213 245.071 231.469 244.889 236.727 244.709C237.302 244.688 237.306 243.791 236.727 243.812C230.552 244.025 224.376 244.239 218.2 244.452C217.964 244.46 217.743 244.65 217.751 244.9C217.876 248.486 217.999 252.071 218.123 255.658C218.132 255.894 218.322 256.115 218.572 256.107C224.747 255.894 230.923 255.68 237.099 255.467C237.335 255.458 237.556 255.268 237.547 255.018C237.451 252.229 237.355 249.44 237.258 246.651C237.236 246.076 236.339 246.072 236.36 246.651Z" fill="white"/>
</g>
<g opacity="0.3">
<path d="M281.632 247.394C281.752 250.903 282.487 254.866 282.01 258.33C281.823 259.689 282.969 258.567 281.176 258.909C279.53 259.223 277.632 259.031 275.964 259.088C271.518 259.241 267.073 259.396 262.627 259.549C260.925 259.607 259.119 259.841 257.415 259.728C255.522 259.604 256.892 260.32 256.522 259.445C255.241 256.424 256.217 250.616 256.102 247.304C256.059 246.073 256.276 245.042 255.793 245.339C256.506 244.903 258.624 245.241 259.495 245.211C266.984 244.953 274.472 244.693 281.962 244.435C282.537 244.415 282.541 243.518 281.962 243.538C273.165 243.842 264.367 244.145 255.571 244.449C255.335 244.458 255.114 244.648 255.122 244.898C255.298 250.006 255.475 255.114 255.651 260.222C255.659 260.458 255.849 260.679 256.099 260.671C264.896 260.367 273.694 260.063 282.49 259.759C282.726 259.751 282.947 259.561 282.939 259.311C282.801 255.338 282.664 251.365 282.527 247.393C282.508 246.819 281.611 246.816 281.632 247.394Z" fill="white"/>
</g>
<g opacity="0.3">
<path d="M381.261 196.669C381.34 198.961 381.675 201.384 381.503 203.666C381.338 205.865 382.473 204.23 380.882 204.819C377.452 206.089 371.652 205.138 367.974 205.265C362.343 205.46 356.713 205.653 351.083 205.848C349.161 205.914 347.224 206.059 345.301 206.048C344.971 206.047 344.134 206.261 343.853 206.098C342.974 205.591 344.472 207.144 343.865 205.951C343.036 204.328 343.68 200.617 343.616 198.764C343.6 198.305 343.207 196.101 343.511 195.717C343.277 196.011 343.075 196.305 343.786 195.98C346.705 194.639 352.818 195.668 355.956 195.559C364.512 195.264 373.069 194.968 381.625 194.673C382.2 194.653 382.202 193.756 381.625 193.776C368.769 194.22 355.912 194.665 343.056 195.108C342.821 195.117 342.599 195.307 342.608 195.557C342.734 199.225 342.861 202.893 342.988 206.561C342.996 206.797 343.187 207.018 343.436 207.01C356.292 206.566 369.149 206.122 382.005 205.677C382.241 205.669 382.462 205.479 382.454 205.229C382.356 202.376 382.256 199.523 382.158 196.669C382.139 196.094 381.242 196.091 381.261 196.669Z" fill="white"/>
</g>
<g opacity="0.3">
<path d="M388.409 211.245C371.302 211.247 354.196 211.248 337.09 211.251C336.512 211.251 336.512 212.148 337.09 212.148C354.196 212.145 371.302 212.143 388.409 212.142C388.986 212.142 388.986 211.245 388.409 211.245Z" fill="white"/>
</g>
<g opacity="0.3">
<path d="M383.89 221.177C375.337 221.18 366.784 221.181 358.23 221.183C357.652 221.183 357.652 222.08 358.23 222.08C366.783 222.078 375.337 222.077 383.89 222.074C384.468 222.074 384.468 221.177 383.89 221.177Z" fill="white"/>
</g>
<g opacity="0.3">
<path d="M376.889 225.14C370.67 225.142 364.451 225.145 358.23 225.146C357.652 225.146 357.652 226.043 358.23 226.043C364.449 226.04 370.669 226.039 376.889 226.037C377.467 226.037 377.467 225.14 376.889 225.14Z" fill="white"/>
</g>
<g opacity="0.3">
<path d="M275.921 209.008C267.367 209.011 258.815 209.012 250.261 209.014C249.684 209.014 249.683 209.911 250.261 209.911C258.815 209.909 267.367 209.908 275.921 209.905C276.498 209.905 276.499 209.008 275.921 209.008Z" fill="white"/>
</g>
<g opacity="0.3">
<path d="M268.92 212.971C262.701 212.973 256.481 212.974 250.261 212.977C249.684 212.977 249.683 213.874 250.261 213.874C256.48 213.871 262.699 213.87 268.92 213.868C269.497 213.868 269.497 212.971 268.92 212.971Z" fill="white"/>
</g>
<g opacity="0.3">
<path d="M383.738 235.756C375.185 235.758 366.632 235.76 358.078 235.762C357.5 235.762 357.5 236.659 358.078 236.659C366.63 236.656 375.184 236.655 383.738 236.653C384.316 236.653 384.317 235.756 383.738 235.756Z" fill="white"/>
</g>
<g opacity="0.3">
<path d="M370.908 255.206C366.631 255.208 362.356 255.21 358.079 255.212C357.501 255.212 357.501 256.109 358.079 256.109C362.356 256.107 366.631 256.105 370.908 256.103C371.486 256.103 371.486 255.206 370.908 255.206Z" fill="white"/>
</g>
<g opacity="0.3">
<path d="M233.505 250.334C229.228 250.336 224.951 250.337 220.675 250.34C220.098 250.34 220.098 251.237 220.675 251.237C224.952 251.234 229.229 251.233 233.505 251.231C234.081 251.231 234.083 250.334 233.505 250.334Z" fill="white"/>
</g>
<g opacity="0.3">
<path d="M276.22 250.558C271.147 250.959 266.072 251.36 260.999 251.76C260.427 251.806 260.422 252.703 260.999 252.657C266.072 252.257 271.147 251.856 276.22 251.455C276.792 251.41 276.797 250.512 276.22 250.558Z" fill="white"/>
</g>
<g opacity="0.3">
<path d="M312.407 230.143C307.732 230.145 303.057 230.146 298.381 230.149C297.804 230.149 297.804 231.046 298.381 231.046C303.057 231.043 307.732 231.042 312.407 231.04C312.985 231.04 312.985 230.143 312.407 230.143Z" fill="white"/>
</g>
<g opacity="0.3">
<path d="M383.738 251.655C375.185 251.658 366.632 251.659 358.078 251.661C357.5 251.661 357.5 252.558 358.078 252.558C366.63 252.556 375.184 252.555 383.738 252.552C384.316 252.552 384.317 251.655 383.738 251.655Z" fill="white"/>
</g>
<g opacity="0.3">
<path d="M294.115 226.044C293.995 229.523 293.875 233.004 293.754 236.483C293.746 236.731 293.967 236.923 294.203 236.931C301.907 237.198 309.612 237.463 317.317 237.73C317.565 237.738 317.757 237.517 317.765 237.282C317.919 232.807 318.074 228.334 318.229 223.86C318.237 223.611 318.016 223.42 317.781 223.412C310.076 223.145 302.371 222.879 294.667 222.614C294.089 222.594 294.09 223.491 294.667 223.511C301.226 223.737 307.784 223.964 314.343 224.19C315.088 224.217 316.839 223.92 317.467 224.298C318.105 224.682 317.024 223.463 317.321 224.172C317.447 224.471 317.325 225.279 317.271 225.624C316.741 229.073 317.923 233.282 316.892 236.6C316.64 237.412 317.785 236.725 316.165 236.792C314.789 236.849 313.376 236.696 312.002 236.649C307.975 236.51 303.946 236.37 299.92 236.232C298.398 236.179 296.877 236.106 295.354 236.074C293.743 236.04 294.771 236.527 294.68 235.622C294.371 232.533 294.903 229.155 295.011 226.044C295.033 225.466 294.136 225.468 294.115 226.044Z" fill="white"/>
</g>
<g opacity="0.3">
<path d="M243.767 223.559C237.72 227.175 232.673 233.11 230.405 239.773C230.218 240.321 231.084 240.555 231.27 240.011C233.457 233.582 238.381 227.825 244.22 224.333C244.714 224.037 244.263 223.262 243.767 223.559Z" fill="white"/>
</g>
<g opacity="0.3">
<path d="M228.411 235.228C228.809 237.554 229.209 239.879 229.607 242.204C229.669 242.568 230.125 242.594 230.357 242.402C232.284 240.8 234.21 239.199 236.137 237.596C236.581 237.227 235.944 236.595 235.503 236.962C233.576 238.564 231.65 240.165 229.723 241.768C229.973 241.834 230.223 241.899 230.473 241.965C230.075 239.639 229.675 237.314 229.277 234.989C229.179 234.422 228.314 234.662 228.411 235.228Z" fill="white"/>
</g>
<g opacity="0.3">
<path d="M276.071 220.375C281.288 222.452 286.035 226.516 288.659 231.465C288.93 231.976 289.705 231.523 289.434 231.013C286.694 225.845 281.743 221.673 276.311 219.51C275.774 219.297 275.54 220.164 276.071 220.375Z" fill="white"/>
</g>
<g opacity="0.3">
<path d="M289.596 227.067C289.577 229.02 289.558 230.973 289.539 232.926C289.764 232.797 289.988 232.667 290.213 232.538C288.428 231.483 286.641 230.429 284.855 229.374C284.356 229.079 283.906 229.854 284.402 230.149C286.187 231.204 287.974 232.258 289.76 233.313C290.055 233.488 290.431 233.264 290.434 232.926C290.454 230.973 290.473 229.02 290.492 227.067C290.499 226.489 289.602 226.489 289.596 227.067Z" fill="white"/>
</g>
<g opacity="0.3">
<path d="M265.615 227.883C266.401 231.575 266.986 235.314 267.508 239.05C267.588 239.62 268.452 239.377 268.373 238.812C267.85 235.076 267.266 231.337 266.48 227.645C266.36 227.081 265.494 227.32 265.615 227.883Z" fill="white"/>
</g>
<g opacity="0.3">
<path d="M269.235 236.088C268.746 237.473 268.256 238.857 267.766 240.242C268.016 240.176 268.266 240.11 268.516 240.043C267.503 238.858 266.49 237.673 265.477 236.487C265.102 236.047 264.47 236.685 264.843 237.121C265.856 238.307 266.869 239.492 267.882 240.677C268.118 240.953 268.528 240.772 268.632 240.48C269.121 239.096 269.612 237.711 270.101 236.327C270.292 235.782 269.426 235.546 269.235 236.088Z" fill="white"/>
</g>
<g opacity="0.3">
<path d="M349.286 225.143C346.645 225.143 344.004 225.143 341.362 225.143C341.511 225.293 341.661 225.442 341.81 225.592C341.81 222.95 341.81 220.309 341.81 217.667C341.661 217.817 341.511 217.966 341.362 218.116C344.004 218.116 346.644 218.116 349.286 218.116C349.137 217.966 348.987 217.817 348.838 217.667C348.838 220.308 348.838 222.95 348.838 225.592C348.838 226.17 349.735 226.17 349.735 225.592C349.735 222.95 349.735 220.309 349.735 217.667C349.735 217.424 349.529 217.219 349.286 217.219C346.645 217.219 344.004 217.219 341.362 217.219C341.119 217.219 340.913 217.424 340.913 217.667C340.913 220.308 340.913 222.95 340.913 225.592C340.913 225.835 341.119 226.04 341.362 226.04C344.004 226.04 346.644 226.04 349.286 226.04C349.863 226.04 349.864 225.143 349.286 225.143Z" fill="white"/>
</g>
<g opacity="0.3">
<path d="M349.286 239.721C346.645 239.721 344.004 239.721 341.362 239.721C341.511 239.871 341.661 240.02 341.81 240.17C341.81 237.529 341.81 234.887 341.81 232.245C341.661 232.395 341.511 232.544 341.362 232.694C344.004 232.694 346.644 232.694 349.286 232.694C349.137 232.544 348.987 232.395 348.838 232.245C348.838 234.886 348.838 237.528 348.838 240.17C348.838 240.748 349.735 240.748 349.735 240.17C349.735 237.529 349.735 234.887 349.735 232.245C349.735 232.002 349.529 231.797 349.286 231.797C346.645 231.797 344.004 231.797 341.362 231.797C341.119 231.797 340.913 232.002 340.913 232.245C340.913 234.886 340.913 237.528 340.913 240.17C340.913 240.413 341.119 240.618 341.362 240.618C344.004 240.618 346.644 240.618 349.286 240.618C349.863 240.618 349.864 239.721 349.286 239.721Z" fill="white"/>
</g>
<g opacity="0.3">
<path d="M349.286 254.299C346.645 254.299 344.004 254.299 341.362 254.299C341.511 254.449 341.661 254.598 341.81 254.748C341.81 252.107 341.81 249.465 341.81 246.823C341.661 246.973 341.511 247.122 341.362 247.272C344.004 247.272 346.644 247.272 349.286 247.272C349.137 247.122 348.987 246.973 348.838 246.823C348.838 249.464 348.838 252.106 348.838 254.748C348.838 255.326 349.735 255.326 349.735 254.748C349.735 252.107 349.735 249.465 349.735 246.823C349.735 246.581 349.529 246.375 349.286 246.375C346.645 246.375 344.004 246.375 341.362 246.375C341.119 246.375 340.913 246.581 340.913 246.823C340.913 249.464 340.913 252.106 340.913 254.748C340.913 254.991 341.119 255.196 341.362 255.196C344.004 255.196 346.644 255.196 349.286 255.196C349.863 255.196 349.864 254.299 349.286 254.299Z" fill="white"/>
</g>
<g opacity="0.3">
<path d="M339.238 219.35C341.212 220.237 343.037 221.542 344.345 223.275C344.523 223.511 344.816 223.578 345.05 223.366C347.631 221.02 350.844 218.695 354.342 218.099C354.911 218.002 354.669 217.137 354.105 217.234C350.433 217.859 348.067 220.29 345.062 222.169C344.082 222.781 344.98 222.444 344.656 222.208C344.037 221.758 343.54 221.032 342.922 220.542C341.938 219.765 340.838 219.09 339.691 218.575C339.169 218.341 338.712 219.113 339.238 219.35Z" fill="white"/>
</g>
<g opacity="0.3">
<path d="M339.238 234.61C341.212 235.497 343.037 236.802 344.345 238.535C344.523 238.771 344.816 238.838 345.05 238.626C347.631 236.279 350.844 233.954 354.342 233.359C354.911 233.262 354.669 232.397 354.105 232.494C350.433 233.118 348.067 235.55 345.062 237.429C344.082 238.041 344.98 237.704 344.656 237.468C344.037 237.017 343.54 236.291 342.922 235.802C341.938 235.025 340.838 234.35 339.691 233.835C339.169 233.6 338.712 234.373 339.238 234.61Z" fill="white"/>
</g>
<g opacity="0.3">
<path d="M339.238 248.506C341.212 249.394 343.037 250.698 344.345 252.431C344.523 252.667 344.816 252.734 345.05 252.522C347.631 250.176 350.844 247.851 354.342 247.255C354.911 247.158 354.669 246.293 354.105 246.39C350.433 247.015 348.067 249.446 345.062 251.325C344.082 251.937 344.98 251.6 344.656 251.365C344.037 250.914 343.54 250.188 342.922 249.698C341.938 248.921 340.838 248.247 339.691 247.731C339.169 247.497 338.712 248.269 339.238 248.506Z" fill="white"/>
</g>
<path d="M362.547 462.472C362.547 483.479 397.895 488.616 441.498 488.616C485.102 488.616 502.609 483.479 502.609 462.472C502.609 441.464 490.299 415.923 446.696 415.923C403.092 415.925 362.547 441.464 362.547 462.472Z" fill="#407BFF"/>
<path opacity="0.5" d="M362.547 462.472C362.547 483.479 397.895 488.616 441.498 488.616C485.102 488.616 502.609 483.479 502.609 462.472C502.609 441.464 490.299 415.923 446.696 415.923C403.092 415.925 362.547 441.464 362.547 462.472Z" fill="white"/>
<path d="M356.845 433.035C355.241 461.924 363.228 477.521 381.44 478.533C399.651 479.545 415.716 456.945 417.32 428.056C418.924 399.166 400.579 377.039 382.368 376.027C364.156 375.014 358.449 404.145 356.845 433.035Z" fill="#407BFF"/>
<path opacity="0.5" d="M356.845 433.035C355.241 461.924 363.228 477.521 381.44 478.533C399.651 479.545 415.716 456.945 417.32 428.056C418.924 399.166 400.579 377.039 382.368 376.027C364.156 375.014 358.449 404.145 356.845 433.035Z" fill="white"/>
<path opacity="0.1" d="M445.793 418.407C445.793 418.407 462.742 416.261 464.237 422.241C465.732 428.221 436.287 424.932 430.378 430.912C424.47 436.892 449.586 439.964 444.116 443.543C439.823 446.352 425.159 433.603 406.426 438.387C387.693 443.171 385.022 429.042 387.104 415.925C389.188 402.806 390.711 388.7 396.378 389.773C402.045 390.846 420.473 416.667 445.793 418.407Z" fill="black"/>
<path opacity="0.1" d="M393.094 439.825C393.094 439.825 375.557 436.745 374.591 444.084C373.624 451.424 372.287 440.565 393.094 439.825Z" fill="black"/>
<path opacity="0.1" d="M364.823 470.826C359.895 465.055 357.226 456.095 356.737 444.101C358.995 466.947 372.254 481.746 425.212 484.134C478.278 486.526 489.951 470.679 495.632 472.572C498.018 473.367 498.028 475.552 497.24 477.82C489.151 486.184 471.504 488.617 441.498 488.617C404.385 488.617 373.27 484.888 364.823 470.826Z" fill="black"/>
<path d="M455.923 373.077C455.923 373.077 453.446 373.47 451.987 374.954C450.527 376.439 446.223 376.286 446.223 376.286L445.795 381.15L455.608 380.582L455.923 373.077Z" fill="#B25B52"/>
<path d="M416.378 343.998C417.66 343.925 422.558 346.482 425.515 359.417C428.471 372.352 427.814 376.691 450.753 375.22L450.007 381.662C450.007 381.662 430.129 383.794 424.199 379.03C418.29 374.285 411.643 344.267 416.378 343.998Z" fill="#263238"/>
<path opacity="0.6" d="M422.977 359.909L424.095 361.889C424.095 361.889 422.865 374.073 425.211 379.698C424.844 379.491 424.5 379.272 424.199 379.032C422.609 377.754 420.965 374.636 419.504 370.768L422.977 359.909Z" fill="black"/>
<path d="M390.232 320.231C390.232 320.231 390.065 324.004 388.311 324.777C386.559 325.552 389.599 329.871 388.751 332.514C387.903 335.159 385.942 337.534 388.041 341.074C388.041 341.074 387.588 338.121 389.078 336.364C389.078 336.364 388.454 341.317 390.057 341.424C391.661 341.533 391.978 340.085 394.608 340.701C397.238 341.316 394.918 336.656 394.918 336.656C394.918 336.656 395.978 337.358 396.687 339.831C397.395 342.305 404.36 339.451 407.194 340.469C410.027 341.486 410.814 336.251 410.814 336.251C410.814 336.251 412.076 339.36 411.052 340.423C411.052 340.423 413.284 339.785 413.531 336.825C413.531 336.825 414.186 337.724 413.853 339.605C413.853 339.605 416.001 339.449 415.464 335.287C414.927 331.125 411.681 329.927 410.836 326.624C409.991 323.321 399.584 316.924 399.584 316.924L390.232 320.231Z" fill="#263238"/>
<path d="M395.829 332.947L404.699 338.719C404.666 344.944 409.164 344.617 409.164 344.617C409.164 344.617 409.236 346.789 403.814 347.589C398.392 348.388 396.525 348.175 396.525 348.175C399.227 344.941 397.176 337.178 395.829 332.947Z" fill="#B25B52"/>
<path opacity="0.1" d="M405.313 342.097C404.938 341.269 404.691 340.179 404.699 338.719L396.786 333.57L396.29 334.453C396.29 334.453 399.29 342.445 405.313 342.097Z" fill="black"/>
<path d="M393.264 323.451C394.167 330.686 394.39 333.768 398.288 337.264C404.155 342.526 412.841 339.841 414.125 332.483C415.278 325.861 413.614 315.15 406.33 312.703C401.134 310.928 395.483 313.701 393.708 318.897C393.207 320.358 393.055 321.918 393.264 323.451Z" fill="#B25B52"/>
<path d="M409.262 327.711C409.87 329.028 410.659 330.255 411.603 331.357C411.023 331.834 410.263 332.029 409.525 331.89L409.262 327.711Z" fill="#9D2724"/>
<path d="M402.887 323.943C402.837 323.934 402.79 323.914 402.75 323.884C402.625 323.785 402.604 323.603 402.703 323.479L402.707 323.474C403.372 322.597 404.423 322.098 405.522 322.139C405.679 322.159 405.791 322.299 405.779 322.457C405.764 322.613 405.626 322.727 405.469 322.716C404.56 322.696 403.698 323.115 403.15 323.841C403.087 323.917 402.987 323.957 402.887 323.943Z" fill="#2E353A"/>
<path d="M413.614 322.792C413.564 322.784 413.517 322.763 413.476 322.733C412.767 322.173 411.832 321.986 410.961 322.23C410.812 322.286 410.645 322.212 410.588 322.062L410.587 322.059C410.535 321.907 410.616 321.742 410.766 321.686C411.822 321.375 412.962 321.592 413.829 322.269C413.961 322.36 413.993 322.541 413.902 322.671C413.838 322.765 413.725 322.811 413.614 322.792Z" fill="#2E353A"/>
<path d="M405.025 326.996C405.061 327.583 405.404 328.042 405.796 328.021C406.187 327.999 406.463 327.502 406.421 326.906C406.379 326.309 406.042 325.86 405.658 325.882C405.275 325.904 404.991 326.4 405.025 326.996Z" fill="#2E353A"/>
<path d="M411.711 326.579C411.747 327.166 412.09 327.625 412.474 327.602C412.858 327.581 413.142 327.083 413.108 326.489C413.073 325.893 412.729 325.442 412.345 325.465C411.961 325.487 411.668 325.983 411.711 326.579Z" fill="#2E353A"/>
<path d="M412.176 325.507L413.569 325.012C413.569 325.012 412.907 326.162 412.176 325.507Z" fill="#2E353A"/>
<path d="M405.492 325.924L406.886 325.429C406.886 325.429 406.223 326.58 405.492 325.924Z" fill="#2E353A"/>
<path d="M405.754 332.919C405.597 332.739 405.456 332.548 405.332 332.344C405.289 332.281 405.304 332.194 405.368 332.151C405.368 332.151 405.37 332.148 405.373 332.148C405.442 332.111 405.528 332.134 405.569 332.201C406.195 333.244 407.281 333.928 408.493 334.044C408.572 334.045 408.634 334.11 408.633 334.189C408.632 334.268 408.567 334.33 408.488 334.329C407.424 334.246 406.438 333.739 405.754 332.919Z" fill="#263238"/>
<path d="M406.464 313.191C406.464 313.191 410.349 317.503 406.113 319.229C401.878 320.955 398.065 323.498 397.444 327.069C396.823 330.641 393.367 330.75 393.367 330.75C393.367 330.75 387.768 323.654 391.384 316.192C394.998 308.732 404.986 310.584 406.464 313.191Z" fill="#263238"/>
<path d="M395.235 314.312C395.235 314.312 399.908 307.079 407.746 310.581C415.584 314.083 415.926 320.024 413.955 319.441C411.984 318.856 408.853 318.26 406.609 314.207C404.366 310.154 395.235 314.312 395.235 314.312Z" fill="#263238"/>
<path d="M396.378 327.938C396.378 327.938 400.239 327.718 398.402 332.801C398.402 332.801 398.118 329.585 396.378 327.938Z" fill="#263238"/>
<path d="M391.906 329.301C392.392 330.623 393.386 331.699 394.666 332.289C396.369 333.057 397.5 331.605 397.264 329.85C397.052 328.276 395.909 325.971 394.083 325.939C392.754 325.957 391.69 327.049 391.708 328.377C391.712 328.695 391.779 329.009 391.906 329.301Z" fill="#B25B52"/>
<path d="M447.28 389.755L426.62 386.893C426.184 386.832 425.937 386.358 426.138 385.966L438.964 360.987C439.317 360.3 440.067 359.91 440.834 360.016L461.493 362.878C461.93 362.939 462.176 363.413 461.975 363.805L449.149 388.784C448.797 389.471 448.047 389.861 447.28 389.755Z" fill="#263238"/>
<path opacity="0.5" d="M447.28 389.755L426.62 386.893C426.184 386.832 425.937 386.358 426.138 385.966L438.964 360.987C439.317 360.3 440.067 359.91 440.834 360.016L461.493 362.878C461.93 362.939 462.176 363.413 461.975 363.805L449.149 388.784C448.797 389.471 448.047 389.861 447.28 389.755Z" fill="white"/>
<path d="M448.089 389.867L427.429 387.005C426.992 386.944 426.746 386.471 426.947 386.078L439.773 361.1C440.127 360.412 440.876 360.022 441.642 360.128L462.302 362.99C462.738 363.051 462.985 363.524 462.784 363.917L449.958 388.895C449.605 389.584 448.855 389.974 448.089 389.867Z" fill="#263238"/>
<path opacity="0.7" d="M448.089 389.867L427.429 387.005C426.992 386.944 426.746 386.471 426.947 386.078L439.773 361.1C440.127 360.412 440.876 360.022 441.642 360.128L462.302 362.99C462.738 363.051 462.985 363.524 462.784 363.917L449.958 388.895C449.605 389.584 448.855 389.974 448.089 389.867Z" fill="white"/>
<path opacity="0.7" d="M459.475 367.311L457.092 366.981C457.042 366.973 457.013 366.918 457.036 366.874L458.516 363.993C458.556 363.914 458.642 363.869 458.731 363.881L461.113 364.211C461.164 364.218 461.192 364.273 461.168 364.317L459.689 367.198C459.649 367.278 459.563 367.323 459.475 367.311Z" fill="#263238"/>
<path opacity="0.3" d="M459.475 367.311L457.092 366.981C457.042 366.973 457.013 366.918 457.036 366.874L458.516 363.993C458.556 363.914 458.642 363.869 458.731 363.881L461.113 364.211C461.164 364.218 461.192 364.273 461.168 364.317L459.689 367.198C459.649 367.278 459.563 367.323 459.475 367.311Z" fill="white"/>
<path d="M446.615 375.24C446.263 376.216 445.454 376.936 444.809 376.846C444.165 376.757 443.929 375.893 444.282 374.917C444.635 373.941 445.443 373.221 446.088 373.311C446.733 373.4 446.968 374.264 446.615 375.24Z" fill="white"/>
<path d="M467.528 468.123L471.455 484.216L477.087 482.215L475.421 465.874L467.528 468.123Z" fill="#B25B52"/>
<path d="M477.537 481.303L470.717 481.432C470.422 481.438 470.169 481.647 470.111 481.937L468.812 488.339C468.692 488.906 469.056 489.462 469.623 489.581C469.696 489.597 469.77 489.604 469.844 489.604C472.668 489.502 475.177 489.302 478.694 489.241C482.844 489.165 481.8 489.681 486.681 489.66C489.622 489.645 490.098 486.292 488.848 486.151C483.129 485.539 481.488 483.843 479.249 481.842C478.764 481.458 478.154 481.267 477.537 481.303Z" fill="#263238"/>
<path opacity="0.1" d="M476.387 475.353L475.421 465.874L467.528 468.123L469.798 477.426L476.387 475.353Z" fill="black"/>
<path d="M412.894 390.172L421.902 386.705C421.902 386.705 426.638 391.93 429.578 398.154C432.519 404.378 418.362 404.378 418.362 404.378L413.905 396.012L412.894 390.172Z" fill="#407BFF"/>
<path opacity="0.3" d="M412.894 390.172L421.902 386.705C421.902 386.705 426.638 391.93 429.578 398.154C432.519 404.378 418.362 404.378 418.362 404.378L413.905 396.012L412.894 390.172Z" fill="black"/>
<path opacity="0.2" d="M418.131 388.157C420.685 402.257 425.246 399.735 425.246 399.735L423.247 402.685L417.827 403.375L413.905 396.014L412.894 390.173L418.131 388.157Z" fill="black"/>
<path d="M497.563 438.877L510.163 453.917L514.599 450.575L503.533 433.855L497.563 438.877Z" fill="#B25B52"/>
<path d="M512.36 446.387L506.943 450.594C506.703 450.766 506.614 451.082 506.73 451.354L509.299 457.359C509.523 457.893 510.138 458.145 510.672 457.921C510.741 457.892 510.806 457.856 510.867 457.813C513.134 456.124 515.083 454.534 517.944 452.485C521.317 450.064 520.751 451.082 524.755 448.291C527.166 446.607 525.653 443.578 524.545 444.172C519.49 446.918 517.055 446.229 514.076 445.854C513.458 445.817 512.847 446.006 512.36 446.387Z" fill="#263238"/>
<path opacity="0.1" d="M504.433 447.077L509.77 443.279L503.533 433.855L497.563 438.877L504.433 447.077Z" fill="black"/>
<path d="M394.612 396.265C394.612 396.265 391.342 415.142 397.856 427.348C404.371 439.553 418.833 441.769 455.993 402.401C455.993 402.401 469.061 408.479 500.519 443.961L507.515 438.543C507.515 438.543 480.136 394.071 466.901 383.518C453.536 372.859 424.308 402.636 420.584 400.982C417.269 399.509 415.701 389.238 415.701 389.238L394.612 396.265Z" fill="#407BFF"/>
<path opacity="0.3" d="M394.612 396.265C394.612 396.265 391.342 415.142 397.856 427.348C404.371 439.553 418.833 441.769 455.993 402.401C455.993 402.401 469.061 408.479 500.519 443.961L507.515 438.543C507.515 438.543 480.136 394.071 466.901 383.518C453.536 372.859 424.308 402.636 420.584 400.982C417.269 399.509 415.701 389.238 415.701 389.238L394.612 396.265Z" fill="black"/>
<path d="M498.277 443.916L501.17 446.48L509.43 439.623L508.014 435.944L498.277 443.916Z" fill="#407BFF"/>
<path d="M427.987 427.648C435.504 422.479 444.694 414.371 455.994 402.4C455.994 402.4 466.739 398.428 470.511 406.104C474.283 413.78 476.696 469.275 476.696 469.275L467.745 471.855C467.745 471.855 451.748 421.772 451.839 418.467L427.987 427.648Z" fill="#407BFF"/>
<path opacity="0.4" d="M427.987 427.648C435.504 422.479 444.694 414.371 455.994 402.4C455.994 402.4 466.739 398.428 470.511 406.104C474.283 413.78 476.696 469.275 476.696 469.275L467.745 471.855C467.745 471.855 451.748 421.772 451.839 418.467L427.987 427.648Z" fill="black"/>
<path opacity="0.2" d="M470.51 406.105C469.817 404.695 468.887 403.685 467.833 402.965C471.029 404.651 475.515 408.726 476.048 418.407V418.409C474.776 417.207 473.577 416.104 472.434 415.068C471.842 410.736 471.199 407.507 470.51 406.105Z" fill="black"/>
<path opacity="0.2" d="M455.993 402.4C455.993 402.4 457.635 401.796 459.859 401.515C458.569 404.004 453.873 412.405 445.185 421.029L427.986 427.648C435.504 422.479 444.694 414.371 455.993 402.4Z" fill="black"/>
<path d="M466.156 470.835L467.292 474.482L477.68 471.394L477.81 467.454L466.156 470.835Z" fill="#407BFF"/>
<path d="M424.646 389.211C424.646 389.211 421.974 393.556 393.668 397.863C393.668 397.863 394.917 389.12 391.934 376.605C388.95 364.09 377.896 352.326 388.676 349.292C399.457 346.258 418.102 339.999 419.697 346.767C421.293 353.535 424.222 356.491 424.097 361.888C423.973 367.287 420.051 371.204 424.646 389.211Z" fill="#263238"/>
<path d="M459.407 375.288C459.566 374.727 459.488 374.126 459.221 373.608C458.799 372.785 458.038 371.718 456.975 371.824C455.262 371.997 454.809 373.22 454.375 374.818C453.942 376.415 452.581 379.242 454.13 380.223C455.609 381.162 457.886 380.646 459.407 375.288Z" fill="#B25B52"/>
<path d="M394.945 347.528C394.945 347.528 410.002 348.395 409.117 344.113C409.117 344.113 406.187 342.766 406.753 341.176C407.32 339.584 399.568 341.233 396.54 340.798C395.298 340.618 396.093 342.233 396.005 343.961C395.916 345.687 394.945 347.528 394.945 347.528Z" fill="#263238"/>
<path opacity="0.6" d="M392.566 379.546L403.573 379.405L407.321 376.855L411.558 374.982L412.115 376.48C412.115 376.48 398.967 391.778 393.878 390.435C393.76 387.488 393.4 383.777 392.566 379.546Z" fill="black"/>
<path opacity="0.6" d="M401.895 376.402C401.895 376.402 397.674 377.686 396.953 374.616C395.913 370.193 392.825 357.881 389.694 353.15C386.277 347.986 393.008 372.669 393.008 372.669L394.502 377.865L396.856 381.06L401.954 377.441L401.895 376.402Z" fill="black"/>
<path opacity="0.6" d="M409.599 346.046C409.599 346.046 410.123 348.927 398.807 348.673C398.807 348.673 412.001 351.826 409.599 346.046Z" fill="black"/>
<path d="M420.151 370.108L419.998 368.881L419.141 369.394L420.151 370.108Z" fill="#263238"/>
<path opacity="0.7" d="M420.151 370.108L419.998 368.881L419.141 369.394L420.151 370.108Z" fill="white"/>
<path d="M409.842 354.964L409.987 354.177L410.894 353.633L411.656 353.877L419.879 367.594L420.058 368.923L419.15 369.467L418.063 368.683L409.842 354.964Z" fill="#263238"/>
<path opacity="0.6" d="M409.842 354.964L409.987 354.177L410.894 353.633L411.656 353.877L419.879 367.594L420.058 368.923L419.15 369.467L418.063 368.683L409.842 354.964Z" fill="white"/>
<path opacity="0.5" d="M410.926 354.724L410.019 355.268L418.023 368.622L418.931 368.078L410.926 354.724Z" fill="white"/>
<path d="M386.075 350.025C382.226 351.105 381.982 356.318 385.489 369.094C388.995 381.871 391.554 390.029 398.328 386.956C405.102 383.885 412.93 375.652 412.93 375.652L409.538 370.119C409.538 370.119 398.499 379.618 396.185 377.803C393.87 375.989 391.965 348.372 386.075 350.025Z" fill="#263238"/>
<path d="M408.086 372.304L412.754 368.375C412.754 368.375 412.069 360.531 414.605 360.434C416.686 360.355 418.352 362.846 418.723 366.251C419.094 369.656 415.251 371.777 415.251 371.777L410.737 376.783L408.086 372.304Z" fill="#B25B52"/>
<path d="M312.464 296.87C312.464 296.87 322.959 290.41 328.421 299.679C332.298 306.261 330.153 312.89 333.222 318.244C338.006 326.589 334.816 330.577 327.64 332.072C320.464 333.567 308.946 333.367 310.545 324.995C312.18 316.43 304.165 296.75 312.464 296.87Z" fill="#263238"/>
<path d="M323.927 315.551C323.927 315.551 324.797 327.836 327.091 328.047C327.091 328.047 321.685 330.75 316.378 328.047L316.004 322.4L323.927 315.551Z" fill="#EBB376"/>
<path d="M273.265 489.205H269.044L270.38 423.624H276.008L273.265 489.205Z" fill="#407BFF"/>
<path opacity="0.7" d="M273.265 489.205H269.044L270.38 423.624H276.008L273.265 489.205Z" fill="white"/>
<g opacity="0.4">
<path d="M307.902 489.205H303.682L305.018 423.624H310.646L307.902 489.205Z" fill="#407BFF"/>
</g>
<path d="M342.521 489.205H346.743L345.406 423.624H339.777L342.521 489.205Z" fill="#407BFF"/>
<g opacity="0.4">
<path d="M342.521 489.205H346.743L345.406 423.624H339.777L342.521 489.205Z" fill="white"/>
</g>
<path d="M342.811 423.624H273.513V429.755H342.811V423.624Z" fill="#407BFF"/>
<path opacity="0.5" d="M342.811 423.624H273.513V429.755H342.811V423.624Z" fill="white"/>
<path d="M307.882 489.205H312.104L310.767 423.624H305.139L307.882 489.205Z" fill="#407BFF"/>
<path opacity="0.7" d="M307.882 489.205H312.104L310.767 423.624H305.139L307.882 489.205Z" fill="white"/>
<path d="M347.015 345.959H335.535C329.508 345.959 323.111 349.073 321.417 354.858C316.63 371.211 313.007 422.494 313.007 422.494H343.737C347.47 422.494 350.605 419.686 351.015 415.975L357.453 357.61C358.139 351.393 353.27 345.959 347.015 345.959Z" fill="#263238"/>
<path opacity="0.6" d="M347.015 345.959H335.535C329.508 345.959 323.111 349.073 321.417 354.858C316.63 371.211 313.007 422.494 313.007 422.494H343.737C347.47 422.494 350.605 419.686 351.015 415.975L357.453 357.61C358.139 351.393 353.27 345.959 347.015 345.959Z" fill="white"/>
<path d="M340.015 345.959H328.535C322.508 345.959 316.111 349.073 314.417 354.858C309.63 371.211 306.007 422.494 306.007 422.494H335.669C340.01 422.494 343.656 419.228 344.132 414.914L350.453 357.611C351.138 351.393 346.27 345.959 340.015 345.959Z" fill="#263238"/>
<path opacity="0.5" d="M340.015 345.959H328.535C322.508 345.959 316.111 349.073 314.417 354.858C309.63 371.211 306.007 422.494 306.007 422.494H335.669C340.01 422.494 343.656 419.228 344.132 414.914L350.453 357.611C351.138 351.393 346.27 345.959 340.015 345.959Z" fill="white"/>
<path d="M316.781 423.624H271.866C267.724 423.624 264.367 420.267 264.367 416.125C264.367 411.984 267.724 408.627 271.866 408.627H316.781V423.624Z" fill="#263238"/>
<path opacity="0.5" d="M316.781 423.624H271.866C267.724 423.624 264.367 420.267 264.367 416.125C264.367 411.984 267.724 408.627 271.866 408.627H316.781V423.624Z" fill="white"/>
<path d="M344.239 423.624H315.228C311.265 423.624 308.053 420.412 308.053 416.45V415.801C308.053 411.839 311.265 408.627 315.228 408.627H344.239C348.381 408.627 351.738 411.984 351.738 416.125C351.738 420.266 348.381 423.624 344.239 423.624Z" fill="#263238"/>
<path opacity="0.6" d="M344.239 423.624H315.228C311.265 423.624 308.053 420.412 308.053 416.45V415.801C308.053 411.839 311.265 408.627 315.228 408.627H344.239C348.381 408.627 351.738 411.984 351.738 416.125C351.738 420.266 348.381 423.624 344.239 423.624Z" fill="white"/>
<path d="M302.126 344.478C302.126 344.478 303.129 355.387 297.975 360.002C293.284 364.204 285.716 366.275 285.716 366.275L279.042 364.33C278.401 364.144 277.729 364.341 277.321 364.836L274.336 368.455C273.739 369.178 273.895 370.284 274.677 370.886C275.046 371.17 275.507 371.299 275.955 371.244L279.411 370.822C279.411 370.822 282.574 371.408 283.621 371.33C284.441 371.269 286.761 370.451 286.761 370.451C286.761 370.451 298.663 369.428 303.738 364.351C308.815 359.275 310.088 348.742 310.088 348.742L302.126 344.478Z" fill="#EBB376"/>
<path d="M267.07 460.712L267.847 484.581H273.188L275.687 460.282L267.07 460.712Z" fill="#EBB376"/>
<path d="M267.761 482.134L273.852 482.165C274.118 482.165 274.347 482.35 274.405 482.609L275.663 488.338C275.779 488.845 275.461 489.349 274.954 489.465C274.889 489.48 274.822 489.488 274.755 489.489C272.219 489.439 269.963 489.296 266.804 489.292C263.076 489.285 264.021 489.732 259.639 489.785C256.998 489.813 256.522 486.811 257.642 486.666C262.767 486.033 264.25 484.472 266.23 482.642C266.661 482.291 267.206 482.11 267.761 482.134Z" fill="#263238"/>
<path opacity="0.1" d="M273.727 479.344L274.327 473.501H267.486L267.677 479.344H273.727Z" fill="#263238"/>
<path d="M329.609 371.003C329.609 371.003 346.259 408.826 330.268 408.826C314.275 408.826 284.123 408.826 284.123 408.826C284.123 408.826 282.127 418.886 274.938 474.175H267.22C267.22 474.175 265.93 409.417 270.197 399.759C273.541 392.19 294.968 386.779 305.111 384.793C307.84 384.258 309.926 382.05 310.302 379.296L312.554 370.004L329.609 371.003Z" fill="#263238"/>
<path opacity="0.2" d="M329.609 371.003C329.609 371.003 346.259 408.826 330.268 408.826C314.275 408.826 284.123 408.826 284.123 408.826C284.123 408.826 282.127 418.886 274.938 474.175H267.22C267.22 474.175 265.93 409.417 270.197 399.759C273.541 392.19 294.968 386.779 305.111 384.793C307.84 384.258 309.926 382.05 310.302 379.296L312.554 370.004L329.609 371.003Z" fill="black"/>
<path d="M265.743 472.853L266.362 477.053H275.531L276.379 472.853H265.743Z" fill="#263238"/>
<path opacity="0.2" d="M265.743 472.853L266.362 477.053H275.531L276.379 472.853H265.743Z" fill="white"/>
<path d="M283.116 460.722L284.008 484.272L289.125 484.266L292.789 460.29L283.116 460.722Z" fill="#EBB376"/>
<path opacity="0.1" d="M289.877 479.344L290.771 473.501H283.601L283.822 479.344H289.877Z" fill="#263238"/>
<path d="M284.128 482.134L290.22 482.165C290.485 482.165 290.715 482.35 290.772 482.609L292.03 488.338C292.145 488.845 291.828 489.349 291.321 489.465C291.255 489.48 291.189 489.488 291.123 489.489C288.586 489.439 286.33 489.296 283.172 489.292C279.444 489.285 280.388 489.732 276.006 489.785C273.366 489.813 272.89 486.811 274.009 486.666C279.134 486.033 280.617 484.472 282.597 482.642C283.028 482.291 283.573 482.11 284.128 482.134Z" fill="#263238"/>
<path d="M338.021 371.662C338.021 371.662 339.217 371.662 341.017 380.593C343.305 391.944 346.609 408.827 335.717 408.827C319.724 408.827 300.404 408.827 300.404 408.827C300.404 408.827 298.678 412.929 291.164 474.176H283.446C283.446 474.176 279.159 408.638 283.427 398.982C286.713 391.544 303.057 388.143 312.045 386.972C314.608 386.638 316.731 384.571 316.798 381.988C316.867 379.291 316.477 371.201 316.477 371.201L338.021 371.662Z" fill="#263238"/>
<path d="M281.904 472.853L282.792 477.053H291.692L292.54 472.853H281.904Z" fill="#263238"/>
<path opacity="0.2" d="M281.904 472.853L282.792 477.053H291.692L292.54 472.853H281.904Z" fill="white"/>
<path d="M307.803 328.117C303.501 327.47 301.064 338.058 300.844 348.061L311.054 350.456C311.054 350.456 315.854 329.327 307.803 328.117Z" fill="#407BFF"/>
<path opacity="0.1" d="M307.803 328.117C303.501 327.47 301.064 338.058 300.844 348.061L311.054 350.456C311.054 350.456 315.854 329.327 307.803 328.117Z" fill="black"/>
<path d="M310.528 376.404C310.528 376.404 310.294 369.312 308.884 360.349C307.264 350.057 304.493 338.496 305.433 331.175C305.687 329.2 307.291 327.834 309.334 327.834H337.26C339.037 327.834 340.573 329.514 340.361 331.233C339.397 339.074 336.979 358.599 340.674 377.031C340.674 377.031 319.345 378.73 310.528 376.404Z" fill="#407BFF"/>
<path d="M334.756 341.813C334.756 341.813 336.61 354.514 331.012 358.092C325.413 361.669 313.17 365.384 313.17 365.384L305.606 363.78C305.203 363.695 304.801 363.86 304.592 364.199L301.56 369.101C301.339 369.459 301.381 369.929 301.663 370.267C301.888 370.538 302.231 370.681 302.571 370.645L307.158 370.167C307.158 370.167 309.54 370.725 310.339 370.701C311.358 370.67 314.271 369.776 314.271 369.776C314.271 369.776 331.77 368.073 337.114 362.729C342.457 357.385 343.139 346.299 343.139 346.299L334.756 341.813Z" fill="#EBB376"/>
<path d="M338.251 328.071C332.823 327.424 334.26 339.559 333.6 348.061L343.744 349.204C343.744 349.204 346.32 329.033 338.251 328.071Z" fill="#407BFF"/>
<path opacity="0.1" d="M338.251 328.071C332.823 327.424 334.26 339.559 333.6 348.061L343.744 349.204C343.744 349.204 346.32 329.033 338.251 328.071Z" fill="black"/>
<path d="M315.481 328.621C315.481 328.621 314.434 337.679 326.403 329.602C327.159 329.091 327.434 328.107 327.053 327.278C326.642 326.386 326.211 325.119 326.183 323.701C326.168 322.906 325.257 322.439 324.6 322.887C322.906 324.038 320.17 325.277 316.468 324.978C315.728 324.919 315.172 325.594 315.372 326.308C315.563 326.982 315.672 327.801 315.481 328.621Z" fill="#407BFF"/>
<path opacity="0.1" d="M315.481 328.621C315.481 328.621 314.434 337.679 326.403 329.602C327.159 329.091 327.434 328.107 327.053 327.278C326.642 326.386 326.211 325.119 326.183 323.701C326.168 322.906 325.257 322.439 324.6 322.887C322.906 324.038 320.17 325.277 316.468 324.978C315.728 324.919 315.172 325.594 315.372 326.308C315.563 326.982 315.672 327.801 315.481 328.621Z" fill="black"/>
<path opacity="0.1" d="M324.084 317.322C323.978 316.255 323.927 315.55 323.927 315.55L316.004 322.399L316.201 325.378C318.488 325.208 321.827 323.728 324.084 317.322Z" fill="black"/>
<path d="M324.566 305.689C325.204 312.686 325.628 315.633 322.675 319.727C318.233 325.887 309.504 325.146 306.782 318.482C304.335 312.484 303.699 302.057 310.053 298.255C314.58 295.515 320.472 296.964 323.211 301.491C323.984 302.766 324.447 304.204 324.566 305.689Z" fill="#EBB376"/>
<path d="M309.834 312.304C309.565 313.676 309.109 315.005 308.477 316.253C309.128 316.567 309.885 316.575 310.544 316.277L309.834 312.304Z" fill="#D58745"/>
<path d="M314.188 307.892C314.232 307.873 314.271 307.843 314.304 307.806C314.398 307.684 314.375 307.51 314.255 307.415L314.25 307.411C313.427 306.743 312.329 306.518 311.308 306.807C311.166 306.863 311.092 307.019 311.139 307.164C311.189 307.306 311.345 307.382 311.488 307.335C312.335 307.109 313.238 307.304 313.916 307.858C313.994 307.916 314.097 307.929 314.188 307.892Z" fill="#2E353A"/>
<path d="M304.475 309.371C304.426 309.366 304.379 309.35 304.339 309.324C304.212 309.238 304.178 309.064 304.265 308.938L304.268 308.933C304.842 308.042 305.816 307.486 306.875 307.444C307.027 307.452 307.147 307.578 307.146 307.73C307.142 307.88 307.018 308.001 306.867 308.001C305.993 308.05 305.195 308.515 304.721 309.253C304.666 309.332 304.573 309.376 304.475 309.371Z" fill="#2E353A"/>
<path d="M313.636 310.663C313.738 311.222 313.521 311.729 313.149 311.8C312.779 311.87 312.405 311.467 312.309 310.899C312.212 310.331 312.425 309.833 312.788 309.766C313.152 309.698 313.532 310.099 313.636 310.663Z" fill="#2E353A"/>
<path d="M307.282 311.804C307.384 312.363 307.167 312.87 306.803 312.938C306.439 313.005 306.059 312.606 305.955 312.04C305.851 311.474 306.071 310.974 306.434 310.907C306.799 310.84 307.185 311.236 307.282 311.804Z" fill="#2E353A"/>
<path d="M306.601 310.909L305.184 310.764C305.184 310.764 306.067 311.69 306.601 310.909Z" fill="#2E353A"/>
<path d="M312.954 309.768L311.537 309.623C311.537 309.623 312.421 310.549 312.954 309.768Z" fill="#2E353A"/>
<path d="M327.049 310.918C326.862 312.264 326.148 313.48 325.064 314.299C323.618 315.372 322.255 314.237 322.116 312.536C321.992 311.01 322.595 308.605 324.307 308.201C325.562 307.944 326.788 308.753 327.045 310.009C327.106 310.308 327.107 310.617 327.049 310.918Z" fill="#EBB376"/>
<path d="M312.48 319.123C312.279 319.187 312.073 319.234 311.864 319.263C311.797 319.276 311.733 319.232 311.719 319.165C311.719 319.165 311.719 319.162 311.718 319.16C311.712 319.09 311.761 319.028 311.831 319.019C312.9 318.878 313.84 318.236 314.361 317.293C314.39 317.229 314.464 317.202 314.528 317.231C314.591 317.259 314.619 317.333 314.59 317.397C314.149 318.234 313.387 318.857 312.48 319.123Z" fill="#263238"/>
<path d="M315.034 300.775C315.034 300.775 313.123 303.765 314.6 305.858C316.077 307.951 306.012 303.57 303.42 308.152C303.42 308.152 300.136 293.997 315.033 295.892V300.775H315.034Z" fill="#263238"/>
<path d="M314.6 299.878C314.6 299.878 313.486 305.549 317.174 307.298C320.861 309.046 320.762 313.731 324.083 312.944C328.869 311.81 325.446 297.286 317.689 295.716C311.94 294.554 314.6 299.878 314.6 299.878Z" fill="#263238"/>
<path d="M210.083 490.193H205.96L204.152 381.04H211.89L210.083 490.193Z" fill="#407BFF"/>
<path opacity="0.7" d="M210.083 490.193H205.96L204.152 381.04H211.89L210.083 490.193Z" fill="white"/>
<path d="M255.609 490.193H251.484L249.678 381.04H257.416L255.609 490.193Z" fill="#407BFF"/>
<path opacity="0.4" d="M255.609 490.193H251.484L249.678 381.04H257.416L255.609 490.193Z" fill="white"/>
<path d="M285.848 379.211H208.021V387.748H285.848V379.211Z" fill="#407BFF"/>
<path opacity="0.3" d="M285.848 379.211H208.021V387.748H285.848V379.211Z" fill="white"/>
<path d="M331.487 379.211H285.848V387.748H331.487V379.211Z" fill="#407BFF"/>
<path opacity="0.5" d="M331.487 379.211H285.848V387.748H331.487V379.211Z" fill="white"/>
<path d="M333.435 490.193H329.31L327.503 381.04H335.242L333.435 490.193Z" fill="#407BFF"/>
<path opacity="0.4" d="M333.435 490.193H329.31L327.503 381.04H335.242L333.435 490.193Z" fill="white"/>
<path d="M336.797 381.04H277.797C276.047 381.04 274.63 379.621 274.63 377.873V376.891C274.63 375.141 276.048 373.724 277.797 373.724H336.797C338.547 373.724 339.964 375.142 339.964 376.891V377.873C339.964 379.622 338.547 381.04 336.797 381.04Z" fill="#263238"/>
<path opacity="0.6" d="M336.797 381.04H277.797C276.047 381.04 274.63 379.621 274.63 377.873V376.891C274.63 375.141 276.048 373.724 277.797 373.724H336.797C338.547 373.724 339.964 375.142 339.964 376.891V377.873C339.964 379.622 338.547 381.04 336.797 381.04Z" fill="white"/>
<path d="M281.631 381.04H200.909C199.159 381.04 197.742 379.621 197.742 377.873V376.891C197.742 375.141 199.161 373.724 200.909 373.724H281.631C283.381 373.724 284.798 375.142 284.798 376.891V377.873C284.799 379.622 283.381 381.04 281.631 381.04Z" fill="#263238"/>
<path opacity="0.5" d="M281.631 381.04H200.909C199.159 381.04 197.742 379.621 197.742 377.873V376.891C197.742 375.141 199.161 373.724 200.909 373.724H281.631C283.381 373.724 284.798 375.142 284.798 376.891V377.873C284.799 379.622 283.381 381.04 281.631 381.04Z" fill="white"/>
<path d="M287.911 490.193H283.786L281.979 381.04H289.718L287.911 490.193Z" fill="#407BFF"/>
<path opacity="0.7" d="M287.911 490.193H283.786L281.979 381.04H289.718L287.911 490.193Z" fill="white"/>
<path d="M279.34 373.722C278.669 373.722 278.124 373.178 278.124 372.506C278.124 371.834 278.668 371.29 279.34 371.29H312.471C313.142 371.29 313.687 371.834 313.687 372.506C313.687 373.178 313.143 373.722 312.471 373.722H279.34Z" fill="#407BFF"/>
<path opacity="0.2" d="M279.34 373.722C278.669 373.722 278.124 373.178 278.124 372.506C278.124 371.834 278.668 371.29 279.34 371.29H312.471C313.142 371.29 313.687 371.834 313.687 372.506C313.687 373.178 313.143 373.722 312.471 373.722H279.34Z" fill="black"/>
<path d="M282.154 371.62L277.744 340.239C277.581 339.085 276.515 338.149 275.36 338.149H271.134V373.711H280.356C281.511 373.709 282.315 372.774 282.154 371.62Z" fill="#407BFF"/>
<path d="M278.533 373.709H241.073C239.919 373.709 238.851 372.773 238.69 371.619L234.279 340.238C234.116 339.084 234.921 338.147 236.075 338.147H273.535C274.689 338.147 275.757 339.084 275.919 340.238L280.328 371.619C280.492 372.774 279.687 373.709 278.533 373.709Z" fill="#263238"/>
<path opacity="0.7" d="M278.533 373.709H241.073C239.919 373.709 238.851 372.773 238.69 371.619L234.279 340.238C234.116 339.084 234.921 338.147 236.075 338.147H273.535C274.689 338.147 275.757 339.084 275.919 340.238L280.328 371.619C280.492 372.774 279.687 373.709 278.533 373.709Z" fill="white"/>
<path opacity="0.7" d="M259.135 355.074C259.283 356.129 258.548 356.986 257.493 356.986C256.438 356.986 255.462 356.131 255.314 355.074C255.166 354.02 255.901 353.163 256.956 353.163C258.012 353.163 258.987 354.02 259.135 355.074Z" fill="white"/>
<path d="M146.718 364.621C142.216 390.877 173.569 377.11 186.058 377.422C186.855 377.442 187.629 377.605 188.39 377.892L192.25 394.545L188.503 411.795L179.761 425.611H125.356L86.0158 398.994L76.0244 367.771L78.8338 317.191L80.0824 309.074C80.0824 309.074 81.3311 319.065 108.807 316.567C136.282 314.07 157.82 305.214 164.07 314.07C171.566 324.686 149.693 347.26 146.718 364.621Z" fill="#407BFF"/>
<path opacity="0.2" d="M187.567 407.588V417.416L171.878 423.739L140.967 422.099L132.842 411.796L136.285 406.41H156.189L187.567 407.588Z" fill="black"/>
<path d="M137.566 439.729H128.117V482.737H137.566V439.729Z" fill="#263238"/>
<path opacity="0.5" d="M137.566 439.729H128.117V482.737H137.566V439.729Z" fill="white"/>
<path d="M140.009 478.827H125.674L96.3945 484.366V489.254H102.422L125.674 484.855H140.009L163.26 489.254H169.288V484.366L140.009 478.827Z" fill="#263238"/>
<path opacity="0.3" d="M140.009 478.827H125.674L96.3945 484.366V489.254H102.422L125.674 484.855H140.009L163.26 489.254H169.288V484.366L140.009 478.827Z" fill="white"/>
<path d="M163.261 491.372C165.27 491.372 167.279 491.372 169.288 491.372C171.176 491.372 171.178 488.439 169.288 488.439C167.279 488.439 165.27 488.439 163.261 488.439C161.375 488.439 161.371 491.372 163.261 491.372Z" fill="#407BFF"/>
<path d="M96.3949 491.372C98.4042 491.372 100.413 491.372 102.423 491.372C104.31 491.372 104.312 488.439 102.423 488.439C100.413 488.439 98.4042 488.439 96.3949 488.439C94.5076 488.439 94.5052 491.372 96.3949 491.372Z" fill="#407BFF"/>
<path opacity="0.2" d="M137.566 439.729H128.117V449.463H137.566V439.729Z" fill="black"/>
<path d="M183.919 413.684H127.386V401.494H183.919C187.286 401.494 190.015 404.223 190.015 407.59C190.015 410.955 187.286 413.684 183.919 413.684Z" fill="#407BFF"/>
<path opacity="0.1" d="M183.919 413.684H127.386V401.494H183.919C187.286 401.494 190.015 404.223 190.015 407.59C190.015 410.955 187.286 413.684 183.919 413.684Z" fill="black"/>
<path d="M136.548 325.557C136.548 325.557 143.787 345.858 149.707 346.317C155.627 346.777 162.874 335.882 162.874 335.882L165.826 328.204L171.776 327.708V337.34L165.668 340.411C165.668 340.411 156.333 355.754 149.083 355.373C141.832 354.992 134.512 343.769 133.03 338.053C132.216 334.911 132.758 328.363 136.548 325.557Z" fill="#FFC3BD"/>
<path d="M173.044 342.269L175.188 324.542L166.985 323.99L166.737 341.844L173.044 342.269Z" fill="#263238"/>
<path opacity="0.5" d="M173.044 342.269L175.188 324.542L166.985 323.99L166.737 341.844L173.044 342.269Z" fill="white"/>
<path d="M175.348 321.981L167.145 321.43L166.973 323.977L175.177 324.529L175.348 321.981Z" fill="#407BFF"/>
<path d="M175.36 321.994L167.156 321.443L167.242 320.162C167.259 319.905 167.482 319.711 167.739 319.728L175.012 320.217C175.269 320.234 175.462 320.456 175.446 320.713L175.36 321.994Z" fill="#263238"/>
<path d="M134.65 343.428C134.65 343.428 126.888 330.613 131.847 324.538C136.806 318.464 144.38 338.491 144.38 338.491L134.65 343.428Z" fill="#407BFF"/>
<path opacity="0.3" d="M134.65 343.428C134.65 343.428 126.888 330.613 131.847 324.538C136.806 318.464 144.38 338.491 144.38 338.491L134.65 343.428Z" fill="white"/>
<path d="M133.143 342.521L134.612 344.687L145.489 339.064L144.481 336.792L133.143 342.521Z" fill="#407BFF"/>
<path opacity="0.1" d="M133.143 342.521L134.612 344.687L145.489 339.064L144.481 336.792L133.143 342.521Z" fill="white"/>
<path d="M95.7557 392.436C95.7557 392.436 86.025 358.393 97.4312 324.537C97.4312 324.537 112.234 317.649 133.342 322.701C135.763 323.28 137.231 325.729 136.61 328.141C134.498 336.351 131.233 355.93 139.117 380.675C139.119 380.675 120.609 391.95 95.7557 392.436Z" fill="#407BFF"/>
<path opacity="0.5" d="M95.7557 392.436C95.7557 392.436 86.025 358.393 97.4312 324.537C97.4312 324.537 112.234 317.649 133.342 322.701C135.763 323.28 137.231 325.729 136.61 328.141C134.498 336.351 131.233 355.93 139.117 380.675C139.119 380.675 120.609 391.95 95.7557 392.436Z" fill="white"/>
<path d="M114.263 321.005L121.409 327.196L125.559 323.52C123.99 322.352 124.42 319.716 125.296 316.869L115.161 308.868C115.675 312.625 116.064 317.782 114.263 321.005Z" fill="#FFC3BD"/>
<path d="M166.279 400.908L179.45 406.269L177.963 411.839L163.902 408.942L166.279 400.908Z" fill="#FFC3BD"/>
<path d="M121.3 381.9C121.3 381.9 184.345 360.061 189.544 380.126C194.741 400.191 146.965 414.032 121.933 413.189C96.9002 412.347 121.3 381.9 121.3 381.9Z" fill="#263238"/>
<path opacity="0.3" d="M121.3 381.9C121.3 381.9 184.345 360.061 189.544 380.126C194.741 400.191 146.965 414.032 121.933 413.189C96.9002 412.347 121.3 381.9 121.3 381.9Z" fill="black"/>
<path opacity="0.7" d="M168.167 383.933L137.576 403.432L142.459 411.444C142.459 411.444 139.502 412.427 135.41 402.639L154.344 390.123C154.344 390.123 148.414 389.529 148.567 388.598C148.816 387.087 161.825 384.184 167.763 382.935C168.359 382.811 168.68 383.605 168.167 383.933Z" fill="black"/>
<path opacity="0.7" d="M136.463 402.572L141.766 411.565C134.569 412.807 127.655 413.384 121.931 413.19C119.264 413.101 117.163 412.673 115.528 411.983L113.667 408.416L117.678 399.959L136.463 402.572Z" fill="black"/>
<path d="M137.003 403.954L131.047 408.946L133.782 413.193L142.849 411.776L137.003 403.954Z" fill="#FFC3BD"/>
<path d="M144.442 411.925L138.218 402.118L135.41 404.124L140.792 412.59L144.442 411.925Z" fill="#263238"/>
<path opacity="0.3" d="M144.442 411.925L138.218 402.118L135.41 404.124L140.792 412.59L144.442 411.925Z" fill="white"/>
<path d="M99.1402 402.787C95.7495 397.037 89.205 379.736 104.94 376.724C120.673 373.713 172.357 402.787 172.357 402.787L169.951 410.352L121.011 402.279C121.011 402.279 134.618 414.592 119.735 413.061C107.93 411.847 102.436 408.375 99.1402 402.787Z" fill="#263238"/>
<path d="M171.083 400.908L168.023 410.785L171.083 411.212L173.84 402.679L171.083 400.908Z" fill="#263238"/>
<path opacity="0.3" d="M171.083 400.908L168.023 410.785L171.083 411.212L173.84 402.679L171.083 400.908Z" fill="white"/>
<path d="M135.532 412.973L133.385 406.441C133.304 406.195 133.063 406.037 132.806 406.064L127.105 406.629C126.599 406.676 126.226 407.123 126.272 407.629C126.278 407.695 126.292 407.758 126.311 407.82C127.125 410.162 127.942 412.213 128.901 415.146C130.037 418.606 129.334 417.863 130.613 421.95C131.385 424.411 134.318 423.945 134.113 422.86C133.149 417.908 134.423 416.942 135.522 414.549C135.719 414.042 135.722 413.481 135.532 412.973Z" fill="#263238"/>
<path d="M178.28 405.912L176.066 412.621C175.982 412.874 176.085 413.151 176.314 413.287L181.371 416.301C181.819 416.573 182.4 416.429 182.67 415.983C182.705 415.926 182.734 415.865 182.755 415.801C183.511 413.369 184.089 411.174 185.086 408.164C186.26 404.61 186.387 405.652 187.825 401.494C188.689 398.987 185.98 397.583 185.487 398.603C183.26 403.285 181.618 403.306 179.247 404.613C178.777 404.913 178.433 405.375 178.28 405.912Z" fill="#263238"/>
<path d="M169.642 383.615H141.274C139.937 383.615 138.854 382.531 138.854 381.194H172.062C172.063 382.531 170.979 383.615 169.642 383.615Z" fill="#263238"/>
<path opacity="0.2" d="M169.642 383.615H141.274C139.937 383.615 138.854 382.531 138.854 381.194H172.062C172.063 382.531 170.979 383.615 169.642 383.615Z" fill="white"/>
<path d="M148.76 383.615H128.153C126.816 383.615 125.732 382.531 125.732 381.194H151.181C151.181 382.531 150.097 383.615 148.76 383.615Z" fill="#263238"/>
<path opacity="0.5" d="M148.76 383.615H128.153C126.816 383.615 125.732 382.531 125.732 381.194H151.181C151.181 382.531 150.097 383.615 148.76 383.615Z" fill="white"/>
<path d="M169.843 382.874H151.171C150.776 382.874 150.5 382.484 150.63 382.112L158.935 358.387C159.164 357.733 159.781 357.295 160.473 357.295H179.145C179.54 357.295 179.816 357.685 179.686 358.058L171.381 381.784C171.151 382.438 170.535 382.874 169.843 382.874Z" fill="#263238"/>
<path opacity="0.5" d="M169.843 382.874H151.171C150.776 382.874 150.5 382.484 150.63 382.112L158.935 358.387C159.164 357.733 159.781 357.295 160.473 357.295H179.145C179.54 357.295 179.816 357.685 179.686 358.058L171.381 381.784C171.151 382.438 170.535 382.874 169.843 382.874Z" fill="white"/>
<path d="M170.574 382.874H151.902C151.508 382.874 151.231 382.484 151.362 382.112L159.667 358.387C159.895 357.733 160.512 357.295 161.205 357.295H179.877C180.271 357.295 180.548 357.685 180.417 358.058L172.112 381.784C171.883 382.438 171.267 382.874 170.574 382.874Z" fill="#263238"/>
<path opacity="0.7" d="M170.574 382.874H151.902C151.508 382.874 151.231 382.484 151.362 382.112L159.667 358.387C159.895 357.733 160.512 357.295 161.205 357.295H179.877C180.271 357.295 180.548 357.685 180.417 358.058L172.112 381.784C171.883 382.438 171.267 382.874 170.574 382.874Z" fill="white"/>
<path d="M167.469 370.085C167.276 370.994 166.648 371.731 166.065 371.731C165.483 371.731 165.167 370.994 165.361 370.085C165.555 369.177 166.182 368.44 166.765 368.44C167.347 368.44 167.663 369.177 167.469 370.085Z" fill="white"/>
<path d="M105.077 334.745C105.077 334.745 109.636 357.185 112.711 360.907C115.785 364.629 129.181 374.64 129.181 374.64L137.142 372.969L142.848 377.731L139.118 380.676L134.701 379.015C134.701 379.015 131.523 379.646 127.408 379.646C123.292 379.646 106.583 369.816 103.271 364.296C99.9594 358.775 95.3213 338.018 95.3213 338.018L105.077 334.745Z" fill="#FFC3BD"/>
<path d="M111.627 321.161L114.464 319.515L121.409 327.196C121.409 327.196 117.591 325.636 116.517 326.266C115.549 326.836 116.226 329.296 115.101 329.316C112.604 329.359 111.627 321.161 111.627 321.161Z" fill="#407BFF"/>
<path d="M121.409 327.196L125.032 320.045L127.993 321.644C127.993 321.644 130.748 328.584 128.643 329.316C127.362 329.761 126.871 326.515 125.6 326.045C124.581 325.668 121.409 327.196 121.409 327.196Z" fill="#407BFF"/>
<g opacity="0.2">
<path d="M111.627 321.161L114.464 319.515L121.409 327.196C121.409 327.196 117.591 325.636 116.517 326.266C115.549 326.836 116.226 329.296 115.101 329.316C112.604 329.359 111.627 321.161 111.627 321.161Z" fill="white"/>
<path d="M121.409 327.196L125.032 320.045L127.993 321.644C127.993 321.644 130.748 328.584 128.643 329.316C127.362 329.761 126.871 326.515 125.6 326.045C124.581 325.668 121.409 327.196 121.409 327.196Z" fill="white"/>
</g>
<path d="M95.7561 345.909C95.7561 345.909 90.4805 329.938 97.4317 324.537C104.383 319.135 107.643 342.951 107.643 342.951L95.7561 345.909Z" fill="#407BFF"/>
<path opacity="0.3" d="M95.7561 345.909C95.7561 345.909 90.4805 329.938 97.4317 324.537C104.383 319.135 107.643 342.951 107.643 342.951L95.7561 345.909Z" fill="white"/>
<path d="M94.334 344.54L95.3996 347.279L108.712 343.855L108.18 341.117L94.334 344.54Z" fill="#407BFF"/>
<path opacity="0.1" d="M94.334 344.54L95.3996 347.279L108.712 343.855L108.18 341.117L94.334 344.54Z" fill="white"/>
<path opacity="0.1" d="M115.329 310.198C115.276 309.74 115.22 309.293 115.161 308.867L125.296 316.868C124.92 318.089 124.638 319.264 124.547 320.309C118.425 320.363 116.107 313.596 115.329 310.198Z" fill="black"/>
<path d="M117.072 297.19C114.961 304.338 113.911 307.349 116.145 312.164C119.497 319.492 128.739 320.521 132.938 314.149C136.694 308.405 139.58 297.689 133.707 292.415C129.557 288.634 123.128 288.933 119.348 293.083C118.278 294.255 117.499 295.663 117.072 297.19Z" fill="#FFC3BD"/>
<path d="M125.127 304.365C124.926 304.936 125.057 305.503 125.431 305.641C125.805 305.78 126.274 305.425 126.475 304.854C126.676 304.284 126.553 303.717 126.178 303.578C125.804 303.442 125.335 303.796 125.127 304.365Z" fill="#263238"/>
<path d="M131.565 306.702C131.356 307.272 131.493 307.848 131.862 307.978C132.23 308.109 132.705 307.762 132.913 307.193C133.122 306.623 132.983 306.054 132.616 305.916C132.25 305.779 131.774 306.133 131.565 306.702Z" fill="#263238"/>
<path d="M129.405 306.865C129.764 308.304 130.317 309.686 131.048 310.976C130.373 311.339 129.57 311.386 128.857 311.104L129.405 306.865Z" fill="#ED893E"/>
<path d="M124.875 301.204C124.985 301.313 125.152 301.339 125.291 301.27C126.782 300.552 128.656 301.57 128.671 301.58C128.843 301.677 129.06 301.614 129.157 301.442C129.254 301.27 129.192 301.052 129.02 300.955C128.923 300.94 126.802 299.746 124.981 300.618C124.805 300.705 124.731 300.917 124.815 301.095C124.827 301.136 124.847 301.173 124.875 301.204Z" fill="#263238"/>
<path d="M135.348 305.464C135.452 305.537 135.587 305.552 135.704 305.503C135.881 305.421 135.961 305.214 135.886 305.035C135.457 303.963 134.532 303.168 133.408 302.904C133.213 302.87 133.026 303.001 132.993 303.196C132.958 303.391 133.09 303.577 133.285 303.611C134.169 303.837 134.89 304.473 135.226 305.321C135.254 305.378 135.296 305.427 135.348 305.464Z" fill="#263238"/>
<path d="M115.68 301.36C115.68 301.36 118.36 301.298 117.986 298.236C117.986 298.236 122.422 298.11 122.61 294.862C122.61 294.862 126.484 298.298 127.858 295.612C127.858 295.612 132.606 299.86 133.23 297.049C133.23 297.049 138.166 303.172 137.916 299.423C137.916 299.423 143.476 298.861 138.478 294.051C138.478 294.051 143.039 290.053 135.667 288.429C135.667 288.429 136.311 283.688 131.121 285.775C131.121 285.775 129.919 280.621 125.42 283.621C125.42 283.621 122.99 279.997 120.333 284.87C120.333 284.87 116.411 282.624 115.162 287.685C115.162 287.685 108.065 288.548 110.992 293.209C110.992 293.209 113.182 308.868 115.162 308.868C116.508 308.867 115.68 301.36 115.68 301.36Z" fill="#263238"/>
<path d="M113.235 302.094C113.278 303.536 113.893 304.901 114.943 305.89C116.337 307.194 117.928 306.153 118.255 304.376C118.558 302.777 118.205 300.174 116.452 299.549C115.171 299.118 113.783 299.807 113.352 301.089C113.243 301.412 113.204 301.754 113.235 302.094Z" fill="#FFC3BD"/>
<path d="M126.701 313.031C126.953 313.106 127.211 313.157 127.471 313.187C127.555 313.201 127.634 313.145 127.648 313.061C127.648 313.061 127.649 313.058 127.649 313.055C127.654 312.969 127.592 312.894 127.506 312.883C126.171 312.741 124.984 311.973 124.305 310.815C124.268 310.738 124.174 310.705 124.096 310.742C124.018 310.779 123.986 310.874 124.023 310.952C124.598 311.979 125.565 312.729 126.701 313.031Z" fill="#263238"/>
<path d="M75.4013 309.699C75.4013 309.699 49.8895 440.622 134.099 443.019C210.906 445.204 193.734 382.447 188.738 378.076C183.742 373.705 202.475 418.352 171.566 418.977C134.301 419.729 127.542 384.32 115.054 384.008C102.565 383.696 83.6753 400.244 81.8023 370.271C79.9282 340.298 89.7629 289.405 75.4013 309.699Z" fill="#407BFF"/>
<path opacity="0.5" d="M75.4013 309.699C75.4013 309.699 49.8895 440.622 134.099 443.019C210.906 445.204 193.734 382.447 188.738 378.076C183.742 373.705 202.475 418.352 171.566 418.977C134.301 419.729 127.542 384.32 115.054 384.008C102.565 383.696 83.6753 400.244 81.8023 370.271C79.9282 340.298 89.7629 289.405 75.4013 309.699Z" fill="white"/>
</svg>
