<?xml version="1.0" encoding="UTF-8" standalone="no"?>
<svg xmlns="http://www.w3.org/2000/svg" version="1.2" baseProfile="tiny" viewBox="0.00 0.00 48.00 48.00">
<g stroke-width="5.00" fill="none" stroke-linecap="butt">
<path stroke="#8f6093" vector-effect="non-scaling-stroke" d="
  M 35.58 7.51
  L 35.40 7.79
  L 35.25 8.07
  L 35.13 8.37
  L 35.04 8.67
  L 35.04 8.67
  L 35.04 8.67
  L 34.97 8.97
  L 34.93 9.29
  L 34.92 9.60
  L 34.94 9.93
  L 34.98 10.27
  L 35.06 10.61
  L 35.15 10.95
  L 35.28 11.31"
/>
<path stroke="#ee812a" vector-effect="non-scaling-stroke" d="
  M 35.28 11.31
  L 35.10 11.56
  L 34.90 11.75
  L 34.69 11.89
  L 34.47 11.98
  L 34.47 11.98
  L 34.26 12.01
  L 34.05 12.01"
/>
<path stroke="#f19ba2" vector-effect="non-scaling-stroke" d="
  M 34.05 12.01
  L 33.90 11.74
  L 33.72 11.48
  L 33.52 11.22
  L 33.30 10.98
  L 33.05 10.74
  L 32.78 10.51
  L 32.49 10.29
  L 32.18 10.09
  L 31.49 9.70
  L 30.72 9.35
  L 29.86 9.04
  L 28.93 8.78
  L 27.87 8.55
  L 26.76 8.37
  L 25.60 8.25
  L 24.42 8.19
  L 23.23 8.19
  L 22.10 8.25
  L 21.07 8.38
  L 20.61 8.46
  L 20.21 8.55
  L 19.52 8.74
  L 18.85 8.96
  L 18.19 9.20
  L 17.54 9.47
  L 16.91 9.77
  L 16.29 10.09
  L 15.69 10.44
  L 15.10 10.81
  L 14.53 11.21
  L 13.98 11.63
  L 13.45 12.07
  L 12.94 12.54
  L 12.45 13.02
  L 11.99 13.53
  L 11.54 14.06
  L 11.12 14.60
  L 10.72 15.17
  L 10.34 15.75
  L 10.00 16.35
  L 9.68 16.96
  L 9.38 17.59
  L 9.11 18.23
  L 8.87 18.88
  L 8.66 19.54
  L 8.48 20.20
  L 8.33 20.87
  L 8.21 21.55
  L 8.12 22.24
  L 8.06 22.93
  L 8.03 23.62
  L 8.03 24.31
  L 8.06 24.99
  L 8.11 25.57
  L 8.18 26.14
  L 8.27 26.71
  L 8.39 27.28
  L 8.52 27.84
  L 8.68 28.41
  L 8.85 28.96
  L 9.05 29.50
  L 9.27 30.05
  L 9.50 30.58
  L 9.76 31.11
  L 10.04 31.63
  L 10.33 32.14
  L 10.65 32.65
  L 10.99 33.14
  L 11.34 33.63"
/>
<path stroke="#e28d95" vector-effect="non-scaling-stroke" d="
  M 11.34 33.63
  L 11.85 34.25
  L 12.39 34.84
  L 12.94 35.39
  L 13.51 35.92
  L 14.09 36.41
  L 14.70 36.87
  L 15.32 37.30
  L 15.97 37.70
  L 15.97 37.70
  L 15.97 37.70
  L 16.86 38.19
  L 17.78 38.62
  L 18.74 39.00
  L 19.73 39.32
  L 20.76 39.58
  L 21.82 39.79
  L 22.91 39.94
  L 24.03 40.03"
/>
<path stroke="#ec3644" vector-effect="non-scaling-stroke" d="
  M 24.03 40.03
  L 24.09 40.36
  L 24.10 40.67
  L 24.08 40.97
  L 24.01 41.26
  L 24.01 41.26
  L 24.01 41.26
  L 24.01 41.26
  L 24.01 41.26
  L 23.94 41.46
  L 23.85 41.65
  L 23.74 41.84
  L 23.61 42.02
  L 23.28 42.36
  L 22.88 42.68
  L 22.39 42.97
  L 21.82 43.24
  L 21.17 43.48
  L 20.44 43.70"
/>
<path stroke="#8c9d6d" vector-effect="non-scaling-stroke" d="
  M 41.76 8.02
  L 36.69 12.92"
/>
<path stroke="#ea731e" vector-effect="non-scaling-stroke" d="
  M 36.69 12.92
  L 36.49 13.11
  L 36.34 13.30
  L 36.25 13.49
  L 36.22 13.68"
/>
<path stroke="#dfca6f" vector-effect="non-scaling-stroke" d="
  M 36.22 13.68
  L 35.72 14.01
  L 35.26 14.34
  L 34.84 14.69
  L 34.45 15.05
  L 34.09 15.42
  L 33.77 15.80
  L 33.49 16.20
  L 33.24 16.60"
/>
<path stroke="#ea731e" vector-effect="non-scaling-stroke" d="
  M 33.24 16.60
  L 32.87 16.79
  L 32.53 17.00
  L 32.20 17.22
  L 31.90 17.46
  L 31.62 17.71
  L 31.35 17.98
  L 31.11 18.26
  L 30.90 18.55
  L 30.90 18.55
  L 30.90 18.55
  L 30.90 18.55
  L 30.70 18.86
  L 30.52 19.19"
/>
<path stroke="#dfca6f" vector-effect="non-scaling-stroke" d="
  M 30.52 19.19
  L 27.67 22.11"
/>
<path stroke="#ee812a" vector-effect="non-scaling-stroke" d="
  M 27.67 22.11
  L 26.74 22.97
  L 25.86 23.68
  L 25.44 23.99
  L 25.04 24.26
  L 24.65 24.50
  L 24.27 24.70
  L 24.13 24.76
  L 23.97 24.79
  L 23.82 24.79
  L 23.67 24.77
  L 23.67 24.77
  L 23.43 24.68
  L 23.24 24.52
  L 23.09 24.32
  L 23.01 24.09
  L 22.99 23.84
  L 23.05 23.59
  L 23.17 23.38
  L 23.35 23.20
  L 23.78 22.87
  L 24.16 22.53
  L 24.50 22.19
  L 24.80 21.83
  L 25.06 21.47
  L 25.27 21.10
  L 25.44 20.72
  L 25.57 20.33"
/>
<path stroke="#efd87c" vector-effect="non-scaling-stroke" d="
  M 25.57 20.33
  L 28.80 17.50"
/>
<path stroke="#ee812a" vector-effect="non-scaling-stroke" d="
  M 28.80 17.50
  L 29.08 17.41
  L 29.35 17.30
  L 29.35 17.30
  L 29.70 17.12
  L 30.02 16.89
  L 30.32 16.61
  L 30.60 16.30
  L 30.86 15.93
  L 31.09 15.53
  L 31.31 15.08
  L 31.51 14.58"
/>
<path stroke="#efd87c" vector-effect="non-scaling-stroke" d="
  M 31.51 14.58
  L 31.83 14.41
  L 32.16 14.19
  L 32.48 13.94
  L 32.80 13.64
  L 33.11 13.29
  L 33.43 12.91
  L 33.74 12.48
  L 34.05 12.01"
/>
<path stroke="#de7f89" vector-effect="non-scaling-stroke" d="
  M 15.63 32.47
  L 16.07 32.85
  L 16.52 33.21
  L 16.98 33.55
  L 17.44 33.87
  L 17.91 34.17
  L 18.39 34.44
  L 18.88 34.69
  L 19.36 34.92
  L 19.86 35.12
  L 20.35 35.30
  L 20.86 35.46
  L 21.36 35.59
  L 21.88 35.70
  L 22.39 35.78
  L 22.91 35.85
  L 23.43 35.88
  L 24.03 35.90
  L 24.63 35.88
  L 25.24 35.83
  L 25.83 35.75
  L 26.43 35.63
  L 27.02 35.48
  L 27.62 35.30
  L 28.19 35.09
  L 28.77 34.85
  L 29.32 34.58
  L 29.88 34.28
  L 30.41 33.96
  L 30.93 33.60
  L 31.43 33.22
  L 31.91 32.82
  L 32.37 32.39
  L 32.81 31.94
  L 33.23 31.47
  L 33.62 30.98
  L 33.99 30.47
  L 34.33 29.95
  L 34.64 29.41
  L 34.92 28.86
  L 35.17 28.30
  L 35.39 27.74
  L 35.58 27.16
  L 35.73 26.58
  L 35.86 25.99
  L 35.95 25.40
  L 36.01 24.81
  L 36.03 24.22
  L 36.03 23.62
  L 36.00 23.16
  L 35.95 22.70
  L 35.80 21.79
  L 35.56 20.88
  L 35.25 19.99
  L 34.86 19.11
  L 34.40 18.26
  L 33.85 17.42
  L 33.24 16.60"
/>
<path stroke="#de7f89" vector-effect="non-scaling-stroke" d="
  M 24.03 40.03
  L 24.80 39.96
  L 25.56 39.86
  L 26.31 39.72
  L 27.04 39.57
  L 27.78 39.38
  L 28.49 39.16
  L 29.20 38.92
  L 29.89 38.65
  L 30.56 38.35
  L 31.22 38.03
  L 31.87 37.68
  L 32.49 37.30
  L 33.10 36.90
  L 33.68 36.48
  L 34.25 36.03
  L 34.79 35.55
  L 35.32 35.06
  L 35.82 34.54
  L 36.30 34.00
  L 36.75 33.44
  L 37.17 32.87
  L 37.57 32.27
  L 37.94 31.67
  L 38.28 31.04
  L 38.59 30.40
  L 38.87 29.76
  L 39.12 29.09
  L 39.34 28.42
  L 39.53 27.75
  L 39.69 27.06
  L 39.81 26.37
  L 39.90 25.66
  L 39.97 24.89
  L 39.99 24.11
  L 39.97 23.33
  L 39.92 22.55
  L 39.82 21.77
  L 39.69 21.00
  L 39.51 20.23
  L 39.30 19.47
  L 39.05 18.71
  L 38.75 17.96
  L 38.42 17.22
  L 38.05 16.49
  L 37.65 15.77
  L 37.21 15.06
  L 36.74 14.37
  L 36.22 13.68"
/>
<path stroke="#8c9d6d" vector-effect="non-scaling-stroke" d="
  M 40.41 6.22
  L 35.28 11.31"
/>
<path stroke="#f19ba2" vector-effect="non-scaling-stroke" d="
  M 31.51 14.58
  L 30.79 14.17
  L 30.07 13.80
  L 29.34 13.47
  L 28.61 13.19
  L 27.86 12.94
  L 27.12 12.74
  L 26.37 12.58
  L 25.62 12.46
  L 24.87 12.38
  L 24.12 12.35
  L 23.38 12.36
  L 22.64 12.42
  L 21.91 12.51
  L 21.19 12.65
  L 20.47 12.83
  L 19.78 13.06
  L 19.08 13.33
  L 18.41 13.64
  L 17.75 13.99
  L 17.12 14.38
  L 16.52 14.81
  L 15.94 15.27
  L 15.40 15.77
  L 14.89 16.29
  L 14.42 16.85
  L 13.99 17.43
  L 13.59 18.04
  L 13.24 18.68
  L 12.93 19.33
  L 12.66 20.00
  L 12.44 20.68
  L 12.26 21.38
  L 12.14 22.00
  L 12.06 22.63
  L 12.02 23.26
  L 12.01 23.90
  L 12.04 24.53
  L 12.10 25.17
  L 12.20 25.81
  L 12.34 26.45
  L 12.51 27.08
  L 12.72 27.71
  L 12.96 28.34
  L 13.24 28.97
  L 13.55 29.58
  L 13.90 30.19
  L 14.27 30.80
  L 14.69 31.40"
/>
<path stroke="#e3e4e7" vector-effect="non-scaling-stroke" d="
  M 14.69 31.40
  L 14.29 31.53
  L 13.88 31.70
  L 13.47 31.92
  L 13.05 32.18
  L 12.63 32.48
  L 12.21 32.82
  L 11.78 33.20
  L 11.34 33.63"
/>
<path stroke="#f19ba2" vector-effect="non-scaling-stroke" d="
  M 28.80 17.50
  L 28.32 17.28
  L 27.85 17.08
  L 27.36 16.90
  L 26.88 16.75
  L 26.39 16.62
  L 25.90 16.51
  L 25.41 16.43
  L 24.92 16.37
  L 24.43 16.34
  L 23.95 16.33
  L 23.46 16.35
  L 22.98 16.39
  L 22.51 16.46
  L 22.05 16.55
  L 21.59 16.66
  L 21.14 16.80
  L 20.69 16.97
  L 20.26 17.15
  L 19.84 17.36
  L 19.44 17.59
  L 19.05 17.85
  L 18.68 18.12
  L 18.33 18.42
  L 18.00 18.73
  L 17.69 19.06
  L 17.40 19.40
  L 17.13 19.76
  L 16.89 20.14
  L 16.67 20.53
  L 16.48 20.93
  L 16.32 21.34
  L 16.18 21.76
  L 16.08 22.17
  L 15.99 22.59
  L 15.94 23.00
  L 15.91 23.42
  L 15.90 23.85
  L 15.92 24.29
  L 15.97 24.72
  L 16.04 25.16
  L 16.14 25.59
  L 16.26 26.03
  L 16.40 26.46
  L 16.58 26.90
  L 16.77 27.32
  L 16.99 27.75
  L 17.23 28.18
  L 17.50 28.60"
/>
<path stroke="#e28d95" vector-effect="non-scaling-stroke" d="
  M 17.50 28.60
  L 18.26 29.45"
/>
<path stroke="#ec3644" vector-effect="non-scaling-stroke" d="
  M 18.26 29.45
  L 17.95 29.45
  L 17.68 29.50
  L 17.43 29.58
  L 17.22 29.70
  L 17.07 29.83
  L 16.95 29.97
  L 16.84 30.14
  L 16.75 30.33
  L 16.67 30.56
  L 16.61 30.80
  L 16.54 31.36
  L 16.53 31.47
  L 16.53 31.47
  L 16.53 31.47
  L 16.53 31.47
  L 16.49 31.61
  L 16.43 31.74
  L 16.25 32.00
  L 15.98 32.24
  L 15.63 32.47"
/>
<path stroke="#e28d95" vector-effect="non-scaling-stroke" d="
  M 15.63 32.47
  L 14.69 31.40"
/>
<path stroke="#e28d95" vector-effect="non-scaling-stroke" d="
  M 20.86 26.38
  L 21.23 26.77
  L 21.62 27.12
  L 22.03 27.41
  L 22.44 27.64
  L 22.87 27.82
  L 23.30 27.94
  L 23.74 28.00
  L 24.18 28.01
  L 24.62 27.96
  L 25.06 27.84
  L 25.48 27.67
  L 25.88 27.45
  L 26.25 27.17
  L 26.60 26.85
  L 26.91 26.48
  L 27.19 26.07
  L 27.41 25.64
  L 27.60 25.17
  L 27.73 24.69
  L 27.82 24.19
  L 27.85 23.68
  L 27.84 23.16
  L 27.78 22.63
  L 27.67 22.11"
/>
<path stroke="#de7f89" vector-effect="non-scaling-stroke" d="
  M 18.26 29.45
  L 18.93 30.05
  L 19.28 30.33
  L 19.63 30.58
  L 19.99 30.82
  L 20.36 31.03
  L 20.73 31.22
  L 21.10 31.39
  L 21.49 31.55
  L 21.87 31.68
  L 22.26 31.79
  L 22.66 31.87
  L 23.05 31.94
  L 23.44 31.98
  L 23.84 32.01
  L 24.24 32.01
  L 24.76 31.98
  L 25.27 31.91
  L 25.78 31.80
  L 26.28 31.66
  L 26.78 31.49
  L 27.25 31.28
  L 27.72 31.04
  L 28.17 30.76
  L 28.60 30.46
  L 29.01 30.12
  L 29.40 29.76
  L 29.76 29.37
  L 30.10 28.96
  L 30.41 28.52
  L 30.69 28.07
  L 30.94 27.60
  L 31.16 27.12
  L 31.34 26.63
  L 31.50 26.13
  L 31.62 25.62
  L 31.70 25.10
  L 31.76 24.57
  L 31.78 24.04
  L 31.77 23.50
  L 31.73 22.97
  L 31.65 22.42
  L 31.54 21.88
  L 31.40 21.34
  L 31.23 20.80
  L 31.02 20.26
  L 30.79 19.73
  L 30.52 19.19"
/>
<path stroke="#f19ba2" vector-effect="non-scaling-stroke" d="
  M 25.57 20.33
  L 25.07 20.19
  L 24.59 20.11
  L 24.10 20.08
  L 23.63 20.10
  L 23.16 20.18
  L 22.71 20.32
  L 22.29 20.50
  L 21.89 20.74
  L 21.59 20.97
  L 21.31 21.23
  L 21.05 21.51
  L 20.83 21.82
  L 20.64 22.16
  L 20.48 22.51
  L 20.36 22.87
  L 20.27 23.25
  L 20.22 23.63
  L 20.20 24.03
  L 20.22 24.42
  L 20.28 24.82
  L 20.37 25.21
  L 20.50 25.61
  L 20.66 25.99
  L 20.86 26.38"
/>
<path stroke="#e3e4e7" vector-effect="non-scaling-stroke" d="
  M 20.86 26.38
  L 20.30 26.58
  L 19.77 26.82
  L 19.27 27.10
  L 18.79 27.42
  L 18.44 27.68
  L 18.11 27.97
  L 17.80 28.27
  L 17.50 28.60"
/>
<path stroke="#8b5287" vector-effect="non-scaling-stroke" d="
  M 40.34 12.48
  L 40.19 12.55
  L 40.19 12.55
  L 39.81 12.71
  L 39.41 12.84
  L 38.99 12.93
  L 38.56 12.99
  L 38.12 13.02
  L 37.66 13.02
  L 37.18 12.99
  L 36.69 12.92"
/>
</g>
<path fill="#f04450" d="
  M 35.58 7.51
  L 35.40 7.79
  L 35.25 8.07
  L 35.13 8.37
  L 35.04 8.67
  L 35.04 8.67
  L 35.04 8.67
  L 34.97 8.97
  L 34.93 9.29
  L 34.92 9.60
  L 34.94 9.93
  L 34.98 10.27
  L 35.06 10.61
  L 35.15 10.95
  L 35.28 11.31
  L 35.10 11.56
  L 34.90 11.75
  L 34.69 11.89
  L 34.47 11.98
  L 34.47 11.98
  L 34.26 12.01
  L 34.05 12.01
  L 33.90 11.74
  L 33.72 11.48
  L 33.52 11.22
  L 33.30 10.98
  L 33.05 10.74
  L 32.78 10.51
  L 32.49 10.29
  L 32.18 10.09
  L 31.49 9.70
  L 30.72 9.35
  L 29.86 9.04
  L 28.93 8.78
  L 27.87 8.55
  L 26.76 8.37
  L 25.60 8.25
  L 24.42 8.19
  L 23.23 8.19
  L 22.10 8.25
  L 21.07 8.38
  L 20.61 8.46
  L 20.21 8.55
  L 19.52 8.74
  L 18.85 8.96
  L 18.19 9.20
  L 17.54 9.47
  L 16.91 9.77
  L 16.29 10.09
  L 15.69 10.44
  L 15.10 10.81
  L 14.53 11.21
  L 13.98 11.63
  L 13.45 12.07
  L 12.94 12.54
  L 12.45 13.02
  L 11.99 13.53
  L 11.54 14.06
  L 11.12 14.60
  L 10.72 15.17
  L 10.34 15.75
  L 10.00 16.35
  L 9.68 16.96
  L 9.38 17.59
  L 9.11 18.23
  L 8.87 18.88
  L 8.66 19.54
  L 8.48 20.20
  L 8.33 20.87
  L 8.21 21.55
  L 8.12 22.24
  L 8.06 22.93
  L 8.03 23.62
  L 8.03 24.31
  L 8.06 24.99
  L 8.11 25.57
  L 8.18 26.14
  L 8.27 26.71
  L 8.39 27.28
  L 8.52 27.84
  L 8.68 28.41
  L 8.85 28.96
  L 9.05 29.50
  L 9.27 30.05
  L 9.50 30.58
  L 9.76 31.11
  L 10.04 31.63
  L 10.33 32.14
  L 10.65 32.65
  L 10.99 33.14
  L 11.34 33.63
  L 11.85 34.25
  L 12.39 34.84
  L 12.94 35.39
  L 13.51 35.92
  L 14.09 36.41
  L 14.70 36.87
  L 15.32 37.30
  L 15.97 37.70
  L 15.97 37.70
  L 15.97 37.70
  L 16.86 38.19
  L 17.78 38.62
  L 18.74 39.00
  L 19.73 39.32
  L 20.76 39.58
  L 21.82 39.79
  L 22.91 39.94
  L 24.03 40.03
  L 24.09 40.36
  L 24.10 40.67
  L 24.08 40.97
  L 24.01 41.26
  L 24.01 41.26
  L 24.01 41.26
  L 24.01 41.26
  L 24.01 41.26
  L 23.94 41.46
  L 23.85 41.65
  L 23.74 41.84
  L 23.61 42.02
  L 23.28 42.36
  L 22.88 42.68
  L 22.39 42.97
  L 21.82 43.24
  L 21.17 43.48
  L 20.44 43.70
  L 19.34 43.42
  L 18.27 43.09
  L 17.23 42.73
  L 16.23 42.34
  L 15.26 41.90
  L 14.33 41.44
  L 13.43 40.94
  L 12.57 40.40
  L 11.74 39.83
  L 10.96 39.23
  L 10.21 38.59
  L 9.51 37.92
  L 8.84 37.21
  L 8.22 36.48
  L 7.63 35.72
  L 7.09 34.93
  L 6.54 34.01
  L 6.04 33.06
  L 5.61 32.08
  L 5.22 31.07
  L 4.89 30.02
  L 4.63 28.97
  L 4.42 27.88
  L 4.28 26.79
  L 4.19 25.67
  L 4.17 24.55
  L 4.20 23.42
  L 4.30 22.29
  L 4.46 21.15
  L 4.68 20.02
  L 4.96 18.90
  L 5.29 17.80
  L 5.69 16.71
  L 6.13 15.65
  L 6.64 14.62
  L 7.20 13.61
  L 7.80 12.65
  L 8.45 11.72
  L 9.14 10.84
  L 9.88 10.00
  L 10.66 9.21
  L 11.47 8.47
  L 12.32 7.79
  L 13.21 7.15
  L 14.12 6.57
  L 15.06 6.06
  L 16.03 5.59
  L 17.02 5.19
  L 18.08 4.84
  L 19.14 4.56
  L 20.24 4.34
  L 21.35 4.18
  L 22.48 4.10
  L 23.62 4.08
  L 24.78 4.12
  L 25.95 4.24
  L 27.13 4.42
  L 28.31 4.66
  L 29.51 4.97
  L 30.71 5.35
  L 31.92 5.79
  L 33.13 6.30
  L 34.36 6.87
  L 35.58 7.51
  Z"
/>
<path fill="#2d7bd6" d="
  M 40.41 6.22
  L 35.28 11.31
  L 35.15 10.95
  L 35.06 10.61
  L 34.98 10.27
  L 34.94 9.93
  L 34.92 9.60
  L 34.93 9.29
  L 34.97 8.97
  L 35.04 8.67
  L 35.04 8.67
  L 35.04 8.67
  L 35.04 8.67
  L 35.04 8.67
  L 35.13 8.37
  L 35.25 8.07
  L 35.40 7.79
  L 35.58 7.51
  L 39.03 4.21
  L 39.16 4.10
  L 39.28 4.03
  L 39.39 4.00
  L 39.50 4.00
  L 39.50 4.00
  L 39.59 4.05
  L 39.67 4.13
  L 39.75 4.24
  L 39.81 4.40
  L 40.41 6.22
  Z"
/>
<path fill="#ebbe04" d="
  M 40.41 6.22
  L 41.25 6.26
  L 41.47 6.30
  L 41.55 6.34
  L 41.62 6.40
  L 41.62 6.40
  L 41.71 6.55
  L 41.74 6.76
  L 41.76 8.02
  L 36.69 12.92
  L 36.49 13.11
  L 36.34 13.30
  L 36.25 13.49
  L 36.22 13.68
  L 35.72 14.01
  L 35.26 14.34
  L 34.84 14.69
  L 34.45 15.05
  L 34.09 15.42
  L 33.77 15.80
  L 33.49 16.20
  L 33.24 16.60
  L 32.87 16.79
  L 32.53 17.00
  L 32.20 17.22
  L 31.90 17.46
  L 31.62 17.71
  L 31.35 17.98
  L 31.11 18.26
  L 30.90 18.55
  L 30.90 18.55
  L 30.90 18.55
  L 30.90 18.55
  L 30.70 18.86
  L 30.52 19.19
  L 27.67 22.11
  L 26.74 22.97
  L 25.86 23.68
  L 25.44 23.99
  L 25.04 24.26
  L 24.65 24.50
  L 24.27 24.70
  L 24.13 24.76
  L 23.97 24.79
  L 23.82 24.79
  L 23.67 24.77
  L 23.67 24.77
  L 23.43 24.68
  L 23.24 24.52
  L 23.09 24.32
  L 23.01 24.09
  L 22.99 23.84
  L 23.05 23.59
  L 23.17 23.38
  L 23.35 23.20
  L 23.78 22.87
  L 24.16 22.53
  L 24.50 22.19
  L 24.80 21.83
  L 25.06 21.47
  L 25.27 21.10
  L 25.44 20.72
  L 25.57 20.33
  L 28.80 17.50
  L 29.08 17.41
  L 29.35 17.30
  L 29.35 17.30
  L 29.70 17.12
  L 30.02 16.89
  L 30.32 16.61
  L 30.60 16.30
  L 30.86 15.93
  L 31.09 15.53
  L 31.31 15.08
  L 31.51 14.58
  L 31.83 14.41
  L 32.16 14.19
  L 32.48 13.94
  L 32.80 13.64
  L 33.11 13.29
  L 33.43 12.91
  L 33.74 12.48
  L 34.05 12.01
  L 34.26 12.01
  L 34.47 11.98
  L 34.47 11.98
  L 34.69 11.89
  L 34.90 11.75
  L 35.10 11.56
  L 35.28 11.31
  L 40.41 6.22
  Z"
/>
<path fill="#f2f2f3" d="
  M 34.05 12.01
  L 33.74 12.48
  L 33.43 12.91
  L 33.11 13.29
  L 32.80 13.64
  L 32.48 13.94
  L 32.16 14.19
  L 31.83 14.41
  L 31.51 14.58
  L 30.79 14.17
  L 30.07 13.80
  L 29.34 13.47
  L 28.61 13.19
  L 27.86 12.94
  L 27.12 12.74
  L 26.37 12.58
  L 25.62 12.46
  L 24.87 12.38
  L 24.12 12.35
  L 23.38 12.36
  L 22.64 12.42
  L 21.91 12.51
  L 21.19 12.65
  L 20.47 12.83
  L 19.78 13.06
  L 19.08 13.33
  L 18.41 13.64
  L 17.75 13.99
  L 17.12 14.38
  L 16.52 14.81
  L 15.94 15.27
  L 15.40 15.77
  L 14.89 16.29
  L 14.42 16.85
  L 13.99 17.43
  L 13.59 18.04
  L 13.24 18.68
  L 12.93 19.33
  L 12.66 20.00
  L 12.44 20.68
  L 12.26 21.38
  L 12.14 22.00
  L 12.06 22.63
  L 12.02 23.26
  L 12.01 23.90
  L 12.04 24.53
  L 12.10 25.17
  L 12.20 25.81
  L 12.34 26.45
  L 12.51 27.08
  L 12.72 27.71
  L 12.96 28.34
  L 13.24 28.97
  L 13.55 29.58
  L 13.90 30.19
  L 14.27 30.80
  L 14.69 31.40
  L 14.29 31.53
  L 13.88 31.70
  L 13.47 31.92
  L 13.05 32.18
  L 12.63 32.48
  L 12.21 32.82
  L 11.78 33.20
  L 11.34 33.63
  L 10.99 33.14
  L 10.65 32.65
  L 10.33 32.14
  L 10.04 31.63
  L 9.76 31.11
  L 9.50 30.58
  L 9.27 30.05
  L 9.05 29.50
  L 8.85 28.96
  L 8.68 28.41
  L 8.52 27.84
  L 8.39 27.28
  L 8.27 26.71
  L 8.18 26.14
  L 8.11 25.57
  L 8.06 24.99
  L 8.03 24.31
  L 8.03 23.62
  L 8.06 22.93
  L 8.12 22.24
  L 8.21 21.55
  L 8.33 20.87
  L 8.48 20.20
  L 8.66 19.54
  L 8.87 18.88
  L 9.11 18.23
  L 9.38 17.59
  L 9.68 16.96
  L 10.00 16.35
  L 10.34 15.75
  L 10.72 15.17
  L 11.12 14.60
  L 11.54 14.06
  L 11.99 13.53
  L 12.45 13.02
  L 12.94 12.54
  L 13.45 12.07
  L 13.98 11.63
  L 14.53 11.21
  L 15.10 10.81
  L 15.69 10.44
  L 16.29 10.09
  L 16.91 9.77
  L 17.54 9.47
  L 18.19 9.20
  L 18.85 8.96
  L 19.52 8.74
  L 20.21 8.55
  L 20.61 8.46
  L 21.07 8.38
  L 22.10 8.25
  L 23.23 8.19
  L 24.42 8.19
  L 25.60 8.25
  L 26.76 8.37
  L 27.87 8.55
  L 28.93 8.78
  L 29.86 9.04
  L 30.72 9.35
  L 31.49 9.70
  L 32.18 10.09
  L 32.49 10.29
  L 32.78 10.51
  L 33.05 10.74
  L 33.30 10.98
  L 33.52 11.22
  L 33.72 11.48
  L 33.90 11.74
  L 34.05 12.01
  Z"
/>
<path fill="#2d7bd6" d="
  M 41.76 8.02
  L 42.08 7.97
  L 42.38 7.94
  L 42.66 7.94
  L 42.91 7.96
  L 43.14 8.00
  L 43.35 8.07
  L 43.54 8.17
  L 43.70 8.29
  L 43.80 8.39
  L 43.87 8.49
  L 43.92 8.59
  L 43.93 8.69
  L 43.93 8.69
  L 43.93 8.69
  L 43.92 8.79
  L 43.88 8.89
  L 43.82 8.99
  L 43.73 9.09
  L 40.34 12.48
  L 40.19 12.55
  L 40.19 12.55
  L 39.81 12.71
  L 39.41 12.84
  L 38.99 12.93
  L 38.56 12.99
  L 38.12 13.02
  L 37.66 13.02
  L 37.18 12.99
  L 36.69 12.92
  L 41.76 8.02
  Z"
/>
<path fill="#f04450" d="
  M 31.51 14.58
  L 31.31 15.08
  L 31.09 15.53
  L 30.86 15.93
  L 30.60 16.30
  L 30.32 16.61
  L 30.02 16.89
  L 29.70 17.12
  L 29.35 17.30
  L 29.35 17.30
  L 29.35 17.30
  L 29.08 17.41
  L 28.80 17.50
  L 28.32 17.28
  L 27.85 17.08
  L 27.36 16.90
  L 26.88 16.75
  L 26.39 16.62
  L 25.90 16.51
  L 25.41 16.43
  L 24.92 16.37
  L 24.43 16.34
  L 23.95 16.33
  L 23.46 16.35
  L 22.98 16.39
  L 22.51 16.46
  L 22.05 16.55
  L 21.59 16.66
  L 21.14 16.80
  L 20.69 16.97
  L 20.26 17.15
  L 19.84 17.36
  L 19.44 17.59
  L 19.05 17.85
  L 18.68 18.12
  L 18.33 18.42
  L 18.00 18.73
  L 17.69 19.06
  L 17.40 19.40
  L 17.13 19.76
  L 16.89 20.14
  L 16.67 20.53
  L 16.48 20.93
  L 16.32 21.34
  L 16.18 21.76
  L 16.08 22.17
  L 15.99 22.59
  L 15.94 23.00
  L 15.91 23.42
  L 15.90 23.85
  L 15.92 24.29
  L 15.97 24.72
  L 16.04 25.16
  L 16.14 25.59
  L 16.26 26.03
  L 16.40 26.46
  L 16.58 26.90
  L 16.77 27.32
  L 16.99 27.75
  L 17.23 28.18
  L 17.50 28.60
  L 18.26 29.45
  L 17.95 29.45
  L 17.68 29.50
  L 17.43 29.58
  L 17.22 29.70
  L 17.07 29.83
  L 16.95 29.97
  L 16.84 30.14
  L 16.75 30.33
  L 16.67 30.56
  L 16.61 30.80
  L 16.54 31.36
  L 16.53 31.47
  L 16.53 31.47
  L 16.53 31.47
  L 16.53 31.47
  L 16.49 31.61
  L 16.43 31.74
  L 16.25 32.00
  L 15.98 32.24
  L 15.63 32.47
  L 14.69 31.40
  L 14.27 30.80
  L 13.90 30.19
  L 13.55 29.58
  L 13.24 28.97
  L 12.96 28.34
  L 12.72 27.71
  L 12.51 27.08
  L 12.34 26.45
  L 12.20 25.81
  L 12.10 25.17
  L 12.04 24.53
  L 12.01 23.90
  L 12.02 23.26
  L 12.06 22.63
  L 12.14 22.00
  L 12.26 21.38
  L 12.44 20.68
  L 12.66 20.00
  L 12.93 19.33
  L 13.24 18.68
  L 13.59 18.04
  L 13.99 17.43
  L 14.42 16.85
  L 14.89 16.29
  L 15.40 15.77
  L 15.94 15.27
  L 16.52 14.81
  L 17.12 14.38
  L 17.75 13.99
  L 18.41 13.64
  L 19.08 13.33
  L 19.78 13.06
  L 20.47 12.83
  L 21.19 12.65
  L 21.91 12.51
  L 22.64 12.42
  L 23.38 12.36
  L 24.12 12.35
  L 24.87 12.38
  L 25.62 12.46
  L 26.37 12.58
  L 27.12 12.74
  L 27.86 12.94
  L 28.61 13.19
  L 29.34 13.47
  L 30.07 13.80
  L 30.79 14.17
  L 31.51 14.58
  Z"
/>
<path fill="#e82837" d="
  M 40.34 12.48
  L 40.95 13.48
  L 41.51 14.50
  L 42.01 15.52
  L 42.45 16.57
  L 42.84 17.62
  L 43.17 18.68
  L 43.45 19.74
  L 43.66 20.81
  L 43.82 21.88
  L 43.92 22.95
  L 43.96 24.03
  L 43.94 25.09
  L 43.86 26.16
  L 43.72 27.22
  L 43.53 28.27
  L 43.27 29.30
  L 43.01 30.16
  L 42.72 31.00
  L 42.38 31.83
  L 42.00 32.64
  L 41.59 33.43
  L 41.14 34.21
  L 40.65 34.96
  L 40.13 35.69
  L 39.58 36.40
  L 38.99 37.08
  L 38.37 37.73
  L 37.72 38.36
  L 37.03 38.96
  L 36.32 39.53
  L 35.59 40.06
  L 34.83 40.57
  L 34.05 41.03
  L 33.25 41.47
  L 32.43 41.87
  L 31.58 42.23
  L 30.73 42.56
  L 29.85 42.85
  L 28.96 43.10
  L 28.06 43.32
  L 27.14 43.50
  L 26.21 43.64
  L 25.27 43.75
  L 24.32 43.81
  L 23.36 43.84
  L 22.39 43.83
  L 21.42 43.79
  L 20.44 43.70
  L 21.17 43.48
  L 21.82 43.24
  L 22.39 42.97
  L 22.88 42.68
  L 23.28 42.36
  L 23.61 42.02
  L 23.74 41.84
  L 23.85 41.65
  L 23.94 41.46
  L 24.01 41.26
  L 24.01 41.26
  L 24.01 41.26
  L 24.01 41.26
  L 24.08 40.97
  L 24.10 40.67
  L 24.09 40.36
  L 24.03 40.03
  L 24.80 39.96
  L 25.56 39.86
  L 26.31 39.72
  L 27.04 39.57
  L 27.78 39.38
  L 28.49 39.16
  L 29.20 38.92
  L 29.89 38.65
  L 30.56 38.35
  L 31.22 38.03
  L 31.87 37.68
  L 32.49 37.30
  L 33.10 36.90
  L 33.68 36.48
  L 34.25 36.03
  L 34.79 35.55
  L 35.32 35.06
  L 35.82 34.54
  L 36.30 34.00
  L 36.75 33.44
  L 37.17 32.87
  L 37.57 32.27
  L 37.94 31.67
  L 38.28 31.04
  L 38.59 30.40
  L 38.87 29.76
  L 39.12 29.09
  L 39.34 28.42
  L 39.53 27.75
  L 39.69 27.06
  L 39.81 26.37
  L 39.90 25.66
  L 39.97 24.89
  L 39.99 24.11
  L 39.97 23.33
  L 39.92 22.55
  L 39.82 21.77
  L 39.69 21.00
  L 39.51 20.23
  L 39.30 19.47
  L 39.05 18.71
  L 38.75 17.96
  L 38.42 17.22
  L 38.05 16.49
  L 37.65 15.77
  L 37.21 15.06
  L 36.74 14.37
  L 36.22 13.68
  L 36.25 13.49
  L 36.34 13.30
  L 36.49 13.11
  L 36.69 12.92
  L 37.18 12.99
  L 37.66 13.02
  L 38.12 13.02
  L 38.56 12.99
  L 38.99 12.93
  L 39.41 12.84
  L 39.81 12.71
  L 40.19 12.55
  L 40.19 12.55
  L 40.19 12.55
  L 40.34 12.48
  Z"
/>
<path fill="#d3d6da" d="
  M 36.22 13.68
  L 36.74 14.37
  L 37.21 15.06
  L 37.65 15.77
  L 38.05 16.49
  L 38.42 17.22
  L 38.75 17.96
  L 39.05 18.71
  L 39.30 19.47
  L 39.51 20.23
  L 39.69 21.00
  L 39.82 21.77
  L 39.92 22.55
  L 39.97 23.33
  L 39.99 24.11
  L 39.97 24.89
  L 39.90 25.66
  L 39.81 26.37
  L 39.69 27.06
  L 39.53 27.75
  L 39.34 28.42
  L 39.12 29.09
  L 38.87 29.76
  L 38.59 30.40
  L 38.28 31.04
  L 37.94 31.67
  L 37.57 32.27
  L 37.17 32.87
  L 36.75 33.44
  L 36.30 34.00
  L 35.82 34.54
  L 35.32 35.06
  L 34.79 35.55
  L 34.25 36.03
  L 33.68 36.48
  L 33.10 36.90
  L 32.49 37.30
  L 31.87 37.68
  L 31.22 38.03
  L 30.56 38.35
  L 29.89 38.65
  L 29.20 38.92
  L 28.49 39.16
  L 27.78 39.38
  L 27.04 39.57
  L 26.31 39.72
  L 25.56 39.86
  L 24.80 39.96
  L 24.03 40.03
  L 22.91 39.94
  L 21.82 39.79
  L 20.76 39.58
  L 19.73 39.32
  L 18.74 39.00
  L 17.78 38.62
  L 16.86 38.19
  L 15.97 37.70
  L 15.97 37.70
  L 15.97 37.70
  L 15.32 37.30
  L 14.70 36.87
  L 14.09 36.41
  L 13.51 35.92
  L 12.94 35.39
  L 12.39 34.84
  L 11.85 34.25
  L 11.34 33.63
  L 11.78 33.20
  L 12.21 32.82
  L 12.63 32.48
  L 13.05 32.18
  L 13.47 31.92
  L 13.88 31.70
  L 14.29 31.53
  L 14.69 31.40
  L 15.63 32.47
  L 16.07 32.85
  L 16.52 33.21
  L 16.98 33.55
  L 17.44 33.87
  L 17.91 34.17
  L 18.39 34.44
  L 18.88 34.69
  L 19.36 34.92
  L 19.86 35.12
  L 20.35 35.30
  L 20.86 35.46
  L 21.36 35.59
  L 21.88 35.70
  L 22.39 35.78
  L 22.91 35.85
  L 23.43 35.88
  L 24.03 35.90
  L 24.63 35.88
  L 25.24 35.83
  L 25.83 35.75
  L 26.43 35.63
  L 27.02 35.48
  L 27.62 35.30
  L 28.19 35.09
  L 28.77 34.85
  L 29.32 34.58
  L 29.88 34.28
  L 30.41 33.96
  L 30.93 33.60
  L 31.43 33.22
  L 31.91 32.82
  L 32.37 32.39
  L 32.81 31.94
  L 33.23 31.47
  L 33.62 30.98
  L 33.99 30.47
  L 34.33 29.95
  L 34.64 29.41
  L 34.92 28.86
  L 35.17 28.30
  L 35.39 27.74
  L 35.58 27.16
  L 35.73 26.58
  L 35.86 25.99
  L 35.95 25.40
  L 36.01 24.81
  L 36.03 24.22
  L 36.03 23.62
  L 36.00 23.16
  L 35.95 22.70
  L 35.80 21.79
  L 35.56 20.88
  L 35.25 19.99
  L 34.86 19.11
  L 34.40 18.26
  L 33.85 17.42
  L 33.24 16.60
  L 33.49 16.20
  L 33.77 15.80
  L 34.09 15.42
  L 34.45 15.05
  L 34.84 14.69
  L 35.26 14.34
  L 35.72 14.01
  L 36.22 13.68
  Z"
/>
<path fill="#f2f2f3" d="
  M 28.80 17.50
  L 25.57 20.33
  L 25.07 20.19
  L 24.59 20.11
  L 24.10 20.08
  L 23.63 20.10
  L 23.16 20.18
  L 22.71 20.32
  L 22.29 20.50
  L 21.89 20.74
  L 21.59 20.97
  L 21.31 21.23
  L 21.05 21.51
  L 20.83 21.82
  L 20.64 22.16
  L 20.48 22.51
  L 20.36 22.87
  L 20.27 23.25
  L 20.22 23.63
  L 20.20 24.03
  L 20.22 24.42
  L 20.28 24.82
  L 20.37 25.21
  L 20.50 25.61
  L 20.66 25.99
  L 20.86 26.38
  L 20.30 26.58
  L 19.77 26.82
  L 19.27 27.10
  L 18.79 27.42
  L 18.44 27.68
  L 18.11 27.97
  L 17.80 28.27
  L 17.50 28.60
  L 17.23 28.18
  L 16.99 27.75
  L 16.77 27.32
  L 16.58 26.90
  L 16.40 26.46
  L 16.26 26.03
  L 16.14 25.59
  L 16.04 25.16
  L 15.97 24.72
  L 15.92 24.29
  L 15.90 23.85
  L 15.91 23.42
  L 15.94 23.00
  L 15.99 22.59
  L 16.08 22.17
  L 16.18 21.76
  L 16.32 21.34
  L 16.48 20.93
  L 16.67 20.53
  L 16.89 20.14
  L 17.13 19.76
  L 17.40 19.40
  L 17.69 19.06
  L 18.00 18.73
  L 18.33 18.42
  L 18.68 18.12
  L 19.05 17.85
  L 19.44 17.59
  L 19.84 17.36
  L 20.26 17.15
  L 20.69 16.97
  L 21.14 16.80
  L 21.59 16.66
  L 22.05 16.55
  L 22.51 16.46
  L 22.98 16.39
  L 23.46 16.35
  L 23.95 16.33
  L 24.43 16.34
  L 24.92 16.37
  L 25.41 16.43
  L 25.90 16.51
  L 26.39 16.62
  L 26.88 16.75
  L 27.36 16.90
  L 27.85 17.08
  L 28.32 17.28
  L 28.80 17.50
  Z"
/>
<path fill="#e82837" d="
  M 33.24 16.60
  L 33.85 17.42
  L 34.40 18.26
  L 34.86 19.11
  L 35.25 19.99
  L 35.56 20.88
  L 35.80 21.79
  L 35.95 22.70
  L 36.00 23.16
  L 36.03 23.62
  L 36.03 24.22
  L 36.01 24.81
  L 35.95 25.40
  L 35.86 25.99
  L 35.73 26.58
  L 35.58 27.16
  L 35.39 27.74
  L 35.17 28.30
  L 34.92 28.86
  L 34.64 29.41
  L 34.33 29.95
  L 33.99 30.47
  L 33.62 30.98
  L 33.23 31.47
  L 32.81 31.94
  L 32.37 32.39
  L 31.91 32.82
  L 31.43 33.22
  L 30.93 33.60
  L 30.41 33.96
  L 29.88 34.28
  L 29.32 34.58
  L 28.77 34.85
  L 28.19 35.09
  L 27.62 35.30
  L 27.02 35.48
  L 26.43 35.63
  L 25.83 35.75
  L 25.24 35.83
  L 24.63 35.88
  L 24.03 35.90
  L 23.43 35.88
  L 22.91 35.85
  L 22.39 35.78
  L 21.88 35.70
  L 21.36 35.59
  L 20.86 35.46
  L 20.35 35.30
  L 19.86 35.12
  L 19.36 34.92
  L 18.88 34.69
  L 18.39 34.44
  L 17.91 34.17
  L 17.44 33.87
  L 16.98 33.55
  L 16.52 33.21
  L 16.07 32.85
  L 15.63 32.47
  L 15.98 32.24
  L 16.25 32.00
  L 16.43 31.74
  L 16.49 31.61
  L 16.53 31.47
  L 16.53 31.47
  L 16.53 31.47
  L 16.54 31.36
  L 16.61 30.80
  L 16.67 30.56
  L 16.75 30.33
  L 16.84 30.14
  L 16.95 29.97
  L 17.07 29.83
  L 17.22 29.70
  L 17.43 29.58
  L 17.68 29.50
  L 17.95 29.45
  L 18.26 29.45
  L 18.93 30.05
  L 19.28 30.33
  L 19.63 30.58
  L 19.99 30.82
  L 20.36 31.03
  L 20.73 31.22
  L 21.10 31.39
  L 21.49 31.55
  L 21.87 31.68
  L 22.26 31.79
  L 22.66 31.87
  L 23.05 31.94
  L 23.44 31.98
  L 23.84 32.01
  L 24.24 32.01
  L 24.76 31.98
  L 25.27 31.91
  L 25.78 31.80
  L 26.28 31.66
  L 26.78 31.49
  L 27.25 31.28
  L 27.72 31.04
  L 28.17 30.76
  L 28.60 30.46
  L 29.01 30.12
  L 29.40 29.76
  L 29.76 29.37
  L 30.10 28.96
  L 30.41 28.52
  L 30.69 28.07
  L 30.94 27.60
  L 31.16 27.12
  L 31.34 26.63
  L 31.50 26.13
  L 31.62 25.62
  L 31.70 25.10
  L 31.76 24.57
  L 31.78 24.04
  L 31.77 23.50
  L 31.73 22.97
  L 31.65 22.42
  L 31.54 21.88
  L 31.40 21.34
  L 31.23 20.80
  L 31.02 20.26
  L 30.79 19.73
  L 30.52 19.19
  L 30.70 18.86
  L 30.90 18.55
  L 30.90 18.55
  L 30.90 18.55
  L 31.11 18.26
  L 31.35 17.98
  L 31.62 17.71
  L 31.90 17.46
  L 32.20 17.22
  L 32.53 17.00
  L 32.87 16.79
  L 33.24 16.60
  Z"
/>
<path fill="#d3d6da" d="
  M 30.52 19.19
  L 30.79 19.73
  L 31.02 20.26
  L 31.23 20.80
  L 31.40 21.34
  L 31.54 21.88
  L 31.65 22.42
  L 31.73 22.97
  L 31.77 23.50
  L 31.78 24.04
  L 31.76 24.57
  L 31.70 25.10
  L 31.62 25.62
  L 31.50 26.13
  L 31.34 26.63
  L 31.16 27.12
  L 30.94 27.60
  L 30.69 28.07
  L 30.41 28.52
  L 30.10 28.96
  L 29.76 29.37
  L 29.40 29.76
  L 29.01 30.12
  L 28.60 30.46
  L 28.17 30.76
  L 27.72 31.04
  L 27.25 31.28
  L 26.78 31.49
  L 26.28 31.66
  L 25.78 31.80
  L 25.27 31.91
  L 24.76 31.98
  L 24.24 32.01
  L 23.84 32.01
  L 23.44 31.98
  L 23.05 31.94
  L 22.66 31.87
  L 22.26 31.79
  L 21.87 31.68
  L 21.49 31.55
  L 21.10 31.39
  L 20.73 31.22
  L 20.36 31.03
  L 19.99 30.82
  L 19.63 30.58
  L 19.28 30.33
  L 18.93 30.05
  L 18.26 29.45
  L 17.50 28.60
  L 17.80 28.27
  L 18.11 27.97
  L 18.44 27.68
  L 18.79 27.42
  L 18.79 27.42
  L 18.79 27.42
  L 19.27 27.10
  L 19.77 26.82
  L 20.30 26.58
  L 20.86 26.38
  L 21.23 26.77
  L 21.62 27.12
  L 22.03 27.41
  L 22.44 27.64
  L 22.87 27.82
  L 23.30 27.94
  L 23.74 28.00
  L 24.18 28.01
  L 24.62 27.96
  L 25.06 27.84
  L 25.48 27.67
  L 25.88 27.45
  L 26.25 27.17
  L 26.60 26.85
  L 26.91 26.48
  L 27.19 26.07
  L 27.41 25.64
  L 27.60 25.17
  L 27.73 24.69
  L 27.82 24.19
  L 27.85 23.68
  L 27.84 23.16
  L 27.78 22.63
  L 27.67 22.11
  L 30.52 19.19
  Z"
/>
<path fill="#f04450" d="
  M 25.57 20.33
  L 25.44 20.72
  L 25.27 21.10
  L 25.06 21.47
  L 24.80 21.83
  L 24.50 22.19
  L 24.16 22.53
  L 23.78 22.87
  L 23.35 23.20
  L 23.17 23.38
  L 23.05 23.59
  L 22.99 23.84
  L 23.01 24.09
  L 23.09 24.32
  L 23.24 24.52
  L 23.43 24.68
  L 23.67 24.77
  L 23.82 24.79
  L 23.97 24.79
  L 24.13 24.76
  L 24.27 24.70
  L 24.65 24.50
  L 25.04 24.26
  L 25.44 23.99
  L 25.86 23.68
  L 26.74 22.97
  L 27.67 22.11
  L 27.78 22.63
  L 27.84 23.16
  L 27.85 23.68
  L 27.82 24.19
  L 27.73 24.69
  L 27.60 25.17
  L 27.41 25.64
  L 27.19 26.07
  L 26.91 26.48
  L 26.60 26.85
  L 26.25 27.17
  L 25.88 27.45
  L 25.48 27.67
  L 25.06 27.84
  L 24.62 27.96
  L 24.18 28.01
  L 23.74 28.00
  L 23.30 27.94
  L 22.87 27.82
  L 22.44 27.64
  L 22.03 27.41
  L 21.62 27.12
  L 21.23 26.77
  L 20.86 26.38
  L 20.66 25.99
  L 20.50 25.61
  L 20.37 25.21
  L 20.28 24.82
  L 20.22 24.42
  L 20.20 24.03
  L 20.22 23.63
  L 20.27 23.25
  L 20.36 22.87
  L 20.48 22.51
  L 20.64 22.16
  L 20.83 21.82
  L 21.05 21.51
  L 21.31 21.23
  L 21.59 20.97
  L 21.89 20.74
  L 22.29 20.50
  L 22.71 20.32
  L 23.16 20.18
  L 23.63 20.10
  L 24.10 20.08
  L 24.59 20.11
  L 25.07 20.19
  L 25.57 20.33
  Z"
/>
</svg>
