<?xml version="1.0" encoding="UTF-8" standalone="no"?>
<svg xmlns="http://www.w3.org/2000/svg" version="1.2" baseProfile="tiny" viewBox="0.00 0.00 512.00 512.00">
<g stroke-width="5.00" fill="none" stroke-linecap="butt">
<path stroke="#e45065" vector-effect="non-scaling-stroke" d="
  M 255.95 23.44
  L 255.99 198.99
  L 255.96 199.21
  L 255.87 199.41
  L 255.72 199.58
  L 255.54 199.70
  L 255.05 199.92"
/>
<path stroke="#f9dbb4" vector-effect="non-scaling-stroke" d="
  M 75.94 150.17
  L 74.09 151.81
  L 72.32 153.48
  L 70.62 155.18
  L 68.99 156.90
  L 67.43 158.64
  L 65.94 160.42
  L 64.52 162.22
  L 63.17 164.04
  L 61.90 165.89
  L 60.69 167.77
  L 59.56 169.67
  L 58.50 171.59
  L 57.50 173.55
  L 56.58 175.53
  L 55.74 177.53
  L 54.96 179.56
  L 54.96 179.56
  L 54.96 179.56
  L 54.96 179.56
  L 54.96 179.56
  L 54.96 179.56
  L 54.37 181.26
  L 53.83 182.98
  L 53.33 184.72
  L 52.89 186.47
  L 52.50 188.24
  L 52.15 190.03
  L 51.85 191.84
  L 51.60 193.66
  L 51.40 195.51
  L 51.25 197.37
  L 51.15 199.24
  L 51.10 201.14
  L 51.09 203.05
  L 51.14 204.98
  L 51.23 206.93
  L 51.37 208.90
  L 51.58 211.04
  L 51.86 213.16
  L 52.19 215.22
  L 52.59 217.26
  L 53.04 219.25
  L 53.57 221.22
  L 54.15 223.16
  L 54.80 225.07
  L 55.51 226.94
  L 56.28 228.79
  L 57.12 230.62
  L 58.03 232.45
  L 59.01 234.26
  L 60.06 236.06
  L 61.18 237.86
  L 62.38 239.66
  L 63.65 241.45
  L 65.01 243.26
  L 66.45 245.08
  L 67.98 246.92
  L 69.61 248.80
  L 71.35 250.72
  L 73.20 252.68
  L 75.18 254.71
  L 87.74 267.35
  L 100.33 279.97
  L 112.93 292.56
  L 125.56 305.13
  L 126.67 306.22
  L 127.71 307.20
  L 128.67 308.07
  L 129.55 308.84
  L 130.36 309.51
  L 131.10 310.07
  L 131.76 310.52
  L 132.34 310.87
  L 133.15 311.27
  L 133.96 311.63
  L 134.79 311.93
  L 135.63 312.18
  L 136.48 312.38
  L 137.33 312.52
  L 138.19 312.62
  L 139.05 312.66
  L 139.63 312.66
  L 140.21 312.63
  L 140.80 312.58
  L 141.38 312.51
  L 141.95 312.41
  L 142.53 312.29
  L 143.09 312.15
  L 143.65 311.98
  L 144.21 311.79
  L 144.76 311.58
  L 145.30 311.35
  L 145.83 311.09
  L 146.36 310.81
  L 146.87 310.52
  L 147.37 310.20
  L 147.86 309.86
  L 148.34 309.50
  L 148.80 309.12
  L 149.25 308.73
  L 149.68 308.32
  L 150.09 307.89
  L 150.49 307.45
  L 150.87 306.99
  L 151.23 306.51
  L 151.57 306.03
  L 151.89 305.54
  L 152.19 305.03
  L 152.47 304.50
  L 152.73 303.97
  L 152.97 303.43
  L 153.19 302.88
  L 153.38 302.32
  L 153.60 301.60
  L 153.78 300.85
  L 153.92 300.11
  L 154.03 299.35
  L 154.09 298.59
  L 154.12 297.82
  L 154.11 297.05
  L 154.06 296.27
  L 153.93 295.23
  L 153.75 294.23
  L 153.50 293.28
  L 153.19 292.36
  L 152.98 291.85
  L 152.75 291.35
  L 152.50 290.85
  L 152.23 290.37
  L 151.94 289.88
  L 151.62 289.38
  L 150.89 288.38
  L 150.07 287.38
  L 149.09 286.29
  L 147.91 285.06
  L 146.18 283.32
  L 145.24 282.39
  L 117.46 254.59
  L 89.71 226.74"
/>
<path stroke="#f9dbb4" vector-effect="non-scaling-stroke" d="
  M 255.85 323.98
  L 255.97 422.01"
/>
<path stroke="#ffd7c9" vector-effect="non-scaling-stroke" d="
  M 255.97 422.01
  L 100.97 422.02"
/>
<path stroke="#f9bcac" vector-effect="non-scaling-stroke" d="
  M 411.02 422.02
  L 255.97 422.01"
/>
<path stroke="#f2c697" vector-effect="non-scaling-stroke" d="
  M 423.53 225.47
  L 419.91 229.30
  L 416.12 233.25
  L 412.12 237.36
  L 407.88 241.67
  L 403.48 246.09
  L 398.65 250.90
  L 393.29 256.19
  L 385.95 263.42
  L 374.64 274.56
  L 370.35 278.82
  L 366.43 282.74
  L 364.16 285.03
  L 362.44 286.81
  L 361.26 288.08
  L 360.88 288.52
  L 360.63 288.83
  L 360.25 289.37
  L 359.90 289.91
  L 359.57 290.47
  L 359.27 291.02
  L 358.99 291.58
  L 358.73 292.15
  L 358.50 292.72
  L 358.29 293.30
  L 358.11 293.87
  L 357.96 294.45
  L 357.83 295.04
  L 357.73 295.62
  L 357.65 296.21
  L 357.60 296.80
  L 357.57 297.39
  L 357.57 297.98
  L 357.61 298.74
  L 357.69 299.49
  L 357.81 300.24
  L 357.97 300.98
  L 358.18 301.72
  L 358.43 302.45
  L 358.72 303.17
  L 359.05 303.88
  L 359.42 304.57
  L 359.82 305.25
  L 360.27 305.91
  L 360.75 306.55
  L 361.26 307.16
  L 361.81 307.75
  L 362.38 308.32
  L 362.98 308.85
  L 363.61 309.36
  L 364.26 309.83
  L 364.94 310.27
  L 365.64 310.67
  L 366.35 311.04
  L 367.08 311.37
  L 367.82 311.66
  L 368.58 311.92
  L 369.33 312.13
  L 370.10 312.30
  L 370.87 312.43
  L 371.65 312.52
  L 372.42 312.56
  L 373.19 312.57
  L 373.96 312.53
  L 374.73 312.45
  L 375.34 312.36
  L 375.96 312.24
  L 376.57 312.09
  L 377.17 311.91
  L 377.76 311.71
  L 378.35 311.48
  L 378.93 311.23
  L 379.51 310.95
  L 380.07 310.64
  L 380.63 310.31
  L 381.18 309.95
  L 381.73 309.57
  L 382.26 309.16
  L 382.78 308.73
  L 383.29 308.27
  L 383.79 307.79
  L 440.15 251.65
  L 441.62 250.15
  L 443.04 248.62
  L 444.40 247.08
  L 445.71 245.52
  L 446.97 243.94
  L 448.17 242.34
  L 449.32 240.72
  L 450.41 239.09
  L 451.45 237.43
  L 452.44 235.76
  L 453.38 234.06
  L 454.26 232.35
  L 455.08 230.62
  L 455.86 228.87
  L 456.58 227.10
  L 457.24 225.31
  L 457.24 225.31
  L 457.24 225.31
  L 457.24 225.31
  L 457.24 225.31
  L 457.24 225.31
  L 457.24 225.31
  L 457.74 223.85
  L 458.20 222.38
  L 458.63 220.90
  L 459.02 219.40
  L 459.38 217.90
  L 459.71 216.38
  L 459.99 214.85
  L 460.25 213.30
  L 460.47 211.75
  L 460.65 210.18
  L 460.80 208.60
  L 460.91 207.01
  L 460.99 205.40
  L 461.04 203.78
  L 461.05 202.15
  L 461.02 200.51
  L 460.96 198.87
  L 460.86 197.25
  L 460.73 195.64
  L 460.57 194.04
  L 460.37 192.46
  L 460.13 190.90
  L 459.86 189.35
  L 459.55 187.82
  L 459.21 186.30
  L 458.83 184.80
  L 458.42 183.31
  L 457.98 181.83
  L 457.49 180.38
  L 456.98 178.93
  L 456.43 177.50
  L 455.84 176.09
  L 455.84 176.09
  L 455.84 176.09
  L 455.84 176.09
  L 455.84 176.09
  L 455.84 176.09
  L 455.03 174.30
  L 454.17 172.54
  L 453.26 170.80
  L 452.28 169.08
  L 451.24 167.39
  L 450.15 165.73
  L 449.00 164.09
  L 447.80 162.47
  L 446.53 160.88
  L 445.21 159.32
  L 443.83 157.77
  L 442.39 156.26
  L 440.90 154.77
  L 439.35 153.30
  L 437.74 151.86
  L 436.07 150.44"
/>
<path stroke="#ffb8c2" vector-effect="non-scaling-stroke" d="
  M 255.97 422.01
  L 255.99 512.00"
/>
</g>
<path fill="#ff6379" d="
  M 204.57 0.00
  L 207.34 0.00
  L 209.00 0.09
  L 210.64 0.21
  L 212.27 0.37
  L 213.89 0.56
  L 215.48 0.79
  L 217.07 1.05
  L 218.63 1.35
  L 220.19 1.68
  L 221.72 2.05
  L 223.24 2.45
  L 224.75 2.89
  L 226.24 3.36
  L 227.71 3.86
  L 229.17 4.40
  L 230.62 4.98
  L 232.05 5.59
  L 232.05 5.59
  L 232.05 5.59
  L 233.70 6.35
  L 235.33 7.15
  L 236.94 8.01
  L 238.53 8.91
  L 240.10 9.86
  L 241.64 10.85
  L 243.17 11.90
  L 244.67 12.99
  L 246.16 14.13
  L 247.62 15.32
  L 249.06 16.55
  L 250.48 17.83
  L 251.88 19.16
  L 253.26 20.54
  L 254.61 21.97
  L 255.95 23.44
  L 255.99 198.99
  L 255.96 199.21
  L 255.87 199.41
  L 255.72 199.58
  L 255.54 199.70
  L 255.05 199.92
  L 253.61 199.71
  L 252.27 199.44
  L 251.64 199.28
  L 251.04 199.11
  L 250.46 198.92
  L 249.91 198.72
  L 249.39 198.50
  L 248.89 198.27
  L 248.42 198.02
  L 247.97 197.76
  L 247.55 197.48
  L 247.15 197.19
  L 246.78 196.88
  L 246.44 196.56
  L 165.25 115.38
  L 163.00 113.10
  L 160.93 110.93
  L 159.03 108.88
  L 157.30 106.95
  L 155.75 105.13
  L 154.37 103.42
  L 153.17 101.83
  L 152.14 100.35
  L 151.19 98.87
  L 150.27 97.36
  L 149.40 95.83
  L 148.57 94.28
  L 147.78 92.70
  L 147.04 91.11
  L 146.34 89.50
  L 145.68 87.87
  L 145.07 86.22
  L 144.50 84.55
  L 143.98 82.88
  L 143.50 81.19
  L 143.07 79.49
  L 142.69 77.77
  L 142.35 76.05
  L 142.06 74.33
  L 141.81 72.59
  L 141.62 70.85
  L 141.47 69.10
  L 141.37 67.35
  L 141.31 65.61
  L 141.30 63.86
  L 141.35 62.11
  L 141.43 60.36
  L 141.57 58.62
  L 141.75 56.88
  L 141.98 55.15
  L 142.26 53.43
  L 142.59 51.72
  L 142.96 50.01
  L 143.38 48.32
  L 143.84 46.64
  L 144.33 45.04
  L 144.86 43.44
  L 145.44 41.87
  L 146.05 40.30
  L 146.71 38.76
  L 147.41 37.23
  L 148.14 35.72
  L 148.92 34.23
  L 149.76 32.72
  L 150.62 31.24
  L 151.51 29.79
  L 152.43 28.38
  L 153.38 27.01
  L 154.35 25.66
  L 155.35 24.35
  L 156.38 23.07
  L 157.43 21.82
  L 158.51 20.61
  L 159.63 19.43
  L 160.77 18.29
  L 161.93 17.18
  L 163.12 16.10
  L 164.34 15.06
  L 165.58 14.05
  L 166.56 13.29
  L 167.56 12.55
  L 168.57 11.84
  L 169.60 11.14
  L 170.64 10.47
  L 171.70 9.81
  L 172.77 9.18
  L 173.86 8.57
  L 174.97 7.97
  L 176.09 7.40
  L 177.22 6.84
  L 178.37 6.31
  L 179.54 5.80
  L 180.73 5.31
  L 181.92 4.84
  L 183.13 4.39
  L 184.37 3.96
  L 185.61 3.55
  L 186.87 3.16
  L 188.14 2.79
  L 189.43 2.45
  L 190.73 2.12
  L 192.05 1.82
  L 193.38 1.53
  L 194.73 1.27
  L 196.10 1.02
  L 197.47 0.80
  L 198.86 0.60
  L 200.27 0.42
  L 201.69 0.26
  L 203.12 0.12
  L 204.57 0.00
  Z"
/>
<path fill="#c83c50" d="
  M 300.59 0.00
  L 312.03 0.00
  L 314.34 0.32
  L 316.62 0.69
  L 318.85 1.12
  L 321.04 1.61
  L 323.19 2.16
  L 325.30 2.76
  L 327.36 3.42
  L 329.39 4.14
  L 331.37 4.91
  L 333.32 5.75
  L 335.22 6.63
  L 337.08 7.58
  L 338.90 8.59
  L 340.68 9.65
  L 342.42 10.77
  L 344.11 11.94
  L 344.11 11.94
  L 344.11 11.94
  L 344.11 11.94
  L 345.44 12.92
  L 346.74 13.94
  L 348.02 15.00
  L 349.26 16.09
  L 350.49 17.21
  L 351.68 18.38
  L 352.85 19.58
  L 353.99 20.82
  L 355.11 22.09
  L 356.20 23.40
  L 357.26 24.75
  L 358.30 26.14
  L 359.31 27.56
  L 360.30 29.01
  L 361.26 30.51
  L 362.19 32.04
  L 362.74 32.99
  L 363.28 33.96
  L 363.80 34.94
  L 364.30 35.93
  L 364.79 36.93
  L 365.26 37.94
  L 365.71 38.96
  L 366.14 39.99
  L 366.55 41.04
  L 366.95 42.09
  L 367.32 43.16
  L 367.68 44.22
  L 368.02 45.31
  L 368.34 46.39
  L 368.64 47.49
  L 368.93 48.59
  L 369.19 49.70
  L 369.44 50.82
  L 369.66 51.94
  L 369.87 53.06
  L 370.06 54.20
  L 370.22 55.34
  L 370.50 57.62
  L 370.70 59.92
  L 370.81 62.23
  L 370.85 64.54
  L 370.81 66.85
  L 370.69 69.16
  L 370.49 71.47
  L 370.21 73.76
  L 369.85 76.04
  L 369.42 78.29
  L 369.17 79.41
  L 368.91 80.53
  L 368.32 82.74
  L 368.00 83.83
  L 367.66 84.92
  L 367.30 86.00
  L 366.92 87.07
  L 366.52 88.13
  L 366.11 89.19
  L 365.67 90.23
  L 365.22 91.27
  L 364.75 92.29
  L 364.27 93.30
  L 363.77 94.31
  L 363.24 95.30
  L 362.71 96.27
  L 362.16 97.24
  L 361.58 98.20
  L 360.99 99.14
  L 360.39 100.07
  L 359.77 100.99
  L 358.79 102.35
  L 357.61 103.85
  L 356.24 105.49
  L 354.68 107.28
  L 352.92 109.22
  L 350.97 111.29
  L 348.82 113.51
  L 346.48 115.88
  L 306.28 156.10
  L 266.06 196.30
  L 265.42 196.90
  L 264.75 197.44
  L 264.05 197.94
  L 263.32 198.38
  L 263.32 198.38
  L 263.32 198.38
  L 262.88 198.61
  L 262.42 198.82
  L 261.96 199.02
  L 261.49 199.20
  L 261.01 199.36
  L 260.52 199.50
  L 259.51 199.73
  L 258.45 199.89
  L 257.36 199.97
  L 256.22 199.98
  L 255.05 199.92
  L 255.54 199.70
  L 255.72 199.58
  L 255.87 199.41
  L 255.96 199.21
  L 255.99 198.99
  L 255.95 23.44
  L 257.27 21.98
  L 258.61 20.56
  L 259.97 19.19
  L 261.36 17.86
  L 262.77 16.58
  L 264.21 15.34
  L 265.66 14.15
  L 267.14 13.00
  L 268.64 11.90
  L 270.17 10.85
  L 271.72 9.85
  L 273.28 8.89
  L 274.88 7.98
  L 276.49 7.11
  L 278.12 6.29
  L 279.78 5.52
  L 281.00 4.98
  L 282.23 4.48
  L 283.47 3.99
  L 284.72 3.54
  L 285.98 3.10
  L 287.26 2.70
  L 288.55 2.31
  L 289.85 1.95
  L 291.15 1.62
  L 292.46 1.31
  L 293.79 1.03
  L 295.13 0.78
  L 296.48 0.54
  L 297.84 0.34
  L 299.21 0.16
  L 300.59 0.00
  Z"
/>
<path fill="#ffe4c2" d="
  M 75.94 150.17
  L 74.09 151.81
  L 72.32 153.48
  L 70.62 155.18
  L 68.99 156.90
  L 67.43 158.64
  L 65.94 160.42
  L 64.52 162.22
  L 63.17 164.04
  L 61.90 165.89
  L 60.69 167.77
  L 59.56 169.67
  L 58.50 171.59
  L 57.50 173.55
  L 56.58 175.53
  L 55.74 177.53
  L 54.96 179.56
  L 54.96 179.56
  L 54.96 179.56
  L 54.96 179.56
  L 54.96 179.56
  L 54.96 179.56
  L 54.37 181.26
  L 53.83 182.98
  L 53.33 184.72
  L 52.89 186.47
  L 52.50 188.24
  L 52.15 190.03
  L 51.85 191.84
  L 51.60 193.66
  L 51.40 195.51
  L 51.25 197.37
  L 51.15 199.24
  L 51.10 201.14
  L 51.09 203.05
  L 51.14 204.98
  L 51.23 206.93
  L 51.37 208.90
  L 51.58 211.04
  L 51.86 213.16
  L 52.19 215.22
  L 52.59 217.26
  L 53.04 219.25
  L 53.57 221.22
  L 54.15 223.16
  L 54.80 225.07
  L 55.51 226.94
  L 56.28 228.79
  L 57.12 230.62
  L 58.03 232.45
  L 59.01 234.26
  L 60.06 236.06
  L 61.18 237.86
  L 62.38 239.66
  L 63.65 241.45
  L 65.01 243.26
  L 66.45 245.08
  L 67.98 246.92
  L 69.61 248.80
  L 71.35 250.72
  L 73.20 252.68
  L 75.18 254.71
  L 87.74 267.35
  L 100.33 279.97
  L 112.93 292.56
  L 125.56 305.13
  L 126.67 306.22
  L 127.71 307.20
  L 128.67 308.07
  L 129.55 308.84
  L 130.36 309.51
  L 131.10 310.07
  L 131.76 310.52
  L 132.34 310.87
  L 133.15 311.27
  L 133.96 311.63
  L 134.79 311.93
  L 135.63 312.18
  L 136.48 312.38
  L 137.33 312.52
  L 138.19 312.62
  L 139.05 312.66
  L 139.63 312.66
  L 140.21 312.63
  L 140.80 312.58
  L 141.38 312.51
  L 141.95 312.41
  L 142.53 312.29
  L 143.09 312.15
  L 143.65 311.98
  L 144.21 311.79
  L 144.76 311.58
  L 145.30 311.35
  L 145.83 311.09
  L 146.36 310.81
  L 146.87 310.52
  L 147.37 310.20
  L 147.86 309.86
  L 148.34 309.50
  L 148.80 309.12
  L 149.25 308.73
  L 149.68 308.32
  L 150.09 307.89
  L 150.49 307.45
  L 150.87 306.99
  L 151.23 306.51
  L 151.57 306.03
  L 151.89 305.54
  L 152.19 305.03
  L 152.47 304.50
  L 152.73 303.97
  L 152.97 303.43
  L 153.19 302.88
  L 153.38 302.32
  L 153.60 301.60
  L 153.78 300.85
  L 153.92 300.11
  L 154.03 299.35
  L 154.09 298.59
  L 154.12 297.82
  L 154.11 297.05
  L 154.06 296.27
  L 153.93 295.23
  L 153.75 294.23
  L 153.50 293.28
  L 153.19 292.36
  L 152.98 291.85
  L 152.75 291.35
  L 152.50 290.85
  L 152.23 290.37
  L 151.94 289.88
  L 151.62 289.38
  L 150.89 288.38
  L 150.07 287.38
  L 149.09 286.29
  L 147.91 285.06
  L 146.18 283.32
  L 145.24 282.39
  L 117.46 254.59
  L 89.71 226.74
  L 88.67 225.29
  L 87.70 223.84
  L 86.79 222.39
  L 85.95 220.94
  L 85.17 219.49
  L 84.46 218.03
  L 83.81 216.57
  L 83.23 215.12
  L 82.71 213.66
  L 82.26 212.20
  L 81.87 210.73
  L 81.54 209.27
  L 81.28 207.80
  L 81.09 206.34
  L 80.96 204.87
  L 80.89 203.40
  L 80.89 203.40
  L 80.89 203.40
  L 80.89 202.34
  L 80.91 201.27
  L 80.97 200.20
  L 81.07 199.14
  L 81.20 198.07
  L 81.36 197.00
  L 81.56 195.93
  L 81.79 194.86
  L 82.05 193.79
  L 82.35 192.72
  L 82.69 191.64
  L 83.05 190.57
  L 83.45 189.50
  L 83.89 188.42
  L 84.36 187.35
  L 84.86 186.27
  L 85.27 185.45
  L 85.69 184.65
  L 86.13 183.86
  L 86.59 183.08
  L 87.07 182.31
  L 87.57 181.56
  L 88.09 180.81
  L 88.62 180.08
  L 89.54 178.91
  L 90.50 177.78
  L 91.51 176.68
  L 92.56 175.63
  L 93.65 174.61
  L 94.79 173.65
  L 95.96 172.72
  L 97.17 171.84
  L 98.41 171.01
  L 99.69 170.23
  L 101.00 169.50
  L 102.34 168.82
  L 103.71 168.19
  L 105.09 167.62
  L 106.50 167.10
  L 107.93 166.64
  L 109.37 166.24
  L 110.82 165.89
  L 112.29 165.60
  L 113.76 165.37
  L 115.24 165.20
  L 116.73 165.09
  L 118.21 165.04
  L 119.69 165.05
  L 121.16 165.12
  L 122.64 165.24
  L 124.09 165.43
  L 125.55 165.68
  L 126.97 165.98
  L 128.40 166.35
  L 129.79 166.77
  L 131.18 167.25
  L 132.47 167.75
  L 133.74 168.31
  L 134.99 168.91
  L 136.22 169.57
  L 136.87 169.95
  L 137.55 170.38
  L 138.27 170.87
  L 139.04 171.41
  L 139.83 172.01
  L 140.67 172.67
  L 142.46 174.14
  L 144.40 175.84
  L 146.50 177.76
  L 148.74 179.90
  L 151.14 182.26
  L 220.73 251.87
  L 223.10 254.25
  L 225.28 256.48
  L 227.26 258.54
  L 229.06 260.45
  L 230.67 262.20
  L 232.08 263.79
  L 233.31 265.23
  L 234.35 266.50
  L 235.31 267.73
  L 236.25 268.98
  L 237.16 270.23
  L 238.06 271.49
  L 238.93 272.77
  L 239.78 274.05
  L 240.61 275.34
  L 241.42 276.65
  L 242.20 277.96
  L 242.97 279.28
  L 243.71 280.61
  L 244.43 281.95
  L 245.13 283.30
  L 245.81 284.66
  L 246.46 286.04
  L 247.10 287.42
  L 247.10 287.42
  L 247.10 287.42
  L 247.10 287.42
  L 248.02 289.53
  L 248.89 291.67
  L 249.71 293.83
  L 250.48 296.02
  L 251.21 298.22
  L 251.88 300.45
  L 252.50 302.70
  L 253.07 304.98
  L 253.60 307.27
  L 254.07 309.59
  L 254.49 311.93
  L 254.86 314.30
  L 255.18 316.69
  L 255.46 319.09
  L 255.68 321.53
  L 255.85 323.98
  L 255.97 422.01
  L 100.97 422.02
  L 100.98 392.85
  L 100.96 392.60
  L 100.90 392.37
  L 100.90 392.37
  L 100.80 392.16
  L 100.66 391.97
  L 68.93 353.93
  L 37.24 315.85
  L 28.27 305.03
  L 25.74 301.95
  L 24.52 300.41
  L 23.44 298.96
  L 22.40 297.50
  L 21.37 296.04
  L 20.38 294.57
  L 19.41 293.09
  L 18.47 291.61
  L 17.56 290.12
  L 16.67 288.62
  L 15.81 287.12
  L 14.98 285.60
  L 14.17 284.08
  L 13.38 282.54
  L 12.62 281.00
  L 11.89 279.46
  L 11.18 277.90
  L 10.50 276.33
  L 9.91 274.90
  L 9.33 273.46
  L 8.78 272.01
  L 8.24 270.55
  L 7.73 269.08
  L 7.23 267.61
  L 6.75 266.12
  L 6.30 264.63
  L 5.86 263.12
  L 5.45 261.60
  L 5.05 260.06
  L 4.67 258.52
  L 4.31 256.96
  L 3.97 255.40
  L 3.65 253.81
  L 3.34 252.22
  L 3.06 250.60
  L 2.79 248.98
  L 2.55 247.34
  L 2.32 245.69
  L 2.11 244.02
  L 1.92 242.33
  L 1.59 238.91
  L 1.34 235.41
  L 1.16 231.84
  L 1.05 228.18
  L 1.01 224.44
  L 1.00 59.75
  L 1.01 58.68
  L 1.06 57.63
  L 1.13 56.57
  L 1.22 55.53
  L 1.35 54.49
  L 1.50 53.45
  L 1.69 52.42
  L 1.90 51.41
  L 2.13 50.40
  L 2.40 49.40
  L 2.69 48.41
  L 3.01 47.43
  L 3.35 46.46
  L 3.73 45.50
  L 4.13 44.54
  L 4.55 43.61
  L 5.25 42.21
  L 5.99 40.86
  L 6.80 39.53
  L 7.66 38.24
  L 8.58 36.98
  L 9.55 35.76
  L 10.58 34.58
  L 11.65 33.45
  L 12.78 32.35
  L 13.94 31.31
  L 15.16 30.30
  L 16.41 29.35
  L 17.71 28.45
  L 19.04 27.61
  L 20.41 26.81
  L 21.80 26.08
  L 23.22 25.41
  L 24.67 24.79
  L 26.15 24.23
  L 27.64 23.74
  L 29.15 23.30
  L 30.68 22.93
  L 32.22 22.63
  L 33.77 22.39
  L 35.31 22.21
  L 36.87 22.10
  L 38.42 22.06
  L 39.98 22.08
  L 41.52 22.16
  L 43.06 22.32
  L 44.59 22.53
  L 46.11 22.82
  L 47.20 23.06
  L 48.29 23.34
  L 49.37 23.65
  L 50.44 24.00
  L 51.50 24.38
  L 52.54 24.79
  L 53.58 25.23
  L 54.61 25.71
  L 55.62 26.22
  L 56.62 26.76
  L 57.60 27.34
  L 58.58 27.94
  L 59.54 28.58
  L 60.48 29.24
  L 61.41 29.94
  L 62.33 30.67
  L 63.64 31.78
  L 64.86 32.91
  L 66.00 34.06
  L 67.09 35.24
  L 68.09 36.45
  L 69.03 37.70
  L 69.90 38.96
  L 70.71 40.27
  L 71.39 41.50
  L 72.02 42.77
  L 72.60 44.07
  L 73.13 45.41
  L 73.61 46.79
  L 74.04 48.21
  L 74.43 49.69
  L 74.77 51.22
  L 75.06 52.80
  L 75.32 54.44
  L 75.53 56.16
  L 75.70 57.95
  L 75.83 59.84
  L 75.92 61.82
  L 75.98 63.93
  L 76.00 66.20
  L 76.01 108.49
  L 75.94 150.17
  Z"
/>
<path fill="#f2d1a5" d="
  M 411.02 422.02
  L 255.97 422.01
  L 255.85 323.98
  L 256.04 321.52
  L 256.27 319.09
  L 256.55 316.67
  L 256.89 314.28
  L 257.27 311.92
  L 257.71 309.57
  L 258.19 307.25
  L 258.72 304.95
  L 259.30 302.67
  L 259.93 300.41
  L 260.62 298.18
  L 261.35 295.97
  L 262.13 293.78
  L 262.96 291.61
  L 263.83 289.47
  L 264.76 287.35
  L 264.76 287.35
  L 264.76 287.35
  L 264.76 287.35
  L 264.76 287.35
  L 265.40 285.96
  L 266.06 284.59
  L 266.74 283.23
  L 267.44 281.88
  L 268.16 280.53
  L 268.91 279.20
  L 269.67 277.87
  L 270.46 276.56
  L 271.27 275.25
  L 272.10 273.96
  L 272.95 272.67
  L 273.82 271.40
  L 274.72 270.13
  L 275.63 268.87
  L 276.57 267.63
  L 277.53 266.39
  L 278.58 265.10
  L 279.82 263.65
  L 281.24 262.05
  L 282.84 260.30
  L 284.63 258.40
  L 286.61 256.34
  L 288.77 254.13
  L 291.12 251.76
  L 329.41 213.46
  L 367.70 175.20
  L 368.50 174.43
  L 369.35 173.68
  L 370.25 172.95
  L 371.20 172.24
  L 372.19 171.54
  L 373.23 170.87
  L 374.32 170.21
  L 375.45 169.58
  L 376.76 168.90
  L 378.08 168.27
  L 379.41 167.69
  L 380.74 167.17
  L 382.09 166.69
  L 383.43 166.26
  L 384.79 165.89
  L 386.14 165.57
  L 387.51 165.30
  L 388.87 165.08
  L 390.24 164.92
  L 391.60 164.81
  L 392.97 164.75
  L 394.34 164.74
  L 395.70 164.79
  L 397.06 164.89
  L 397.93 164.98
  L 398.81 165.09
  L 399.68 165.23
  L 400.55 165.39
  L 401.41 165.57
  L 402.27 165.77
  L 403.13 165.99
  L 403.98 166.23
  L 404.83 166.50
  L 405.66 166.78
  L 406.50 167.09
  L 407.33 167.42
  L 408.16 167.77
  L 408.97 168.14
  L 409.78 168.53
  L 410.57 168.94
  L 411.37 169.37
  L 412.15 169.82
  L 412.92 170.29
  L 413.68 170.78
  L 414.43 171.29
  L 415.17 171.81
  L 415.90 172.36
  L 416.62 172.92
  L 417.32 173.50
  L 418.01 174.09
  L 418.69 174.71
  L 419.35 175.33
  L 420.01 175.98
  L 420.64 176.64
  L 421.27 177.32
  L 421.87 178.01
  L 422.46 178.71
  L 423.03 179.43
  L 423.59 180.16
  L 424.13 180.90
  L 424.65 181.66
  L 425.15 182.42
  L 425.64 183.20
  L 426.11 183.99
  L 426.55 184.79
  L 426.98 185.59
  L 427.39 186.41
  L 427.78 187.24
  L 428.15 188.06
  L 428.49 188.90
  L 428.82 189.75
  L 429.13 190.60
  L 429.42 191.46
  L 429.68 192.32
  L 429.93 193.19
  L 430.15 194.06
  L 430.36 194.94
  L 430.54 195.82
  L 430.70 196.70
  L 430.84 197.58
  L 430.95 198.47
  L 431.05 199.36
  L 431.12 200.24
  L 431.17 201.13
  L 431.20 202.02
  L 431.21 202.91
  L 431.19 203.80
  L 431.16 204.69
  L 431.06 206.05
  L 430.91 207.41
  L 430.71 208.76
  L 430.46 210.12
  L 430.15 211.45
  L 429.80 212.79
  L 429.40 214.11
  L 428.94 215.43
  L 428.44 216.72
  L 427.88 218.02
  L 427.28 219.29
  L 426.62 220.56
  L 425.93 221.80
  L 425.17 223.04
  L 424.38 224.26
  L 423.53 225.47
  L 419.91 229.30
  L 416.12 233.25
  L 412.12 237.36
  L 407.88 241.67
  L 403.48 246.09
  L 398.65 250.90
  L 393.29 256.19
  L 385.95 263.42
  L 374.64 274.56
  L 370.35 278.82
  L 366.43 282.74
  L 364.16 285.03
  L 362.44 286.81
  L 361.26 288.08
  L 360.88 288.52
  L 360.63 288.83
  L 360.25 289.37
  L 359.90 289.91
  L 359.57 290.47
  L 359.27 291.02
  L 358.99 291.58
  L 358.73 292.15
  L 358.50 292.72
  L 358.29 293.30
  L 358.11 293.87
  L 357.96 294.45
  L 357.83 295.04
  L 357.73 295.62
  L 357.65 296.21
  L 357.60 296.80
  L 357.57 297.39
  L 357.57 297.98
  L 357.61 298.74
  L 357.69 299.49
  L 357.81 300.24
  L 357.97 300.98
  L 358.18 301.72
  L 358.43 302.45
  L 358.72 303.17
  L 359.05 303.88
  L 359.42 304.57
  L 359.82 305.25
  L 360.27 305.91
  L 360.75 306.55
  L 361.26 307.16
  L 361.81 307.75
  L 362.38 308.32
  L 362.98 308.85
  L 363.61 309.36
  L 364.26 309.83
  L 364.94 310.27
  L 365.64 310.67
  L 366.35 311.04
  L 367.08 311.37
  L 367.82 311.66
  L 368.58 311.92
  L 369.33 312.13
  L 370.10 312.30
  L 370.87 312.43
  L 371.65 312.52
  L 372.42 312.56
  L 373.19 312.57
  L 373.96 312.53
  L 374.73 312.45
  L 375.34 312.36
  L 375.96 312.24
  L 376.57 312.09
  L 377.17 311.91
  L 377.76 311.71
  L 378.35 311.48
  L 378.93 311.23
  L 379.51 310.95
  L 380.07 310.64
  L 380.63 310.31
  L 381.18 309.95
  L 381.73 309.57
  L 382.26 309.16
  L 382.78 308.73
  L 383.29 308.27
  L 383.79 307.79
  L 440.15 251.65
  L 441.62 250.15
  L 443.04 248.62
  L 444.40 247.08
  L 445.71 245.52
  L 446.97 243.94
  L 448.17 242.34
  L 449.32 240.72
  L 450.41 239.09
  L 451.45 237.43
  L 452.44 235.76
  L 453.38 234.06
  L 454.26 232.35
  L 455.08 230.62
  L 455.86 228.87
  L 456.58 227.10
  L 457.24 225.31
  L 457.24 225.31
  L 457.24 225.31
  L 457.24 225.31
  L 457.24 225.31
  L 457.24 225.31
  L 457.24 225.31
  L 457.74 223.85
  L 458.20 222.38
  L 458.63 220.90
  L 459.02 219.40
  L 459.38 217.90
  L 459.71 216.38
  L 459.99 214.85
  L 460.25 213.30
  L 460.47 211.75
  L 460.65 210.18
  L 460.80 208.60
  L 460.91 207.01
  L 460.99 205.40
  L 461.04 203.78
  L 461.05 202.15
  L 461.02 200.51
  L 460.96 198.87
  L 460.86 197.25
  L 460.73 195.64
  L 460.57 194.04
  L 460.37 192.46
  L 460.13 190.90
  L 459.86 189.35
  L 459.55 187.82
  L 459.21 186.30
  L 458.83 184.80
  L 458.42 183.31
  L 457.98 181.83
  L 457.49 180.38
  L 456.98 178.93
  L 456.43 177.50
  L 455.84 176.09
  L 455.84 176.09
  L 455.84 176.09
  L 455.84 176.09
  L 455.84 176.09
  L 455.84 176.09
  L 455.03 174.30
  L 454.17 172.54
  L 453.26 170.80
  L 452.28 169.08
  L 451.24 167.39
  L 450.15 165.73
  L 449.00 164.09
  L 447.80 162.47
  L 446.53 160.88
  L 445.21 159.32
  L 443.83 157.77
  L 442.39 156.26
  L 440.90 154.77
  L 439.35 153.30
  L 437.74 151.86
  L 436.07 150.44
  L 436.00 106.50
  L 435.99 61.67
  L 436.01 59.82
  L 436.08 58.06
  L 436.18 56.39
  L 436.32 54.82
  L 436.50 53.34
  L 436.72 51.96
  L 436.99 50.67
  L 437.29 49.47
  L 437.67 48.20
  L 438.08 46.96
  L 438.52 45.74
  L 439.00 44.55
  L 439.52 43.37
  L 440.07 42.22
  L 440.66 41.10
  L 441.28 40.00
  L 441.94 38.93
  L 442.62 37.88
  L 443.35 36.86
  L 444.10 35.88
  L 444.89 34.91
  L 445.70 33.98
  L 446.55 33.08
  L 447.43 32.21
  L 448.07 31.61
  L 448.72 31.04
  L 449.38 30.47
  L 450.06 29.93
  L 450.75 29.40
  L 451.46 28.89
  L 452.18 28.39
  L 452.91 27.91
  L 453.65 27.45
  L 454.40 27.01
  L 455.17 26.58
  L 455.95 26.17
  L 456.74 25.78
  L 457.54 25.40
  L 458.35 25.05
  L 459.17 24.72
  L 460.00 24.40
  L 460.84 24.10
  L 461.68 23.82
  L 462.53 23.57
  L 463.39 23.33
  L 464.26 23.11
  L 465.13 22.91
  L 466.00 22.73
  L 466.89 22.57
  L 467.78 22.43
  L 468.67 22.31
  L 469.57 22.21
  L 470.46 22.14
  L 471.36 22.08
  L 472.26 22.04
  L 473.16 22.03
  L 474.06 22.03
  L 474.96 22.06
  L 475.86 22.10
  L 476.76 22.17
  L 477.65 22.26
  L 478.55 22.37
  L 479.44 22.49
  L 480.33 22.64
  L 481.21 22.81
  L 482.08 23.00
  L 482.95 23.21
  L 483.82 23.44
  L 484.67 23.68
  L 485.52 23.95
  L 486.36 24.24
  L 487.20 24.54
  L 488.02 24.87
  L 488.83 25.21
  L 489.64 25.57
  L 490.44 25.96
  L 491.23 26.36
  L 492.01 26.77
  L 492.77 27.21
  L 493.52 27.66
  L 494.26 28.13
  L 494.99 28.62
  L 495.70 29.12
  L 496.40 29.64
  L 497.09 30.18
  L 497.76 30.73
  L 498.42 31.30
  L 499.07 31.89
  L 500.00 32.78
  L 500.90 33.71
  L 501.76 34.68
  L 502.60 35.67
  L 503.39 36.70
  L 504.16 37.76
  L 504.88 38.84
  L 505.58 39.96
  L 506.23 41.10
  L 506.85 42.27
  L 507.42 43.47
  L 507.97 44.70
  L 508.47 45.95
  L 508.94 47.23
  L 509.37 48.53
  L 509.76 49.86
  L 510.06 51.04
  L 510.31 52.31
  L 510.53 53.67
  L 510.71 55.11
  L 510.84 56.65
  L 510.94 58.27
  L 511.00 59.98
  L 511.02 61.78
  L 510.99 172.10
  L 511.00 227.26
  L 510.99 230.35
  L 510.94 233.27
  L 510.85 236.01
  L 510.74 238.59
  L 510.59 241.00
  L 510.40 243.23
  L 510.18 245.30
  L 509.93 247.20
  L 509.47 250.09
  L 508.94 252.94
  L 508.35 255.74
  L 507.69 258.51
  L 506.98 261.24
  L 506.19 263.94
  L 505.34 266.60
  L 504.43 269.23
  L 503.46 271.81
  L 502.42 274.37
  L 501.31 276.92
  L 500.13 279.45
  L 498.88 281.97
  L 497.56 284.48
  L 496.15 286.99
  L 494.67 289.50
  L 493.11 292.02
  L 491.47 294.54
  L 489.74 297.09
  L 487.92 299.66
  L 485.99 302.27
  L 483.96 304.92
  L 481.83 307.61
  L 479.56 310.38
  L 445.48 351.34
  L 411.35 392.24
  L 411.21 392.44
  L 411.11 392.66
  L 411.05 392.89
  L 411.03 393.13
  L 411.02 422.02
  Z"
/>
<path fill="#f2d1a5" d="
  M 75.94 150.17
  L 76.01 172.45
  L 76.00 194.00
  L 76.01 195.15
  L 76.05 196.28
  L 76.10 197.41
  L 76.19 198.52
  L 76.30 199.63
  L 76.43 200.72
  L 76.59 201.81
  L 76.78 202.88
  L 76.99 203.95
  L 77.22 205.01
  L 77.48 206.05
  L 77.77 207.09
  L 78.08 208.11
  L 78.41 209.13
  L 78.77 210.13
  L 79.15 211.13
  L 79.15 211.13
  L 79.15 211.13
  L 79.15 211.13
  L 79.60 212.19
  L 80.07 213.24
  L 80.57 214.28
  L 81.10 215.31
  L 81.65 216.33
  L 82.24 217.33
  L 82.86 218.32
  L 83.50 219.31
  L 84.18 220.28
  L 84.88 221.23
  L 85.61 222.18
  L 86.37 223.12
  L 87.16 224.04
  L 87.98 224.95
  L 88.83 225.85
  L 89.71 226.74
  L 117.46 254.59
  L 145.24 282.39
  L 146.18 283.32
  L 147.91 285.06
  L 149.09 286.29
  L 150.07 287.38
  L 150.89 288.38
  L 151.62 289.38
  L 151.94 289.88
  L 152.23 290.37
  L 152.50 290.85
  L 152.75 291.35
  L 152.98 291.85
  L 153.19 292.36
  L 153.50 293.28
  L 153.75 294.23
  L 153.93 295.23
  L 154.06 296.27
  L 154.11 297.05
  L 154.12 297.82
  L 154.09 298.59
  L 154.03 299.35
  L 153.92 300.11
  L 153.78 300.85
  L 153.60 301.60
  L 153.38 302.32
  L 153.19 302.88
  L 152.97 303.43
  L 152.73 303.97
  L 152.47 304.50
  L 152.19 305.03
  L 151.89 305.54
  L 151.57 306.03
  L 151.23 306.51
  L 150.87 306.99
  L 150.49 307.45
  L 150.09 307.89
  L 149.68 308.32
  L 149.25 308.73
  L 148.80 309.12
  L 148.34 309.50
  L 147.86 309.86
  L 147.37 310.20
  L 146.87 310.52
  L 146.36 310.81
  L 145.83 311.09
  L 145.30 311.35
  L 144.76 311.58
  L 144.21 311.79
  L 143.65 311.98
  L 143.09 312.15
  L 142.53 312.29
  L 141.95 312.41
  L 141.38 312.51
  L 140.80 312.58
  L 140.21 312.63
  L 139.63 312.66
  L 139.05 312.66
  L 138.19 312.62
  L 137.33 312.52
  L 136.48 312.38
  L 135.63 312.18
  L 134.79 311.93
  L 133.96 311.63
  L 133.15 311.27
  L 132.34 310.87
  L 131.76 310.52
  L 131.10 310.07
  L 130.36 309.51
  L 129.55 308.84
  L 128.67 308.07
  L 127.71 307.20
  L 126.67 306.22
  L 125.56 305.13
  L 112.93 292.56
  L 100.33 279.97
  L 87.74 267.35
  L 75.18 254.71
  L 73.20 252.68
  L 71.35 250.72
  L 69.61 248.80
  L 67.98 246.92
  L 66.45 245.08
  L 65.01 243.26
  L 63.65 241.45
  L 62.38 239.66
  L 61.18 237.86
  L 60.06 236.06
  L 59.01 234.26
  L 58.03 232.45
  L 57.12 230.62
  L 56.28 228.79
  L 55.51 226.94
  L 54.80 225.07
  L 54.15 223.16
  L 53.57 221.22
  L 53.04 219.25
  L 52.59 217.26
  L 52.19 215.22
  L 51.86 213.16
  L 51.58 211.04
  L 51.37 208.90
  L 51.23 206.93
  L 51.14 204.98
  L 51.09 203.05
  L 51.10 201.14
  L 51.15 199.24
  L 51.25 197.37
  L 51.40 195.51
  L 51.60 193.66
  L 51.85 191.84
  L 52.15 190.03
  L 52.50 188.24
  L 52.89 186.47
  L 53.33 184.72
  L 53.83 182.98
  L 54.37 181.26
  L 54.96 179.56
  L 54.96 179.56
  L 54.96 179.56
  L 54.96 179.56
  L 54.96 179.56
  L 55.74 177.53
  L 56.58 175.53
  L 57.50 173.55
  L 58.50 171.59
  L 59.56 169.67
  L 60.69 167.77
  L 61.90 165.89
  L 63.17 164.04
  L 64.52 162.22
  L 65.94 160.42
  L 67.43 158.64
  L 68.99 156.90
  L 70.62 155.18
  L 72.32 153.48
  L 74.09 151.81
  L 75.94 150.17
  Z"
/>
<path fill="#f2bb88" d="
  M 436.07 150.44
  L 437.74 151.86
  L 439.35 153.30
  L 440.90 154.77
  L 442.39 156.26
  L 443.83 157.77
  L 445.21 159.32
  L 446.53 160.88
  L 447.80 162.47
  L 449.00 164.09
  L 450.15 165.73
  L 451.24 167.39
  L 452.28 169.08
  L 453.26 170.80
  L 454.17 172.54
  L 455.03 174.30
  L 455.84 176.09
  L 455.84 176.09
  L 455.84 176.09
  L 455.84 176.09
  L 455.84 176.09
  L 456.43 177.50
  L 456.98 178.93
  L 457.49 180.38
  L 457.98 181.83
  L 458.42 183.31
  L 458.83 184.80
  L 459.21 186.30
  L 459.55 187.82
  L 459.86 189.35
  L 460.13 190.90
  L 460.37 192.46
  L 460.57 194.04
  L 460.73 195.64
  L 460.86 197.25
  L 460.96 198.87
  L 461.02 200.51
  L 461.05 202.15
  L 461.04 203.78
  L 460.99 205.40
  L 460.91 207.01
  L 460.80 208.60
  L 460.65 210.18
  L 460.47 211.75
  L 460.25 213.30
  L 459.99 214.85
  L 459.71 216.38
  L 459.38 217.90
  L 459.02 219.40
  L 458.63 220.90
  L 458.20 222.38
  L 457.74 223.85
  L 457.24 225.31
  L 457.24 225.31
  L 457.24 225.31
  L 457.24 225.31
  L 457.24 225.31
  L 456.58 227.10
  L 455.86 228.87
  L 455.08 230.62
  L 454.26 232.35
  L 453.38 234.06
  L 452.44 235.76
  L 451.45 237.43
  L 450.41 239.09
  L 449.32 240.72
  L 448.17 242.34
  L 446.97 243.94
  L 445.71 245.52
  L 444.40 247.08
  L 443.04 248.62
  L 441.62 250.15
  L 440.15 251.65
  L 383.79 307.79
  L 383.29 308.27
  L 382.78 308.73
  L 382.26 309.16
  L 381.73 309.57
  L 381.18 309.95
  L 380.63 310.31
  L 380.07 310.64
  L 379.51 310.95
  L 378.93 311.23
  L 378.35 311.48
  L 377.76 311.71
  L 377.17 311.91
  L 376.57 312.09
  L 375.96 312.24
  L 375.34 312.36
  L 374.73 312.45
  L 373.96 312.53
  L 373.19 312.57
  L 372.42 312.56
  L 371.65 312.52
  L 370.87 312.43
  L 370.10 312.30
  L 369.33 312.13
  L 368.58 311.92
  L 367.82 311.66
  L 367.08 311.37
  L 366.35 311.04
  L 365.64 310.67
  L 364.94 310.27
  L 364.26 309.83
  L 363.61 309.36
  L 362.98 308.85
  L 362.38 308.32
  L 361.81 307.75
  L 361.26 307.16
  L 360.75 306.55
  L 360.27 305.91
  L 359.82 305.25
  L 359.42 304.57
  L 359.05 303.88
  L 358.72 303.17
  L 358.43 302.45
  L 358.18 301.72
  L 357.97 300.98
  L 357.81 300.24
  L 357.69 299.49
  L 357.61 298.74
  L 357.57 297.98
  L 357.57 297.39
  L 357.60 296.80
  L 357.65 296.21
  L 357.73 295.62
  L 357.83 295.04
  L 357.96 294.45
  L 358.11 293.87
  L 358.29 293.30
  L 358.50 292.72
  L 358.73 292.15
  L 358.99 291.58
  L 359.27 291.02
  L 359.57 290.47
  L 359.90 289.91
  L 360.25 289.37
  L 360.63 288.83
  L 360.88 288.52
  L 361.26 288.08
  L 362.44 286.81
  L 364.16 285.03
  L 366.43 282.74
  L 370.35 278.82
  L 374.64 274.56
  L 385.95 263.42
  L 393.29 256.19
  L 398.65 250.90
  L 403.48 246.09
  L 407.88 241.67
  L 412.12 237.36
  L 416.12 233.25
  L 419.91 229.30
  L 423.53 225.47
  L 424.82 224.05
  L 426.02 222.64
  L 427.14 221.22
  L 428.17 219.79
  L 429.13 218.35
  L 430.02 216.89
  L 430.83 215.42
  L 431.57 213.91
  L 432.15 212.59
  L 432.69 211.24
  L 433.18 209.87
  L 433.62 208.45
  L 434.02 207.01
  L 434.38 205.51
  L 434.70 203.97
  L 434.97 202.36
  L 435.21 200.71
  L 435.41 199.00
  L 435.58 197.19
  L 435.72 195.29
  L 435.82 193.28
  L 435.89 191.11
  L 435.94 188.77
  L 435.96 186.18
  L 436.07 150.44
  Z"
/>
<path fill="#ffc9d0" d="
  M 100.97 422.02
  L 255.97 422.01
  L 255.99 512.00
  L 94.45 512.00
  L 93.69 511.84
  L 92.96 511.67
  L 92.26 511.47
  L 91.58 511.26
  L 90.93 511.03
  L 90.29 510.79
  L 89.68 510.52
  L 89.09 510.24
  L 88.52 509.94
  L 87.97 509.62
  L 87.44 509.28
  L 86.94 508.92
  L 86.46 508.54
  L 86.00 508.15
  L 85.56 507.73
  L 85.15 507.30
  L 84.63 506.71
  L 84.16 506.09
  L 83.72 505.43
  L 83.32 504.75
  L 82.94 504.02
  L 82.61 503.27
  L 82.30 502.47
  L 82.03 501.65
  L 81.79 500.78
  L 81.58 499.89
  L 81.41 498.95
  L 81.27 497.97
  L 81.15 496.96
  L 81.07 495.89
  L 81.03 494.79
  L 81.01 493.64
  L 81.00 442.60
  L 81.02 440.59
  L 81.08 438.74
  L 81.19 437.06
  L 81.33 435.53
  L 81.52 434.18
  L 81.75 432.98
  L 81.88 432.44
  L 82.02 431.95
  L 82.17 431.49
  L 82.33 431.08
  L 82.65 430.36
  L 83.00 429.68
  L 83.37 429.03
  L 83.77 428.40
  L 84.21 427.80
  L 84.66 427.23
  L 85.15 426.69
  L 85.66 426.18
  L 86.33 425.59
  L 87.02 425.05
  L 87.77 424.55
  L 88.55 424.09
  L 89.36 423.68
  L 90.23 423.31
  L 91.13 422.99
  L 92.07 422.70
  L 93.05 422.47
  L 94.07 422.27
  L 95.12 422.12
  L 96.22 422.01
  L 97.35 421.95
  L 98.52 421.93
  L 99.73 421.95
  L 100.97 422.02
  Z"
/>
<path fill="#ffa7b3" d="
  M 255.97 422.01
  L 411.02 422.02
  L 412.78 421.98
  L 414.33 421.95
  L 415.46 421.95
  L 416.48 421.97
  L 417.39 422.03
  L 418.26 422.13
  L 419.08 422.26
  L 419.84 422.43
  L 420.56 422.64
  L 421.65 423.04
  L 422.66 423.47
  L 423.62 423.95
  L 424.50 424.47
  L 425.33 425.04
  L 426.10 425.65
  L 426.80 426.32
  L 427.44 427.02
  L 427.90 427.59
  L 428.31 428.18
  L 428.70 428.80
  L 429.05 429.45
  L 429.37 430.14
  L 429.66 430.85
  L 429.93 431.61
  L 430.16 432.38
  L 430.36 433.20
  L 430.54 434.06
  L 430.68 434.95
  L 430.80 435.88
  L 430.89 436.86
  L 430.96 437.88
  L 431.00 438.97
  L 431.01 440.10
  L 431.00 467.00
  L 431.01 493.89
  L 431.00 495.02
  L 430.96 496.09
  L 430.89 497.13
  L 430.79 498.11
  L 430.67 499.06
  L 430.51 499.96
  L 430.33 500.83
  L 430.11 501.67
  L 429.87 502.46
  L 429.59 503.22
  L 429.29 503.95
  L 428.95 504.65
  L 428.58 505.32
  L 428.18 505.95
  L 427.74 506.55
  L 427.28 507.13
  L 426.89 507.56
  L 426.47 507.97
  L 426.05 508.37
  L 425.60 508.74
  L 425.12 509.10
  L 424.63 509.44
  L 424.11 509.77
  L 423.57 510.09
  L 423.01 510.38
  L 422.43 510.66
  L 421.82 510.92
  L 421.18 511.17
  L 420.53 511.40
  L 419.85 511.61
  L 419.15 511.81
  L 418.42 512.00
  L 255.99 512.00
  L 255.97 422.01
  Z"
/>
</svg>
