<?xml version="1.0" encoding="UTF-8" standalone="no"?>
<svg xmlns="http://www.w3.org/2000/svg" version="1.2" baseProfile="tiny" viewBox="0.00 0.00 256.00 141.00">
<g stroke-width="5.00" fill="none" stroke-linecap="butt">
<path stroke="#456674" vector-effect="non-scaling-stroke" d="
  M 187.88 70.98
  L 187.86 69.51
  L 187.81 68.04
  L 187.72 66.57
  L 187.59 65.11
  L 187.43 63.65
  L 187.23 62.19
  L 187.00 60.74
  L 186.73 59.29
  L 186.42 57.86
  L 186.08 56.43
  L 185.71 55.00
  L 185.30 53.59
  L 184.86 52.19
  L 184.38 50.80
  L 183.87 49.42
  L 183.32 48.06
  L 182.74 46.71
  L 182.13 45.37
  L 181.48 44.05
  L 180.81 42.74
  L 180.10 41.46
  L 179.36 40.19
  L 178.59 38.93
  L 177.79 37.70
  L 176.95 36.49
  L 176.09 35.30
  L 175.20 34.13
  L 174.28 32.98
  L 173.34 31.85
  L 172.36 30.75
  L 171.36 29.68
  L 170.34 28.62
  L 169.28 27.60
  L 168.21 26.60
  L 167.11 25.62
  L 165.98 24.68
  L 164.83 23.76
  L 163.66 22.87
  L 162.47 22.01
  L 161.26 21.17
  L 160.03 20.37
  L 158.77 19.60
  L 157.50 18.86
  L 156.22 18.15
  L 154.91 17.48
  L 153.59 16.83
  L 152.25 16.22
  L 150.90 15.64
  L 149.54 15.09
  L 148.16 14.58
  L 146.77 14.10
  L 145.37 13.66
  L 143.96 13.25
  L 142.53 12.88
  L 141.10 12.54
  L 139.67 12.23
  L 138.22 11.96
  L 136.77 11.73
  L 135.31 11.53
  L 133.85 11.37
  L 132.39 11.24
  L 130.92 11.15
  L 129.45 11.10
  L 127.98 11.08
  L 126.51 11.10
  L 125.04 11.15
  L 123.57 11.24
  L 122.11 11.37
  L 120.65 11.53
  L 119.19 11.73
  L 117.74 11.96
  L 116.29 12.23
  L 114.86 12.54
  L 113.43 12.88
  L 112.00 13.25
  L 110.59 13.66
  L 109.19 14.10
  L 107.80 14.58
  L 106.42 15.09
  L 105.06 15.64
  L 103.71 16.22
  L 102.37 16.83
  L 101.05 17.48
  L 99.74 18.15
  L 98.46 18.86
  L 97.19 19.60
  L 95.93 20.37
  L 94.70 21.17
  L 93.49 22.01
  L 92.30 22.87
  L 91.13 23.76
  L 89.98 24.68
  L 88.85 25.62
  L 87.75 26.60
  L 86.68 27.60
  L 85.62 28.62
  L 84.60 29.68
  L 83.60 30.75
  L 82.62 31.85
  L 81.68 32.98
  L 80.76 34.13
  L 79.87 35.30
  L 79.01 36.49
  L 78.17 37.70
  L 77.37 38.93
  L 76.60 40.19
  L 75.86 41.46
  L 75.15 42.74
  L 74.48 44.05
  L 73.83 45.37
  L 73.22 46.71
  L 72.64 48.06
  L 72.09 49.42
  L 71.58 50.80
  L 71.10 52.19
  L 70.66 53.59
  L 70.25 55.00
  L 69.88 56.43
  L 69.54 57.86
  L 69.23 59.29
  L 68.96 60.74
  L 68.73 62.19
  L 68.53 63.65
  L 68.37 65.11
  L 68.24 66.57
  L 68.15 68.04
  L 68.10 69.51
  L 68.08 70.98
  L 68.10 72.45
  L 68.15 73.92
  L 68.24 75.39
  L 68.37 76.85
  L 68.53 78.31
  L 68.73 79.77
  L 68.96 81.22
  L 69.23 82.67
  L 69.54 84.10
  L 69.88 85.53
  L 70.25 86.96
  L 70.66 88.37
  L 71.10 89.77
  L 71.58 91.16
  L 72.09 92.54
  L 72.64 93.90
  L 73.22 95.25
  L 73.83 96.59
  L 74.48 97.91
  L 75.15 99.22
  L 75.86 100.50
  L 76.60 101.77
  L 77.37 103.03
  L 78.17 104.26
  L 79.01 105.47
  L 79.87 106.66
  L 80.76 107.83
  L 81.68 108.98
  L 82.62 110.11
  L 83.60 111.21
  L 84.60 112.28
  L 85.62 113.34
  L 86.68 114.36
  L 87.75 115.36
  L 88.85 116.34
  L 89.98 117.28
  L 91.13 118.20
  L 92.30 119.09
  L 93.49 119.95
  L 94.70 120.79
  L 95.93 121.59
  L 97.19 122.36
  L 98.46 123.10
  L 99.74 123.81
  L 101.05 124.48
  L 102.37 125.13
  L 103.71 125.74
  L 105.06 126.32
  L 106.42 126.87
  L 107.80 127.38
  L 109.19 127.86
  L 110.59 128.30
  L 112.00 128.71
  L 113.43 129.08
  L 114.86 129.42
  L 116.29 129.73
  L 117.74 130.00
  L 119.19 130.23
  L 120.65 130.43
  L 122.11 130.59
  L 123.57 130.72
  L 125.04 130.81
  L 126.51 130.86
  L 127.98 130.88
  L 129.45 130.86
  L 130.92 130.81
  L 132.39 130.72
  L 133.85 130.59
  L 135.31 130.43
  L 136.77 130.23
  L 138.22 130.00
  L 139.67 129.73
  L 141.10 129.42
  L 142.53 129.08
  L 143.96 128.71
  L 145.37 128.30
  L 146.77 127.86
  L 148.16 127.38
  L 149.54 126.87
  L 150.90 126.32
  L 152.25 125.74
  L 153.59 125.13
  L 154.91 124.48
  L 156.22 123.81
  L 157.50 123.10
  L 158.77 122.36
  L 160.03 121.59
  L 161.26 120.79
  L 162.47 119.95
  L 163.66 119.09
  L 164.83 118.20
  L 165.98 117.28
  L 167.11 116.34
  L 168.21 115.36
  L 169.28 114.36
  L 170.34 113.34
  L 171.36 112.28
  L 172.36 111.21
  L 173.34 110.11
  L 174.28 108.98
  L 175.20 107.83
  L 176.09 106.66
  L 176.95 105.47
  L 177.79 104.26
  L 178.59 103.03
  L 179.36 101.77
  L 180.10 100.50
  L 180.81 99.22
  L 181.48 97.91
  L 182.13 96.59
  L 182.74 95.25
  L 183.32 93.90
  L 183.87 92.54
  L 184.38 91.16
  L 184.86 89.77
  L 185.30 88.37
  L 185.71 86.96
  L 186.08 85.53
  L 186.42 84.10
  L 186.73 82.67
  L 187.00 81.22
  L 187.23 79.77
  L 187.43 78.31
  L 187.59 76.85
  L 187.72 75.39
  L 187.81 73.92
  L 187.86 72.45
  L 187.88 70.98"
/>
<path stroke="#6a7175" vector-effect="non-scaling-stroke" d="
  M 82.94 122.14
  L 81.37 120.58
  L 79.85 118.99
  L 78.38 117.39
  L 76.98 115.77
  L 75.62 114.12
  L 74.32 112.45
  L 73.08 110.76
  L 71.89 109.06
  L 70.76 107.32
  L 69.68 105.57
  L 68.66 103.80
  L 67.69 102.01
  L 66.77 100.19
  L 65.91 98.36
  L 65.11 96.50
  L 64.36 94.63
  L 64.36 94.63
  L 64.36 94.63
  L 64.36 94.63
  L 63.61 92.57
  L 62.93 90.49
  L 62.31 88.39
  L 61.75 86.26
  L 61.27 84.13
  L 60.86 81.97
  L 60.53 79.78
  L 60.28 77.59
  L 60.11 75.36
  L 60.01 73.13
  L 59.98 70.88
  L 60.04 68.63
  L 60.17 66.36
  L 60.38 64.10
  L 60.66 61.83
  L 61.02 59.57
  L 61.46 57.32
  L 61.97 55.08
  L 62.55 52.86
  L 63.21 50.65
  L 63.94 48.48
  L 64.74 46.32
  L 65.61 44.19
  L 66.54 42.09
  L 67.55 40.04
  L 68.62 38.01
  L 69.75 36.03
  L 70.95 34.09
  L 72.20 32.21
  L 73.51 30.37
  L 74.88 28.59
  L 76.31 26.85
  L 77.79 25.18
  L 79.31 23.57
  L 80.90 22.01
  L 82.52 20.52
  L 82.83 20.23
  L 83.04 20.01
  L 83.15 19.84
  L 83.17 19.79
  L 83.16 19.75
  L 83.16 19.75
  L 83.16 19.75
  L 83.13 19.72
  L 83.07 19.71
  L 82.87 19.74
  L 82.58 19.83
  L 82.18 19.98
  L 79.99 20.91
  L 78.28 21.67
  L 76.58 22.47
  L 74.89 23.29
  L 73.22 24.14
  L 71.55 25.02
  L 69.90 25.94
  L 68.24 26.88
  L 66.60 27.86
  L 64.96 28.87
  L 63.33 29.91
  L 61.70 30.99
  L 60.07 32.10
  L 58.44 33.25
  L 56.81 34.43
  L 55.18 35.66
  L 53.54 36.92
  L 51.96 38.17
  L 50.37 39.46
  L 48.76 40.80
  L 47.15 42.18
  L 45.50 43.62
  L 43.84 45.10
  L 42.14 46.65
  L 40.41 48.26
  L 36.94 51.57
  L 33.18 55.25
  L 29.05 59.40
  L 23.40 65.16
  L 18.08 70.59
  L 17.95 70.77
  L 17.91 70.86
  L 17.90 70.96
  L 17.90 70.96
  L 17.90 70.96
  L 17.90 70.96
  L 17.91 71.04
  L 17.94 71.13
  L 18.07 71.31
  L 21.95 75.31
  L 27.42 80.92
  L 31.34 84.91
  L 34.85 88.41
  L 38.05 91.54
  L 41.16 94.50
  L 44.13 97.23
  L 47.00 99.77
  L 49.79 102.16
  L 51.23 103.34
  L 52.66 104.50
  L 54.08 105.61
  L 55.49 106.69
  L 56.91 107.75
  L 58.32 108.77
  L 59.72 109.76
  L 61.13 110.73
  L 62.54 111.67
  L 63.95 112.58
  L 65.38 113.47
  L 66.81 114.33
  L 68.24 115.17
  L 69.68 115.99
  L 71.14 116.79
  L 72.60 117.56
  L 75.10 118.82
  L 77.65 120.03
  L 80.23 121.17
  L 82.86 122.26
  L 82.90 122.26
  L 82.94 122.25
  L 82.96 122.22
  L 82.96 122.18
  L 82.96 122.18
  L 82.94 122.14"
/>
<path stroke="#6a7175" vector-effect="non-scaling-stroke" d="
  M 172.63 122.44
  L 172.62 122.45
  L 172.63 122.48
  L 172.66 122.48
  L 174.14 121.88
  L 175.60 121.26
  L 177.05 120.63
  L 178.47 119.98
  L 179.90 119.31
  L 181.30 118.63
  L 182.70 117.92
  L 184.08 117.20
  L 185.53 116.42
  L 186.97 115.62
  L 188.39 114.80
  L 189.81 113.95
  L 191.22 113.08
  L 192.64 112.19
  L 194.03 111.28
  L 195.43 110.33
  L 196.82 109.37
  L 198.22 108.37
  L 199.62 107.35
  L 201.02 106.29
  L 202.42 105.21
  L 203.83 104.09
  L 205.25 102.94
  L 206.68 101.75
  L 209.45 99.37
  L 212.31 96.82
  L 215.27 94.08
  L 218.38 91.11
  L 221.58 87.98
  L 225.09 84.46
  L 229.02 80.46
  L 234.53 74.80
  L 237.94 71.29
  L 238.07 71.12
  L 238.10 71.03
  L 238.11 70.95
  L 238.11 70.95
  L 238.10 70.86
  L 238.06 70.77
  L 237.93 70.59
  L 231.67 64.28
  L 225.39 58.00
  L 219.06 51.76
  L 212.71 45.54
  L 211.38 44.26
  L 210.03 43.01
  L 208.66 41.77
  L 207.28 40.56
  L 205.88 39.37
  L 204.46 38.20
  L 203.03 37.05
  L 201.58 35.93
  L 201.58 35.93
  L 201.58 35.93
  L 201.58 35.93
  L 199.97 34.72
  L 198.34 33.53
  L 196.69 32.38
  L 195.02 31.25
  L 193.33 30.14
  L 191.62 29.06
  L 189.89 28.01
  L 188.14 26.99
  L 186.37 25.99
  L 184.58 25.01
  L 182.77 24.07
  L 180.94 23.15
  L 179.09 22.25
  L 177.22 21.39
  L 175.33 20.55
  L 173.42 19.73
  L 173.35 19.71
  L 173.27 19.71
  L 173.19 19.73
  L 173.13 19.77
  L 173.08 19.83
  L 173.04 19.90
  L 173.03 19.98
  L 173.03 20.05
  L 173.03 20.05
  L 173.07 20.13
  L 173.12 20.20
  L 174.27 21.27
  L 175.40 22.36
  L 176.49 23.47
  L 177.56 24.60
  L 178.61 25.75
  L 179.63 26.93
  L 180.62 28.12
  L 181.58 29.33
  L 182.52 30.57
  L 183.43 31.82
  L 184.30 33.09
  L 185.15 34.37
  L 185.97 35.67
  L 186.76 36.99
  L 187.51 38.33
  L 188.24 39.68
  L 188.93 41.04
  L 189.60 42.42
  L 190.23 43.81
  L 190.83 45.21
  L 191.39 46.62
  L 191.92 48.05
  L 192.42 49.48
  L 192.89 50.93
  L 193.32 52.38
  L 193.72 53.84
  L 194.09 55.31
  L 194.42 56.79
  L 194.72 58.28
  L 194.98 59.77
  L 195.21 61.26
  L 195.41 62.76
  L 195.54 64.03
  L 195.66 65.30
  L 195.74 66.58
  L 195.81 67.86
  L 195.84 69.14
  L 195.86 70.43
  L 195.85 71.71
  L 195.81 72.99
  L 195.75 74.32
  L 195.66 75.64
  L 195.55 76.95
  L 195.42 78.25
  L 195.27 79.55
  L 195.09 80.84
  L 194.89 82.12
  L 194.67 83.39
  L 194.42 84.65
  L 194.15 85.90
  L 193.85 87.15
  L 193.54 88.39
  L 193.20 89.62
  L 192.84 90.84
  L 192.45 92.06
  L 192.04 93.27
  L 192.04 93.27
  L 192.04 93.27
  L 192.04 93.27
  L 191.31 95.26
  L 190.51 97.23
  L 189.65 99.17
  L 188.73 101.10
  L 187.74 103.00
  L 186.69 104.88
  L 185.57 106.74
  L 184.39 108.57
  L 183.14 110.38
  L 181.83 112.17
  L 180.46 113.94
  L 179.02 115.68
  L 177.52 117.41
  L 175.95 119.11
  L 174.32 120.78
  L 172.63 122.44"
/>
<path stroke="#456674" vector-effect="non-scaling-stroke" d="
  M 132.00 15.31
  L 131.98 15.19
  L 131.91 15.09
  L 131.81 15.02
  L 131.69 15.00
  L 124.31 15.00
  L 124.19 15.02
  L 124.09 15.09
  L 124.02 15.19
  L 124.00 15.31
  L 124.00 30.69
  L 124.02 30.81
  L 124.09 30.91
  L 124.19 30.98
  L 124.31 31.00
  L 131.69 31.00
  L 131.81 30.98
  L 131.91 30.91
  L 131.98 30.81
  L 132.00 30.69
  L 132.00 15.31"
/>
<path stroke="#456674" vector-effect="non-scaling-stroke" d="
  M 115.30 20.65
  L 114.07 20.98
  L 112.86 21.35
  L 111.65 21.74
  L 110.45 22.16
  L 109.26 22.61
  L 108.08 23.08
  L 106.92 23.58
  L 105.78 24.11
  L 104.64 24.67
  L 103.52 25.25
  L 102.41 25.86
  L 101.33 26.50
  L 100.25 27.16
  L 99.19 27.85
  L 98.15 28.56
  L 97.13 29.29
  L 96.13 30.05
  L 95.14 30.84
  L 94.17 31.64
  L 93.23 32.47
  L 92.30 33.32
  L 91.40 34.20
  L 90.52 35.09
  L 89.66 36.01
  L 88.82 36.95
  L 88.01 37.90
  L 87.21 38.88
  L 86.45 39.87
  L 85.70 40.88
  L 84.99 41.91
  L 84.29 42.96
  L 83.62 44.03
  L 82.64 45.71
  L 81.72 47.43
  L 80.86 49.19
  L 80.07 50.98
  L 79.35 52.79
  L 78.69 54.63
  L 78.11 56.50
  L 77.59 58.40
  L 77.56 58.54
  L 77.56 58.66
  L 77.59 58.77
  L 77.63 58.85
  L 77.70 58.92
  L 77.80 58.96
  L 77.92 58.99
  L 78.06 59.00
  L 85.00 59.00
  L 85.28 58.96
  L 85.39 58.92
  L 85.50 58.86
  L 85.50 58.86
  L 85.50 58.86
  L 85.50 58.86
  L 85.59 58.78
  L 85.66 58.68
  L 85.78 58.43
  L 86.26 57.05
  L 86.77 55.71
  L 87.31 54.39
  L 87.88 53.10
  L 88.47 51.84
  L 89.10 50.61
  L 89.75 49.40
  L 90.43 48.23
  L 91.15 47.09
  L 91.89 45.97
  L 92.66 44.89
  L 93.46 43.83
  L 94.28 42.80
  L 95.14 41.80
  L 96.03 40.83
  L 96.94 39.89
  L 96.94 39.89
  L 96.94 39.89
  L 96.94 39.89
  L 96.94 39.89
  L 97.88 38.98
  L 98.85 38.10
  L 99.85 37.25
  L 100.87 36.43
  L 101.93 35.64
  L 103.01 34.87
  L 104.12 34.14
  L 105.26 33.43
  L 106.43 32.75
  L 107.63 32.10
  L 108.86 31.48
  L 110.11 30.89
  L 111.40 30.33
  L 112.71 29.79
  L 114.05 29.29
  L 115.42 28.81
  L 115.68 28.68
  L 115.78 28.60
  L 115.86 28.50
  L 115.86 28.50
  L 115.92 28.40
  L 115.96 28.28
  L 116.00 28.00
  L 116.00 21.19
  L 115.99 21.02
  L 115.96 20.89
  L 115.90 20.78
  L 115.83 20.70
  L 115.83 20.70
  L 115.83 20.70
  L 115.73 20.64
  L 115.61 20.62
  L 115.46 20.62
  L 115.30 20.65"
/>
<path stroke="#456674" vector-effect="non-scaling-stroke" d="
  M 140.42 28.82
  L 141.95 29.36
  L 143.45 29.93
  L 144.91 30.54
  L 146.34 31.19
  L 147.73 31.87
  L 149.09 32.58
  L 150.41 33.33
  L 151.70 34.12
  L 152.94 34.94
  L 154.16 35.79
  L 155.33 36.68
  L 156.48 37.61
  L 157.58 38.56
  L 158.65 39.56
  L 159.68 40.58
  L 160.67 41.65
  L 161.45 42.53
  L 162.20 43.44
  L 162.93 44.36
  L 163.63 45.32
  L 164.31 46.29
  L 164.97 47.28
  L 165.60 48.30
  L 166.20 49.34
  L 166.78 50.39
  L 167.33 51.47
  L 167.86 52.57
  L 168.37 53.69
  L 168.84 54.83
  L 169.30 56.00
  L 169.73 57.18
  L 170.13 58.39
  L 170.18 58.53
  L 170.25 58.66
  L 170.34 58.76
  L 170.43 58.85
  L 170.43 58.85
  L 170.54 58.91
  L 170.67 58.96
  L 170.81 58.99
  L 170.96 59.00
  L 177.99 59.00
  L 178.16 58.99
  L 178.29 58.96
  L 178.40 58.90
  L 178.48 58.83
  L 178.48 58.83
  L 178.48 58.83
  L 178.48 58.83
  L 178.53 58.73
  L 178.55 58.61
  L 178.54 58.47
  L 178.50 58.31
  L 177.94 56.50
  L 177.34 54.74
  L 176.70 53.01
  L 176.01 51.33
  L 175.29 49.68
  L 174.53 48.08
  L 173.73 46.52
  L 172.88 44.99
  L 172.00 43.51
  L 171.08 42.06
  L 170.12 40.66
  L 169.11 39.30
  L 168.07 37.97
  L 166.99 36.69
  L 165.86 35.45
  L 164.70 34.24
  L 164.70 34.24
  L 164.70 34.24
  L 164.70 34.24
  L 164.70 34.24
  L 164.70 34.24
  L 163.50 33.08
  L 162.26 31.97
  L 160.98 30.89
  L 159.66 29.85
  L 158.30 28.85
  L 156.90 27.89
  L 155.46 26.97
  L 153.98 26.09
  L 152.46 25.25
  L 150.90 24.45
  L 149.30 23.69
  L 147.66 22.97
  L 145.98 22.29
  L 144.26 21.65
  L 142.50 21.05
  L 140.70 20.49
  L 140.59 20.47
  L 140.47 20.47
  L 140.36 20.50
  L 140.25 20.55
  L 140.16 20.62
  L 140.09 20.71
  L 140.03 20.82
  L 140.01 20.93
  L 140.00 21.01
  L 140.00 28.24
  L 140.03 28.43
  L 140.12 28.60
  L 140.25 28.73
  L 140.42 28.82"
/>
<path stroke="#456674" vector-effect="non-scaling-stroke" d="
  M 155.81 50.82
  L 155.79 50.48
  L 155.74 50.16
  L 155.65 49.85
  L 155.54 49.56
  L 155.42 49.33
  L 155.28 49.12
  L 155.12 48.90
  L 154.94 48.71
  L 154.74 48.52
  L 154.52 48.34
  L 154.01 48.01
  L 153.42 47.72
  L 152.74 47.46
  L 151.97 47.25
  L 151.12 47.06
  L 150.20 46.92
  L 149.20 46.81
  L 148.10 46.74
  L 146.91 46.70
  L 145.64 46.69
  L 144.23 46.70
  L 142.67 46.75
  L 140.58 46.84
  L 138.40 46.93
  L 136.98 46.96
  L 136.43 46.98
  L 135.92 47.03
  L 135.44 47.12
  L 134.99 47.24
  L 134.57 47.39
  L 134.19 47.58
  L 133.83 47.80
  L 133.52 48.05
  L 133.26 48.30
  L 133.03 48.57
  L 132.83 48.87
  L 132.64 49.19
  L 132.48 49.53
  L 132.33 49.91
  L 132.21 50.31
  L 132.11 50.75
  L 132.03 51.19
  L 131.96 51.67
  L 131.89 52.75
  L 131.88 53.97
  L 131.93 55.66
  L 131.98 57.31
  L 131.96 58.42
  L 131.94 58.56
  L 131.91 58.67
  L 131.86 58.77
  L 131.79 58.86
  L 131.79 58.86
  L 131.71 58.92
  L 131.61 58.96
  L 131.49 58.99
  L 131.35 59.00
  L 120.98 59.00
  L 120.43 59.02
  L 119.91 59.07
  L 119.43 59.15
  L 118.99 59.27
  L 118.56 59.42
  L 118.18 59.61
  L 117.82 59.83
  L 117.50 60.08
  L 117.25 60.33
  L 117.02 60.59
  L 116.81 60.89
  L 116.63 61.21
  L 116.47 61.55
  L 116.32 61.94
  L 116.20 62.33
  L 116.10 62.77
  L 116.02 63.22
  L 115.95 63.69
  L 115.88 64.77
  L 115.87 65.99
  L 115.92 67.69
  L 115.98 69.32
  L 115.96 70.42
  L 115.94 70.56
  L 115.91 70.68
  L 115.86 70.78
  L 115.79 70.86
  L 115.79 70.86
  L 115.70 70.93
  L 115.60 70.97
  L 115.48 71.00
  L 115.34 71.01
  L 114.25 70.98
  L 112.53 70.87
  L 109.86 70.72
  L 108.81 70.69
  L 107.86 70.69
  L 106.96 70.71
  L 106.12 70.77
  L 105.35 70.86
  L 104.62 70.98
  L 103.94 71.14
  L 103.31 71.33
  L 102.74 71.55
  L 102.23 71.80
  L 101.77 72.10
  L 101.36 72.42
  L 101.00 72.79
  L 100.70 73.18
  L 100.54 73.45
  L 100.40 73.74
  L 100.28 74.03
  L 100.18 74.35
  L 100.10 74.68
  L 100.04 75.02
  L 100.00 75.38
  L 99.99 75.75
  L 99.97 79.61
  L 99.97 83.45
  L 100.00 87.27
  L 100.04 91.08
  L 100.06 91.47
  L 100.12 91.85
  L 100.22 92.22
  L 100.36 92.58
  L 100.53 92.93
  L 100.73 93.26
  L 100.96 93.57
  L 101.22 93.85
  L 101.51 94.11
  L 101.82 94.34
  L 102.15 94.54
  L 102.50 94.70
  L 102.87 94.83
  L 103.24 94.92
  L 103.62 94.98
  L 104.01 95.00
  L 151.26 95.00
  L 151.83 94.98
  L 152.37 94.93
  L 152.87 94.83
  L 153.33 94.70
  L 153.76 94.54
  L 154.14 94.33
  L 154.50 94.09
  L 154.81 93.82
  L 154.81 93.82
  L 154.81 93.82
  L 154.81 93.82
  L 154.81 93.82
  L 155.09 93.50
  L 155.33 93.15
  L 155.53 92.76
  L 155.70 92.34
  L 155.83 91.88
  L 155.92 91.38
  L 155.98 90.84
  L 156.00 90.27
  L 156.01 80.52
  L 155.98 70.70
  L 155.92 60.80
  L 155.81 50.82"
/>
<path stroke="#456674" vector-effect="non-scaling-stroke" d="
  M 88.00 67.31
  L 87.98 67.19
  L 87.91 67.09
  L 87.81 67.02
  L 87.69 67.00
  L 72.31 67.00
  L 72.19 67.02
  L 72.09 67.09
  L 72.02 67.19
  L 72.00 67.31
  L 72.00 74.69
  L 72.02 74.81
  L 72.09 74.91
  L 72.19 74.98
  L 72.31 75.00
  L 87.69 75.00
  L 87.81 74.98
  L 87.91 74.91
  L 87.98 74.81
  L 88.00 74.69
  L 88.00 67.31"
/>
<path stroke="#456674" vector-effect="non-scaling-stroke" d="
  M 183.9838 67.4160
  L 183.9507 67.2515
  L 183.8573 67.1122
  L 183.7176 67.0192
  L 183.5530 66.9868
  L 168.4130 67.0132
  L 168.2485 67.0462
  L 168.1092 67.1397
  L 168.0162 67.2794
  L 167.9838 67.4440
  L 167.9962 74.5840
  L 168.0293 74.7485
  L 168.1227 74.8878
  L 168.2624 74.9808
  L 168.4270 75.0132
  L 183.5670 74.9868
  L 183.7315 74.9538
  L 183.8708 74.8603
  L 183.9638 74.7206
  L 183.9962 74.5560
  L 183.9838 67.4160"
/>
<path stroke="#456674" vector-effect="non-scaling-stroke" d="
  M 115.35 113.13
  L 113.98 112.65
  L 112.64 112.14
  L 111.32 111.61
  L 110.04 111.04
  L 108.78 110.45
  L 107.55 109.82
  L 106.35 109.17
  L 105.18 108.49
  L 104.04 107.78
  L 102.93 107.04
  L 101.85 106.27
  L 100.80 105.47
  L 99.77 104.65
  L 98.78 103.79
  L 97.81 102.91
  L 96.87 102.00
  L 96.87 102.00
  L 96.87 102.00
  L 96.87 102.00
  L 96.87 102.00
  L 96.87 102.00
  L 96.87 102.00
  L 96.87 102.00
  L 95.97 101.06
  L 95.09 100.10
  L 94.24 99.11
  L 93.43 98.08
  L 92.64 97.03
  L 91.88 95.95
  L 91.14 94.85
  L 90.44 93.71
  L 89.76 92.54
  L 89.12 91.35
  L 88.50 90.13
  L 87.91 88.88
  L 87.35 87.60
  L 86.82 86.29
  L 86.31 84.95
  L 85.84 83.59
  L 85.72 83.34
  L 85.63 83.24
  L 85.54 83.15
  L 85.54 83.15
  L 85.54 83.15
  L 85.43 83.09
  L 85.30 83.04
  L 85.16 83.01
  L 85.01 83.00
  L 78.01 83.00
  L 77.84 83.01
  L 77.71 83.04
  L 77.60 83.10
  L 77.52 83.17
  L 77.47 83.27
  L 77.45 83.39
  L 77.45 83.53
  L 77.49 83.69
  L 78.05 85.49
  L 78.65 87.25
  L 79.30 88.98
  L 79.98 90.66
  L 80.70 92.30
  L 81.46 93.90
  L 82.26 95.46
  L 83.11 96.99
  L 83.99 98.47
  L 84.91 99.91
  L 85.87 101.31
  L 86.87 102.67
  L 87.92 103.99
  L 89.00 105.28
  L 90.12 106.52
  L 91.28 107.72
  L 91.28 107.72
  L 91.28 107.72
  L 91.28 107.72
  L 91.28 107.72
  L 91.28 107.72
  L 91.28 107.72
  L 92.49 108.88
  L 93.73 110.00
  L 95.01 111.08
  L 96.33 112.12
  L 97.70 113.12
  L 99.10 114.09
  L 100.54 115.01
  L 102.03 115.89
  L 103.55 116.73
  L 105.11 117.53
  L 106.71 118.29
  L 108.36 119.01
  L 110.04 119.69
  L 111.76 120.33
  L 113.53 120.93
  L 115.33 121.49
  L 115.49 121.53
  L 115.62 121.53
  L 115.74 121.51
  L 115.83 121.47
  L 115.83 121.47
  L 115.91 121.39
  L 115.96 121.28
  L 115.99 121.15
  L 116.00 120.99
  L 116.00 114.03
  L 115.99 113.87
  L 115.96 113.72
  L 115.91 113.59
  L 115.84 113.47
  L 115.84 113.47
  L 115.84 113.47
  L 115.75 113.36
  L 115.64 113.27
  L 115.50 113.19
  L 115.35 113.13"
/>
<path stroke="#456674" vector-effect="non-scaling-stroke" d="
  M 170.12 83.63
  L 169.65 85.00
  L 169.15 86.33
  L 168.62 87.64
  L 168.06 88.92
  L 167.48 90.17
  L 166.86 91.40
  L 166.22 92.59
  L 165.54 93.76
  L 164.84 94.89
  L 164.11 96.00
  L 163.35 97.08
  L 162.56 98.13
  L 161.75 99.15
  L 160.90 100.15
  L 160.03 101.11
  L 159.12 102.05
  L 159.12 102.05
  L 159.12 102.05
  L 158.18 102.96
  L 157.22 103.84
  L 156.22 104.69
  L 155.19 105.52
  L 154.14 106.32
  L 153.06 107.08
  L 151.94 107.82
  L 150.80 108.53
  L 149.63 109.21
  L 148.43 109.86
  L 147.20 110.48
  L 145.94 111.07
  L 144.65 111.63
  L 143.33 112.17
  L 141.99 112.67
  L 140.61 113.15
  L 140.47 113.21
  L 140.34 113.28
  L 140.24 113.36
  L 140.15 113.46
  L 140.15 113.46
  L 140.15 113.46
  L 140.15 113.46
  L 140.09 113.57
  L 140.04 113.70
  L 140.01 113.84
  L 140.00 113.99
  L 140.00 121.03
  L 140.01 121.13
  L 140.04 121.23
  L 140.10 121.32
  L 140.17 121.40
  L 140.25 121.46
  L 140.35 121.50
  L 140.45 121.52
  L 140.55 121.51
  L 140.55 121.51
  L 140.62 121.50
  L 142.43 120.94
  L 144.20 120.34
  L 145.92 119.71
  L 147.61 119.03
  L 149.26 118.31
  L 150.86 117.55
  L 152.43 116.75
  L 153.95 115.91
  L 155.44 115.03
  L 156.89 114.11
  L 158.29 113.15
  L 159.65 112.15
  L 160.98 111.10
  L 162.26 110.02
  L 163.51 108.90
  L 164.71 107.74
  L 164.71 107.74
  L 164.71 107.74
  L 165.87 106.53
  L 167.00 105.29
  L 168.08 104.01
  L 169.12 102.69
  L 170.12 101.32
  L 171.08 99.92
  L 172.00 98.48
  L 172.88 96.99
  L 173.72 95.47
  L 174.52 93.90
  L 175.28 92.30
  L 176.00 90.65
  L 176.68 88.97
  L 177.32 87.24
  L 177.92 85.48
  L 178.48 83.67
  L 178.50 83.60
  L 178.50 83.48
  L 178.48 83.38
  L 178.44 83.27
  L 178.37 83.18
  L 178.29 83.10
  L 178.20 83.05
  L 178.09 83.01
  L 177.98 83.00
  L 170.99 83.00
  L 170.83 83.01
  L 170.69 83.04
  L 170.56 83.09
  L 170.45 83.15
  L 170.45 83.15
  L 170.45 83.15
  L 170.45 83.15
  L 170.34 83.24
  L 170.25 83.35
  L 170.18 83.48
  L 170.12 83.63"
/>
<path stroke="#456674" vector-effect="non-scaling-stroke" d="
  M 132.00 111.31
  L 131.98 111.19
  L 131.91 111.09
  L 131.81 111.02
  L 131.69 111.00
  L 124.31 111.00
  L 124.19 111.02
  L 124.09 111.09
  L 124.02 111.19
  L 124.00 111.31
  L 124.00 126.69
  L 124.02 126.81
  L 124.09 126.91
  L 124.19 126.98
  L 124.31 127.00
  L 131.69 127.00
  L 131.81 126.98
  L 131.91 126.91
  L 131.98 126.81
  L 132.00 126.69
  L 132.00 111.31"
/>
<path stroke="#26523c" vector-effect="non-scaling-stroke" d="
  M 148.00 55.65
  L 147.99 55.52
  L 147.95 55.40
  L 147.89 55.29
  L 147.81 55.19
  L 147.71 55.11
  L 147.60 55.05
  L 147.48 55.01
  L 147.35 55.00
  L 140.65 55.00
  L 140.52 55.01
  L 140.40 55.05
  L 140.29 55.11
  L 140.19 55.19
  L 140.11 55.29
  L 140.05 55.40
  L 140.01 55.52
  L 140.00 55.65
  L 140.00 86.35
  L 140.01 86.48
  L 140.05 86.60
  L 140.11 86.71
  L 140.19 86.81
  L 140.29 86.89
  L 140.40 86.95
  L 140.52 86.99
  L 140.65 87.00
  L 147.35 87.00
  L 147.48 86.99
  L 147.60 86.95
  L 147.71 86.89
  L 147.81 86.81
  L 147.89 86.71
  L 147.95 86.60
  L 147.99 86.48
  L 148.00 86.35
  L 148.00 55.65"
/>
<path stroke="#775f1a" vector-effect="non-scaling-stroke" d="
  M 132.00 67.52
  L 131.96 67.32
  L 131.85 67.15
  L 131.68 67.04
  L 131.48 67.00
  L 124.52 67.00
  L 124.32 67.04
  L 124.15 67.15
  L 124.04 67.32
  L 124.00 67.52
  L 124.00 86.48
  L 124.04 86.68
  L 124.15 86.85
  L 124.32 86.96
  L 124.52 87.00
  L 131.48 87.00
  L 131.68 86.96
  L 131.85 86.85
  L 131.96 86.68
  L 132.00 86.48
  L 132.00 67.52"
/>
<path stroke="#722627" vector-effect="non-scaling-stroke" d="
  M 116.0327 79.7680
  L 116.0195 79.6235
  L 115.9783 79.4844
  L 115.9108 79.3560
  L 115.8196 79.2432
  L 115.7081 79.1504
  L 115.5806 79.0812
  L 115.4421 79.0381
  L 115.2978 79.0229
  L 108.7780 78.9773
  L 108.6335 78.9905
  L 108.4944 79.0317
  L 108.3660 79.0992
  L 108.2532 79.1904
  L 108.1604 79.3019
  L 108.0912 79.4294
  L 108.0481 79.5679
  L 108.0329 79.7122
  L 107.9873 86.2320
  L 108.0005 86.3765
  L 108.0417 86.5156
  L 108.1092 86.6440
  L 108.2004 86.7568
  L 108.3119 86.8496
  L 108.4394 86.9188
  L 108.5779 86.9619
  L 108.7222 86.9771
  L 115.2420 87.0227
  L 115.3865 87.0095
  L 115.5256 86.9683
  L 115.6540 86.9008
  L 115.7668 86.8096
  L 115.8596 86.6981
  L 115.9288 86.5706
  L 115.9719 86.4321
  L 115.9871 86.2878
  L 116.0327 79.7680"
/>
</g>
<path fill="#000000" d="
  M 217.06 38.94
  L 219.48 41.23
  L 222.15 43.80
  L 225.07 46.65
  L 228.24 49.78
  L 231.66 53.19
  L 235.33 56.87
  L 243.41 65.08
  L 244.69 66.34
  L 245.57 67.21
  L 246.16 67.82
  L 246.63 68.36
  L 247.01 68.86
  L 247.32 69.35
  L 247.54 69.82
  L 247.68 70.28
  L 247.74 70.74
  L 247.73 71.20
  L 247.64 71.68
  L 247.48 72.17
  L 247.24 72.68
  L 246.91 73.20
  L 246.51 73.76
  L 246.02 74.33
  L 245.44 74.94
  L 241.54 78.88
  L 236.14 84.39
  L 231.23 89.42
  L 227.63 93.07
  L 224.38 96.30
  L 221.40 99.20
  L 218.52 101.93
  L 215.79 104.42
  L 213.20 106.71
  L 210.72 108.81
  L 208.73 110.42
  L 206.71 111.99
  L 204.67 113.53
  L 202.60 115.01
  L 200.50 116.46
  L 198.38 117.87
  L 196.23 119.23
  L 194.07 120.55
  L 191.87 121.83
  L 189.66 123.06
  L 187.42 124.25
  L 185.17 125.39
  L 182.88 126.50
  L 180.59 127.55
  L 178.27 128.56
  L 175.93 129.52
  L 173.57 130.44
  L 171.20 131.31
  L 168.81 132.14
  L 166.41 132.91
  L 163.99 133.64
  L 161.56 134.32
  L 159.12 134.96
  L 156.66 135.54
  L 154.20 136.08
  L 151.72 136.57
  L 149.23 137.01
  L 146.74 137.40
  L 144.24 137.75
  L 141.74 138.04
  L 139.23 138.28
  L 136.71 138.48
  L 133.68 138.65
  L 130.64 138.75
  L 127.60 138.77
  L 124.57 138.73
  L 121.53 138.61
  L 118.50 138.42
  L 115.47 138.16
  L 112.44 137.82
  L 109.43 137.42
  L 106.43 136.94
  L 103.44 136.40
  L 100.47 135.78
  L 97.50 135.09
  L 94.55 134.34
  L 91.63 133.51
  L 88.72 132.61
  L 85.84 131.65
  L 82.97 130.62
  L 80.13 129.52
  L 77.32 128.36
  L 74.53 127.13
  L 71.77 125.83
  L 69.05 124.47
  L 66.34 123.04
  L 63.68 121.55
  L 61.05 119.99
  L 58.45 118.38
  L 55.88 116.69
  L 53.35 114.96
  L 50.86 113.15
  L 48.41 111.29
  L 45.99 109.37
  L 44.66 108.27
  L 43.30 107.13
  L 40.51 104.69
  L 37.58 102.03
  L 34.49 99.11
  L 31.31 96.03
  L 27.84 92.58
  L 24.01 88.70
  L 18.81 83.36
  L 13.62 78.03
  L 9.86 74.22
  L 9.48 73.82
  L 9.15 73.41
  L 8.88 73.01
  L 8.65 72.60
  L 8.48 72.20
  L 8.35 71.80
  L 8.27 71.39
  L 8.25 70.99
  L 8.25 70.99
  L 8.25 70.99
  L 8.28 70.59
  L 8.35 70.18
  L 8.48 69.78
  L 8.65 69.38
  L 8.88 68.98
  L 9.16 68.57
  L 9.48 68.17
  L 9.86 67.77
  L 13.77 63.82
  L 19.17 58.28
  L 24.28 53.03
  L 28.04 49.22
  L 31.45 45.83
  L 34.57 42.80
  L 37.60 39.94
  L 40.47 37.32
  L 43.21 34.92
  L 44.54 33.80
  L 45.84 32.72
  L 47.74 31.20
  L 49.65 29.72
  L 51.59 28.27
  L 53.55 26.87
  L 55.54 25.49
  L 57.54 24.16
  L 59.57 22.87
  L 61.61 21.61
  L 63.68 20.40
  L 65.77 19.22
  L 67.87 18.08
  L 69.99 16.99
  L 72.14 15.93
  L 74.29 14.91
  L 76.47 13.93
  L 78.66 12.99
  L 80.87 12.10
  L 83.09 11.25
  L 85.33 10.43
  L 87.58 9.66
  L 89.84 8.93
  L 92.11 8.25
  L 94.40 7.61
  L 96.70 7.00
  L 99.01 6.45
  L 101.32 5.93
  L 103.65 5.46
  L 105.99 5.03
  L 108.33 4.65
  L 110.68 4.31
  L 113.03 4.01
  L 115.38 3.76
  L 117.10 3.60
  L 118.82 3.47
  L 120.54 3.36
  L 122.25 3.27
  L 123.97 3.21
  L 125.69 3.17
  L 127.41 3.15
  L 129.13 3.16
  L 130.85 3.19
  L 132.58 3.24
  L 134.30 3.32
  L 136.02 3.42
  L 137.73 3.54
  L 139.45 3.68
  L 141.16 3.85
  L 142.88 4.05
  L 144.59 4.26
  L 146.29 4.50
  L 148.00 4.76
  L 149.70 5.04
  L 151.39 5.35
  L 153.08 5.68
  L 154.77 6.03
  L 156.45 6.41
  L 158.13 6.80
  L 159.80 7.22
  L 161.47 7.67
  L 163.14 8.13
  L 164.79 8.62
  L 166.44 9.13
  L 168.09 9.66
  L 169.73 10.22
  L 171.35 10.79
  L 172.97 11.39
  L 174.59 12.01
  L 176.20 12.65
  L 177.79 13.31
  L 179.38 13.99
  L 180.97 14.70
  L 182.54 15.43
  L 184.10 16.18
  L 185.65 16.94
  L 187.20 17.73
  L 188.73 18.55
  L 190.26 19.38
  L 191.77 20.23
  L 193.28 21.10
  L 194.77 22.00
  L 196.26 22.91
  L 197.73 23.84
  L 199.19 24.80
  L 200.63 25.77
  L 202.07 26.76
  L 203.50 27.78
  L 204.91 28.81
  L 206.31 29.86
  L 207.70 30.93
  L 209.08 32.02
  L 210.44 33.12
  L 211.79 34.25
  L 213.13 35.39
  L 214.45 36.56
  L 215.76 37.74
  L 217.06 38.94
  Z
  M 187.88 70.98
  L 187.86 69.51
  L 187.81 68.04
  L 187.72 66.57
  L 187.59 65.11
  L 187.43 63.65
  L 187.23 62.19
  L 187.00 60.74
  L 186.73 59.29
  L 186.42 57.86
  L 186.08 56.43
  L 185.71 55.00
  L 185.30 53.59
  L 184.86 52.19
  L 184.38 50.80
  L 183.87 49.42
  L 183.32 48.06
  L 182.74 46.71
  L 182.13 45.37
  L 181.48 44.05
  L 180.81 42.74
  L 180.10 41.46
  L 179.36 40.19
  L 178.59 38.93
  L 177.79 37.70
  L 176.95 36.49
  L 176.09 35.30
  L 175.20 34.13
  L 174.28 32.98
  L 173.34 31.85
  L 172.36 30.75
  L 171.36 29.68
  L 170.34 28.62
  L 169.28 27.60
  L 168.21 26.60
  L 167.11 25.62
  L 165.98 24.68
  L 164.83 23.76
  L 163.66 22.87
  L 162.47 22.01
  L 161.26 21.17
  L 160.03 20.37
  L 158.77 19.60
  L 157.50 18.86
  L 156.22 18.15
  L 154.91 17.48
  L 153.59 16.83
  L 152.25 16.22
  L 150.90 15.64
  L 149.54 15.09
  L 148.16 14.58
  L 146.77 14.10
  L 145.37 13.66
  L 143.96 13.25
  L 142.53 12.88
  L 141.10 12.54
  L 139.67 12.23
  L 138.22 11.96
  L 136.77 11.73
  L 135.31 11.53
  L 133.85 11.37
  L 132.39 11.24
  L 130.92 11.15
  L 129.45 11.10
  L 127.98 11.08
  L 126.51 11.10
  L 125.04 11.15
  L 123.57 11.24
  L 122.11 11.37
  L 120.65 11.53
  L 119.19 11.73
  L 117.74 11.96
  L 116.29 12.23
  L 114.86 12.54
  L 113.43 12.88
  L 112.00 13.25
  L 110.59 13.66
  L 109.19 14.10
  L 107.80 14.58
  L 106.42 15.09
  L 105.06 15.64
  L 103.71 16.22
  L 102.37 16.83
  L 101.05 17.48
  L 99.74 18.15
  L 98.46 18.86
  L 97.19 19.60
  L 95.93 20.37
  L 94.70 21.17
  L 93.49 22.01
  L 92.30 22.87
  L 91.13 23.76
  L 89.98 24.68
  L 88.85 25.62
  L 87.75 26.60
  L 86.68 27.60
  L 85.62 28.62
  L 84.60 29.68
  L 83.60 30.75
  L 82.62 31.85
  L 81.68 32.98
  L 80.76 34.13
  L 79.87 35.30
  L 79.01 36.49
  L 78.17 37.70
  L 77.37 38.93
  L 76.60 40.19
  L 75.86 41.46
  L 75.15 42.74
  L 74.48 44.05
  L 73.83 45.37
  L 73.22 46.71
  L 72.64 48.06
  L 72.09 49.42
  L 71.58 50.80
  L 71.10 52.19
  L 70.66 53.59
  L 70.25 55.00
  L 69.88 56.43
  L 69.54 57.86
  L 69.23 59.29
  L 68.96 60.74
  L 68.73 62.19
  L 68.53 63.65
  L 68.37 65.11
  L 68.24 66.57
  L 68.15 68.04
  L 68.10 69.51
  L 68.08 70.98
  L 68.10 72.45
  L 68.15 73.92
  L 68.24 75.39
  L 68.37 76.85
  L 68.53 78.31
  L 68.73 79.77
  L 68.96 81.22
  L 69.23 82.67
  L 69.54 84.10
  L 69.88 85.53
  L 70.25 86.96
  L 70.66 88.37
  L 71.10 89.77
  L 71.58 91.16
  L 72.09 92.54
  L 72.64 93.90
  L 73.22 95.25
  L 73.83 96.59
  L 74.48 97.91
  L 75.15 99.22
  L 75.86 100.50
  L 76.60 101.77
  L 77.37 103.03
  L 78.17 104.26
  L 79.01 105.47
  L 79.87 106.66
  L 80.76 107.83
  L 81.68 108.98
  L 82.62 110.11
  L 83.60 111.21
  L 84.60 112.28
  L 85.62 113.34
  L 86.68 114.36
  L 87.75 115.36
  L 88.85 116.34
  L 89.98 117.28
  L 91.13 118.20
  L 92.30 119.09
  L 93.49 119.95
  L 94.70 120.79
  L 95.93 121.59
  L 97.19 122.36
  L 98.46 123.10
  L 99.74 123.81
  L 101.05 124.48
  L 102.37 125.13
  L 103.71 125.74
  L 105.06 126.32
  L 106.42 126.87
  L 107.80 127.38
  L 109.19 127.86
  L 110.59 128.30
  L 112.00 128.71
  L 113.43 129.08
  L 114.86 129.42
  L 116.29 129.73
  L 117.74 130.00
  L 119.19 130.23
  L 120.65 130.43
  L 122.11 130.59
  L 123.57 130.72
  L 125.04 130.81
  L 126.51 130.86
  L 127.98 130.88
  L 129.45 130.86
  L 130.92 130.81
  L 132.39 130.72
  L 133.85 130.59
  L 135.31 130.43
  L 136.77 130.23
  L 138.22 130.00
  L 139.67 129.73
  L 141.10 129.42
  L 142.53 129.08
  L 143.96 128.71
  L 145.37 128.30
  L 146.77 127.86
  L 148.16 127.38
  L 149.54 126.87
  L 150.90 126.32
  L 152.25 125.74
  L 153.59 125.13
  L 154.91 124.48
  L 156.22 123.81
  L 157.50 123.10
  L 158.77 122.36
  L 160.03 121.59
  L 161.26 120.79
  L 162.47 119.95
  L 163.66 119.09
  L 164.83 118.20
  L 165.98 117.28
  L 167.11 116.34
  L 168.21 115.36
  L 169.28 114.36
  L 170.34 113.34
  L 171.36 112.28
  L 172.36 111.21
  L 173.34 110.11
  L 174.28 108.98
  L 175.20 107.83
  L 176.09 106.66
  L 176.95 105.47
  L 177.79 104.26
  L 178.59 103.03
  L 179.36 101.77
  L 180.10 100.50
  L 180.81 99.22
  L 181.48 97.91
  L 182.13 96.59
  L 182.74 95.25
  L 183.32 93.90
  L 183.87 92.54
  L 184.38 91.16
  L 184.86 89.77
  L 185.30 88.37
  L 185.71 86.96
  L 186.08 85.53
  L 186.42 84.10
  L 186.73 82.67
  L 187.00 81.22
  L 187.23 79.77
  L 187.43 78.31
  L 187.59 76.85
  L 187.72 75.39
  L 187.81 73.92
  L 187.86 72.45
  L 187.88 70.98
  Z
  M 82.94 122.14
  L 81.37 120.58
  L 79.85 118.99
  L 78.38 117.39
  L 76.98 115.77
  L 75.62 114.12
  L 74.32 112.45
  L 73.08 110.76
  L 71.89 109.06
  L 70.76 107.32
  L 69.68 105.57
  L 68.66 103.80
  L 67.69 102.01
  L 66.77 100.19
  L 65.91 98.36
  L 65.11 96.50
  L 64.36 94.63
  L 64.36 94.63
  L 64.36 94.63
  L 64.36 94.63
  L 63.61 92.57
  L 62.93 90.49
  L 62.31 88.39
  L 61.75 86.26
  L 61.27 84.13
  L 60.86 81.97
  L 60.53 79.78
  L 60.28 77.59
  L 60.11 75.36
  L 60.01 73.13
  L 59.98 70.88
  L 60.04 68.63
  L 60.17 66.36
  L 60.38 64.10
  L 60.66 61.83
  L 61.02 59.57
  L 61.46 57.32
  L 61.97 55.08
  L 62.55 52.86
  L 63.21 50.65
  L 63.94 48.48
  L 64.74 46.32
  L 65.61 44.19
  L 66.54 42.09
  L 67.55 40.04
  L 68.62 38.01
  L 69.75 36.03
  L 70.95 34.09
  L 72.20 32.21
  L 73.51 30.37
  L 74.88 28.59
  L 76.31 26.85
  L 77.79 25.18
  L 79.31 23.57
  L 80.90 22.01
  L 82.52 20.52
  L 82.83 20.23
  L 83.04 20.01
  L 83.15 19.84
  L 83.17 19.79
  L 83.16 19.75
  L 83.16 19.75
  L 83.16 19.75
  L 83.13 19.72
  L 83.07 19.71
  L 82.87 19.74
  L 82.58 19.83
  L 82.18 19.98
  L 79.99 20.91
  L 78.28 21.67
  L 76.58 22.47
  L 74.89 23.29
  L 73.22 24.14
  L 71.55 25.02
  L 69.90 25.94
  L 68.24 26.88
  L 66.60 27.86
  L 64.96 28.87
  L 63.33 29.91
  L 61.70 30.99
  L 60.07 32.10
  L 58.44 33.25
  L 56.81 34.43
  L 55.18 35.66
  L 53.54 36.92
  L 51.96 38.17
  L 50.37 39.46
  L 48.76 40.80
  L 47.15 42.18
  L 45.50 43.62
  L 43.84 45.10
  L 42.14 46.65
  L 40.41 48.26
  L 36.94 51.57
  L 33.18 55.25
  L 29.05 59.40
  L 23.40 65.16
  L 18.08 70.59
  L 17.95 70.77
  L 17.91 70.86
  L 17.90 70.96
  L 17.90 70.96
  L 17.90 70.96
  L 17.90 70.96
  L 17.91 71.04
  L 17.94 71.13
  L 18.07 71.31
  L 21.95 75.31
  L 27.42 80.92
  L 31.34 84.91
  L 34.85 88.41
  L 38.05 91.54
  L 41.16 94.50
  L 44.13 97.23
  L 47.00 99.77
  L 49.79 102.16
  L 51.23 103.34
  L 52.66 104.50
  L 54.08 105.61
  L 55.49 106.69
  L 56.91 107.75
  L 58.32 108.77
  L 59.72 109.76
  L 61.13 110.73
  L 62.54 111.67
  L 63.95 112.58
  L 65.38 113.47
  L 66.81 114.33
  L 68.24 115.17
  L 69.68 115.99
  L 71.14 116.79
  L 72.60 117.56
  L 75.10 118.82
  L 77.65 120.03
  L 80.23 121.17
  L 82.86 122.26
  L 82.90 122.26
  L 82.94 122.25
  L 82.96 122.22
  L 82.96 122.18
  L 82.96 122.18
  L 82.94 122.14
  Z
  M 172.63 122.44
  L 172.62 122.45
  L 172.63 122.48
  L 172.66 122.48
  L 174.14 121.88
  L 175.60 121.26
  L 177.05 120.63
  L 178.47 119.98
  L 179.90 119.31
  L 181.30 118.63
  L 182.70 117.92
  L 184.08 117.20
  L 185.53 116.42
  L 186.97 115.62
  L 188.39 114.80
  L 189.81 113.95
  L 191.22 113.08
  L 192.64 112.19
  L 194.03 111.28
  L 195.43 110.33
  L 196.82 109.37
  L 198.22 108.37
  L 199.62 107.35
  L 201.02 106.29
  L 202.42 105.21
  L 203.83 104.09
  L 205.25 102.94
  L 206.68 101.75
  L 209.45 99.37
  L 212.31 96.82
  L 215.27 94.08
  L 218.38 91.11
  L 221.58 87.98
  L 225.09 84.46
  L 229.02 80.46
  L 234.53 74.80
  L 237.94 71.29
  L 238.07 71.12
  L 238.10 71.03
  L 238.11 70.95
  L 238.11 70.95
  L 238.10 70.86
  L 238.06 70.77
  L 237.93 70.59
  L 231.67 64.28
  L 225.39 58.00
  L 219.06 51.76
  L 212.71 45.54
  L 211.38 44.26
  L 210.03 43.01
  L 208.66 41.77
  L 207.28 40.56
  L 205.88 39.37
  L 204.46 38.20
  L 203.03 37.05
  L 201.58 35.93
  L 201.58 35.93
  L 201.58 35.93
  L 201.58 35.93
  L 199.97 34.72
  L 198.34 33.53
  L 196.69 32.38
  L 195.02 31.25
  L 193.33 30.14
  L 191.62 29.06
  L 189.89 28.01
  L 188.14 26.99
  L 186.37 25.99
  L 184.58 25.01
  L 182.77 24.07
  L 180.94 23.15
  L 179.09 22.25
  L 177.22 21.39
  L 175.33 20.55
  L 173.42 19.73
  L 173.35 19.71
  L 173.27 19.71
  L 173.19 19.73
  L 173.13 19.77
  L 173.08 19.83
  L 173.04 19.90
  L 173.03 19.98
  L 173.03 20.05
  L 173.03 20.05
  L 173.07 20.13
  L 173.12 20.20
  L 174.27 21.27
  L 175.40 22.36
  L 176.49 23.47
  L 177.56 24.60
  L 178.61 25.75
  L 179.63 26.93
  L 180.62 28.12
  L 181.58 29.33
  L 182.52 30.57
  L 183.43 31.82
  L 184.30 33.09
  L 185.15 34.37
  L 185.97 35.67
  L 186.76 36.99
  L 187.51 38.33
  L 188.24 39.68
  L 188.93 41.04
  L 189.60 42.42
  L 190.23 43.81
  L 190.83 45.21
  L 191.39 46.62
  L 191.92 48.05
  L 192.42 49.48
  L 192.89 50.93
  L 193.32 52.38
  L 193.72 53.84
  L 194.09 55.31
  L 194.42 56.79
  L 194.72 58.28
  L 194.98 59.77
  L 195.21 61.26
  L 195.41 62.76
  L 195.54 64.03
  L 195.66 65.30
  L 195.74 66.58
  L 195.81 67.86
  L 195.84 69.14
  L 195.86 70.43
  L 195.85 71.71
  L 195.81 72.99
  L 195.75 74.32
  L 195.66 75.64
  L 195.55 76.95
  L 195.42 78.25
  L 195.27 79.55
  L 195.09 80.84
  L 194.89 82.12
  L 194.67 83.39
  L 194.42 84.65
  L 194.15 85.90
  L 193.85 87.15
  L 193.54 88.39
  L 193.20 89.62
  L 192.84 90.84
  L 192.45 92.06
  L 192.04 93.27
  L 192.04 93.27
  L 192.04 93.27
  L 192.04 93.27
  L 191.31 95.26
  L 190.51 97.23
  L 189.65 99.17
  L 188.73 101.10
  L 187.74 103.00
  L 186.69 104.88
  L 185.57 106.74
  L 184.39 108.57
  L 183.14 110.38
  L 181.83 112.17
  L 180.46 113.94
  L 179.02 115.68
  L 177.52 117.41
  L 175.95 119.11
  L 174.32 120.78
  L 172.63 122.44
  Z"
/>
<path fill="#8acce7" d="
  M 187.88 70.98
  L 187.86 72.45
  L 187.81 73.92
  L 187.72 75.39
  L 187.59 76.85
  L 187.43 78.31
  L 187.23 79.77
  L 187.00 81.22
  L 186.73 82.67
  L 186.42 84.10
  L 186.08 85.53
  L 185.71 86.96
  L 185.30 88.37
  L 184.86 89.77
  L 184.38 91.16
  L 183.87 92.54
  L 183.32 93.90
  L 182.74 95.25
  L 182.13 96.59
  L 181.48 97.91
  L 180.81 99.22
  L 180.10 100.50
  L 179.36 101.77
  L 178.59 103.03
  L 177.79 104.26
  L 176.95 105.47
  L 176.09 106.66
  L 175.20 107.83
  L 174.28 108.98
  L 173.34 110.11
  L 172.36 111.21
  L 171.36 112.28
  L 170.34 113.34
  L 169.28 114.36
  L 168.21 115.36
  L 167.11 116.34
  L 165.98 117.28
  L 164.83 118.20
  L 163.66 119.09
  L 162.47 119.95
  L 161.26 120.79
  L 160.03 121.59
  L 158.77 122.36
  L 157.50 123.10
  L 156.22 123.81
  L 154.91 124.48
  L 153.59 125.13
  L 152.25 125.74
  L 150.90 126.32
  L 149.54 126.87
  L 148.16 127.38
  L 146.77 127.86
  L 145.37 128.30
  L 143.96 128.71
  L 142.53 129.08
  L 141.10 129.42
  L 139.67 129.73
  L 138.22 130.00
  L 136.77 130.23
  L 135.31 130.43
  L 133.85 130.59
  L 132.39 130.72
  L 130.92 130.81
  L 129.45 130.86
  L 127.98 130.88
  L 126.51 130.86
  L 125.04 130.81
  L 123.57 130.72
  L 122.11 130.59
  L 120.65 130.43
  L 119.19 130.23
  L 117.74 130.00
  L 116.29 129.73
  L 114.86 129.42
  L 113.43 129.08
  L 112.00 128.71
  L 110.59 128.30
  L 109.19 127.86
  L 107.80 127.38
  L 106.42 126.87
  L 105.06 126.32
  L 103.71 125.74
  L 102.37 125.13
  L 101.05 124.48
  L 99.74 123.81
  L 98.46 123.10
  L 97.19 122.36
  L 95.93 121.59
  L 94.70 120.79
  L 93.49 119.95
  L 92.30 119.09
  L 91.13 118.20
  L 89.98 117.28
  L 88.85 116.34
  L 87.75 115.36
  L 86.68 114.36
  L 85.62 113.34
  L 84.60 112.28
  L 83.60 111.21
  L 82.62 110.11
  L 81.68 108.98
  L 80.76 107.83
  L 79.87 106.66
  L 79.01 105.47
  L 78.17 104.26
  L 77.37 103.03
  L 76.60 101.77
  L 75.86 100.50
  L 75.15 99.22
  L 74.48 97.91
  L 73.83 96.59
  L 73.22 95.25
  L 72.64 93.90
  L 72.09 92.54
  L 71.58 91.16
  L 71.10 89.77
  L 70.66 88.37
  L 70.25 86.96
  L 69.88 85.53
  L 69.54 84.10
  L 69.23 82.67
  L 68.96 81.22
  L 68.73 79.77
  L 68.53 78.31
  L 68.37 76.85
  L 68.24 75.39
  L 68.15 73.92
  L 68.10 72.45
  L 68.08 70.98
  L 68.10 69.51
  L 68.15 68.04
  L 68.24 66.57
  L 68.37 65.11
  L 68.53 63.65
  L 68.73 62.19
  L 68.96 60.74
  L 69.23 59.29
  L 69.54 57.86
  L 69.88 56.43
  L 70.25 55.00
  L 70.66 53.59
  L 71.10 52.19
  L 71.58 50.80
  L 72.09 49.42
  L 72.64 48.06
  L 73.22 46.71
  L 73.83 45.37
  L 74.48 44.05
  L 75.15 42.74
  L 75.86 41.46
  L 76.60 40.19
  L 77.37 38.93
  L 78.17 37.70
  L 79.01 36.49
  L 79.87 35.30
  L 80.76 34.13
  L 81.68 32.98
  L 82.62 31.85
  L 83.60 30.75
  L 84.60 29.68
  L 85.62 28.62
  L 86.68 27.60
  L 87.75 26.60
  L 88.85 25.62
  L 89.98 24.68
  L 91.13 23.76
  L 92.30 22.87
  L 93.49 22.01
  L 94.70 21.17
  L 95.93 20.37
  L 97.19 19.60
  L 98.46 18.86
  L 99.74 18.15
  L 101.05 17.48
  L 102.37 16.83
  L 103.71 16.22
  L 105.06 15.64
  L 106.42 15.09
  L 107.80 14.58
  L 109.19 14.10
  L 110.59 13.66
  L 112.00 13.25
  L 113.43 12.88
  L 114.86 12.54
  L 116.29 12.23
  L 117.74 11.96
  L 119.19 11.73
  L 120.65 11.53
  L 122.11 11.37
  L 123.57 11.24
  L 125.04 11.15
  L 126.51 11.10
  L 127.98 11.08
  L 129.45 11.10
  L 130.92 11.15
  L 132.39 11.24
  L 133.85 11.37
  L 135.31 11.53
  L 136.77 11.73
  L 138.22 11.96
  L 139.67 12.23
  L 141.10 12.54
  L 142.53 12.88
  L 143.96 13.25
  L 145.37 13.66
  L 146.77 14.10
  L 148.16 14.58
  L 149.54 15.09
  L 150.90 15.64
  L 152.25 16.22
  L 153.59 16.83
  L 154.91 17.48
  L 156.22 18.15
  L 157.50 18.86
  L 158.77 19.60
  L 160.03 20.37
  L 161.26 21.17
  L 162.47 22.01
  L 163.66 22.87
  L 164.83 23.76
  L 165.98 24.68
  L 167.11 25.62
  L 168.21 26.60
  L 169.28 27.60
  L 170.34 28.62
  L 171.36 29.68
  L 172.36 30.75
  L 173.34 31.85
  L 174.28 32.98
  L 175.20 34.13
  L 176.09 35.30
  L 176.95 36.49
  L 177.79 37.70
  L 178.59 38.93
  L 179.36 40.19
  L 180.10 41.46
  L 180.81 42.74
  L 181.48 44.05
  L 182.13 45.37
  L 182.74 46.71
  L 183.32 48.06
  L 183.87 49.42
  L 184.38 50.80
  L 184.86 52.19
  L 185.30 53.59
  L 185.71 55.00
  L 186.08 56.43
  L 186.42 57.86
  L 186.73 59.29
  L 187.00 60.74
  L 187.23 62.19
  L 187.43 63.65
  L 187.59 65.11
  L 187.72 66.57
  L 187.81 68.04
  L 187.86 69.51
  L 187.88 70.98
  Z
  M 132.00 15.31
  L 131.98 15.19
  L 131.91 15.09
  L 131.81 15.02
  L 131.69 15.00
  L 124.31 15.00
  L 124.19 15.02
  L 124.09 15.09
  L 124.02 15.19
  L 124.00 15.31
  L 124.00 30.69
  L 124.02 30.81
  L 124.09 30.91
  L 124.19 30.98
  L 124.31 31.00
  L 131.69 31.00
  L 131.81 30.98
  L 131.91 30.91
  L 131.98 30.81
  L 132.00 30.69
  L 132.00 15.31
  Z
  M 115.30 20.65
  L 114.07 20.98
  L 112.86 21.35
  L 111.65 21.74
  L 110.45 22.16
  L 109.26 22.61
  L 108.08 23.08
  L 106.92 23.58
  L 105.78 24.11
  L 104.64 24.67
  L 103.52 25.25
  L 102.41 25.86
  L 101.33 26.50
  L 100.25 27.16
  L 99.19 27.85
  L 98.15 28.56
  L 97.13 29.29
  L 96.13 30.05
  L 95.14 30.84
  L 94.17 31.64
  L 93.23 32.47
  L 92.30 33.32
  L 91.40 34.20
  L 90.52 35.09
  L 89.66 36.01
  L 88.82 36.95
  L 88.01 37.90
  L 87.21 38.88
  L 86.45 39.87
  L 85.70 40.88
  L 84.99 41.91
  L 84.29 42.96
  L 83.62 44.03
  L 82.64 45.71
  L 81.72 47.43
  L 80.86 49.19
  L 80.07 50.98
  L 79.35 52.79
  L 78.69 54.63
  L 78.11 56.50
  L 77.59 58.40
  L 77.56 58.54
  L 77.56 58.66
  L 77.59 58.77
  L 77.63 58.85
  L 77.70 58.92
  L 77.80 58.96
  L 77.92 58.99
  L 78.06 59.00
  L 85.00 59.00
  L 85.28 58.96
  L 85.39 58.92
  L 85.50 58.86
  L 85.50 58.86
  L 85.50 58.86
  L 85.50 58.86
  L 85.59 58.78
  L 85.66 58.68
  L 85.78 58.43
  L 86.26 57.05
  L 86.77 55.71
  L 87.31 54.39
  L 87.88 53.10
  L 88.47 51.84
  L 89.10 50.61
  L 89.75 49.40
  L 90.43 48.23
  L 91.15 47.09
  L 91.89 45.97
  L 92.66 44.89
  L 93.46 43.83
  L 94.28 42.80
  L 95.14 41.80
  L 96.03 40.83
  L 96.94 39.89
  L 96.94 39.89
  L 96.94 39.89
  L 96.94 39.89
  L 96.94 39.89
  L 97.88 38.98
  L 98.85 38.10
  L 99.85 37.25
  L 100.87 36.43
  L 101.93 35.64
  L 103.01 34.87
  L 104.12 34.14
  L 105.26 33.43
  L 106.43 32.75
  L 107.63 32.10
  L 108.86 31.48
  L 110.11 30.89
  L 111.40 30.33
  L 112.71 29.79
  L 114.05 29.29
  L 115.42 28.81
  L 115.68 28.68
  L 115.78 28.60
  L 115.86 28.50
  L 115.86 28.50
  L 115.92 28.40
  L 115.96 28.28
  L 116.00 28.00
  L 116.00 21.19
  L 115.99 21.02
  L 115.96 20.89
  L 115.90 20.78
  L 115.83 20.70
  L 115.83 20.70
  L 115.83 20.70
  L 115.73 20.64
  L 115.61 20.62
  L 115.46 20.62
  L 115.30 20.65
  Z
  M 140.42 28.82
  L 141.95 29.36
  L 143.45 29.93
  L 144.91 30.54
  L 146.34 31.19
  L 147.73 31.87
  L 149.09 32.58
  L 150.41 33.33
  L 151.70 34.12
  L 152.94 34.94
  L 154.16 35.79
  L 155.33 36.68
  L 156.48 37.61
  L 157.58 38.56
  L 158.65 39.56
  L 159.68 40.58
  L 160.67 41.65
  L 161.45 42.53
  L 162.20 43.44
  L 162.93 44.36
  L 163.63 45.32
  L 164.31 46.29
  L 164.97 47.28
  L 165.60 48.30
  L 166.20 49.34
  L 166.78 50.39
  L 167.33 51.47
  L 167.86 52.57
  L 168.37 53.69
  L 168.84 54.83
  L 169.30 56.00
  L 169.73 57.18
  L 170.13 58.39
  L 170.18 58.53
  L 170.25 58.66
  L 170.34 58.76
  L 170.43 58.85
  L 170.43 58.85
  L 170.54 58.91
  L 170.67 58.96
  L 170.81 58.99
  L 170.96 59.00
  L 177.99 59.00
  L 178.16 58.99
  L 178.29 58.96
  L 178.40 58.90
  L 178.48 58.83
  L 178.48 58.83
  L 178.48 58.83
  L 178.48 58.83
  L 178.53 58.73
  L 178.55 58.61
  L 178.54 58.47
  L 178.50 58.31
  L 177.94 56.50
  L 177.34 54.74
  L 176.70 53.01
  L 176.01 51.33
  L 175.29 49.68
  L 174.53 48.08
  L 173.73 46.52
  L 172.88 44.99
  L 172.00 43.51
  L 171.08 42.06
  L 170.12 40.66
  L 169.11 39.30
  L 168.07 37.97
  L 166.99 36.69
  L 165.86 35.45
  L 164.70 34.24
  L 164.70 34.24
  L 164.70 34.24
  L 164.70 34.24
  L 164.70 34.24
  L 164.70 34.24
  L 163.50 33.08
  L 162.26 31.97
  L 160.98 30.89
  L 159.66 29.85
  L 158.30 28.85
  L 156.90 27.89
  L 155.46 26.97
  L 153.98 26.09
  L 152.46 25.25
  L 150.90 24.45
  L 149.30 23.69
  L 147.66 22.97
  L 145.98 22.29
  L 144.26 21.65
  L 142.50 21.05
  L 140.70 20.49
  L 140.59 20.47
  L 140.47 20.47
  L 140.36 20.50
  L 140.25 20.55
  L 140.16 20.62
  L 140.09 20.71
  L 140.03 20.82
  L 140.01 20.93
  L 140.00 21.01
  L 140.00 28.24
  L 140.03 28.43
  L 140.12 28.60
  L 140.25 28.73
  L 140.42 28.82
  Z
  M 155.81 50.82
  L 155.79 50.48
  L 155.74 50.16
  L 155.65 49.85
  L 155.54 49.56
  L 155.42 49.33
  L 155.28 49.12
  L 155.12 48.90
  L 154.94 48.71
  L 154.74 48.52
  L 154.52 48.34
  L 154.01 48.01
  L 153.42 47.72
  L 152.74 47.46
  L 151.97 47.25
  L 151.12 47.06
  L 150.20 46.92
  L 149.20 46.81
  L 148.10 46.74
  L 146.91 46.70
  L 145.64 46.69
  L 144.23 46.70
  L 142.67 46.75
  L 140.58 46.84
  L 138.40 46.93
  L 136.98 46.96
  L 136.43 46.98
  L 135.92 47.03
  L 135.44 47.12
  L 134.99 47.24
  L 134.57 47.39
  L 134.19 47.58
  L 133.83 47.80
  L 133.52 48.05
  L 133.26 48.30
  L 133.03 48.57
  L 132.83 48.87
  L 132.64 49.19
  L 132.48 49.53
  L 132.33 49.91
  L 132.21 50.31
  L 132.11 50.75
  L 132.03 51.19
  L 131.96 51.67
  L 131.89 52.75
  L 131.88 53.97
  L 131.93 55.66
  L 131.98 57.31
  L 131.96 58.42
  L 131.94 58.56
  L 131.91 58.67
  L 131.86 58.77
  L 131.79 58.86
  L 131.79 58.86
  L 131.71 58.92
  L 131.61 58.96
  L 131.49 58.99
  L 131.35 59.00
  L 120.98 59.00
  L 120.43 59.02
  L 119.91 59.07
  L 119.43 59.15
  L 118.99 59.27
  L 118.56 59.42
  L 118.18 59.61
  L 117.82 59.83
  L 117.50 60.08
  L 117.25 60.33
  L 117.02 60.59
  L 116.81 60.89
  L 116.63 61.21
  L 116.47 61.55
  L 116.32 61.94
  L 116.20 62.33
  L 116.10 62.77
  L 116.02 63.22
  L 115.95 63.69
  L 115.88 64.77
  L 115.87 65.99
  L 115.92 67.69
  L 115.98 69.32
  L 115.96 70.42
  L 115.94 70.56
  L 115.91 70.68
  L 115.86 70.78
  L 115.79 70.86
  L 115.79 70.86
  L 115.70 70.93
  L 115.60 70.97
  L 115.48 71.00
  L 115.34 71.01
  L 114.25 70.98
  L 112.53 70.87
  L 109.86 70.72
  L 108.81 70.69
  L 107.86 70.69
  L 106.96 70.71
  L 106.12 70.77
  L 105.35 70.86
  L 104.62 70.98
  L 103.94 71.14
  L 103.31 71.33
  L 102.74 71.55
  L 102.23 71.80
  L 101.77 72.10
  L 101.36 72.42
  L 101.00 72.79
  L 100.70 73.18
  L 100.54 73.45
  L 100.40 73.74
  L 100.28 74.03
  L 100.18 74.35
  L 100.10 74.68
  L 100.04 75.02
  L 100.00 75.38
  L 99.99 75.75
  L 99.97 79.61
  L 99.97 83.45
  L 100.00 87.27
  L 100.04 91.08
  L 100.06 91.47
  L 100.12 91.85
  L 100.22 92.22
  L 100.36 92.58
  L 100.53 92.93
  L 100.73 93.26
  L 100.96 93.57
  L 101.22 93.85
  L 101.51 94.11
  L 101.82 94.34
  L 102.15 94.54
  L 102.50 94.70
  L 102.87 94.83
  L 103.24 94.92
  L 103.62 94.98
  L 104.01 95.00
  L 151.26 95.00
  L 151.83 94.98
  L 152.37 94.93
  L 152.87 94.83
  L 153.33 94.70
  L 153.76 94.54
  L 154.14 94.33
  L 154.50 94.09
  L 154.81 93.82
  L 154.81 93.82
  L 154.81 93.82
  L 154.81 93.82
  L 154.81 93.82
  L 155.09 93.50
  L 155.33 93.15
  L 155.53 92.76
  L 155.70 92.34
  L 155.83 91.88
  L 155.92 91.38
  L 155.98 90.84
  L 156.00 90.27
  L 156.01 80.52
  L 155.98 70.70
  L 155.92 60.80
  L 155.81 50.82
  Z
  M 88.00 67.31
  L 87.98 67.19
  L 87.91 67.09
  L 87.81 67.02
  L 87.69 67.00
  L 72.31 67.00
  L 72.19 67.02
  L 72.09 67.09
  L 72.02 67.19
  L 72.00 67.31
  L 72.00 74.69
  L 72.02 74.81
  L 72.09 74.91
  L 72.19 74.98
  L 72.31 75.00
  L 87.69 75.00
  L 87.81 74.98
  L 87.91 74.91
  L 87.98 74.81
  L 88.00 74.69
  L 88.00 67.31
  Z
  M 183.9838 67.4160
  L 183.9507 67.2515
  L 183.8573 67.1122
  L 183.7176 67.0192
  L 183.5530 66.9868
  L 168.4130 67.0132
  L 168.2485 67.0462
  L 168.1092 67.1397
  L 168.0162 67.2794
  L 167.9838 67.4440
  L 167.9962 74.5840
  L 168.0293 74.7485
  L 168.1227 74.8878
  L 168.2624 74.9808
  L 168.4270 75.0132
  L 183.5670 74.9868
  L 183.7315 74.9538
  L 183.8708 74.8603
  L 183.9638 74.7206
  L 183.9962 74.5560
  L 183.9838 67.4160
  Z
  M 115.35 113.13
  L 113.98 112.65
  L 112.64 112.14
  L 111.32 111.61
  L 110.04 111.04
  L 108.78 110.45
  L 107.55 109.82
  L 106.35 109.17
  L 105.18 108.49
  L 104.04 107.78
  L 102.93 107.04
  L 101.85 106.27
  L 100.80 105.47
  L 99.77 104.65
  L 98.78 103.79
  L 97.81 102.91
  L 96.87 102.00
  L 96.87 102.00
  L 96.87 102.00
  L 96.87 102.00
  L 96.87 102.00
  L 96.87 102.00
  L 96.87 102.00
  L 96.87 102.00
  L 95.97 101.06
  L 95.09 100.10
  L 94.24 99.11
  L 93.43 98.08
  L 92.64 97.03
  L 91.88 95.95
  L 91.14 94.85
  L 90.44 93.71
  L 89.76 92.54
  L 89.12 91.35
  L 88.50 90.13
  L 87.91 88.88
  L 87.35 87.60
  L 86.82 86.29
  L 86.31 84.95
  L 85.84 83.59
  L 85.72 83.34
  L 85.63 83.24
  L 85.54 83.15
  L 85.54 83.15
  L 85.54 83.15
  L 85.43 83.09
  L 85.30 83.04
  L 85.16 83.01
  L 85.01 83.00
  L 78.01 83.00
  L 77.84 83.01
  L 77.71 83.04
  L 77.60 83.10
  L 77.52 83.17
  L 77.47 83.27
  L 77.45 83.39
  L 77.45 83.53
  L 77.49 83.69
  L 78.05 85.49
  L 78.65 87.25
  L 79.30 88.98
  L 79.98 90.66
  L 80.70 92.30
  L 81.46 93.90
  L 82.26 95.46
  L 83.11 96.99
  L 83.99 98.47
  L 84.91 99.91
  L 85.87 101.31
  L 86.87 102.67
  L 87.92 103.99
  L 89.00 105.28
  L 90.12 106.52
  L 91.28 107.72
  L 91.28 107.72
  L 91.28 107.72
  L 91.28 107.72
  L 91.28 107.72
  L 91.28 107.72
  L 91.28 107.72
  L 92.49 108.88
  L 93.73 110.00
  L 95.01 111.08
  L 96.33 112.12
  L 97.70 113.12
  L 99.10 114.09
  L 100.54 115.01
  L 102.03 115.89
  L 103.55 116.73
  L 105.11 117.53
  L 106.71 118.29
  L 108.36 119.01
  L 110.04 119.69
  L 111.76 120.33
  L 113.53 120.93
  L 115.33 121.49
  L 115.49 121.53
  L 115.62 121.53
  L 115.74 121.51
  L 115.83 121.47
  L 115.83 121.47
  L 115.91 121.39
  L 115.96 121.28
  L 115.99 121.15
  L 116.00 120.99
  L 116.00 114.03
  L 115.99 113.87
  L 115.96 113.72
  L 115.91 113.59
  L 115.84 113.47
  L 115.84 113.47
  L 115.84 113.47
  L 115.75 113.36
  L 115.64 113.27
  L 115.50 113.19
  L 115.35 113.13
  Z
  M 170.12 83.63
  L 169.65 85.00
  L 169.15 86.33
  L 168.62 87.64
  L 168.06 88.92
  L 167.48 90.17
  L 166.86 91.40
  L 166.22 92.59
  L 165.54 93.76
  L 164.84 94.89
  L 164.11 96.00
  L 163.35 97.08
  L 162.56 98.13
  L 161.75 99.15
  L 160.90 100.15
  L 160.03 101.11
  L 159.12 102.05
  L 159.12 102.05
  L 159.12 102.05
  L 158.18 102.96
  L 157.22 103.84
  L 156.22 104.69
  L 155.19 105.52
  L 154.14 106.32
  L 153.06 107.08
  L 151.94 107.82
  L 150.80 108.53
  L 149.63 109.21
  L 148.43 109.86
  L 147.20 110.48
  L 145.94 111.07
  L 144.65 111.63
  L 143.33 112.17
  L 141.99 112.67
  L 140.61 113.15
  L 140.47 113.21
  L 140.34 113.28
  L 140.24 113.36
  L 140.15 113.46
  L 140.15 113.46
  L 140.15 113.46
  L 140.15 113.46
  L 140.09 113.57
  L 140.04 113.70
  L 140.01 113.84
  L 140.00 113.99
  L 140.00 121.03
  L 140.01 121.13
  L 140.04 121.23
  L 140.10 121.32
  L 140.17 121.40
  L 140.25 121.46
  L 140.35 121.50
  L 140.45 121.52
  L 140.55 121.51
  L 140.55 121.51
  L 140.62 121.50
  L 142.43 120.94
  L 144.20 120.34
  L 145.92 119.71
  L 147.61 119.03
  L 149.26 118.31
  L 150.86 117.55
  L 152.43 116.75
  L 153.95 115.91
  L 155.44 115.03
  L 156.89 114.11
  L 158.29 113.15
  L 159.65 112.15
  L 160.98 111.10
  L 162.26 110.02
  L 163.51 108.90
  L 164.71 107.74
  L 164.71 107.74
  L 164.71 107.74
  L 165.87 106.53
  L 167.00 105.29
  L 168.08 104.01
  L 169.12 102.69
  L 170.12 101.32
  L 171.08 99.92
  L 172.00 98.48
  L 172.88 96.99
  L 173.72 95.47
  L 174.52 93.90
  L 175.28 92.30
  L 176.00 90.65
  L 176.68 88.97
  L 177.32 87.24
  L 177.92 85.48
  L 178.48 83.67
  L 178.50 83.60
  L 178.50 83.48
  L 178.48 83.38
  L 178.44 83.27
  L 178.37 83.18
  L 178.29 83.10
  L 178.20 83.05
  L 178.09 83.01
  L 177.98 83.00
  L 170.99 83.00
  L 170.83 83.01
  L 170.69 83.04
  L 170.56 83.09
  L 170.45 83.15
  L 170.45 83.15
  L 170.45 83.15
  L 170.45 83.15
  L 170.34 83.24
  L 170.25 83.35
  L 170.18 83.48
  L 170.12 83.63
  Z
  M 132.00 111.31
  L 131.98 111.19
  L 131.91 111.09
  L 131.81 111.02
  L 131.69 111.00
  L 124.31 111.00
  L 124.19 111.02
  L 124.09 111.09
  L 124.02 111.19
  L 124.00 111.31
  L 124.00 126.69
  L 124.02 126.81
  L 124.09 126.91
  L 124.19 126.98
  L 124.31 127.00
  L 131.69 127.00
  L 131.81 126.98
  L 131.91 126.91
  L 131.98 126.81
  L 132.00 126.69
  L 132.00 111.31
  Z"
/>
<rect fill="#000000" x="124.00" y="15.00" width="8.00" height="16.00" rx="0.31"/>
<path fill="#d3e1e9" d="
  M 82.94 122.14
  L 82.96 122.18
  L 82.96 122.22
  L 82.94 122.25
  L 82.90 122.26
  L 82.86 122.26
  L 80.23 121.17
  L 77.65 120.03
  L 75.10 118.82
  L 72.60 117.56
  L 71.14 116.79
  L 69.68 115.99
  L 68.24 115.17
  L 66.81 114.33
  L 65.38 113.47
  L 63.95 112.58
  L 62.54 111.67
  L 61.13 110.73
  L 59.72 109.76
  L 58.32 108.77
  L 56.91 107.75
  L 55.49 106.69
  L 54.08 105.61
  L 52.66 104.50
  L 51.23 103.34
  L 49.79 102.16
  L 47.00 99.77
  L 44.13 97.23
  L 41.16 94.50
  L 38.05 91.54
  L 34.85 88.41
  L 31.34 84.91
  L 27.42 80.92
  L 21.95 75.31
  L 18.07 71.31
  L 17.94 71.13
  L 17.91 71.04
  L 17.90 70.96
  L 17.91 70.86
  L 17.95 70.77
  L 18.08 70.59
  L 23.40 65.16
  L 29.05 59.40
  L 33.18 55.25
  L 36.94 51.57
  L 40.41 48.26
  L 42.14 46.65
  L 43.84 45.10
  L 45.50 43.62
  L 47.15 42.18
  L 48.76 40.80
  L 50.37 39.46
  L 51.96 38.17
  L 53.54 36.92
  L 55.18 35.66
  L 56.81 34.43
  L 58.44 33.25
  L 60.07 32.10
  L 61.70 30.99
  L 63.33 29.91
  L 64.96 28.87
  L 66.60 27.86
  L 68.24 26.88
  L 69.90 25.94
  L 71.55 25.02
  L 73.22 24.14
  L 74.89 23.29
  L 76.58 22.47
  L 78.28 21.67
  L 79.99 20.91
  L 82.18 19.98
  L 82.58 19.83
  L 82.87 19.74
  L 83.07 19.71
  L 83.13 19.72
  L 83.16 19.75
  L 83.16 19.75
  L 83.16 19.75
  L 83.16 19.75
  L 83.16 19.75
  L 83.17 19.79
  L 83.15 19.84
  L 83.04 20.01
  L 82.83 20.23
  L 82.52 20.52
  L 80.90 22.01
  L 79.31 23.57
  L 77.79 25.18
  L 76.31 26.85
  L 74.88 28.59
  L 73.51 30.37
  L 72.20 32.21
  L 70.95 34.09
  L 69.75 36.03
  L 68.62 38.01
  L 67.55 40.04
  L 66.54 42.09
  L 65.61 44.19
  L 64.74 46.32
  L 63.94 48.48
  L 63.21 50.65
  L 62.55 52.86
  L 61.97 55.08
  L 61.46 57.32
  L 61.02 59.57
  L 60.66 61.83
  L 60.38 64.10
  L 60.17 66.36
  L 60.04 68.63
  L 59.98 70.88
  L 60.01 73.13
  L 60.11 75.36
  L 60.28 77.59
  L 60.53 79.78
  L 60.86 81.97
  L 61.27 84.13
  L 61.75 86.26
  L 62.31 88.39
  L 62.93 90.49
  L 63.61 92.57
  L 64.36 94.63
  L 64.36 94.63
  L 64.36 94.63
  L 65.11 96.50
  L 65.91 98.36
  L 66.77 100.19
  L 67.69 102.01
  L 68.66 103.80
  L 69.68 105.57
  L 70.76 107.32
  L 71.89 109.06
  L 73.08 110.76
  L 74.32 112.45
  L 75.62 114.12
  L 76.98 115.77
  L 78.38 117.39
  L 79.85 118.99
  L 81.37 120.58
  L 82.94 122.14
  Z"
/>
<path fill="#d3e1e9" d="
  M 172.63 122.44
  L 174.32 120.78
  L 175.95 119.11
  L 177.52 117.41
  L 179.02 115.68
  L 180.46 113.94
  L 181.83 112.17
  L 183.14 110.38
  L 184.39 108.57
  L 185.57 106.74
  L 186.69 104.88
  L 187.74 103.00
  L 188.73 101.10
  L 189.65 99.17
  L 190.51 97.23
  L 191.31 95.26
  L 192.04 93.27
  L 192.04 93.27
  L 192.04 93.27
  L 192.04 93.27
  L 192.45 92.06
  L 192.84 90.84
  L 193.20 89.62
  L 193.54 88.39
  L 193.85 87.15
  L 194.15 85.90
  L 194.42 84.65
  L 194.67 83.39
  L 194.89 82.12
  L 195.09 80.84
  L 195.27 79.55
  L 195.42 78.25
  L 195.55 76.95
  L 195.66 75.64
  L 195.75 74.32
  L 195.81 72.99
  L 195.85 71.71
  L 195.86 70.43
  L 195.84 69.14
  L 195.81 67.86
  L 195.74 66.58
  L 195.66 65.30
  L 195.54 64.03
  L 195.41 62.76
  L 195.21 61.26
  L 194.98 59.77
  L 194.72 58.28
  L 194.42 56.79
  L 194.09 55.31
  L 193.72 53.84
  L 193.32 52.38
  L 192.89 50.93
  L 192.42 49.48
  L 191.92 48.05
  L 191.39 46.62
  L 190.83 45.21
  L 190.23 43.81
  L 189.60 42.42
  L 188.93 41.04
  L 188.24 39.68
  L 187.51 38.33
  L 186.76 36.99
  L 185.97 35.67
  L 185.15 34.37
  L 184.30 33.09
  L 183.43 31.82
  L 182.52 30.57
  L 181.58 29.33
  L 180.62 28.12
  L 179.63 26.93
  L 178.61 25.75
  L 177.56 24.60
  L 176.49 23.47
  L 175.40 22.36
  L 174.27 21.27
  L 173.12 20.20
  L 173.07 20.13
  L 173.03 20.05
  L 173.03 20.05
  L 173.03 19.98
  L 173.04 19.90
  L 173.08 19.83
  L 173.13 19.77
  L 173.19 19.73
  L 173.27 19.71
  L 173.35 19.71
  L 173.42 19.73
  L 175.33 20.55
  L 177.22 21.39
  L 179.09 22.25
  L 180.94 23.15
  L 182.77 24.07
  L 184.58 25.01
  L 186.37 25.99
  L 188.14 26.99
  L 189.89 28.01
  L 191.62 29.06
  L 193.33 30.14
  L 195.02 31.25
  L 196.69 32.38
  L 198.34 33.53
  L 199.97 34.72
  L 201.58 35.93
  L 201.58 35.93
  L 201.58 35.93
  L 201.58 35.93
  L 201.58 35.93
  L 203.03 37.05
  L 204.46 38.20
  L 205.88 39.37
  L 207.28 40.56
  L 208.66 41.77
  L 210.03 43.01
  L 211.38 44.26
  L 212.71 45.54
  L 219.06 51.76
  L 225.39 58.00
  L 231.67 64.28
  L 237.93 70.59
  L 238.06 70.77
  L 238.10 70.86
  L 238.11 70.95
  L 238.11 70.95
  L 238.10 71.03
  L 238.07 71.12
  L 237.94 71.29
  L 234.53 74.80
  L 229.02 80.46
  L 225.09 84.46
  L 221.58 87.98
  L 218.38 91.11
  L 215.27 94.08
  L 212.31 96.82
  L 209.45 99.37
  L 206.68 101.75
  L 205.25 102.94
  L 203.83 104.09
  L 202.42 105.21
  L 201.02 106.29
  L 199.62 107.35
  L 198.22 108.37
  L 196.82 109.37
  L 195.43 110.33
  L 194.03 111.28
  L 192.64 112.19
  L 191.22 113.08
  L 189.81 113.95
  L 188.39 114.80
  L 186.97 115.62
  L 185.53 116.42
  L 184.08 117.20
  L 182.70 117.92
  L 181.30 118.63
  L 179.90 119.31
  L 178.47 119.98
  L 177.05 120.63
  L 175.60 121.26
  L 174.14 121.88
  L 172.66 122.48
  L 172.63 122.48
  L 172.62 122.45
  L 172.62 122.45
  L 172.63 122.44
  Z"
/>
<path fill="#000000" d="
  M 77.59 58.40
  L 78.11 56.50
  L 78.69 54.63
  L 79.35 52.79
  L 80.07 50.98
  L 80.86 49.19
  L 81.72 47.43
  L 82.64 45.71
  L 83.62 44.03
  L 84.29 42.96
  L 84.99 41.91
  L 85.70 40.88
  L 86.45 39.87
  L 87.21 38.88
  L 88.01 37.90
  L 88.82 36.95
  L 89.66 36.01
  L 90.52 35.09
  L 91.40 34.20
  L 92.30 33.32
  L 93.23 32.47
  L 94.17 31.64
  L 95.14 30.84
  L 96.13 30.05
  L 97.13 29.29
  L 98.15 28.56
  L 99.19 27.85
  L 100.25 27.16
  L 101.33 26.50
  L 102.41 25.86
  L 103.52 25.25
  L 104.64 24.67
  L 105.78 24.11
  L 106.92 23.58
  L 108.08 23.08
  L 109.26 22.61
  L 110.45 22.16
  L 111.65 21.74
  L 112.86 21.35
  L 114.07 20.98
  L 115.30 20.65
  L 115.46 20.62
  L 115.61 20.62
  L 115.73 20.64
  L 115.83 20.70
  L 115.83 20.70
  L 115.83 20.70
  L 115.90 20.78
  L 115.96 20.89
  L 115.99 21.02
  L 116.00 21.19
  L 116.00 28.00
  L 115.96 28.28
  L 115.92 28.40
  L 115.86 28.50
  L 115.86 28.50
  L 115.86 28.50
  L 115.78 28.60
  L 115.68 28.68
  L 115.42 28.81
  L 114.05 29.29
  L 112.71 29.79
  L 111.40 30.33
  L 110.11 30.89
  L 108.86 31.48
  L 107.63 32.10
  L 106.43 32.75
  L 105.26 33.43
  L 104.12 34.14
  L 103.01 34.87
  L 101.93 35.64
  L 100.87 36.43
  L 99.85 37.25
  L 98.85 38.10
  L 97.88 38.98
  L 96.94 39.89
  L 96.94 39.89
  L 96.94 39.89
  L 96.94 39.89
  L 96.03 40.83
  L 95.14 41.80
  L 94.28 42.80
  L 93.46 43.83
  L 92.66 44.89
  L 91.89 45.97
  L 91.15 47.09
  L 90.43 48.23
  L 89.75 49.40
  L 89.10 50.61
  L 88.47 51.84
  L 87.88 53.10
  L 87.31 54.39
  L 86.77 55.71
  L 86.26 57.05
  L 85.78 58.43
  L 85.66 58.68
  L 85.59 58.78
  L 85.50 58.86
  L 85.50 58.86
  L 85.50 58.86
  L 85.39 58.92
  L 85.28 58.96
  L 85.00 59.00
  L 78.06 59.00
  L 77.92 58.99
  L 77.80 58.96
  L 77.70 58.92
  L 77.63 58.85
  L 77.59 58.77
  L 77.56 58.66
  L 77.56 58.54
  L 77.59 58.40
  Z"
/>
<path fill="#000000" d="
  M 170.13 58.39
  L 169.73 57.18
  L 169.30 56.00
  L 168.84 54.83
  L 168.37 53.69
  L 167.86 52.57
  L 167.33 51.47
  L 166.78 50.39
  L 166.20 49.34
  L 165.60 48.30
  L 164.97 47.28
  L 164.31 46.29
  L 163.63 45.32
  L 162.93 44.36
  L 162.20 43.44
  L 161.45 42.53
  L 160.67 41.65
  L 159.68 40.58
  L 158.65 39.56
  L 157.58 38.56
  L 156.48 37.61
  L 155.33 36.68
  L 154.16 35.79
  L 152.94 34.94
  L 151.70 34.12
  L 150.41 33.33
  L 149.09 32.58
  L 147.73 31.87
  L 146.34 31.19
  L 144.91 30.54
  L 143.45 29.93
  L 141.95 29.36
  L 140.42 28.82
  L 140.25 28.73
  L 140.12 28.60
  L 140.03 28.43
  L 140.00 28.24
  L 140.00 21.01
  L 140.01 20.93
  L 140.03 20.82
  L 140.09 20.71
  L 140.16 20.62
  L 140.25 20.55
  L 140.36 20.50
  L 140.47 20.47
  L 140.59 20.47
  L 140.70 20.49
  L 142.50 21.05
  L 144.26 21.65
  L 145.98 22.29
  L 147.66 22.97
  L 149.30 23.69
  L 150.90 24.45
  L 152.46 25.25
  L 153.98 26.09
  L 155.46 26.97
  L 156.90 27.89
  L 158.30 28.85
  L 159.66 29.85
  L 160.98 30.89
  L 162.26 31.97
  L 163.50 33.08
  L 164.70 34.24
  L 164.70 34.24
  L 164.70 34.24
  L 165.86 35.45
  L 166.99 36.69
  L 168.07 37.97
  L 169.11 39.30
  L 170.12 40.66
  L 171.08 42.06
  L 172.00 43.51
  L 172.88 44.99
  L 173.73 46.52
  L 174.53 48.08
  L 175.29 49.68
  L 176.01 51.33
  L 176.70 53.01
  L 177.34 54.74
  L 177.94 56.50
  L 178.50 58.31
  L 178.54 58.47
  L 178.55 58.61
  L 178.53 58.73
  L 178.48 58.83
  L 178.48 58.83
  L 178.48 58.83
  L 178.40 58.90
  L 178.29 58.96
  L 178.16 58.99
  L 177.99 59.00
  L 170.96 59.00
  L 170.81 58.99
  L 170.67 58.96
  L 170.54 58.91
  L 170.43 58.85
  L 170.43 58.85
  L 170.34 58.76
  L 170.25 58.66
  L 170.18 58.53
  L 170.13 58.39
  Z"
/>
<path fill="#000000" d="
  M 136.98 46.96
  L 138.40 46.93
  L 140.58 46.84
  L 142.67 46.75
  L 144.23 46.70
  L 145.64 46.69
  L 146.91 46.70
  L 148.10 46.74
  L 149.20 46.81
  L 150.20 46.92
  L 151.12 47.06
  L 151.97 47.25
  L 152.74 47.46
  L 153.42 47.72
  L 154.01 48.01
  L 154.52 48.34
  L 154.74 48.52
  L 154.94 48.71
  L 155.12 48.90
  L 155.28 49.12
  L 155.42 49.33
  L 155.54 49.56
  L 155.65 49.85
  L 155.74 50.16
  L 155.79 50.48
  L 155.81 50.82
  L 155.92 60.80
  L 155.98 70.70
  L 156.01 80.52
  L 156.00 90.27
  L 155.98 90.84
  L 155.92 91.38
  L 155.83 91.88
  L 155.70 92.34
  L 155.53 92.76
  L 155.33 93.15
  L 155.09 93.50
  L 154.81 93.82
  L 154.81 93.82
  L 154.81 93.82
  L 154.81 93.82
  L 154.81 93.82
  L 154.50 94.09
  L 154.14 94.33
  L 153.76 94.54
  L 153.33 94.70
  L 152.87 94.83
  L 152.37 94.93
  L 151.83 94.98
  L 151.26 95.00
  L 104.01 95.00
  L 103.62 94.98
  L 103.24 94.92
  L 102.87 94.83
  L 102.50 94.70
  L 102.15 94.54
  L 101.82 94.34
  L 101.51 94.11
  L 101.22 93.85
  L 100.96 93.57
  L 100.73 93.26
  L 100.53 92.93
  L 100.36 92.58
  L 100.22 92.22
  L 100.12 91.85
  L 100.06 91.47
  L 100.04 91.08
  L 100.00 87.27
  L 99.97 83.45
  L 99.97 79.61
  L 99.99 75.75
  L 100.00 75.38
  L 100.04 75.02
  L 100.10 74.68
  L 100.18 74.35
  L 100.28 74.03
  L 100.40 73.74
  L 100.54 73.45
  L 100.70 73.18
  L 101.00 72.79
  L 101.36 72.42
  L 101.77 72.10
  L 102.23 71.80
  L 102.74 71.55
  L 103.31 71.33
  L 103.94 71.14
  L 104.62 70.98
  L 105.35 70.86
  L 106.12 70.77
  L 106.96 70.71
  L 107.86 70.69
  L 108.81 70.69
  L 109.86 70.72
  L 112.53 70.87
  L 114.25 70.98
  L 115.34 71.01
  L 115.48 71.00
  L 115.60 70.97
  L 115.70 70.93
  L 115.79 70.86
  L 115.79 70.86
  L 115.79 70.86
  L 115.86 70.78
  L 115.91 70.68
  L 115.94 70.56
  L 115.96 70.42
  L 115.98 69.32
  L 115.92 67.69
  L 115.87 65.99
  L 115.88 64.77
  L 115.95 63.69
  L 116.02 63.22
  L 116.10 62.77
  L 116.20 62.33
  L 116.32 61.94
  L 116.47 61.55
  L 116.63 61.21
  L 116.81 60.89
  L 117.02 60.59
  L 117.25 60.33
  L 117.50 60.08
  L 117.82 59.83
  L 118.18 59.61
  L 118.56 59.42
  L 118.99 59.27
  L 119.43 59.15
  L 119.91 59.07
  L 120.43 59.02
  L 120.98 59.00
  L 131.35 59.00
  L 131.49 58.99
  L 131.61 58.96
  L 131.71 58.92
  L 131.79 58.86
  L 131.79 58.86
  L 131.86 58.77
  L 131.91 58.67
  L 131.94 58.56
  L 131.96 58.42
  L 131.98 57.31
  L 131.93 55.66
  L 131.88 53.97
  L 131.89 52.75
  L 131.96 51.67
  L 132.03 51.19
  L 132.11 50.75
  L 132.21 50.31
  L 132.33 49.91
  L 132.48 49.53
  L 132.64 49.19
  L 132.83 48.87
  L 133.03 48.57
  L 133.26 48.30
  L 133.52 48.05
  L 133.83 47.80
  L 134.19 47.58
  L 134.57 47.39
  L 134.99 47.24
  L 135.44 47.12
  L 135.92 47.03
  L 136.43 46.98
  L 136.98 46.96
  Z
  M 148.00 55.65
  L 147.99 55.52
  L 147.95 55.40
  L 147.89 55.29
  L 147.81 55.19
  L 147.71 55.11
  L 147.60 55.05
  L 147.48 55.01
  L 147.35 55.00
  L 140.65 55.00
  L 140.52 55.01
  L 140.40 55.05
  L 140.29 55.11
  L 140.19 55.19
  L 140.11 55.29
  L 140.05 55.40
  L 140.01 55.52
  L 140.00 55.65
  L 140.00 86.35
  L 140.01 86.48
  L 140.05 86.60
  L 140.11 86.71
  L 140.19 86.81
  L 140.29 86.89
  L 140.40 86.95
  L 140.52 86.99
  L 140.65 87.00
  L 147.35 87.00
  L 147.48 86.99
  L 147.60 86.95
  L 147.71 86.89
  L 147.81 86.81
  L 147.89 86.71
  L 147.95 86.60
  L 147.99 86.48
  L 148.00 86.35
  L 148.00 55.65
  Z
  M 132.00 67.52
  L 131.96 67.32
  L 131.85 67.15
  L 131.68 67.04
  L 131.48 67.00
  L 124.52 67.00
  L 124.32 67.04
  L 124.15 67.15
  L 124.04 67.32
  L 124.00 67.52
  L 124.00 86.48
  L 124.04 86.68
  L 124.15 86.85
  L 124.32 86.96
  L 124.52 87.00
  L 131.48 87.00
  L 131.68 86.96
  L 131.85 86.85
  L 131.96 86.68
  L 132.00 86.48
  L 132.00 67.52
  Z
  M 116.0327 79.7680
  L 116.0195 79.6235
  L 115.9783 79.4844
  L 115.9108 79.3560
  L 115.8196 79.2432
  L 115.7081 79.1504
  L 115.5806 79.0812
  L 115.4421 79.0381
  L 115.2978 79.0229
  L 108.7780 78.9773
  L 108.6335 78.9905
  L 108.4944 79.0317
  L 108.3660 79.0992
  L 108.2532 79.1904
  L 108.1604 79.3019
  L 108.0912 79.4294
  L 108.0481 79.5679
  L 108.0329 79.7122
  L 107.9873 86.2320
  L 108.0005 86.3765
  L 108.0417 86.5156
  L 108.1092 86.6440
  L 108.2004 86.7568
  L 108.3119 86.8496
  L 108.4394 86.9188
  L 108.5779 86.9619
  L 108.7222 86.9771
  L 115.2420 87.0227
  L 115.3865 87.0095
  L 115.5256 86.9683
  L 115.6540 86.9008
  L 115.7668 86.8096
  L 115.8596 86.6981
  L 115.9288 86.5706
  L 115.9719 86.4321
  L 115.9871 86.2878
  L 116.0327 79.7680
  Z"
/>
<rect fill="#4ba477" x="140.00" y="55.00" width="8.00" height="32.00" rx="0.65"/>
<rect fill="#000000" x="72.00" y="67.00" width="16.00" height="8.00" rx="0.31"/>
<rect fill="#eebe33" x="124.00" y="67.00" width="8.00" height="20.00" rx="0.52"/>
<rect fill="#000000" x="-8.00" y="-4.00" transform="translate(175.99,71.00) rotate(-0.1)" width="16.00" height="8.00" rx="0.43"/>
<rect fill="#e44b4d" x="-4.00" y="-4.00" transform="translate(112.01,83.00) rotate(0.4)" width="8.00" height="8.00" rx="0.74"/>
<path fill="#000000" d="
  M 116.00 114.03
  L 116.00 120.99
  L 115.99 121.15
  L 115.96 121.28
  L 115.91 121.39
  L 115.83 121.47
  L 115.83 121.47
  L 115.74 121.51
  L 115.62 121.53
  L 115.49 121.53
  L 115.33 121.49
  L 113.53 120.93
  L 111.76 120.33
  L 110.04 119.69
  L 108.36 119.01
  L 106.71 118.29
  L 105.11 117.53
  L 103.55 116.73
  L 102.03 115.89
  L 100.54 115.01
  L 99.10 114.09
  L 97.70 113.12
  L 96.33 112.12
  L 95.01 111.08
  L 93.73 110.00
  L 92.49 108.88
  L 91.28 107.72
  L 91.28 107.72
  L 91.28 107.72
  L 91.28 107.72
  L 91.28 107.72
  L 90.12 106.52
  L 89.00 105.28
  L 87.92 103.99
  L 86.87 102.67
  L 85.87 101.31
  L 84.91 99.91
  L 83.99 98.47
  L 83.11 96.99
  L 82.26 95.46
  L 81.46 93.90
  L 80.70 92.30
  L 79.98 90.66
  L 79.30 88.98
  L 78.65 87.25
  L 78.05 85.49
  L 77.49 83.69
  L 77.45 83.53
  L 77.45 83.39
  L 77.47 83.27
  L 77.52 83.17
  L 77.52 83.17
  L 77.52 83.17
  L 77.60 83.10
  L 77.71 83.04
  L 77.84 83.01
  L 78.01 83.00
  L 85.01 83.00
  L 85.16 83.01
  L 85.30 83.04
  L 85.43 83.09
  L 85.54 83.15
  L 85.54 83.15
  L 85.63 83.24
  L 85.72 83.34
  L 85.84 83.59
  L 86.31 84.95
  L 86.82 86.29
  L 87.35 87.60
  L 87.91 88.88
  L 88.50 90.13
  L 89.12 91.35
  L 89.76 92.54
  L 90.44 93.71
  L 91.14 94.85
  L 91.88 95.95
  L 92.64 97.03
  L 93.43 98.08
  L 94.24 99.11
  L 95.09 100.10
  L 95.97 101.06
  L 96.87 102.00
  L 96.87 102.00
  L 96.87 102.00
  L 96.87 102.00
  L 96.87 102.00
  L 96.87 102.00
  L 96.87 102.00
  L 97.81 102.91
  L 98.78 103.79
  L 99.77 104.65
  L 100.80 105.47
  L 101.85 106.27
  L 102.93 107.04
  L 104.04 107.78
  L 105.18 108.49
  L 106.35 109.17
  L 107.55 109.82
  L 108.78 110.45
  L 110.04 111.04
  L 111.32 111.61
  L 112.64 112.14
  L 113.98 112.65
  L 115.35 113.13
  L 115.50 113.19
  L 115.64 113.27
  L 115.75 113.36
  L 115.84 113.47
  L 115.84 113.47
  L 115.91 113.59
  L 115.96 113.72
  L 115.99 113.87
  L 116.00 114.03
  Z"
/>
<path fill="#000000" d="
  M 170.12 83.63
  L 170.18 83.48
  L 170.25 83.35
  L 170.34 83.24
  L 170.45 83.15
  L 170.45 83.15
  L 170.45 83.15
  L 170.45 83.15
  L 170.56 83.09
  L 170.69 83.04
  L 170.83 83.01
  L 170.99 83.00
  L 177.98 83.00
  L 178.09 83.01
  L 178.20 83.05
  L 178.29 83.10
  L 178.37 83.18
  L 178.44 83.27
  L 178.48 83.38
  L 178.50 83.48
  L 178.50 83.60
  L 178.50 83.60
  L 178.48 83.67
  L 177.92 85.48
  L 177.32 87.24
  L 176.68 88.97
  L 176.00 90.65
  L 175.28 92.30
  L 174.52 93.90
  L 173.72 95.47
  L 172.88 96.99
  L 172.00 98.48
  L 171.08 99.92
  L 170.12 101.32
  L 169.12 102.69
  L 168.08 104.01
  L 167.00 105.29
  L 165.87 106.53
  L 164.71 107.74
  L 164.71 107.74
  L 164.71 107.74
  L 164.71 107.74
  L 164.71 107.74
  L 164.71 107.74
  L 163.51 108.90
  L 162.26 110.02
  L 160.98 111.10
  L 159.65 112.15
  L 158.29 113.15
  L 156.89 114.11
  L 155.44 115.03
  L 153.95 115.91
  L 152.43 116.75
  L 150.86 117.55
  L 149.26 118.31
  L 147.61 119.03
  L 145.92 119.71
  L 144.20 120.34
  L 142.43 120.94
  L 140.62 121.50
  L 140.55 121.51
  L 140.45 121.52
  L 140.35 121.50
  L 140.25 121.46
  L 140.17 121.40
  L 140.10 121.32
  L 140.04 121.23
  L 140.01 121.13
  L 140.00 121.03
  L 140.00 113.99
  L 140.01 113.84
  L 140.04 113.70
  L 140.09 113.57
  L 140.15 113.46
  L 140.15 113.46
  L 140.15 113.46
  L 140.15 113.46
  L 140.15 113.46
  L 140.24 113.36
  L 140.34 113.28
  L 140.47 113.21
  L 140.61 113.15
  L 141.99 112.67
  L 143.33 112.17
  L 144.65 111.63
  L 145.94 111.07
  L 147.20 110.48
  L 148.43 109.86
  L 149.63 109.21
  L 150.80 108.53
  L 151.94 107.82
  L 153.06 107.08
  L 154.14 106.32
  L 155.19 105.52
  L 156.22 104.69
  L 157.22 103.84
  L 158.18 102.96
  L 159.12 102.05
  L 159.12 102.05
  L 159.12 102.05
  L 159.12 102.05
  L 159.12 102.05
  L 160.03 101.11
  L 160.90 100.15
  L 161.75 99.15
  L 162.56 98.13
  L 163.35 97.08
  L 164.11 96.00
  L 164.84 94.89
  L 165.54 93.76
  L 166.22 92.59
  L 166.86 91.40
  L 167.48 90.17
  L 168.06 88.92
  L 168.62 87.64
  L 169.15 86.33
  L 169.65 85.00
  L 170.12 83.63
  Z"
/>
<rect fill="#000000" x="124.00" y="111.00" width="8.00" height="16.00" rx="0.31"/>
</svg>
