<svg width="18" height="24" viewBox="0 0 18 24" fill="none" xmlns="http://www.w3.org/2000/svg">
<path d="M4.98274 11.9431L12.0625 19.021L11.831 19.2469L2.396 14.5437L3.11443 13.8253L3.65418 13.3272L4.98274 11.9431Z" fill="#252E6F"/>
<path d="M2.41453 14.5271L2.39602 14.5438L11.831 19.2469L11.0172 20.0524L10.2007 20.8653L9.38224 21.6855L8.56104 22.5132L8.42495 22.6456L8.28422 22.7724L8.13887 22.8946L7.99075 23.0094L7.83706 23.1196L7.67967 23.2233L7.51857 23.3214L7.35378 23.4131L7.21584 23.4844L7.07604 23.5501L6.93438 23.6122L6.79088 23.6696L6.6446 23.7233L6.49833 23.7714L6.34926 23.8158L6.2002 23.8547L6.0493 23.889L5.89654 23.9195L5.74378 23.9445L5.59009 23.9649L5.43548 23.9816L5.28087 23.9917L5.12626 23.9982L4.97073 24.0001L4.81518 23.9964L4.66057 23.988L4.50596 23.976L4.35227 23.9575L4.19859 23.9353L4.04583 23.9084L3.894 23.8769L3.74309 23.8399L3.59403 23.7992L3.44497 23.7529L3.29869 23.7029L3.15242 23.6483L3.00891 23.589L2.86726 23.5251L2.72746 23.4566L2.58859 23.3844L2.50989 23.34L2.4312 23.2946L2.35436 23.2465L2.27844 23.1974L2.20253 23.1465L2.12846 23.0937L2.05439 23.0381L1.98125 22.9817L1.90996 22.9233L1.83867 22.8632L1.76832 22.8011L1.69888 22.7382L1.63037 22.6724L1.56278 22.6049L1.49613 22.5364L1.43039 22.4651L1.30726 22.3253L1.18783 22.1827L1.07117 22.0373L0.958226 21.8883L0.849901 21.7355L0.744362 21.58L0.641592 21.4207L0.543455 21.2587L0.461983 21.093L0.387918 20.9254L0.319409 20.7569L0.258307 20.5875L0.203681 20.4172L0.154616 20.245L0.112953 20.0718L0.0777712 19.8968L0.0574003 19.7737L0.0398095 19.6497L0.0249989 19.5247L0.0138895 19.3997L0.00555469 19.2738L0.000926723 19.1469L0 19.0201L0.00185345 18.8923L0.00648141 18.7646L0.0148163 18.635L0.0268524 18.5063L0.041663 18.3757L0.0592537 18.2452L0.0805458 18.1137L0.105545 17.9823L0.133318 17.8499L0.176835 17.6888L0.224052 17.5305L0.274044 17.3768L0.327743 17.2259L0.385144 17.0777L0.445319 16.9342L0.5092 16.7935L0.575862 16.6565L0.646225 16.5371L0.719363 16.4204L0.796207 16.3037L0.876753 16.188L0.961 16.0732L1.04803 15.9584L1.14061 15.8436L1.23689 15.7279L1.33503 15.6149L1.4378 15.5011L1.54797 15.3835L1.66555 15.2613L1.78776 15.1363L1.92385 15.002L2.28769 14.6493L2.41453 14.5271Z" fill="#3949AB"/>
<path d="M7.07048 0.442544L7.14732 0.478652L7.24916 0.529571L7.34915 0.583265L7.44913 0.63789L7.54728 0.696217L7.64448 0.755471L7.74077 0.817499L7.83613 0.882308L7.93057 0.948037L8.02315 1.01655L8.11573 1.08784L8.20646 1.16098L8.29626 1.23597L8.38513 1.31374L8.47217 1.39336L8.55919 1.47576L8.64437 1.56001L10.172 3.08946L11.9431 4.85777L13.4244 6.33538L15.2695 8.17776L16.8166 9.72943L16.8906 9.80535L16.961 9.88219L17.0295 9.96088L17.0962 10.0414L17.1591 10.1238L17.2193 10.2072L17.2776 10.2923L17.3322 10.3794L17.4008 10.496L17.4656 10.6154L17.5248 10.7376L17.5794 10.8626L17.6294 10.9904L17.6757 11.1209L17.7165 11.2543L17.7535 11.3903L17.7711 11.5014L17.785 11.6116L17.7961 11.7199L17.8044 11.8283L17.809 11.9347L17.8109 12.0403L17.809 12.1449L17.8044 12.2486L17.797 12.3513L17.7859 12.4532L17.772 12.5532L17.7544 12.6532L17.7341 12.7513L17.7109 12.8485L17.6841 12.9448L17.6544 13.0402L17.6211 13.1355L17.5841 13.23L17.5443 13.3235L17.5008 13.416L17.4545 13.5068L17.4045 13.5975L17.3517 13.6864L17.2952 13.7743L17.2323 13.854L17.1693 13.9308L17.1045 14.0049L17.0388 14.0761L16.6721 14.4613L16.3046 14.8446L15.9343 15.2251L15.5621 15.6047L15.1584 16.012L14.752 16.4166L14.3437 16.8194L13.9326 17.2202L13.6021 17.5461L13.18 17.9711L12.667 18.4951L12.0616 19.1182L4.98184 12.0403L4.36153 11.4172L3.73938 10.7978L3.1876 10.2497L2.63858 9.70073L2.0905 9.14894L1.54426 8.59623L1.42113 8.46661L1.3017 8.33515L1.18783 8.19998L1.07765 8.06296L0.973036 7.92223L0.873046 7.77966L0.776763 7.63338L0.686035 7.48525L0.627708 7.38433L0.571229 7.28157L0.517535 7.17787L0.464763 7.07326L0.414765 6.96679L0.367553 6.85939L0.321262 6.75107L0.277746 6.6409L0.23979 6.52239L0.204608 6.40481L0.171274 6.28816L0.141653 6.17058L0.114801 6.05393L0.0907284 5.9382L0.0694364 5.82155L0.0518456 5.70675L0.0361083 5.59102L0.0231455 5.47622L0.0129628 5.36142L0.00555469 5.24754L0.00185345 5.13367L0 5.02072L0.00185345 4.90777L0.00555469 4.79482L0.0129628 4.66613L0.0240722 4.53929L0.037035 4.41338L0.0527723 4.28932L0.0712898 4.16526L0.0935086 4.04397L0.117581 3.92269L0.144427 3.80326L0.174054 3.68568L0.206456 3.56811L0.241637 3.45238L0.279599 3.3385L0.320335 3.22555L0.363846 3.11353L0.410137 3.00336L0.459208 2.89411L0.507347 2.79412L0.557345 2.69506L0.6203 2.58118L0.686035 2.46916L0.752691 2.35899L0.822127 2.24974L0.894344 2.14327L0.967482 2.03773L1.0434 1.93404L1.12209 1.8322L1.19986 1.73406L1.28041 1.63777L1.37855 1.53686L1.47854 1.43873L1.57945 1.34429L1.68221 1.25264L1.7859 1.16468L1.89145 1.07951L1.99792 0.998035L2.10624 0.919337L2.21548 0.843419L2.32566 0.771208L2.4386 0.701772L2.55156 0.636037L2.66636 0.573082L2.78302 0.512907L2.90059 0.456428L3.01909 0.403656L3.12093 0.361072L3.22462 0.320335L3.32831 0.282374L3.43293 0.246271L3.53848 0.212937L3.64587 0.181462L3.75327 0.152762L3.86251 0.12591L3.9662 0.104618L4.06897 0.0851794L4.17174 0.0675886L4.27451 0.0518456L4.37727 0.0379617L4.48004 0.0268524L4.58188 0.0175908L4.68371 0.0101826L4.78556 0.00462796L4.8874 0.000926723L4.98831 0L5.09015 0.000926723L5.19106 0.00370689L5.29198 0.00833485L5.39197 0.0148163L5.49288 0.0240722L5.59287 0.0351816L5.69286 0.0481444L5.79193 0.062955L5.89191 0.079619L5.99097 0.0990633L6.09004 0.120355L6.1891 0.143501L6.28816 0.1685L6.3863 0.195346L6.48444 0.224973L6.58257 0.255527L6.68071 0.288855L6.77884 0.324037L6.87606 0.361998L6.97326 0.400881L7.07048 0.442544ZM7.63152 2.60748L7.57761 2.55616L7.52125 2.50754L7.46256 2.46174L7.40171 2.41889L7.33883 2.37907L7.27406 2.34238L7.20758 2.30891L7.13953 2.27875L7.07008 2.25196L6.99941 2.22862L6.92767 2.20875L6.85505 2.19245L6.7817 2.17972L6.70783 2.17061L6.63361 2.16514L6.5592 2.16332L6.48479 2.16514L6.41056 2.17061L6.33667 2.17972L6.26334 2.19245L6.19072 2.20875L6.11898 2.22862L6.0483 2.25196L5.97885 2.27875L5.91081 2.30891L5.84432 2.34238L5.77956 2.37907L5.71668 2.41889L5.65582 2.46174L5.59713 2.50754L5.54079 2.55616L5.48688 2.60748L2.69543 5.39892L2.64411 5.45283L2.59549 5.50919L2.5497 5.56786L2.50684 5.62873L2.46702 5.69161L2.43033 5.75637L2.39687 5.82285L2.3667 5.8909L2.33992 5.96035L2.31657 6.03103L2.2967 6.10277L2.2804 6.17539L2.26767 6.24872L2.25856 6.3226L2.25309 6.39683L2.25127 6.47124L2.25309 6.54565L2.25856 6.61988L2.26767 6.69375L2.2804 6.7671L2.2967 6.83972L2.31657 6.91146L2.33992 6.98213L2.3667 7.05157L2.39687 7.11962L2.43033 7.18611L2.46702 7.25088L2.50684 7.31376L2.5497 7.37461L2.59549 7.4333L2.64411 7.48965L2.69543 7.54356L2.86172 7.70985L2.91563 7.76117L2.97198 7.80979L3.03067 7.85558L3.09152 7.89844L3.15441 7.93826L3.21916 7.97495L3.28566 8.00842L3.35371 8.03858L3.42316 8.06536L3.49381 8.08871L3.56555 8.10857L3.63818 8.12487L3.71152 8.1376L3.78539 8.14671L3.85963 8.15219L3.93404 8.15401L4.00845 8.15219L4.08268 8.14671L4.15656 8.1376L4.22989 8.12487L4.30251 8.10857L4.37426 8.08871L4.44494 8.06536L4.51437 8.03858L4.58242 8.00842L4.6489 7.97495L4.71366 7.93826L4.77654 7.89844L4.83741 7.85558L4.89609 7.80979L4.95244 7.76117L5.00636 7.70985L7.7978 4.91841L7.84912 4.86449L7.89775 4.80814L7.94353 4.74946L7.9864 4.6886L8.02621 4.62571L8.0629 4.56096L8.09637 4.49447L8.12653 4.42642L8.15332 4.35698L8.17667 4.2863L8.19652 4.21456L8.21283 4.14194L8.22556 4.06861L8.23467 3.99472L8.24014 3.92049L8.24197 3.84609L8.24014 3.77168L8.23467 3.69744L8.22556 3.62357L8.21283 3.55023L8.19652 3.47761L8.17667 3.40586L8.15332 3.3352L8.12653 3.26575L8.09637 3.1977L8.0629 3.13122L8.02621 3.06645L7.9864 3.00357L7.94353 2.94272L7.89775 2.88403L7.84912 2.82767L7.7978 2.77377L7.63152 2.60748ZM7.2973 7.00289L7.23435 6.99549L7.17324 6.99086L7.11213 6.989H7.05196L6.99178 6.99178L6.93346 6.99734L6.8742 7.00475L6.8168 7.01493L6.75107 7.02974L6.68626 7.04826L6.62238 7.06955L6.5585 7.09455L6.49462 7.12232L6.43073 7.15473L6.36778 7.18898L6.30482 7.22787L6.24187 7.26953L6.17799 7.31582L6.11318 7.36489L6.04837 7.41951L5.98079 7.47784L5.91228 7.54079L5.84099 7.61023L5.766 7.68522L5.57528 7.8852L5.41789 8.0574L5.35124 8.13424L5.29384 8.20368L5.24477 8.26664L5.20402 8.32311L5.15959 8.38977L5.12071 8.45736L5.0846 8.52679L5.05219 8.59715L5.02442 8.66844L5.00035 8.74066L4.98091 8.81472L4.96517 8.88786L4.95035 8.98322L4.94295 9.08043L4.94202 9.17671L4.94758 9.27393L4.95961 9.37207L4.97906 9.4702L5.00405 9.56834L5.03646 9.66462L5.07442 9.7609L5.11886 9.85534L5.16977 9.94885L5.22624 10.0387L5.28735 10.1266L5.35493 10.2118L5.42715 10.2933L5.50399 10.371L5.58453 10.4451L5.66971 10.5136L5.75767 10.5775L5.8484 10.6358L5.94098 10.6886L6.03633 10.7358L6.13355 10.7765L6.23261 10.8117L6.33168 10.8404L6.42981 10.8626L6.5298 10.8784L6.62979 10.8867L6.72886 10.8895L6.82606 10.8858L6.9242 10.8756L7.02048 10.8589L7.11029 10.8367L7.19917 10.8089L7.28712 10.7747L7.37229 10.7349L7.45655 10.6895L7.53802 10.6395L7.61857 10.583L7.69633 10.521L7.84817 10.3914L7.98241 10.272L8.10277 10.1572L8.21201 10.0479L8.31293 9.93867L8.40366 9.83219L8.48606 9.72665L8.55919 9.62111L8.62586 9.51557L8.68326 9.41095L8.70917 9.35818L8.73232 9.3054L8.75455 9.25356L8.77399 9.20079L8.79064 9.14801L8.80639 9.09524L8.81935 9.04247L8.83139 8.9897L8.84064 8.93693L8.84713 8.88416L8.85268 8.83231L8.85546 8.77861L8.85638 8.71936L8.85453 8.66011L8.8499 8.60086L8.84342 8.54068L8.8425 8.52771L8.84342 8.5166L8.84713 8.50735L8.85175 8.50087L8.85916 8.49531L8.86842 8.49254L8.87953 8.49161L8.89249 8.49254L8.98137 8.50365L9.06932 8.51013L9.1545 8.51105L9.23875 8.50735L9.32115 8.49901L9.40262 8.48513L9.48131 8.46661L9.55908 8.44347L9.63777 8.41384L9.71555 8.37959L9.79053 8.33885L9.8646 8.29348L9.93681 8.24441L10.0072 8.19349L10.0757 8.14165L10.1414 8.08795L10.2062 8.03333L10.2683 7.97686L10.3284 7.92038L10.3858 7.86206L10.4405 7.8028L10.4932 7.74262L10.5442 7.68245L10.5914 7.62041L10.6367 7.55746L10.6802 7.4945L10.7201 7.43062L10.7571 7.36581L10.7923 7.301L10.8237 7.2362L10.8524 7.17047L10.8793 7.10473L10.9024 7.039L10.9228 6.97234L10.9404 6.90661L10.9543 6.83995L10.9663 6.77329L10.9747 6.70663L10.9802 6.64182L10.983 6.57609V6.51036L10.9793 6.44555L10.9737 6.38075L10.9645 6.31686L10.9469 6.22891L10.9237 6.14188L10.895 6.05578L10.8608 5.9706L10.821 5.88821L10.7756 5.80674L10.7247 5.72619L10.6682 5.64749L10.6071 5.57158L10.5395 5.49658L10.4682 5.42345L10.3905 5.35123L10.309 5.28272L10.221 5.21514L10.1294 5.15033L10.0312 5.08645L9.94884 5.03831L9.86553 4.99479L9.7822 4.95776L9.69702 4.92628L9.61277 4.90036L9.52668 4.87999L9.44057 4.8661L9.35448 4.85685L9.29337 4.85407H9.23226L9.17117 4.85685L9.11098 4.8624L9.04895 4.87073L8.98784 4.88185L8.92582 4.89573L8.86471 4.91239L8.80361 4.93184L8.74251 4.95406L8.68048 4.97906L8.6203 5.0059L8.55827 5.03646L8.49717 5.06978L8.43699 5.10589L8.37681 5.14385L8.3157 5.18551L8.25553 5.22903L8.19535 5.27532L8.13702 5.32438L8.07777 5.37623L8.01944 5.42993L7.96204 5.4864L7.90557 5.54473L7.84909 5.60491L7.79447 5.66786L7.74077 5.73267L7.68893 5.7984L7.63708 5.86784L7.58708 5.93728L7.53802 6.00857L7.49173 6.08078L7.46673 6.12337L7.44358 6.16688L7.42322 6.21039L7.4047 6.25576L7.38804 6.30205L7.37322 6.34927L7.36119 6.39833L7.351 6.44833L7.34267 6.49925L7.33619 6.55109L7.33248 6.60479L7.32971 6.65941V6.71497L7.33248 6.77144L7.33619 6.82977L7.34267 6.88902L7.351 6.94919L7.35193 6.96401L7.351 6.97605L7.34822 6.98623L7.34267 6.99364L7.34175 6.99456L7.33433 7.00011L7.32415 7.00289L7.31211 7.00382L7.2973 7.00289Z" fill="#5C6BC0"/>
<rect x="0.833252" y="6.51758" width="8.29174" height="10.6469" transform="rotate(-45.0631 0.833252 6.51758)" fill="#5C6BC0"/>
</svg>
