<svg width="573" height="429" viewBox="0 0 573 429" fill="none" xmlns="http://www.w3.org/2000/svg">
<path d="M517.94 421.071C578.822 374.778 605.936 246.412 507.081 183.465C441.635 141.8 400.931 165.569 327.306 138.006C237.425 104.366 224.028 2.72908 114.699 52.7399C56.7786 79.226 16.6263 153.877 9.56253 238.72C2.63973 321.806 32.0873 378.817 92.2644 417.828C233.579 423.84 375.176 422.751 517.94 421.071Z" fill="#DFF3FC"/>
<path d="M267.824 55.9423C258.628 92.8639 292.777 129.414 328.752 144.567C364.729 159.733 405.984 157.925 444.526 150.695C461.156 147.58 478.252 143.195 491.17 132.593C504.09 121.991 511.58 103.581 504.499 88.7103C498.251 75.5954 483.039 68.8777 468.537 65.4291C454.035 61.9806 438.631 60.5704 425.711 53.3142C413.461 46.4299 404.77 35.0329 394.115 26.0076C374.429 9.35446 346.775 1.09837 321.181 6.36739C295.573 11.6364 275.64 24.559 267.824 55.9423Z" fill="#DFF3FC"/>
<path d="M543.278 225.764V197.832H532.687C531.415 192.948 529.475 188.343 526.991 184.101L534.48 176.6L514.727 156.847L507.226 164.337C502.985 161.852 498.38 159.914 493.496 158.641V148.05H465.564V158.641C460.68 159.914 456.075 161.852 451.833 164.337L444.332 156.847L424.579 176.6L432.069 184.101C429.584 188.342 427.657 192.947 426.373 197.832H415.782V225.764H426.373C427.657 230.647 429.584 235.252 432.069 239.494L424.579 246.995L444.332 266.748L451.833 259.259C456.074 261.743 460.679 263.67 465.564 264.954V275.545H493.496V264.954C498.379 263.67 502.984 261.743 507.226 259.259L514.727 266.748L534.48 246.995L526.991 239.494C529.475 235.253 531.413 230.648 532.687 225.764H543.278ZM479.539 235.998C466.17 235.998 455.331 225.159 455.331 211.79C455.331 198.435 466.17 187.597 479.539 187.597C492.893 187.597 503.731 198.435 503.731 211.79C503.731 225.16 492.893 235.998 479.539 235.998Z" fill="#A2C7EB"/>
<path d="M458.871 295.749L453.558 281.897L448.305 283.913C446.745 281.733 444.908 279.818 442.868 278.187L445.155 273.043L431.602 267.004L429.307 272.145C426.732 271.72 424.079 271.635 421.415 271.932L419.4 266.68L405.548 271.994L407.563 277.246C405.384 278.806 403.469 280.644 401.838 282.683L396.693 280.396L390.655 293.949L395.796 296.244C395.371 298.82 395.292 301.471 395.583 304.136L390.331 306.152L395.644 320.004L400.897 317.988C402.463 320.166 404.294 322.083 406.334 323.714L404.047 328.858L417.6 334.897L419.895 329.756C422.47 330.181 425.121 330.26 427.787 329.969L429.802 335.221L443.654 329.907L441.639 324.655C443.817 323.088 445.733 321.257 447.364 319.218L452.509 321.505L458.547 307.951L453.406 305.657C453.832 303.081 453.916 300.429 453.619 297.765L458.871 295.749ZM429.208 312.953C422.579 315.496 415.141 312.183 412.598 305.553C410.057 298.93 413.369 291.493 420 288.95C426.623 286.409 434.06 289.723 436.601 296.344C439.144 302.973 435.831 310.412 429.208 312.953Z" stroke="#A2C7EB" stroke-miterlimit="10"/>
<path d="M413.486 247.162L409.895 237.802L406.347 239.163C405.293 237.69 404.051 236.397 402.673 235.294L404.217 231.817L395.059 227.738L393.508 231.212C391.767 230.925 389.974 230.867 388.174 231.069L386.813 227.52L377.453 231.111L378.815 234.66C377.341 235.713 376.048 236.956 374.945 238.333L371.469 236.788L367.389 245.946L370.864 247.498C370.576 249.238 370.523 251.029 370.72 252.831L367.171 254.192L370.762 263.552L374.311 262.191C375.37 263.662 376.607 264.957 377.985 266.06L376.44 269.536L385.599 273.616L387.15 270.142C388.891 270.429 390.682 270.483 392.483 270.285L393.845 273.834L403.205 270.243L401.843 266.694C403.315 265.637 404.61 264.398 405.711 263.021L409.188 264.566L413.267 255.407L409.793 253.856C410.08 252.115 410.138 250.323 409.936 248.523L413.486 247.162ZM393.443 258.784C388.964 260.502 383.939 258.264 382.22 253.784C380.503 249.309 382.741 244.285 387.221 242.566C391.695 240.849 396.72 243.087 398.437 247.563C400.157 252.042 397.918 257.068 393.443 258.784Z" stroke="#A2C7EB" stroke-miterlimit="10"/>
<path d="M410.227 83.2848C410.227 97.3202 403.667 109.831 393.461 117.915C385.946 123.879 376.444 127.418 366.093 127.418C355.769 127.418 346.266 123.879 338.725 117.915C328.506 109.831 321.959 97.3202 321.959 83.2848C321.959 58.9114 341.72 39.1507 366.093 39.1507C390.466 39.1507 410.227 58.9114 410.227 83.2848Z" fill="#0097D8" stroke="#0097D8" stroke-miterlimit="10"/>
<path d="M367.873 83.1078C375.792 82.1304 381.42 74.9191 380.442 67.0008C379.465 59.0826 372.253 53.4559 364.334 54.4333C356.415 55.4107 350.788 62.6221 351.765 70.5403C352.743 78.4585 359.954 84.0852 367.873 83.1078Z" fill="#ECEFFD"/>
<path d="M393.461 112.349C385.946 118.313 376.444 121.852 366.093 121.852C355.769 121.852 346.266 118.314 338.725 112.349C341.548 99.9303 344.145 89.2089 346.849 86.4924C350.666 82.6759 360.805 80.449 366.079 80.449C371.353 80.449 381.97 83.1528 383.931 85.1142C387.935 89.1025 391.381 100.116 393.461 112.349Z" fill="#ECEFFD"/>
<path d="M302.666 192.08V170.286C302.666 164.338 307.486 159.518 313.435 159.518H382.099C388.047 159.518 392.868 164.338 392.868 170.286V192.08C392.868 198.029 388.047 202.849 382.099 202.849H313.448C307.499 202.862 302.666 198.029 302.666 192.08Z" fill="#0097D8"/>
<path d="M331.665 190.94L298.436 223.31L352.292 196.093" fill="#0097D8"/>
<path d="M310.999 169.748V169.633C310.999 168.748 311.717 168.03 312.602 168.03H346.549C347.433 168.03 348.151 168.748 348.151 169.633V169.748C348.151 170.633 347.433 171.351 346.549 171.351H312.602C311.717 171.351 310.999 170.633 310.999 169.748Z" fill="#ECEFFD"/>
<path d="M349.677 169.748V169.633C349.677 168.748 350.395 168.03 351.279 168.03H380.906C381.791 168.03 382.509 168.748 382.509 169.633V169.748C382.509 170.633 381.791 171.351 380.906 171.351H351.279C350.395 171.351 349.677 170.633 349.677 169.748Z" fill="#ECEFFD"/>
<path d="M336.742 177.043V176.927C336.742 176.043 337.46 175.325 338.344 175.325H380.907C381.791 175.325 382.509 176.043 382.509 176.927V177.043C382.509 177.927 381.791 178.645 380.907 178.645H338.344C337.46 178.645 336.742 177.927 336.742 177.043Z" fill="#ECEFFD"/>
<path d="M310.999 177.043V176.927C310.999 176.043 311.717 175.325 312.602 175.325H331.614C332.498 175.325 333.216 176.043 333.216 176.927V177.043C333.216 177.927 332.498 178.645 331.614 178.645H312.602C311.717 178.645 310.999 177.927 310.999 177.043Z" fill="#ECEFFD"/>
<path d="M342.651 184.337V184.222C342.651 183.337 343.369 182.619 344.254 182.619H380.906C381.791 182.619 382.509 183.337 382.509 184.222V184.337C382.509 185.222 381.791 185.94 380.906 185.94H344.254C343.369 185.94 342.651 185.222 342.651 184.337Z" fill="#ECEFFD"/>
<path d="M310.999 184.337V184.222C310.999 183.337 311.717 182.619 312.602 182.619H337.921C338.806 182.619 339.524 183.337 339.524 184.222V184.337C339.524 185.222 338.806 185.94 337.921 185.94H312.602C311.717 185.94 310.999 185.222 310.999 184.337Z" fill="#ECEFFD"/>
<path d="M310.999 191.632V191.516C310.999 190.632 311.717 189.914 312.602 189.914H321.999C322.883 189.914 323.601 190.632 323.601 191.516V191.632C323.601 192.516 322.883 193.234 321.999 193.234H312.602C311.717 193.234 310.999 192.516 310.999 191.632Z" fill="#ECEFFD"/>
<path d="M326.921 191.632V191.516C326.921 190.632 327.639 189.914 328.524 189.914H380.906C381.791 189.914 382.509 190.632 382.509 191.516V191.632C382.509 192.516 381.791 193.234 380.906 193.234H328.524C327.639 193.234 326.921 192.516 326.921 191.632Z" fill="#ECEFFD"/>
<path d="M133.185 161.23C143.078 139.968 133.862 114.711 112.6 104.817C91.3383 94.9239 66.0817 104.14 56.1882 125.402C46.2947 146.664 55.5107 171.921 76.7727 181.814C98.0348 191.708 123.291 182.492 133.185 161.23Z" fill="#0097D8"/>
<path d="M88.0785 173.866C93.4401 171.983 96.2599 166.11 94.3766 160.749C92.4934 155.387 86.6203 152.567 81.2588 154.45C75.8972 156.334 73.0774 162.207 74.9607 167.568C76.8439 172.93 82.717 175.75 88.0785 173.866Z" fill="#ECEFFD"/>
<path d="M79.2635 167.849L78.7661 161.324L84.1697 157.632L90.0695 160.464L90.5656 166.989L85.1633 170.683L79.2635 167.849Z" fill="#0097D8"/>
<path d="M108.13 132.159C113.481 130.247 116.268 124.358 114.355 119.008C112.443 113.657 106.554 110.87 101.204 112.783C95.8528 114.695 93.0657 120.584 94.9785 125.934C96.8913 131.285 102.78 134.072 108.13 132.159Z" fill="#ECEFFD"/>
<path d="M99.5742 125.547L99.9281 117.25L106.18 111.785L112.08 114.618L111.726 122.915L105.473 128.379L99.5742 125.547Z" fill="#0097D8"/>
<path d="M91.7926 159.401L83.9224 155.622L89.7388 142.203C90.108 141.352 90.5093 140.515 90.9426 139.694L97.7769 126.764L105.647 130.543L100.037 143.758C99.6038 144.78 99.1218 145.781 98.5961 146.759L91.7926 159.401Z" fill="#ECEFFD"/>
<path d="M124.166 166.161C125.682 165.457 150.044 166.569 150.044 166.569L132.483 150.446L124.166 166.161Z" fill="#0097D8"/>
<path d="M231.674 71.518C240.825 50.3641 231.094 25.7977 209.94 16.6475C188.786 7.49725 164.22 17.2281 155.069 38.382C145.919 59.5359 155.65 84.1022 176.804 93.2525C197.958 102.403 222.524 92.6718 231.674 71.518Z" fill="#0097D8"/>
<path d="M194.773 19.3887H191.986V54.436H194.773V19.3887Z" fill="#ECEFFD"/>
<path d="M162.584 74.6694L164.17 76.9609L193.378 56.7441L191.792 54.4526L162.584 74.6694Z" fill="#ECEFFD"/>
<path d="M197.221 54.9526C197.221 57.0743 195.502 58.7935 193.38 58.7935C191.258 58.7935 189.539 57.0743 189.539 54.9526C189.539 52.8309 191.258 51.1118 193.38 51.1118C195.502 51.1118 197.221 52.8322 197.221 54.9526Z" fill="#ECEFFD"/>
<path d="M306.679 337.536C304.204 299.384 320.896 259.898 349.01 237.309C349.882 275.654 333.357 314.46 306.679 337.536Z" fill="#A2C7EB"/>
<path d="M344.421 247.578C332.575 269.654 322.332 292.756 313.819 316.588C303.474 345.523 295.333 376.265 277.616 400.521" stroke="#6F8BBF" stroke-miterlimit="10" stroke-linecap="round"/>
<path d="M297.808 361.535C312.038 329.703 340.28 305.653 371.42 298.845C358.164 332.959 328.345 358.984 297.808 361.535Z" fill="#A2C7EB"/>
<path d="M363.779 305.858C342.511 324.575 320.884 342.767 298.897 360.42" stroke="#6F8BBF" stroke-miterlimit="10" stroke-linecap="round"/>
<path d="M289.41 389.265C308.422 360.869 343.498 346.049 372.522 354.151C351.177 382.188 316.024 397.047 289.41 389.265Z" fill="#A2C7EB"/>
<path d="M365.561 356.202C340.639 371.791 313.755 383.304 286.039 390.226" stroke="#6F8BBF" stroke-miterlimit="10" stroke-linecap="round"/>
<path d="M299.679 351.882C305.756 319.909 296.641 284.269 276.347 260.693C268.027 292.115 275.962 328.934 299.679 351.882Z" fill="#A2C7EB"/>
<path d="M278.437 268.847C282.436 298.589 289.551 326.447 300.577 353.677" stroke="#6F8BBF" stroke-miterlimit="10" stroke-linecap="round"/>
<path d="M289.244 379.111C286.654 346.241 269.808 315.37 245.168 298.333C246.591 315.742 251.22 332.524 258.565 347.779C267.014 365.304 279.424 376.419 289.244 379.111Z" fill="#A2C7EB"/>
<path d="M248.822 304.986C258.514 332.395 272.462 357.805 289.859 379.804" stroke="#6F8BBF" stroke-miterlimit="10" stroke-linecap="round"/>
<path d="M479.531 371.227C492.979 336.241 523.914 307.858 558.028 299.217C543.079 333.729 512.568 361.548 479.531 371.227Z" fill="#A2C7EB"/>
<path d="M549.759 306.486C530.247 321.319 511.709 337.716 494.428 355.471C473.428 377.035 453.622 401.085 428.02 415.469" stroke="#6F8BBF" stroke-miterlimit="10" stroke-linecap="round"/>
<path d="M461.852 388.983C487.479 366.433 522.298 356.535 552.605 363.176C526.914 388.162 489.889 399.175 461.852 388.983Z" fill="#A2C7EB"/>
<path d="M542.977 366.317C516.504 374.317 489.928 381.688 463.262 388.444" stroke="#6F8BBF" stroke-miterlimit="10" stroke-linecap="round"/>
<path d="M443.058 410.264C471.506 392.726 508.581 393.842 530.914 412.905C500.556 429.161 463.391 428.045 443.058 410.264Z" fill="#A2C7EB"/>
<path d="M523.927 411.879C495.518 415.597 467.019 414.879 439.699 409.738" stroke="#6F8BBF" stroke-miterlimit="10" stroke-linecap="round"/>
<path d="M467.467 381.15C485.941 355.151 492.492 319.678 484.223 290.397C463.98 314.986 455.903 351.023 467.467 381.15Z" fill="#A2C7EB"/>
<path d="M482.722 298.499C474.056 326.626 468.941 354.343 467.531 383.111" stroke="#6F8BBF" stroke-miterlimit="10" stroke-linecap="round"/>
<path d="M447.083 401.149C458.262 370.817 456.031 336.434 441.237 311.204C435.366 327.293 432.571 344.126 432.814 360.715C433.084 379.765 439.494 394.739 447.083 401.149Z" fill="#A2C7EB"/>
<path d="M441.725 318.614C439.058 346.985 440.968 375.317 447.327 402.008" stroke="#6F8BBF" stroke-miterlimit="10" stroke-linecap="round"/>
<path d="M98.3882 310.058C84.6785 268.125 46.4198 234.243 1.9126 224.628C20.6247 260.905 54.563 289.777 98.3882 310.058Z" fill="#A2C7EB"/>
<path d="M100.71 316.563C70.6792 299.58 33.0525 295.835 0.43457 306.571C30.6885 321.683 66.5358 325.893 100.71 316.563Z" fill="#A2C7EB"/>
<path d="M109.016 325.656C76.5595 321.157 42.5711 329.158 16.2119 347.497C46.1017 358.362 81.9606 351.316 109.016 325.656Z" fill="#A2C7EB"/>
<path d="M119.136 345.521C86.9953 345.387 55.394 360.662 36.5024 385.465C50.807 388.332 65.9974 386.618 79.12 380.676C92.2425 374.731 103.237 364.589 119.136 345.521Z" fill="#A2C7EB"/>
<path d="M141.796 378.756C110.103 373.323 76.3355 383.143 53.4839 404.444C67.1244 409.624 82.3968 410.452 96.3514 406.772C110.307 403.093 122.872 394.92 141.796 378.756Z" fill="#A2C7EB"/>
<path d="M107.58 312.044C86.6528 283.836 80.9736 245.824 92.8628 213.487C101.942 228.862 109.776 245.118 113.433 262.397C117.089 279.677 116.379 298.099 107.58 312.044Z" fill="#A2C7EB"/>
<path d="M120.366 339.259C115.409 309.29 125.656 277.527 147.3 255.823C149.791 286.828 140.304 318.414 120.366 339.259Z" fill="#A2C7EB"/>
<path d="M11.6558 232.142C75.3507 272.895 125.164 333.64 151.459 402.655" stroke="#6F8BBF" stroke-miterlimit="10" stroke-linecap="round"/>
<path d="M94.8408 228.359C102.588 259.818 107.302 291.935 108.897 324.148" stroke="#6F8BBF" stroke-miterlimit="10" stroke-linecap="round"/>
<path d="M142.542 267.99C140.003 293.371 132.16 318.178 119.63 340.522" stroke="#6F8BBF" stroke-miterlimit="10" stroke-linecap="round"/>
<path d="M13.8418 307.303C43.0432 312.855 72.7241 315.865 102.41 316.308" stroke="#6F8BBF" stroke-miterlimit="10" stroke-linecap="round"/>
<path d="M31.4385 345.004C58.3643 343.048 84.8543 336.525 109.34 325.81" stroke="#6F8BBF" stroke-miterlimit="10" stroke-linecap="round"/>
<path d="M47.5698 380.937C72.415 368.544 97.2627 356.135 122.108 343.742" stroke="#6F8BBF" stroke-miterlimit="10" stroke-linecap="round"/>
<path d="M63.7295 402.822C96.1679 396.563 105.806 389.094 141.808 378.759" stroke="#6F8BBF" stroke-miterlimit="10" stroke-linecap="round"/>
<path d="M269.09 343.408C269.09 343.408 271.898 369.137 275.039 371.201C280.654 374.906 345.651 383.47 345.651 383.47L343.523 400.38C343.523 400.38 254.501 408.379 250.719 403.931C244.155 396.213 232.617 358.984 232.617 358.984L269.09 343.408Z" fill="#E06A58"/>
<path d="M226.169 277.167L233.361 259.898C233.361 259.898 252.873 269.065 259.309 280.385C266.193 292.487 274.616 356.83 274.616 356.83C274.616 356.83 240.168 364.766 233.835 361.394C227.502 358.022 226.169 277.167 226.169 277.167Z" fill="#F2AE30"/>
<path d="M171.389 197.016C166.351 195.17 161.018 193.555 155.621 193.965C150.223 194.375 144.711 197.234 142.878 201.977C141.57 205.336 142.172 209.298 140.108 212.323C138.134 215.221 134.211 216.426 130.545 216.669C126.865 216.926 123.16 216.438 119.507 216.913C108.225 218.413 100.174 230.669 103.879 240.707C105.353 244.706 108.379 248.527 107.687 252.693C106.956 257.155 102.277 260.091 100.354 264.231C97.8024 269.744 100.854 276.423 105.892 280.179C110.93 283.923 117.481 285.346 123.84 286.295C132.596 287.602 141.634 288.218 150.288 286.372C158.941 284.525 167.21 279.961 171.684 272.834C173.671 269.68 174.876 266.116 177.184 263.154C181.953 257.039 190.401 254.668 197.055 250.334C204.324 245.578 209.657 236.322 205.375 229.079C201.247 222.118 190.504 220.566 186.196 213.708C184.414 210.875 183.991 207.503 182.837 204.413C181.658 201.311 178.838 199.747 171.389 197.016Z" fill="#0A2240"/>
<path d="M200.747 282.41C202.016 283.872 203.516 285.474 205.593 285.615C207.785 285.769 209.618 284.218 211.029 282.718C218.31 275.013 223.118 265.552 225.067 255.796C223.259 254.77 221.515 253.783 219.939 252.86C218.477 251.988 217.375 250.77 216.746 249.347C216.31 248.296 216.157 247.194 216.272 246.04C217.298 236.399 218.208 231.028 221.592 221.246C205.516 217.618 190.35 213.31 181.632 206.029C180.568 210.516 179.312 219.297 176.633 228.002C173.774 237.22 169.312 246.335 161.749 250.258C176.594 259.026 189.837 269.923 200.747 282.41Z" fill="#F9A07B"/>
<path d="M216.272 246.053C216.156 247.206 216.31 248.322 216.746 249.36C207.234 260.898 185.965 245.822 176.632 228.015C179.312 219.31 180.568 210.528 181.632 206.041C190.337 213.323 205.516 217.643 221.592 221.259C218.208 231.04 217.297 236.399 216.272 246.053Z" fill="#E06A58"/>
<path d="M242.758 385.534C240.655 399.457 255.681 414.443 256.052 421.879C224.143 421.879 157.3 423.828 123.263 419.2C121.712 410.61 138.519 391.29 138.519 372.214C138.519 369.689 138.416 366.92 138.211 363.945C137.672 355.433 136.416 345.305 135.019 334.921C131.224 307.063 126.173 277.269 129.904 271.09C137.211 259.052 154.3 250.873 162.774 247.36C165.684 246.155 167.582 245.501 167.723 245.424C178.35 263.552 199.978 279.013 208.144 278.321C210.413 278.141 217.144 275.795 221.592 253.398C223.323 254.386 225.054 255.296 226.771 256.18C235.22 260.578 243.143 264.206 245.425 269.859C251.45 284.743 257.36 322.267 256.052 335.613C254.732 349.074 249.322 359.356 245.527 372.868C244.643 376.035 243.835 379.393 243.181 383.009C243.014 383.816 242.886 384.662 242.758 385.534Z" fill="#FFC73C"/>
<path d="M256.052 421.879C224.143 421.879 157.3 423.828 123.263 419.2C121.712 410.61 138.519 391.29 138.519 372.214C138.519 369.689 138.416 366.92 138.211 363.945C137.672 355.433 136.416 345.305 135.019 334.921C141.057 341.292 149.864 314.37 153.762 322.255C174.85 364.817 191.478 376.009 220.374 376.009C228.989 376.009 236.938 374.817 245.527 372.868C244.643 376.035 243.835 379.393 243.181 383.009C243.027 383.829 242.886 384.675 242.758 385.547C240.656 399.444 255.681 414.431 256.052 421.879Z" fill="#FFBB33"/>
<path d="M226.771 256.18C225.4 266.142 221.336 279.564 209.516 283.102C193.542 287.884 170.427 258.039 162.774 247.36C165.684 246.155 167.581 245.501 167.722 245.424C178.35 263.552 199.978 279.013 208.144 278.321C210.413 278.141 217.144 275.795 221.592 253.398C223.323 254.373 225.053 255.283 226.771 256.18Z" fill="#FCE172"/>
<path d="M233.336 406.892L233.22 418.007L431.93 419.187L432.34 406.585L233.336 406.892Z" fill="#325F73"/>
<path d="M518.055 307.73L513.632 303.243L368.894 302.294L296.282 407.303L300.076 410.354L518.055 307.73Z" fill="#325F73"/>
<path d="M371.689 306.178L300.077 410.354L436.866 411.033L518.055 307.73L371.689 306.178Z" fill="#0B2D50"/>
<path d="M406.252 372.676C415.045 372.676 422.174 369.111 422.174 364.715C422.174 360.318 415.045 356.753 406.252 356.753C397.458 356.753 390.329 360.318 390.329 364.715C390.329 369.111 397.458 372.676 406.252 372.676Z" fill="#3C738C"/>
<path d="M236.274 203.34C238.53 191.236 246.83 182.63 254.814 184.117C262.799 185.605 267.442 196.623 265.186 208.727C262.929 220.832 254.63 229.438 246.645 227.951C238.662 226.464 234.019 215.445 236.274 203.34Z" fill="#56C4F9"/>
<path d="M265.206 170.735C263.719 181.273 259.014 192.888 252.155 205.721C249.745 195.208 248.207 182.401 246.079 169.594C243.912 156.761 241.156 143.929 236.374 133.442C235.297 131.121 234.131 128.903 232.861 126.852C235.695 126.583 238.566 126.852 241.297 127.609C245.566 128.75 249.566 130.955 252.835 133.903C258.271 138.736 261.911 145.326 264.078 152.274C265.86 158.043 266.181 164.171 265.206 170.735Z" fill="#0B2D50"/>
<path d="M257.155 181.632C257.078 183.709 256.937 185.824 256.745 187.927C253.822 222.028 239.502 245.424 217.593 245.424C186.658 245.424 166.607 210.734 166.607 176.748C166.607 143.223 187.145 118.955 211.183 121.763C225.041 123.352 235.169 127.955 242.361 134.698C247.117 139.185 250.553 144.608 252.899 150.774C255.578 157.684 256.873 165.505 257.142 173.927C257.142 173.953 257.168 173.979 257.168 174.004C257.27 176.491 257.245 179.03 257.155 181.632Z" fill="#F9A07B"/>
<path d="M257.155 181.632C256.232 178.337 254.86 175.12 252.988 172.235C234.746 181.773 213.003 185.452 192.388 181.965C188.465 185.235 184.632 188.452 180.773 191.67C180.85 176.158 181.068 165.658 187.119 158.146C192.799 151.095 202.273 148.441 211.247 147.287C221.349 145.967 231.618 146.018 241.694 147.48C245.553 148.018 249.553 148.851 252.912 150.8C255.591 157.71 256.886 165.53 257.155 173.953C257.155 173.979 257.181 174.004 257.181 174.03C257.27 176.491 257.245 179.03 257.155 181.632Z" fill="#E06A58"/>
<path d="M261.616 160.633C257.373 164.223 252.053 167.197 246.079 169.607C229.079 176.466 206.99 178.735 189.773 177.902C181.312 196.491 177.889 203.157 175.722 219.374C167.454 211.618 160.723 197.414 158.723 186.247C156.749 175.12 156.941 163.441 160.044 152.505C164.928 135.262 177.248 126.032 185.786 121.545C187.914 120.378 189.837 119.571 191.324 118.981C202.234 114.763 214.529 115.148 225.72 118.571C231.823 120.468 236.964 123.673 241.284 127.621C250.014 135.506 255.412 146.185 258.899 154.185C260.001 156.633 260.886 158.851 261.616 160.633Z" fill="#0B2D50"/>
<path d="M265.206 170.735C264.501 167.005 263.45 163.389 261.963 159.902C261.13 157.928 260.104 156.018 258.912 154.172C255.027 148.069 249.374 143.044 242.541 140.826C240.592 138.095 238.541 135.634 236.387 133.455C228.631 125.57 219.529 121.058 209.888 119.481C201.863 118.186 193.517 118.917 185.812 121.532C187.94 120.365 189.863 119.558 191.35 118.968C202.26 114.75 214.554 115.135 225.746 118.558C231.849 120.455 236.989 123.66 241.31 127.609C245.579 128.75 249.579 130.955 252.848 133.903C258.283 138.736 261.924 145.326 264.091 152.274C265.86 158.043 266.181 164.171 265.206 170.735Z" fill="#225570"/>
<path d="M199.632 191.645C205.35 188.375 211.285 186.901 219.605 189.939" stroke="#0B2D50" stroke-width="2" stroke-miterlimit="10" stroke-linecap="round"/>
<path d="M238.784 191.414C243.681 187.76 250.938 187.388 254.719 191.414" stroke="#0B2D50" stroke-width="2" stroke-miterlimit="10" stroke-linecap="round"/>
<path d="M232.874 210.054C233.374 212.644 233.105 218.374 231.874 220.951" stroke="#CC454E" stroke-width="2" stroke-miterlimit="10" stroke-linecap="round"/>
<path d="M213.554 211.798C214.857 211.798 215.913 210.133 215.913 208.08C215.913 206.026 214.857 204.362 213.554 204.362C212.251 204.362 211.195 206.026 211.195 208.08C211.195 210.133 212.251 211.798 213.554 211.798Z" fill="#262D40"/>
<path d="M244.386 210.067C245.689 210.067 246.745 208.402 246.745 206.349C246.745 204.296 245.689 202.631 244.386 202.631C243.083 202.631 242.027 204.296 242.027 206.349C242.027 208.402 243.083 210.067 244.386 210.067Z" fill="#262D40"/>
<path d="M229.951 226.015C229.951 226.015 229.49 226.912 228.605 228.13C227.221 229.989 224.862 232.553 221.644 233.553H221.631C220.272 233.989 218.798 234.143 217.157 233.848C212.337 232.989 211.067 228.54 210.837 225.118C210.785 224.451 210.785 223.836 210.798 223.271C210.824 221.887 210.978 220.964 210.978 220.964C218.657 225.194 229.951 226.015 229.951 226.015Z" fill="#CC454E"/>
<path d="M229.951 226.015C229.951 226.015 229.489 226.912 228.605 228.13C224.682 228.079 216.657 226.066 210.798 223.271C210.823 221.887 210.977 220.964 210.977 220.964C218.657 225.194 229.951 226.015 229.951 226.015Z" fill="#ECEFFD"/>
<path d="M221.631 233.54C220.272 233.976 218.798 234.13 217.157 233.835C212.336 232.976 211.067 228.528 210.836 225.105C213.17 225.387 215.426 226.284 217.298 227.707C219.259 229.207 220.759 231.245 221.631 233.54Z" fill="#E8729B"/>
<path d="M175.799 185.76C175.799 185.76 175.53 169.774 182.184 153.89C190.53 133.955 207.542 125.429 224.041 124.852C243.925 124.147 256.373 137.493 256.373 137.493C256.373 137.493 249.899 126.07 237.13 122.788C228.746 120.635 216.093 120.288 205.939 124.416C195.478 128.66 182.44 140.441 177.722 152.89C173.017 165.338 170.723 184.722 170.723 184.722L175.799 185.76Z" fill="#3D86E0"/>
<path d="M175.458 227.374C183.972 226.489 189.787 215.313 188.446 202.413C187.105 189.513 179.116 179.773 170.602 180.658C162.088 181.543 156.273 192.718 157.614 205.618C158.956 218.519 166.945 228.259 175.458 227.374Z" fill="#56C4F9"/>
<path d="M166.288 188.222C171.784 187.396 177.419 194.565 178.871 204.234C180.324 213.903 177.047 222.411 171.55 223.237C166.054 224.062 160.419 216.894 158.967 207.225C157.514 197.556 160.792 189.047 166.288 188.222Z" fill="#3D86E0"/>
<path d="M224.17 245.899C228.729 245.899 232.426 243.597 232.426 240.758C232.426 237.919 228.729 235.617 224.17 235.617C219.61 235.617 215.914 237.919 215.914 240.758C215.914 243.597 219.61 245.899 224.17 245.899Z" fill="#3A92C9"/>
<path d="M182.697 223.566C182.697 223.566 194.825 239.155 215.913 240.758" stroke="#3A92C9" stroke-width="2" stroke-miterlimit="10" stroke-linecap="round"/>
<path d="M233.22 377.214L232.425 397.713C232.425 397.713 158.287 419.93 146.044 412.905C140.07 409.469 134.493 390.573 130.326 372.125C125.968 352.741 123.173 333.87 123.173 333.87L166.633 325.357C166.633 325.357 166.658 351.856 168.133 367.176C168.658 372.881 169.415 377.035 170.427 377.714C174.261 380.24 233.22 377.214 233.22 377.214Z" fill="#F9A07B"/>
<path d="M168.133 367.15C160.235 369.714 144.992 373.676 130.326 372.112C125.968 352.728 123.173 333.857 123.173 333.857L166.633 325.344C166.633 325.332 166.658 351.83 168.133 367.15Z" fill="#E06A58"/>
<path d="M231.104 377.419C242.129 375.06 260.795 369.394 268.539 367.445C274.038 366.061 288.358 373.471 292.14 380.458C293.794 383.509 295.358 400.79 289.628 399.008C286.756 398.111 287.23 390.701 286.333 387.675C285.602 385.214 283.269 382.829 279.718 380.778C282.089 386.688 282 391.842 281.743 398.226C281.692 399.636 281.602 401.111 280.923 402.328C280.231 403.546 278.743 404.418 277.461 403.88C276.154 403.341 275.705 401.713 275.41 400.29C274.397 395.367 273.372 390.444 272.962 384.88C273.064 390.355 272.949 395.842 272.603 401.303C272.346 405.482 270.269 407.777 267.718 407.046C266.577 406.726 266.116 405.674 265.629 404.29C264.859 406.969 262.936 409.931 260.449 408.803C258.936 408.123 258.001 402.662 258.27 397.047C253.501 400.008 248.116 401.264 241.912 401.546C236.348 401.803 230.656 400.764 227.31 396.983C227.643 391.073 229.592 382.329 231.104 377.419Z" fill="#F9A07B"/>
<path d="M265.744 403.444C266.116 399.008 265.731 394.508 264.603 390.226" stroke="#CC454E" stroke-miterlimit="10" stroke-linecap="round"/>
<path d="M161.748 282.359C158.595 273.475 147.044 255.296 147.044 255.296C147.044 255.296 129.416 262.629 123.16 275.077C112.571 296.153 117.955 356.664 117.955 356.664C132.224 362.638 160.864 362.727 173.056 361.01C173.056 361.01 168.069 300.115 161.748 282.359Z" fill="#FFC73C"/>
<path d="M163.992 286.077C168.799 309.089 171.376 330.549 172.196 351.574" stroke="#F2AE30" stroke-miterlimit="10" stroke-linecap="round"/>
<path d="M541.285 415.533H35.8179V428.212H541.285V415.533Z" fill="#0B2D50"/>
</svg>
