<?xml version="1.0" standalone="no"?>
<!DOCTYPE svg PUBLIC "-//W3C//DTD SVG 20010904//EN"
 "http://www.w3.org/TR/2001/REC-SVG-20010904/DTD/svg10.dtd">
<svg version="1.0" xmlns="http://www.w3.org/2000/svg"
 width="512.000000pt" height="512.000000pt" viewBox="0 0 512.000000 512.000000"
 preserveAspectRatio="xMidYMid meet">
<metadata>
Created by potrace 1.14, written by Peter Selinger 2001-2017
</metadata>
<g transform="translate(0.000000,512.000000) scale(0.100000,-0.100000)"
fill="#000000" stroke="none">
<path d="M2379 4302 c-149 -56 -239 -160 -270 -310 -21 -101 12 -242 72 -308
19 -20 19 -22 -15 -95 -30 -66 -76 -202 -105 -316 -11 -39 -14 -42 -62 -52
-135 -29 -218 -125 -219 -252 0 -77 24 -140 73 -189 102 -104 261 -107 365 -7
125 119 99 333 -49 415 -47 26 -48 28 -43 62 8 45 75 250 103 313 l21 48 27
-19 c147 -104 355 -85 493 44 208 195 148 531 -118 651 -75 34 -204 41 -273
15z"/>
<path d="M1714 3951 c-30 -13 -71 -66 -79 -101 -9 -41 9 -91 46 -126 26 -25
38 -29 89 -29 51 0 63 4 90 30 61 59 62 141 0 200 -31 30 -105 43 -146 26z"/>
<path d="M3202 3940 c-112 -68 -59 -250 73 -250 52 0 84 17 112 59 44 65 21
161 -46 196 -41 21 -100 19 -139 -5z"/>
<path d="M3605 3622 c-28 -10 -67 -28 -87 -40 -51 -32 -126 -116 -149 -167
-18 -42 -23 -45 -57 -45 -49 0 -176 -23 -282 -50 -138 -36 -133 -36 -163 4
-110 143 -331 127 -427 -31 -65 -106 -48 -226 44 -318 165 -165 439 -48 439
187 l0 57 76 20 c92 25 208 47 277 54 l52 6 4 -82 c17 -323 390 -487 642 -282
101 83 150 194 144 328 -3 67 -9 94 -35 147 -41 84 -107 151 -190 192 -56 27
-78 32 -152 35 -63 2 -100 -2 -136 -15z"/>
<path d="M1209 3591 c-61 -13 -144 -60 -192 -110 -167 -170 -151 -444 34 -591
71 -56 147 -82 244 -82 l80 0 48 -67 c26 -37 93 -114 148 -172 l100 -104 -16
-45 c-46 -135 13 -276 140 -336 93 -44 195 -27 279 46 60 54 81 102 81 195 0
69 -4 86 -27 127 -83 140 -251 178 -380 86 l-31 -22 -87 91 c-87 90 -180 204
-180 220 0 4 14 14 30 21 57 26 138 110 172 180 31 62 33 73 33 172 0 99 -2
109 -33 172 -66 135 -185 215 -329 223 -43 2 -94 1 -114 -4z"/>
<path d="M3035 2956 c-88 -40 -146 -129 -147 -224 -1 -113 41 -188 136 -242
43 -25 62 -30 119 -30 68 0 122 16 159 48 14 12 20 11 46 -8 46 -34 215 -225
245 -277 4 -7 -14 -23 -46 -41 -128 -72 -208 -225 -194 -371 8 -92 42 -165
108 -236 152 -162 388 -174 550 -28 176 159 182 415 12 580 -81 80 -172 116
-282 112 l-70 -2 -59 79 c-33 44 -100 121 -149 173 l-89 93 18 51 c22 65 22
99 2 167 -20 67 -101 153 -160 169 -66 18 -144 13 -199 -13z"/>
<path d="M1035 2641 c-50 -30 -68 -58 -72 -108 -3 -36 1 -56 16 -80 58 -93
174 -93 231 -1 70 115 -63 259 -175 189z"/>
<path d="M3894 2646 c-47 -21 -78 -71 -78 -125 0 -57 24 -96 75 -122 48 -24
70 -24 120 1 103 53 99 202 -7 246 -41 17 -70 17 -110 0z"/>
<path d="M2927 2333 c-62 -21 -129 -81 -157 -140 -60 -124 -6 -285 114 -343
l44 -21 -24 -92 c-23 -85 -84 -256 -102 -284 -5 -8 -27 -2 -78 23 -254 127
-552 -43 -571 -326 -22 -313 303 -525 579 -378 72 38 141 111 176 186 24 50
27 69 27 162 0 113 -8 145 -57 218 l-29 44 40 96 c41 101 101 292 101 322 0
13 12 19 52 23 173 21 277 220 198 378 -58 113 -198 172 -313 132z"/>
<path d="M1234 2190 c-149 -31 -278 -168 -304 -318 -37 -223 117 -435 337
-462 91 -12 145 -4 223 33 77 36 160 117 187 182 17 42 21 45 63 50 142 17
328 55 376 77 21 10 28 6 76 -44 90 -93 195 -113 305 -58 98 49 143 124 143
235 0 76 -15 117 -59 168 -70 79 -170 110 -265 83 -79 -23 -129 -64 -165 -138
-26 -51 -32 -73 -30 -117 l3 -55 -50 -13 c-95 -26 -220 -51 -286 -58 l-68 -7
0 50 c0 68 -32 166 -75 229 -39 59 -118 122 -183 147 -52 20 -171 28 -228 16z"/>
<path d="M1770 1342 c-105 -53 -104 -193 3 -245 87 -43 187 22 187 121 0 57
-25 98 -75 122 -51 25 -70 25 -115 2z"/>
<path d="M3176 1350 c-123 -38 -123 -220 0 -260 122 -41 219 89 156 207 -24
45 -100 70 -156 53z"/>
</g>
</svg>
