<svg width="855" height="405" viewBox="0 0 855 405" fill="none" xmlns="http://www.w3.org/2000/svg">
<path d="M842.236 377.699C842.122 378.059 841.998 378.418 841.877 378.781C840.834 381.846 839.684 384.959 838.426 388.118C838.252 388.558 838.075 388.997 837.893 389.437C836.363 393.198 834.678 397.027 832.821 400.927L832.818 400.933C832.798 400.977 832.774 401.027 832.753 401.071L45.3919 402.142C45.5763 398.992 -26.5212 297.09 48.9198 197.914C124.358 98.7437 212.569 152.186 230.668 82.4037C234.577 67.3262 240.87 54.6117 248.948 44.0389C249.375 43.4725 249.811 42.915 250.257 42.3633C251.389 40.9414 252.557 39.5638 253.753 38.2245C254.086 37.8498 254.419 37.4811 254.755 37.1153C257.803 33.8113 261.048 30.7521 264.46 27.9319C265.144 27.3655 265.837 26.805 266.538 26.2592H266.541C308.454 -6.56835 374.329 -5.16708 421.39 14.356C451.169 26.7106 492.731 22.9464 538.658 19.1793C589.118 15.0434 644.846 10.9074 696.013 28.1472C697.633 28.69 699.251 29.2565 700.857 29.8494H700.86C704.246 31.0855 707.606 32.4189 710.944 33.8585C718.208 36.9943 724.562 40.555 730.111 44.4696C730.898 45.0272 731.673 45.5936 732.427 46.1629H732.436C800.143 97.3041 739.95 204.531 774.921 221.113C796.866 231.517 829.261 254.878 843.271 292.806C843.451 293.29 843.624 293.771 843.795 294.258C843.987 294.798 844.173 295.338 844.355 295.883C844.52 296.37 844.682 296.863 844.836 297.355C851.902 319.386 852.757 346.075 842.236 377.699Z" fill="#B3CAFF"/>
<path d="M419.092 123.739H388.645V73.4769H449.539H419.092V84.3713H409.444L410.292 87.0882L409.444 89.0323H419.092V123.739ZM388.683 106.331V110.992H398.331L397.479 108.275L398.331 106.331H388.683Z" fill="#DBE9FB"/>
<path d="M479.986 123.739H419.092V89.0323H428.74L427.891 86.3124L428.74 84.3713H419.092V73.4769H449.539H479.986V111.532H470.338L471.187 114.249L470.338 116.193H479.986V123.739ZM458.474 76.8841V83.7075H475.999V76.8841H458.474Z" fill="#E2EDF9"/>
<path d="M398.331 110.992H388.683V106.331H398.331L397.48 108.275L398.331 110.992Z" fill="#CCE0F7"/>
<path d="M428.74 89.0323H419.092V84.3713H428.74L427.891 86.3124L428.74 89.0323Z" fill="#E8F2FC"/>
<path d="M419.092 89.0323H409.444L410.293 87.0882L409.444 84.3713H419.092V89.0323Z" fill="#CCE0F7"/>
<path d="M479.986 116.193H470.338L471.187 114.249L470.338 111.532H479.986V116.193Z" fill="#E8F2FC"/>
<path d="M458.474 83.7076H475.999V76.8834H458.474V83.7076Z" fill="#F3F8FC"/>
<path d="M311.557 123.739H281.11V73.4769H342.002H311.557V84.3713H301.906L302.758 87.0882L301.906 89.0323H311.557V123.739ZM281.146 106.331V110.992H290.794L289.945 108.275L290.794 106.331H281.146Z" fill="#DBE9FB"/>
<path d="M372.449 123.739H311.558V89.0323H321.206L320.357 86.3124L321.206 84.3713H311.558V73.4769H342.002H372.449V111.532H362.801L363.652 114.249L362.801 116.193H372.449V123.739ZM350.94 76.8841V83.7075H368.462V76.8841H350.94Z" fill="#E2EDF9"/>
<path d="M290.794 110.992H281.146V106.331H290.794L289.945 108.275L290.794 110.992Z" fill="#CCE0F7"/>
<path d="M321.206 89.0323H311.558V84.3713H321.206L320.357 86.3124L321.206 89.0323Z" fill="#E8F2FC"/>
<path d="M311.558 89.0323H301.906L302.758 87.0882L301.906 84.3713H311.558V89.0323Z" fill="#CCE0F7"/>
<path d="M372.452 116.193H362.801L363.652 114.249L362.801 111.532H372.449H372.452V116.193Z" fill="#E8F2FC"/>
<path d="M350.939 83.7076H368.462V76.8834H350.939V83.7076Z" fill="#F3F8FC"/>
<path d="M265.141 403.387H241.722V401.877L265.141 401.844V403.387Z" fill="#E3EEFE"/>
<path d="M241.722 401.877V123.739H265.141V401.844L241.722 401.877Z" fill="#DBE9FB"/>
<path d="M517.968 403.387H498.498V401.526L517.968 401.499V403.387Z" fill="#E3EEFE"/>
<path d="M498.498 401.526V374.731H517.968V401.499L498.498 401.526ZM517.968 367.453H498.498V263.563H517.968V367.453ZM517.968 256.285H498.498V131.017H517.968V256.285Z" fill="#DBE9FB"/>
<path d="M517.968 131.017H265.141V123.739H498.498H517.968V131.017Z" fill="#DBE9FB"/>
<path d="M517.968 263.563H265.141V256.285H312.07H343.549H406.503H424.34H487.294H498.498H517.968V263.563Z" fill="#DBE9FB"/>
<path d="M517.968 374.731H265.141V367.453H498.498H517.968V374.731Z" fill="#DBE9FB"/>
<path d="M424.34 256.285H406.503V248.483H406.506V243.665H406.503V219.717H406.506V214.9H406.503V204.318H392.862H455.819H424.34V215.584H414.365L415.243 218.393L414.365 220.402H424.34V256.285Z" fill="#D1E2F5"/>
<path d="M487.294 256.285H424.34V220.402H434.315L433.437 217.59L434.315 215.584H424.34V204.318H455.819H487.294V243.665H477.322L478.2 246.474L477.322 248.483H487.294V256.285ZM465.057 207.844V214.9H483.174V207.844H465.057Z" fill="#E2EDF9"/>
<path d="M434.315 220.402H424.34V215.584H434.315L433.437 217.59L434.315 220.402Z" fill="#E8F2FC"/>
<path d="M424.34 220.402H414.365L415.243 218.393L414.365 215.584H424.34V220.402Z" fill="#CCE0F7"/>
<path d="M487.297 248.483H477.322L478.2 246.474L477.322 243.665H487.295H487.297V248.483Z" fill="#E8F2FC"/>
<path d="M465.057 214.9H483.175V207.843H465.057V214.9Z" fill="#F3F8FC"/>
<path d="M343.549 256.285H312.07V204.318H375.027H343.549V215.584H333.574L334.452 218.393L333.574 220.402H343.549V256.285ZM312.109 238.288V243.108H322.084L321.206 240.296L322.084 238.288H312.109Z" fill="#DBE9FB"/>
<path d="M406.503 256.285H343.549V220.402H353.524L352.646 217.59L353.524 215.584H343.549V204.318H375.027H392.862H406.503V214.9H396.531L397.409 217.708L396.531 219.717H406.503V243.665H396.531L397.409 246.474L396.531 248.483H406.503V256.285ZM349.908 239.22V250.719H379.436V239.22H349.908Z" fill="#E2EDF9"/>
<path d="M322.084 243.108H312.108V238.288H322.084L321.205 240.297L322.084 243.108Z" fill="#CCE0F7"/>
<path d="M353.524 220.402H343.549V215.584H353.524L352.646 217.59L353.524 220.402Z" fill="#E8F2FC"/>
<path d="M343.549 220.402H333.573L334.452 218.393L333.573 215.584H343.549V220.402Z" fill="#CCE0F7"/>
<path d="M406.506 248.483H396.531L397.409 246.474L396.531 243.665H406.503H406.506V248.483Z" fill="#E8F2FC"/>
<path d="M406.506 219.717H396.531L397.409 217.708L396.531 214.9H406.503H406.506V219.717Z" fill="#E8F2FC"/>
<path d="M349.908 250.719H379.436V239.22H349.908V250.719Z" fill="#F3F8FC"/>
<path d="M420.07 367.285H392.862V322.371H447.276H420.07V332.106H411.448L412.208 334.534L411.448 336.272H420.07V367.285ZM392.894 351.73V355.895H401.517L400.756 353.467L401.517 351.73H392.894Z" fill="#DBE9FB"/>
<path d="M474.481 367.285H420.07V336.272H428.693L427.933 333.841L428.693 332.106H420.07V322.371H447.276H474.481V356.376H465.862L466.619 358.807L465.862 360.541H474.481V367.285ZM455.262 325.416V331.513H470.919V325.416H455.262Z" fill="#E2EDF9"/>
<path d="M401.517 355.895H392.894V351.73H401.517L400.756 353.467L401.517 355.895Z" fill="#CCE0F7"/>
<path d="M428.693 336.272H420.07V332.106H428.693L427.933 333.841L428.693 336.272Z" fill="#E8F2FC"/>
<path d="M420.07 336.272H411.448L412.208 334.534L411.448 332.106H420.07V336.272Z" fill="#CCE0F7"/>
<path d="M474.484 360.541H465.862L466.619 358.807L465.862 356.376H474.481H474.484V360.541Z" fill="#E8F2FC"/>
<path d="M455.262 331.513H470.918V325.416H455.262V331.513Z" fill="#F3F8FC"/>
<path d="M320.999 367.285H289.521V315.321H352.475H320.999V326.584H311.021L311.902 329.395L311.021 331.401H320.999V367.285ZM289.556 349.29V354.107H299.534L298.653 351.296L299.534 349.29H289.556Z" fill="#DBE9FB"/>
<path d="M383.953 367.285H320.999V331.401H330.974L330.096 328.593L330.974 326.584H320.999V315.321H352.475H383.953V354.665H373.978L374.856 357.476L373.978 359.482H383.953V367.285ZM361.716 318.843V325.9H379.831V318.843H361.716Z" fill="#E2EDF9"/>
<path d="M299.534 354.107H289.556V349.29H299.534L298.653 351.296L299.534 354.107Z" fill="#9EB1D2"/>
<path d="M330.974 331.401H320.999V326.584H330.974L330.096 328.593L330.974 331.401Z" fill="#B4CAE3"/>
<path d="M320.999 331.401H311.021L311.902 329.395L311.021 326.584H320.999V331.401Z" fill="#9EB1D2"/>
<path d="M383.953 359.482H373.978L374.856 357.476L373.978 354.665H383.953V359.482Z" fill="#B4CAE3"/>
<path d="M361.716 325.9H379.831V318.843H361.716V325.9Z" fill="#F3F8FC"/>
<path d="M331.304 204.082H307.24V164.355H355.369H331.304V172.966H323.678L324.35 175.113L323.678 176.647H331.304V204.082ZM307.27 190.324V194.005H314.896L314.224 191.858L314.896 190.324H307.27Z" fill="#DBE9FB"/>
<path d="M379.433 204.082H331.304V176.647H338.931L338.259 174.5L338.931 172.966H331.304V164.355H355.369H379.433V194.433H371.809L372.481 196.58L371.809 198.117H379.433V204.082ZM362.432 167.048V172.441H376.283V167.048H362.432Z" fill="#E2EDF9"/>
<path d="M314.896 194.005H307.27V190.324H314.896L314.224 191.858L314.896 194.005Z" fill="#CCE0F7"/>
<path d="M338.931 176.647H331.304V172.966H338.931L338.259 174.5L338.931 176.647Z" fill="#E8F2FC"/>
<path d="M331.304 176.647H323.678L324.35 175.113L323.678 172.966H331.304V176.647Z" fill="#CCE0F7"/>
<path d="M379.436 198.117H371.809L372.481 196.58L371.809 194.433H379.433H379.436V198.117Z" fill="#E8F2FC"/>
<path d="M362.432 172.441H376.282V167.047H362.432V172.441Z" fill="#F3F8FC"/>
<path d="M417.294 204.082H393.23V164.355H441.358H417.294V172.966H409.668L410.34 175.113L409.668 176.647H417.294V204.082ZM393.259 190.324V194.005H400.886L400.214 191.858L400.886 190.324H393.259Z" fill="#DBE9FB"/>
<path d="M465.426 204.082H417.294V176.647H424.921L424.249 174.5L424.921 172.966H417.294V164.355H441.358H465.426V194.433H457.799L458.471 196.58L457.799 198.117H465.426V204.082ZM448.422 167.048V172.441H462.272V167.048H448.422Z" fill="#E2EDF9"/>
<path d="M400.886 194.005H393.26V190.324H400.886L400.214 191.858L400.886 194.005Z" fill="#CCE0F7"/>
<path d="M424.921 176.647H417.294V172.966H424.921L424.249 174.5L424.921 176.647Z" fill="#E8F2FC"/>
<path d="M417.294 176.647H409.668L410.34 175.113L409.668 172.966H417.294V176.647Z" fill="#CCE0F7"/>
<path d="M465.426 198.117H457.799L458.471 196.58L457.799 194.433H465.426V198.117Z" fill="#E8F2FC"/>
<path d="M448.422 172.441H462.272V167.047H448.422V172.441Z" fill="#F3F8FC"/>
<path d="M778.687 325.723L777.488 325.372C780.653 314.607 774.912 303.4 764.689 300.388L738.943 292.804C733.641 291.243 730.665 285.431 732.306 279.85C737.608 261.814 727.986 243.034 710.859 237.99L711.23 236.727C729.018 241.969 739.01 261.472 733.503 280.204C732.068 285.089 734.673 290.175 739.311 291.544L765.061 299.128C775.941 302.332 782.055 314.262 778.687 325.723Z" fill="#2B478B"/>
<path d="M776.085 334.57L774.889 334.216C778.054 323.451 772.31 312.244 762.09 309.232L736.341 301.648C731.042 300.087 728.066 294.279 729.704 288.697C735.009 270.661 725.387 251.881 708.257 246.837L708.628 245.574C726.418 250.813 736.408 270.319 730.904 289.051C729.468 293.936 732.073 299.022 736.712 300.388L762.459 307.972C773.342 311.179 779.453 323.109 776.085 334.57Z" fill="#2B478B"/>
<path d="M642.326 248.633H588.113V203.885H642.326V248.633Z" fill="#ED823A"/>
<path d="M615.218 248.633H561.007V203.885H615.218V248.633Z" fill="#FF9E55"/>
<path d="M642.294 237.285H633.704L634.459 234.866L633.704 233.134H642.294V237.285Z" fill="#DD732C"/>
<path d="M615.218 217.732H606.628L607.385 215.313L606.628 213.584H615.218V217.732Z" fill="#FFB27D"/>
<path d="M615.218 213.584H623.808L623.054 216.003L623.808 217.732H615.218V213.584Z" fill="#DD732C"/>
<path d="M561.007 237.765H569.597L568.84 240.184L569.597 241.913H561.007V237.765Z" fill="#FFB27D"/>
<path d="M564.558 212.994H580.156V206.917H564.558V212.994Z" fill="white"/>
<path d="M644.271 82.2001C636.498 82.2001 628.347 80.964 623.823 78.3533C616.627 74.1967 607.5 75.9579 607.409 75.9756L607.185 74.8723C607.577 74.7926 616.815 73.0049 624.386 77.3768C631.847 81.6868 650.389 82.0703 658.782 79.2088C667.048 76.3915 678.028 73.3589 682.593 73.3589V74.4858C678.155 74.4858 667.328 77.486 659.144 80.2767C655.434 81.5393 649.953 82.2001 644.271 82.2001Z" fill="#2B478B"/>
<path d="M599.591 185.857H596.034V162.638H599.591V185.857Z" fill="#2B478B"/>
<path d="M606.628 185.857H603.074V162.638H606.628V185.857Z" fill="#2B478B"/>
<path d="M644.271 79.7014C636.498 79.7014 628.347 78.4654 623.823 75.8517C616.627 71.6951 607.5 73.4592 607.409 73.4769L607.185 72.3707C607.577 72.294 616.815 70.5033 624.386 74.8782C631.847 79.1881 650.389 79.5687 658.782 76.7101C667.048 73.8929 678.028 70.8603 682.593 70.8603V71.9872C678.155 71.9872 667.328 74.9873 659.144 77.7751C655.434 79.0406 649.953 79.7014 644.271 79.7014Z" fill="#2B478B"/>
<path d="M719.143 215.41H717.666V214.283H719.143C725.979 214.283 731.543 208.714 731.543 201.87V73.3796C731.543 66.5356 725.979 60.9689 719.143 60.9689H708.198V59.8421H719.143C726.601 59.8421 732.669 65.9161 732.669 73.3796V201.87C732.669 209.336 726.601 215.41 719.143 215.41Z" fill="#2B478B"/>
<path d="M717.666 204.531V203.404C722.423 203.404 726.292 199.53 726.292 194.769V75.3325C726.292 70.7157 722.537 66.9604 717.929 66.9604H709.253V65.8335H717.929C723.159 65.8335 727.417 70.0963 727.417 75.3325V194.769C727.417 200.15 723.041 204.531 717.666 204.531Z" fill="#2B478B"/>
<path d="M616.194 167.791H585.478C581.108 167.791 577.566 164.245 577.566 159.871V91.1799C577.566 86.8051 581.108 83.2592 585.478 83.2592H616.194C620.564 83.2592 624.106 86.8051 624.106 91.1799V159.871C624.106 164.245 620.564 167.791 616.194 167.791Z" fill="#AEC3FF"/>
<path d="M586.274 95.2863C586.274 93.0472 588.086 91.233 590.323 91.233C592.56 91.233 594.375 93.0472 594.375 95.2863C594.375 97.5253 592.56 99.3425 590.323 99.3425C588.086 99.3425 586.274 97.5253 586.274 95.2863Z" fill="#DDE7FE"/>
<path d="M586.274 153.094C586.274 150.855 588.086 149.038 590.323 149.038C592.56 149.038 594.375 150.855 594.375 153.094C594.375 155.334 592.56 157.148 590.323 157.148C588.086 157.148 586.274 155.334 586.274 153.094Z" fill="#DDE7FE"/>
<path d="M607.297 95.2863C607.297 93.0472 609.109 91.233 611.349 91.233C613.586 91.233 615.398 93.0472 615.398 95.2863C615.398 97.5253 613.586 99.3425 611.349 99.3425C609.109 99.3425 607.297 97.5253 607.297 95.2863Z" fill="#DDE7FE"/>
<path d="M607.297 153.094C607.297 150.855 609.109 149.038 611.349 149.038C613.586 149.038 615.398 150.855 615.398 153.094C615.398 155.334 613.586 157.148 611.349 157.148C609.109 157.148 607.297 155.334 607.297 153.094Z" fill="#DDE7FE"/>
<path d="M618.121 189.843C618.121 190.677 617.935 191.489 617.59 192.259H585.782C585.434 191.489 585.249 190.677 585.249 189.843C585.249 184.568 592.61 180.288 601.686 180.288C610.76 180.288 618.121 184.568 618.121 189.843Z" fill="#FF9E55"/>
<path d="M645.668 200.734V244.008C645.668 247.48 643.965 250.728 641.112 252.698L627.928 261.799C626.982 262.451 625.689 262.215 625.037 261.268C624.386 260.321 624.622 259.026 625.568 258.374L638.749 249.27C640.479 248.079 641.51 246.111 641.51 244.008V200.734C641.51 196.052 637.721 192.259 633.044 192.259H570.326C565.649 192.259 561.859 196.052 561.859 200.734V243.76C561.859 245.981 562.982 248.008 564.865 249.182L579.594 258.401C580.566 259.008 580.861 260.292 580.254 261.265C579.647 262.242 578.365 262.537 577.389 261.929L562.661 252.713C559.555 250.769 557.701 247.424 557.701 243.76V200.734C557.701 193.754 563.353 188.096 570.326 188.096H633.044C640.016 188.096 645.668 193.754 645.668 200.734Z" fill="#2B478B"/>
<path d="M685.999 59.842H599.576V57.2372H685.999V59.842Z" fill="#2B478B"/>
<path d="M685.999 67.1345H599.576V64.5326H685.999V67.1345Z" fill="#2B478B"/>
<path d="M612.041 83.2592H586.274V65.1609C586.274 57.8036 592.23 51.8417 599.576 51.8417C606.926 51.8417 612.881 57.8036 612.881 65.1609V82.4184C612.881 82.8816 612.507 83.2592 612.041 83.2592Z" fill="#FF9E55"/>
<path d="M703.527 51.8417H690.393C684.213 51.8417 679.204 56.8567 679.204 63.0399V297.704C679.204 303.89 684.213 308.902 690.393 308.902H703.527C709.707 308.902 714.716 303.89 714.716 297.704V63.0399C714.716 56.8567 709.707 51.8417 703.527 51.8417Z" fill="#AEC3FF"/>
<path d="M694.896 64.332C694.896 63.1874 695.821 62.264 696.962 62.264C698.102 62.264 699.024 63.1874 699.024 64.332C699.024 65.4707 698.102 66.397 696.962 66.397C695.821 66.397 694.896 65.4707 694.896 64.332Z" fill="#2B478B"/>
<path d="M712.2 259.53H680.433C677.412 259.53 674.966 257.082 674.966 254.058V93.534C674.966 90.5102 677.412 88.0617 680.433 88.0617H712.2C715.22 88.0617 717.666 90.5102 717.666 93.534V254.058C717.666 257.082 715.22 259.53 712.2 259.53Z" fill="#98B5F4"/>
<path d="M720.15 321.896H680.253C677.332 321.896 674.966 319.525 674.966 316.601V298.335C674.966 295.408 677.332 293.04 680.253 293.04H714.861C717.784 293.04 720.15 295.408 720.15 298.335V321.896Z" fill="#98B5F4"/>
<path d="M591.711 64.5326C591.711 60.1843 595.232 56.659 599.576 56.659C603.923 56.659 607.441 60.1843 607.441 64.5326C607.441 68.8809 603.923 72.4061 599.576 72.4061C595.232 72.4061 591.711 68.8809 591.711 64.5326Z" fill="#FF9E55"/>
<path d="M599.576 56.9038C595.374 56.9038 591.955 60.3259 591.955 64.5326C591.955 68.7393 595.374 72.1613 599.576 72.1613C603.778 72.1613 607.2 68.7393 607.2 64.5326C607.2 60.3259 603.778 56.9038 599.576 56.9038ZM599.576 72.6509C595.106 72.6509 591.469 69.0077 591.469 64.5326C591.469 60.0545 595.106 56.4142 599.576 56.4142C604.049 56.4142 607.686 60.0545 607.686 64.5326C607.686 69.0077 604.049 72.6509 599.576 72.6509Z" fill="#2B478B"/>
<path d="M594.776 64.5325C594.776 61.8775 596.927 59.727 599.576 59.727C602.228 59.727 604.377 61.8775 604.377 64.5325C604.377 67.1875 602.228 69.3381 599.576 69.3381C596.927 69.3381 594.776 67.1875 594.776 64.5325Z" fill="#ED823A"/>
<path d="M786.261 320.563L817.032 306.565L805.501 281.166L774.732 295.164L786.261 320.563Z" fill="#C3DAFC"/>
<path d="M801.646 313.566L832.418 299.565L820.886 274.165L790.115 288.166L801.646 313.566Z" fill="#D4E4F8"/>
<path d="M793.684 296.025L798.561 293.807L797.509 292.629L797.491 291.452L792.617 293.671L793.684 296.025Z" fill="#618DC1"/>
<path d="M792.617 293.671L787.74 295.889L788.792 297.066L788.81 298.243L793.684 296.025L792.617 293.671Z" fill="#2A4E96"/>
<path d="M829.618 293.396L824.741 295.615L825.796 296.792L825.811 297.969L830.688 295.751L829.618 293.396Z" fill="#618DC1"/>
<path d="M821.219 280.254L812.364 284.281L810.799 280.832L819.655 276.806L821.219 280.254Z" fill="white"/>
<path d="M842.237 377.699C842.122 378.059 841.998 378.418 841.877 378.781C840.834 381.846 839.685 384.959 838.426 388.118C838.252 388.558 838.076 388.997 837.893 389.437C836.363 393.198 834.678 397.03 832.821 400.927H791.447L789.075 378.781L788.96 377.699L788.869 376.852L782.981 321.896L782.934 321.472L786.046 320.082L801.472 313.182L816.905 306.279L832.332 299.382L843.795 294.258C843.987 294.798 844.173 295.338 844.355 295.883C844.52 296.37 844.682 296.863 844.836 297.355C851.902 319.386 852.757 346.075 842.237 377.699Z" fill="#2B478B"/>
<path d="M842.237 377.699C842.122 378.059 841.998 378.418 841.877 378.781H793.209L793.1 377.699L793.018 376.852L787.702 322.997L790.156 321.896L844.836 297.355C851.902 319.386 852.757 346.075 842.237 377.699Z" fill="#D2E0FF"/>
<path d="M793.21 378.781H376.737C361.044 378.781 348.323 366.046 348.323 350.337C348.323 334.632 361.044 321.896 376.737 321.896H793.21C808.902 321.896 821.62 334.632 821.62 350.337C821.62 366.046 808.902 378.781 793.21 378.781Z" fill="#AEC3FF"/>
<path d="M821.62 350.337C821.62 358.19 818.441 365.303 813.298 370.45C808.159 375.598 801.057 378.781 793.21 378.781H722.591C721.079 378.781 719.85 377.554 719.85 376.038V324.64C719.85 323.124 721.079 321.896 722.591 321.896H793.21C808.902 321.896 821.62 334.632 821.62 350.337Z" fill="#C5D7FF"/>
<path d="M842.237 377.699C842.122 378.059 841.998 378.418 841.877 378.781C840.834 381.846 839.685 384.959 838.426 388.118C838.252 388.558 838.076 388.997 837.893 389.437C836.363 393.198 834.678 397.03 832.821 400.927L832.818 400.933L787.74 400.951L373.89 401.142V377.699H842.237Z" fill="#C5D7FF"/>
<path d="M488.382 348.281C488.057 349.187 487.241 350.296 486.407 351.019C486.213 351.184 486.021 351.334 485.835 351.447C484.969 351.992 484.082 352.349 483.207 352.547C478.2 353.662 473.526 349.452 474.396 344.113C474.481 343.579 474.626 343.03 474.829 342.479C475.221 341.42 476.317 340.045 477.266 339.443C477.366 339.378 477.469 339.319 477.57 339.257C483.817 335.587 490.854 341.358 488.382 348.281ZM498.763 347.269L495.56 345.78C495.295 345.653 495.121 345.39 495.112 345.095C495.103 344.721 495.077 344.343 495.036 343.962C494.962 343.257 494.835 342.57 494.655 341.912C494.57 341.602 494.679 341.275 494.935 341.086L497.871 338.844C498.186 338.608 498.265 338.166 498.053 337.829L496.244 334.974C496.04 334.649 495.628 334.537 495.283 334.702L492.236 336.201C491.941 336.351 491.579 336.287 491.343 336.042C490.347 335.003 489.186 334.13 487.907 333.449C487.598 333.283 487.439 332.921 487.524 332.581L488.019 330.572C488.11 330.189 487.901 329.794 487.53 329.655L484.38 328.516C484.315 328.49 484.25 328.475 484.182 328.469C483.87 328.437 483.56 328.611 483.428 328.909L482.311 331.304L482.043 331.888C481.415 331.867 480.776 331.888 480.136 331.959C479.27 332.053 478.433 332.224 477.637 332.469C477.334 332.558 477.004 332.457 476.815 332.204L475.015 329.832C474.767 329.51 474.316 329.428 473.974 329.649L471.797 331.027L471.172 331.425C470.827 331.643 470.703 332.083 470.883 332.443L472.133 334.997C472.28 335.289 472.224 335.646 471.991 335.874C471.313 336.567 470.706 337.328 470.188 338.142C470.137 338.21 470.096 338.278 470.055 338.346L470.008 338.413C469.822 338.664 469.507 338.773 469.2 338.697L465.938 337.897C465.903 337.888 465.865 337.882 465.829 337.877C465.484 337.844 465.148 338.054 465.028 338.387L463.884 341.529C463.749 341.906 463.923 342.328 464.291 342.502L467.633 344.054C467.918 344.181 468.089 344.47 468.072 344.785C468.045 345.473 468.063 346.172 468.142 346.88C468.184 347.258 468.24 347.626 468.31 347.992C468.363 348.287 468.249 348.591 468.01 348.774L465.187 350.93C464.874 351.163 464.795 351.603 465.004 351.936L466.796 354.759C467.014 355.099 467.45 355.228 467.818 355.046L470.229 353.863C470.556 353.703 470.942 353.783 471.172 354.06C472.071 355.143 473.132 356.084 474.313 356.842C474.599 357.019 474.735 357.358 474.655 357.686L473.933 360.627C473.839 361.022 474.057 361.426 474.434 361.568L477.564 362.71C477.938 362.845 478.359 362.665 478.521 362.308L478.586 362.17L479.88 359.385C480.018 359.087 480.319 358.913 480.649 358.934H480.652C481.439 358.987 482.24 358.975 483.051 358.886C483.484 358.839 483.905 358.768 484.33 358.686C484.621 358.624 484.919 358.733 485.099 358.969L486.926 361.376C487.173 361.707 487.636 361.789 487.984 361.568L490.789 359.786C490.872 359.733 490.937 359.668 490.99 359.6C491.163 359.37 491.205 359.055 491.075 358.786L490.067 356.748C489.949 356.497 489.973 356.199 490.12 355.972C490.162 355.916 490.212 355.86 490.265 355.81C491.653 354.647 492.79 353.228 493.618 351.618C493.76 351.343 494.048 351.187 494.349 351.205C494.396 351.208 494.437 351.214 494.482 351.228L497.122 351.874C497.505 351.969 497.897 351.762 498.036 351.388L498.062 351.314L499.179 348.252C499.314 347.862 499.135 347.443 498.763 347.269Z" fill="#98B5F4"/>
<path d="M512.985 361.801C512.752 362.453 512.163 363.252 511.565 363.772C511.426 363.89 511.288 363.999 511.152 364.078C510.527 364.471 509.894 364.727 509.263 364.872C505.662 365.671 502.303 362.645 502.924 358.801C502.986 358.42 503.09 358.025 503.237 357.627C503.517 356.866 504.307 355.877 504.99 355.444C505.064 355.4 505.138 355.355 505.208 355.308C509.702 352.674 514.765 356.821 512.985 361.801ZM520.452 361.075L518.145 360.002C517.957 359.913 517.833 359.721 517.827 359.512C517.821 359.238 517.8 358.969 517.771 358.695C517.718 358.187 517.626 357.695 517.497 357.223C517.438 356.998 517.517 356.762 517.697 356.627L519.81 355.013C520.037 354.845 520.093 354.526 519.94 354.282L518.64 352.231C518.493 351.998 518.198 351.916 517.951 352.034L515.758 353.113C515.543 353.222 515.284 353.175 515.116 352.998C514.4 352.252 513.566 351.621 512.643 351.134C512.422 351.016 512.307 350.753 512.369 350.511L512.723 349.066C512.788 348.789 512.64 348.505 512.375 348.405L510.109 347.585C510.059 347.567 510.015 347.556 509.965 347.553C509.738 347.529 509.517 347.653 509.419 347.868L508.621 349.591L508.426 350.01C507.972 349.998 507.513 350.013 507.053 350.063C506.434 350.131 505.83 350.252 505.258 350.429C505.04 350.494 504.802 350.42 504.666 350.237L503.372 348.535C503.19 348.302 502.868 348.243 502.621 348.399L501.053 349.39L500.608 349.68C500.361 349.836 500.269 350.152 500.396 350.411L501.295 352.246C501.404 352.461 501.363 352.715 501.198 352.877C500.708 353.376 500.269 353.925 499.898 354.509C499.863 354.559 499.833 354.606 499.801 354.659L499.768 354.706C499.636 354.886 499.406 354.963 499.191 354.907L496.842 354.335L496.763 354.317C496.518 354.296 496.273 354.444 496.188 354.686L495.366 356.942C495.269 357.22 495.392 357.521 495.657 357.647L498.062 358.76C498.265 358.854 498.389 359.063 498.38 359.288C498.357 359.78 498.372 360.285 498.428 360.795C498.457 361.064 498.495 361.332 498.548 361.595C498.587 361.81 498.504 362.025 498.33 362.155L496.303 363.707C496.076 363.875 496.02 364.191 496.17 364.432L497.461 366.462C497.614 366.707 497.929 366.798 498.192 366.669L499.93 365.816C500.163 365.701 500.44 365.763 500.608 365.958C501.251 366.739 502.017 367.412 502.868 367.961C503.072 368.085 503.169 368.332 503.11 368.568L502.591 370.681C502.524 370.967 502.68 371.259 502.954 371.359L505.205 372.176C505.474 372.277 505.774 372.153 505.892 371.893L505.939 371.793L506.87 369.79C506.968 369.574 507.189 369.447 507.424 369.465H507.427C507.99 369.504 508.565 369.495 509.151 369.43C509.461 369.397 509.764 369.344 510.068 369.288C510.28 369.241 510.495 369.321 510.625 369.492L511.939 371.223C512.119 371.459 512.449 371.518 512.699 371.359L514.718 370.076C514.774 370.04 514.821 369.993 514.862 369.943C514.986 369.778 515.013 369.548 514.921 369.359L514.199 367.893C514.114 367.71 514.128 367.498 514.238 367.335C514.267 367.294 514.299 367.25 514.341 367.217C515.34 366.382 516.156 365.359 516.754 364.202C516.854 364.005 517.064 363.893 517.279 363.907C517.308 363.907 517.341 363.913 517.373 363.919L519.271 364.385C519.548 364.453 519.828 364.306 519.928 364.037L519.949 363.984L520.75 361.78C520.847 361.5 520.721 361.196 520.452 361.075Z" fill="#D2E0FF"/>
<path d="M611.29 348.281C610.963 349.187 610.152 350.296 609.318 351.019C609.124 351.184 608.929 351.334 608.747 351.447C607.877 351.992 606.993 352.349 606.112 352.547C601.108 353.662 596.435 349.452 597.301 344.113C597.392 343.579 597.534 343.03 597.737 342.479C598.129 341.42 599.222 340.045 600.174 339.443C600.277 339.378 600.378 339.319 600.481 339.257C606.728 335.587 613.762 341.358 611.29 348.281ZM621.672 347.269L618.466 345.78C618.2 345.653 618.029 345.39 618.021 345.095C618.009 344.721 617.988 344.343 617.944 343.962C617.867 343.257 617.747 342.57 617.564 341.912C617.478 341.602 617.587 341.275 617.841 341.086L620.779 338.844C621.094 338.608 621.177 338.166 620.959 337.829L619.155 334.974C618.949 334.649 618.536 334.537 618.194 334.702L615.141 336.201C614.847 336.351 614.487 336.287 614.251 336.042C613.255 335.003 612.097 334.13 610.815 333.449C610.509 333.283 610.347 332.921 610.429 332.581L610.927 330.572C611.016 330.189 610.813 329.794 610.441 329.655L607.288 328.516C607.223 328.49 607.161 328.475 607.094 328.469C606.778 328.437 606.469 328.611 606.333 328.909L605.222 331.304L604.954 331.888C604.326 331.867 603.684 331.888 603.045 331.959C602.181 332.053 601.344 332.224 600.549 332.469C600.245 332.558 599.915 332.457 599.723 332.204L597.923 329.832C597.678 329.51 597.224 329.428 596.886 329.649L594.702 331.027L594.08 331.425C593.738 331.643 593.612 332.083 593.791 332.443L595.041 334.997C595.188 335.289 595.135 335.646 594.902 335.874C594.222 336.567 593.612 337.328 593.099 338.142C593.046 338.21 593.008 338.278 592.966 338.346L592.916 338.413C592.733 338.664 592.412 338.773 592.112 338.697L588.849 337.897C588.814 337.888 588.776 337.882 588.74 337.877C588.393 337.844 588.06 338.054 587.936 338.387L586.795 341.529C586.657 341.906 586.831 342.328 587.199 342.502L590.544 344.054C590.827 344.181 591.001 344.47 590.983 344.785C590.951 345.473 590.974 346.172 591.051 346.88C591.089 347.258 591.148 347.626 591.216 347.992C591.272 348.287 591.157 348.591 590.918 348.774L588.095 350.93C587.786 351.163 587.703 351.603 587.915 351.936L589.707 354.759C589.919 355.099 590.355 355.228 590.724 355.046L593.14 353.863C593.464 353.703 593.847 353.783 594.08 354.06C594.976 355.143 596.04 356.084 597.224 356.842C597.504 357.019 597.646 357.358 597.563 357.686L596.841 360.627C596.747 361.022 596.965 361.426 597.342 361.568L600.472 362.71C600.849 362.845 601.268 362.665 601.427 362.308L601.494 362.17L602.788 359.385C602.924 359.087 603.23 358.913 603.554 358.934H603.563C604.344 358.987 605.146 358.975 605.959 358.886C606.392 358.839 606.817 358.768 607.235 358.686C607.53 358.624 607.827 358.733 608.007 358.969L609.834 361.376C610.085 361.707 610.547 361.789 610.892 361.568L613.7 359.786C613.777 359.733 613.845 359.668 613.901 359.6C614.072 359.37 614.113 359.055 613.98 358.786L612.978 356.748C612.858 356.497 612.881 356.199 613.031 355.972C613.07 355.916 613.117 355.86 613.176 355.81C614.564 354.647 615.698 353.228 616.529 351.618C616.665 351.343 616.96 351.187 617.26 351.205C617.301 351.208 617.349 351.214 617.39 351.228L620.03 351.874C620.413 351.969 620.805 351.762 620.944 351.388L620.967 351.314L622.084 348.252C622.22 347.862 622.043 347.443 621.672 347.269Z" fill="#98B5F4"/>
<path d="M635.893 361.801C635.661 362.453 635.074 363.252 634.476 363.772C634.334 363.89 634.196 363.999 634.063 364.078C633.439 364.471 632.802 364.727 632.171 364.872C628.57 365.671 625.208 362.645 625.833 358.801C625.898 358.42 626.001 358.025 626.145 357.627C626.428 356.866 627.212 355.877 627.898 355.444C627.969 355.4 628.043 355.355 628.119 355.308C632.613 352.674 637.67 356.821 635.893 361.801ZM643.361 361.075L641.056 360.002C640.865 359.913 640.741 359.721 640.735 359.512C640.726 359.238 640.711 358.969 640.682 358.695C640.626 358.187 640.535 357.695 640.408 357.223C640.346 356.998 640.423 356.762 640.608 356.627L642.718 355.013C642.945 354.845 643.004 354.526 642.848 354.282L641.551 352.231C641.401 351.998 641.103 351.916 640.859 352.034L638.663 353.113C638.454 353.222 638.195 353.175 638.024 352.998C637.308 352.252 636.471 351.621 635.551 351.134C635.33 351.016 635.216 350.753 635.274 350.511L635.634 349.066C635.699 348.789 635.549 348.505 635.28 348.405L633.014 347.585C632.97 347.567 632.923 347.556 632.876 347.553C632.649 347.529 632.425 347.653 632.328 347.868L631.526 349.591L631.332 350.01C630.884 349.998 630.421 350.013 629.961 350.063C629.339 350.131 628.738 350.252 628.167 350.429C627.949 350.494 627.71 350.42 627.574 350.237L626.278 348.535C626.101 348.302 625.777 348.243 625.532 348.399L623.964 349.39L623.514 349.68C623.269 349.836 623.178 350.152 623.307 350.411L624.206 352.246C624.312 352.461 624.274 352.715 624.106 352.877C623.617 353.376 623.181 353.925 622.809 354.509C622.771 354.559 622.744 354.606 622.712 354.659L622.68 354.706C622.544 354.886 622.317 354.963 622.096 354.907L619.753 354.335L619.671 354.317C619.423 354.296 619.185 354.444 619.096 354.686L618.274 356.942C618.174 357.22 618.3 357.521 618.566 357.647L620.967 358.76C621.177 358.854 621.297 359.063 621.286 359.288C621.262 359.78 621.28 360.285 621.333 360.795C621.362 361.064 621.406 361.332 621.457 361.595C621.495 361.81 621.412 362.025 621.241 362.155L619.211 363.707C618.987 363.875 618.928 364.191 619.081 364.432L620.366 366.462C620.522 366.707 620.838 366.798 621.1 366.669L622.839 365.816C623.071 365.701 623.348 365.763 623.514 365.958C624.162 366.739 624.922 367.412 625.777 367.961C625.977 368.085 626.077 368.332 626.021 368.568L625.503 370.681C625.432 370.967 625.591 371.259 625.862 371.359L628.111 372.176C628.385 372.277 628.685 372.153 628.8 371.893L628.85 371.793L629.779 369.79C629.879 369.574 630.094 369.447 630.33 369.465H630.333C630.898 369.504 631.476 369.495 632.059 369.43C632.372 369.397 632.675 369.344 632.979 369.288C633.188 369.241 633.403 369.321 633.533 369.492L634.847 371.223C635.027 371.459 635.36 371.518 635.607 371.359L637.626 370.076C637.685 370.04 637.732 369.993 637.77 369.943C637.894 369.778 637.924 369.548 637.829 369.359L637.107 367.893C637.022 367.71 637.037 367.498 637.143 367.335C637.172 367.294 637.208 367.25 637.249 367.217C638.245 366.382 639.064 365.359 639.662 364.202C639.76 364.005 639.969 363.893 640.187 363.907C640.219 363.907 640.249 363.913 640.281 363.919L642.182 364.385C642.456 364.453 642.739 364.306 642.839 364.037L642.857 363.984L643.655 361.78C643.756 361.5 643.626 361.196 643.361 361.075Z" fill="#D2E0FF"/>
<path d="M542.955 347.963C542.872 348.918 542.366 350.202 541.75 351.113C541.599 351.326 541.452 351.514 541.302 351.674C540.603 352.423 539.84 352.998 539.042 353.411C534.489 355.771 528.895 352.901 528.365 347.517C528.318 346.977 528.312 346.411 528.368 345.824C528.474 344.706 529.184 343.095 529.95 342.269C530.03 342.181 530.112 342.095 530.195 342.007C535.299 336.862 543.574 340.635 542.955 347.963ZM552.73 344.319L549.252 343.703C548.964 343.65 548.728 343.437 548.645 343.157C548.539 342.794 548.416 342.434 548.28 342.08C548.027 341.42 547.732 340.788 547.39 340.195C547.228 339.918 547.249 339.576 547.446 339.325L549.712 336.407C549.957 336.098 549.921 335.649 549.627 335.378L547.148 333.08C546.868 332.82 546.441 332.817 546.152 333.065L543.586 335.298C543.344 335.517 542.979 335.546 542.687 335.369C541.458 334.623 540.114 334.074 538.7 333.747C538.361 333.667 538.113 333.354 538.107 333.006L538.072 330.938C538.063 330.543 537.763 330.212 537.368 330.174L534.026 329.879C533.958 329.873 533.893 329.873 533.826 329.885C533.516 329.938 533.26 330.183 533.207 330.507L532.744 333.106L532.632 333.741C532.022 333.879 531.409 334.068 530.805 334.298C529.998 334.611 529.231 334.994 528.524 335.431C528.253 335.596 527.908 335.581 527.661 335.384L525.312 333.555C524.994 333.307 524.534 333.342 524.26 333.643L522.507 335.537L522.006 336.08C521.729 336.378 521.72 336.835 521.985 337.139L523.847 339.29C524.068 339.534 524.104 339.891 523.939 340.169C523.455 341.015 523.066 341.903 522.775 342.827C522.742 342.903 522.722 342.98 522.695 343.057C522.692 343.086 522.68 343.107 522.672 343.133C522.554 343.423 522.274 343.611 521.961 343.614L518.602 343.679C518.567 343.676 518.528 343.682 518.493 343.688C518.151 343.747 517.883 344.03 517.845 344.384L517.547 347.715C517.512 348.116 517.789 348.479 518.189 348.55L521.817 349.193C522.123 349.243 522.362 349.482 522.427 349.786C522.574 350.458 522.775 351.131 523.028 351.798C523.167 352.149 523.314 352.494 523.476 352.83C523.606 353.102 523.573 353.426 523.388 353.662L521.21 356.467C520.968 356.774 521.004 357.22 521.292 357.488L523.747 359.757C524.042 360.031 524.493 360.043 524.805 359.777L526.836 358.007C527.11 357.771 527.502 357.754 527.796 357.957C528.94 358.78 530.21 359.412 531.548 359.845C531.863 359.943 532.087 360.235 532.09 360.574L532.149 363.604C532.155 364.008 532.47 364.341 532.874 364.379L536.186 364.68C536.584 364.716 536.943 364.438 537.011 364.049L537.041 363.896L537.577 360.878C537.633 360.553 537.88 360.302 538.205 360.243L538.208 360.241C538.98 360.09 539.752 359.872 540.515 359.58C540.922 359.423 541.314 359.249 541.697 359.058C541.962 358.922 542.28 358.954 542.516 359.134L544.9 360.993C545.221 361.249 545.69 361.211 545.97 360.91L548.227 358.465C548.292 358.394 548.336 358.314 548.371 358.235C548.48 357.969 548.436 357.65 548.242 357.423L546.751 355.709C546.571 355.5 546.515 355.205 546.603 354.951C546.63 354.883 546.662 354.818 546.703 354.756C547.744 353.279 548.48 351.612 548.872 349.845C548.934 349.544 549.176 349.317 549.47 349.258C549.512 349.249 549.559 349.246 549.603 349.243L552.323 349.193C552.718 349.187 553.042 348.883 553.08 348.488L553.086 348.411L553.381 345.163C553.413 344.756 553.136 344.393 552.73 344.319Z" fill="#98B5F4"/>
<path d="M842.237 377.699C842.122 378.059 841.998 378.418 841.877 378.781C840.834 381.846 839.685 384.959 838.426 388.118C838.252 388.558 838.076 388.997 837.893 389.437C836.363 393.198 834.678 397.03 832.821 400.927L832.818 400.933L787.74 400.951V377.699H842.237Z" fill="#D2E0FF"/>
<path d="M376.736 323.171C369.487 323.171 362.674 325.997 357.546 331.127C352.422 336.26 349.596 343.083 349.596 350.337C349.596 365.317 361.772 377.504 376.736 377.504H793.209C800.459 377.504 807.275 374.681 812.399 369.551C817.524 364.415 820.347 357.591 820.347 350.337C820.347 335.357 808.174 323.171 793.209 323.171H376.736ZM793.209 380.059H376.736C360.367 380.059 347.047 366.725 347.047 350.337C347.047 342.402 350.135 334.938 355.746 329.325C361.351 323.711 368.806 320.619 376.736 320.619H793.209C809.579 320.619 822.896 333.95 822.896 350.337C822.896 358.273 819.808 365.739 814.2 371.353C808.595 376.967 801.139 380.059 793.209 380.059Z" fill="#2B478B"/>
<path d="M146.522 204.227H118.936C117.67 204.227 116.634 203.191 116.634 201.923V175.27C116.634 174.001 117.67 172.966 118.936 172.966H146.522C147.788 172.966 148.824 174.001 148.824 175.27V201.923C148.824 203.191 147.788 204.227 146.522 204.227Z" fill="#C0D8FB"/>
<path d="M145.327 202.873H120.131C118.975 202.873 118.029 201.926 118.029 200.769V176.426C118.029 175.267 118.975 174.32 120.131 174.32H145.327C146.483 174.32 147.43 175.267 147.43 176.426V200.769C147.43 201.926 146.483 202.873 145.327 202.873Z" fill="#DFEBFD"/>
<path d="M132.062 177.172C132.062 176.804 132.361 176.506 132.729 176.506C133.097 176.506 133.396 176.804 133.396 177.172C133.396 177.541 133.097 177.839 132.729 177.839C132.361 177.839 132.062 177.541 132.062 177.172Z" fill="#B7D3F3"/>
<path d="M137.443 178.116C137.622 177.795 138.027 177.677 138.349 177.857C138.671 178.037 138.787 178.444 138.609 178.765C138.429 179.087 138.024 179.202 137.702 179.025C137.38 178.845 137.264 178.438 137.443 178.116Z" fill="#B7D3F3"/>
<path d="M142.052 181.783C142.362 181.583 142.774 181.671 142.974 181.981C143.174 182.291 143.085 182.704 142.775 182.904C142.466 183.105 142.053 183.016 141.853 182.707C141.654 182.397 141.743 181.981 142.052 181.783Z" fill="#B7D3F3"/>
<path d="M144.336 187.456C144.704 187.456 145.002 187.757 145.002 188.126C145.002 188.492 144.704 188.792 144.336 188.792C143.967 188.792 143.669 188.492 143.669 188.126C143.669 187.757 143.967 187.456 144.336 187.456Z" fill="#B7D3F3"/>
<path d="M143.17 194.043C143.43 194.303 143.43 194.725 143.17 194.987C142.909 195.247 142.487 195.247 142.227 194.987C141.966 194.725 141.966 194.303 142.227 194.043C142.487 193.781 142.909 193.781 143.17 194.043Z" fill="#B7D3F3"/>
<path d="M138.982 198.244C139.243 198.507 139.243 198.929 138.982 199.188C138.722 199.448 138.3 199.448 138.039 199.188C137.779 198.929 137.779 198.507 138.039 198.244C138.3 197.985 138.722 197.985 138.982 198.244Z" fill="#B7D3F3"/>
<path d="M132.062 200.41C132.062 200.041 132.361 199.743 132.729 199.743C133.097 199.743 133.396 200.041 133.396 200.41C133.396 200.778 133.097 201.079 132.729 201.079C132.361 201.079 132.062 200.778 132.062 200.41Z" fill="#B7D3F3"/>
<path d="M127.994 178.116C127.815 177.795 127.409 177.677 127.087 177.857C126.765 178.037 126.65 178.444 126.828 178.765C127.007 179.087 127.413 179.202 127.735 179.025C128.057 178.845 128.173 178.438 127.994 178.116Z" fill="#B7D3F3"/>
<path d="M123.384 181.783C123.075 181.583 122.662 181.671 122.463 181.981C122.263 182.291 122.352 182.704 122.661 182.904C122.971 183.105 123.384 183.016 123.583 182.707C123.783 182.397 123.694 181.981 123.384 181.783Z" fill="#B7D3F3"/>
<path d="M121.101 187.456C120.733 187.456 120.434 187.757 120.434 188.126C120.434 188.492 120.733 188.792 121.101 188.792C121.47 188.792 121.768 188.492 121.768 188.126C121.768 187.757 121.47 187.456 121.101 187.456Z" fill="#B7D3F3"/>
<path d="M122.267 194.043C122.006 194.303 122.006 194.725 122.267 194.987C122.527 195.247 122.949 195.247 123.21 194.987C123.47 194.725 123.47 194.303 123.21 194.043C122.949 193.781 122.527 193.781 122.267 194.043Z" fill="#B7D3F3"/>
<path d="M126.454 198.244C126.194 198.507 126.194 198.929 126.454 199.188C126.714 199.448 127.137 199.448 127.397 199.188C127.658 198.929 127.658 198.507 127.397 198.244C127.137 197.985 126.714 197.985 126.454 198.244Z" fill="#B7D3F3"/>
<path d="M132.549 188.126C132.549 187.757 132.848 187.456 133.216 187.456C133.584 187.456 133.883 187.757 133.883 188.126C133.883 188.492 133.584 188.792 133.216 188.792C132.848 188.792 132.549 188.492 132.549 188.126Z" fill="#B7D3F3"/>
<path d="M133.307 188.126H133.125V179.786H133.307V188.126Z" fill="#B7D3F3"/>
<path d="M133.301 188.326L132.963 187.899L137.38 184.426L137.717 184.857L133.301 188.326Z" fill="#B7D3F3"/>
<path d="M415.196 275.9H456.379V241.907H415.196V275.9Z" fill="#D8702A"/>
<path d="M435.789 275.9H476.968V241.907H435.789V275.9Z" fill="#FF9E55"/>
<path d="M415.22 267.28H421.747L421.172 265.439L421.747 264.127H415.22V267.28Z" fill="#C15E1B"/>
<path d="M435.789 252.427H442.313L441.739 250.589L442.313 249.273H435.789V252.427Z" fill="#FFB27D"/>
<path d="M435.789 249.273H429.261L429.836 251.111L429.261 252.427H435.789V249.273Z" fill="#C15E1B"/>
<path d="M476.971 267.643H470.444L471.019 269.481L470.444 270.797H476.971V267.643Z" fill="#FFB27D"/>
<path d="M474.272 248.825H462.423V244.211H474.272V248.825Z" fill="white"/>
<path d="M457.543 274.452C458.542 273.803 460.808 272.375 460.908 272.717C460.982 272.962 460.849 273.369 460.566 273.788C461.922 273.339 463.289 273.065 466.472 273.806C467.108 273.953 467.677 274.342 468.007 274.906C468.314 275.428 468.411 276.068 467.574 276.546C465.9 277.502 466.398 276.909 464.067 278.304C461.736 279.7 458.94 279.971 457.316 278.865L455.1 278.408L454.964 274.72C454.964 274.72 456.243 274.62 457.543 274.452Z" fill="#FFC299"/>
<path d="M412.252 237.877C406.143 241.683 399.816 236.512 399.816 236.512C399.816 236.512 402.239 230.302 400.727 222.113C400.665 221.779 411.38 226.201 411.704 226.272H411.71C411.71 226.272 411.713 226.299 411.722 226.346C411.728 226.399 411.734 226.449 411.739 226.502C411.907 227.945 412.025 229.379 412.102 230.718C412.338 234.718 412.252 237.877 412.252 237.877Z" fill="#FFB27D"/>
<path d="M412.102 230.718C407.236 230.275 403.494 227.544 402.253 226.007C401.873 225.544 411.421 226.249 411.704 226.272H411.71C411.71 226.272 411.713 226.299 411.722 226.346C411.727 226.384 411.733 226.437 411.739 226.502C411.907 227.945 412.025 229.379 412.102 230.718Z" fill="#ED975D"/>
<path d="M413.702 225.591C413.702 225.591 403.196 230.24 400.403 223.647C397.612 217.05 394.376 213.21 400.966 209.962C407.558 206.717 409.933 208.675 411.4 210.649C412.868 212.623 416.363 224.213 413.702 225.591Z" fill="#FFB27D"/>
<path d="M401.131 225.449C400.998 225.573 398.77 226.744 392.62 218.652C391.653 217.384 390.604 214.44 391.742 211.451C392.879 208.466 398.296 205.268 402.952 203.445C405.138 202.587 407.219 202.755 408.813 203.174C410.779 203.687 411.934 205.746 411.374 207.699C410.496 210.788 408.309 212.682 405.545 212.599C403.694 212.543 403.812 216.328 403.845 217.23C403.88 218.133 403.815 218.9 401.484 218.526C399.486 218.207 400.615 220.847 401.284 222.036C401.617 222.62 401.8 223.287 401.761 223.959C401.729 224.476 401.573 225.033 401.131 225.449Z" fill="#2A4E96"/>
<path d="M385.052 401.101H378.281C376.86 401.101 375.284 399.679 374.889 397.074C374.494 394.466 371.576 393.047 370.946 390.915C370.312 388.782 373.548 385.779 373.548 385.779L374.09 385.082L374.653 384.36L380.016 385.622C380.016 385.622 380.149 386.9 380.231 388.528C380.287 389.705 380.32 391.065 380.252 392.257C380.096 395.101 381.048 398.16 383.57 398.714C386.096 399.266 385.052 401.101 385.052 401.101Z" fill="#2C3A64"/>
<path d="M432.191 401.101H414.241C414.07 401.069 413.941 401.03 413.861 400.992C412.662 400.39 413.039 395.797 413.18 394.378C413.21 394.115 413.228 393.962 413.228 393.962C413.228 393.962 419.54 388.909 420.409 392.776C420.436 392.897 420.468 393.018 420.501 393.133V393.136C421.597 396.756 426.494 398.399 429.323 398.859C431.486 399.21 432.046 400.47 432.191 401.101Z" fill="#2C3A64"/>
<path d="M428.572 297.485C428.572 297.485 427.614 309.456 426.489 323.849C424.956 343.396 423.114 367.409 422.935 371.958C422.619 379.858 421.355 392.493 421.355 392.493C421.355 392.493 418.358 395.493 412.361 394.227C412.361 394.227 407.016 376.191 405.489 357.108C405.466 356.795 405.442 356.479 405.418 356.164C403.998 336.738 401.791 295.827 401.791 295.827L428.572 297.485Z" fill="#FF9E55"/>
<path d="M425.911 295.827C423.38 295.981 396.684 294.969 396.678 293.476C396.654 288.287 395.57 279.883 394.214 269.678C393.967 267.776 393.772 265.888 393.628 264.023C393.257 259.165 393.239 254.486 393.602 250.262C394.273 242.412 396.313 237.37 399.71 234.417C399.71 234.417 402.908 234.683 405.855 235.125C409.19 235.627 410.422 235.417 412.712 234.777L416.788 238.288C419.228 240.562 421.181 242.937 421.965 246.223C421.965 246.223 426.138 295.813 425.911 295.827Z" fill="#2A4E96"/>
<path d="M398.025 259.923C398.025 259.923 400.836 268.835 410.213 273.151C419.59 277.466 413.985 264.95 413.985 264.95L398.025 259.923Z" fill="#1B407A"/>
<path d="M421.965 246.223L414.675 247.919L404.638 275.127C403.197 279.033 399.875 281.443 395.717 281.443L395.703 282.092L396.198 295.057L428.531 297.998C428.531 297.998 428.684 281.773 428.106 276.576C427.249 268.882 421.965 246.223 421.965 246.223Z" fill="#FF9E55"/>
<path d="M456.933 276.514C457.162 274.39 456.075 273.991 456.075 273.991C456.075 273.991 434.581 269.227 432.765 268.575C430.947 267.926 415.847 250.931 415.847 250.931C415.847 250.931 410.08 243.89 405.082 245.202C400.742 246.344 398.935 249.627 398.24 252.799C397.415 256.575 394.813 257.775 398.025 259.923C405.236 264.746 423.883 276.95 427.325 278.107C434.987 280.682 455.895 279.396 455.895 279.396C455.895 279.396 456.75 278.183 456.933 276.514Z" fill="#2A4E96"/>
<path d="M407.116 240.04C405.418 238.462 399.71 234.417 399.71 234.417C399.71 234.417 399.94 234.037 400.276 233.697C400.606 233.367 401.001 233.128 401.001 233.128C401.726 232.975 407.354 237.211 409.226 238.88C411.483 240.892 417.745 247.205 417.745 247.205L414.674 247.919C414.674 247.919 409.117 241.898 407.116 240.04Z" fill="#ED823A"/>
<path d="M414.15 210.021C414.15 210.021 409.959 212.381 408.415 212.776C407.956 212.894 401.11 214.617 401.11 214.617L391.309 218.225C391.309 218.225 387.982 211.056 392.087 205.439C392.19 205.298 392.299 205.156 392.411 205.017C393.539 203.622 395.16 202.339 397.441 201.309C409.002 196.088 414.02 209.593 414.15 210.021Z" fill="#FF9E55"/>
<path d="M408.513 212.54L406.644 213.139C404.794 211.428 398.028 205.557 392.01 205.59C392.037 205.531 392.06 205.481 392.087 205.439C392.166 205.298 392.237 205.221 392.349 205.014L392.411 205.017C400.196 205.466 406.933 211.006 408.513 212.54Z" fill="#E27830"/>
<path d="M401.11 214.617C401.11 214.617 400.073 216.328 399.987 217.806C399.902 219.287 393.48 221.319 392.894 220.664C392.308 220.006 391.309 218.225 391.309 218.225L401.11 214.617Z" fill="#FF9E55"/>
<path d="M401.11 214.617C401.11 214.617 413.263 212.667 418.275 208.752C418.659 208.454 418.473 207.841 417.99 207.808C417.123 207.755 415.664 207.785 413.313 208.118C413.313 208.118 409.623 212.502 401.11 214.617Z" fill="#E27830"/>
<path d="M425 296.689C425 296.689 425.622 304.158 422.171 318.174C419.64 328.457 405.489 357.108 405.489 357.108C405.466 356.795 405.442 356.479 405.418 356.164C403.998 336.738 401.791 295.827 401.791 295.827L425 296.689Z" fill="#ED823A"/>
<path d="M425 296.689C425 296.689 406.918 342.263 395.558 362.639C384.198 383.015 380.647 388.702 380.647 388.702C380.647 388.702 374.14 386.094 373.548 384.318C373.548 384.318 377.892 344.983 385.5 335.393C389.8 329.976 394.848 313.716 395.084 308.028C395.322 302.344 395.956 288.721 395.956 288.721L425 296.689Z" fill="#FF9E55"/>
<path d="M700.857 29.8494L690.478 29.8022L687.847 28.1119L696.013 28.1473C697.633 28.6901 699.251 29.2565 700.857 29.8494ZM687.741 29.7934H687.738L655.856 29.6518H655.85L653.218 27.9585H653.224L687.844 28.1119L687.048 29.3479L687.741 29.7934ZM653.112 29.6429L621.227 29.4984H621.221L618.589 27.8051H618.592L653.212 27.9585H653.215L652.42 29.1975L653.112 29.6429ZM618.483 29.4895L586.595 29.3479H586.592L583.961 27.6546H583.964L618.583 27.8051H618.586L617.791 29.0441L618.483 29.4895ZM583.855 29.3361L551.966 29.1945L549.332 27.5012H549.335L583.955 27.6546H583.958L583.162 28.8907L583.855 29.3361ZM549.229 29.1857H549.226L517.338 29.0441L514.703 27.3508H514.706L549.326 27.5012H549.329L548.533 28.7402L549.229 29.1857ZM514.6 29.0323H514.597L482.712 28.8907H482.709L480.074 27.1974H480.08L514.697 27.3508H514.7L513.905 28.5868L514.6 29.0323ZM479.971 28.8818L448.083 28.7373H448.08L445.446 27.044H445.452L480.072 27.1974L479.276 28.4334L479.971 28.8818ZM445.337 28.7255L413.454 28.5868H413.451L410.82 26.8935H410.823L445.44 27.044H445.443L444.647 28.283L445.337 28.7255ZM410.708 28.5721L378.826 28.4334H378.823L376.191 26.7401L410.811 26.8935H410.814L410.021 28.1296L410.708 28.5721ZM376.082 28.4216H376.079L344.197 28.283H344.194L341.562 26.5897H341.565L376.182 26.7401H376.185L375.393 27.9791L376.082 28.4216ZM341.453 28.2682L309.568 28.1296H309.565L306.934 26.4363H306.937L341.557 26.5897L340.764 27.8257L341.453 28.2682ZM306.825 28.1178L274.94 27.9762H274.937L272.302 26.2829L271.506 27.5219L272.196 27.9644H272.193L264.46 27.9319C265.144 27.3655 265.837 26.805 266.538 26.2593H266.541L272.302 26.2799H272.305L306.928 26.4363L306.135 27.6723L306.825 28.1178Z" fill="#D7E6FB"/>
<path d="M732.427 46.1629L248.948 44.0389C249.374 43.4725 249.811 42.915 250.257 42.3633L260.255 42.4046L262.209 43.6613L263.005 42.4223L262.999 42.4193L294.884 42.558H294.887L296.838 43.8117L297.633 42.5727L297.627 42.5698L329.51 42.7084H329.516L331.466 43.9652L332.259 42.7262L332.256 42.7232L364.141 42.8618L366.092 44.1156L366.888 42.8766L366.885 42.8737L398.77 43.0152L400.721 44.269L401.517 43.03L401.514 43.0271L433.399 43.1657L435.35 44.4224L436.145 43.1804L468.025 43.3191H468.028L469.978 44.5728L470.774 43.3338L470.771 43.3309L502.653 43.4696H502.656L504.607 44.7262L505.403 43.4872L505.397 43.4843H505.4L537.282 43.6229H537.285L539.236 44.8767L540.031 43.6377L540.026 43.6347H540.029L571.914 43.7734L573.865 45.0301L574.66 43.7911L574.654 43.7882H574.657L606.54 43.9268H606.542L608.493 45.1835L609.289 43.9445L609.283 43.9386L641.171 44.0832H641.174L643.122 45.3339L643.918 44.0949L643.912 44.092L675.8 44.2336H675.803L677.751 45.4873L678.546 44.2483L678.54 44.2454H678.543L710.429 44.387H710.432L712.379 45.6378L713.175 44.3988L713.169 44.3958H713.172L730.111 44.4696C730.898 45.0271 731.673 45.5936 732.427 46.1629Z" fill="#D7E6FB"/>
<path d="M262.209 43.6613L260.255 42.4045L253.753 38.2244C254.086 37.8497 254.419 37.481 254.755 37.1152L262.999 42.4193L263.005 42.4223L262.209 43.6613Z" fill="#D7E6FB"/>
<path d="M296.838 43.8118L294.887 42.558L272.196 27.9644L271.506 27.5219L272.302 26.2829L274.937 27.9762L297.627 42.5698L297.633 42.5728L296.838 43.8118Z" fill="#D7E6FB"/>
<path d="M331.467 43.9652L329.516 42.7085L306.825 28.1178L306.135 27.6724L306.928 26.4363L306.931 26.4334L306.934 26.4363L309.565 28.1296L332.256 42.7232L332.259 42.7262L331.467 43.9652Z" fill="#D7E6FB"/>
<path d="M366.092 44.1156L364.141 42.8619L341.453 28.2682L340.764 27.8257L341.557 26.5897L341.56 26.5867L341.563 26.5897L344.194 28.2829L366.885 42.8737L366.888 42.8766L366.092 44.1156Z" fill="#D7E6FB"/>
<path d="M400.721 44.269L398.77 43.0152L376.082 28.4216L375.393 27.9791L376.185 26.7401V26.7371L376.191 26.7401L378.823 28.4334L401.514 43.027L401.517 43.03L400.721 44.269Z" fill="#D7E6FB"/>
<path d="M435.35 44.4224L433.399 43.1656L410.708 28.572L410.021 28.1295L410.814 26.8935V26.8905L410.82 26.8935L413.451 28.5868L436.142 43.1804H436.145L435.35 44.4224Z" fill="#D7E6FB"/>
<path d="M469.978 44.5729L468.027 43.3191L445.337 28.7255L444.647 28.283L445.443 27.044H445.446L448.08 28.7373L470.771 43.3309L470.774 43.3339L469.978 44.5729Z" fill="#D7E6FB"/>
<path d="M504.607 44.7263L502.656 43.4696L479.971 28.8818L479.276 28.4334L480.072 27.1974V27.1944L480.074 27.1974L482.709 28.8907L505.397 43.4843L505.403 43.4873L504.607 44.7263Z" fill="#D7E6FB"/>
<path d="M539.236 44.8767L537.285 43.623L514.6 29.0323L513.905 28.5868L514.7 27.3508V27.3478L514.703 27.3508L517.338 29.0441L540.026 43.6348L540.032 43.6377L539.236 44.8767Z" fill="#D7E6FB"/>
<path d="M573.865 45.0301L571.914 43.7734L549.229 29.1857L548.533 28.7402L549.329 27.5012H549.332L551.966 29.1945L574.654 43.7882L574.66 43.7911L573.865 45.0301Z" fill="#D7E6FB"/>
<path d="M608.493 45.1835L606.543 43.9268L583.855 29.3361L583.162 28.8907L583.958 27.6546V27.6517L583.961 27.6546L586.592 29.3479L609.283 43.9386L609.289 43.9445L608.493 45.1835Z" fill="#D7E6FB"/>
<path d="M643.122 45.3339L641.174 44.0831L618.483 29.4895L617.791 29.044L618.586 27.805H618.589L621.221 29.4983L643.912 44.092L643.918 44.0949L643.122 45.3339Z" fill="#D7E6FB"/>
<path d="M677.751 45.4873L675.803 44.2336L653.112 29.6429L652.419 29.1974L653.215 27.9584V27.9555L653.218 27.9584L655.85 29.6517L678.54 44.2454L678.546 44.2483L677.751 45.4873Z" fill="#D7E6FB"/>
<path d="M712.38 45.6378L710.432 44.387L687.741 29.7934L687.048 29.3479L687.841 28.1119L687.844 28.1089L687.847 28.1119L690.479 29.8022L713.169 44.3959L713.175 44.3988L712.38 45.6378Z" fill="#D7E6FB"/>
<path d="M487.601 320.607H543.182V274.729H487.601V320.607Z" fill="#8DB0FF"/>
<path d="M515.393 320.607H570.971V274.729H515.393V320.607Z" fill="#AEC3FF"/>
<path d="M487.633 308.972H496.442L495.666 306.492L496.442 304.719H487.633V308.972Z" fill="#2A4E96"/>
<path d="M515.393 288.927H524.198L523.423 286.446L524.198 284.673H515.393V288.927Z" fill="#618DC1"/>
<path d="M515.393 284.673H506.584L507.36 287.154L506.584 288.927H515.393V284.673Z" fill="#2A4E96"/>
<path d="M570.974 309.465H562.166L562.941 311.946L562.166 313.719H570.974V309.465Z" fill="#618DC1"/>
<path d="M567.332 284.069H551.339V277.841H567.332V284.069Z" fill="white"/>
<path d="M668.866 245.3C668.866 245.3 666.232 260.303 663.349 275.974C660.22 293.01 656.796 310.837 656.15 311.061C654.91 311.489 655.01 308.778 654.158 306.71C653.472 305.046 651.391 290.801 652.075 281.918C652.243 279.75 652.797 253.02 656.501 249.863C660.202 246.707 668.866 245.3 668.866 245.3Z" fill="#FFB27D"/>
<path d="M653.348 302.727C653.348 302.727 653.987 305.185 653.056 307.589C652.125 309.993 651.928 310.678 653.651 312.029C655.372 313.377 657.238 315.274 658.532 314.713C659.822 314.153 659.024 303.146 659.024 303.146L653.348 302.727Z" fill="#FFB27D"/>
<path d="M656.928 401.101C658.528 400.125 657.618 392.835 657.618 392.835C657.618 392.835 650.168 386.87 649.143 391.437C648.117 396.006 642.064 398.057 638.619 398.617C636.241 399.004 635.505 400.322 635.275 401.101H656.928Z" fill="#2A4E96"/>
<path d="M690.013 401.101C691.613 400.125 690.702 392.835 690.702 392.835C690.702 392.835 683.25 386.87 682.227 391.437C681.202 396.006 675.149 398.057 671.704 398.617C669.323 399.004 668.586 400.322 668.359 401.101H690.013Z" fill="#2A4E96"/>
<path d="M679.66 316.507C677.008 327.723 673.666 340.532 672.364 347.753C672.211 348.588 672.087 349.352 671.993 350.025C671.901 350.7 671.842 351.29 671.816 351.78C671.12 365.306 660.444 396.231 658.534 396.95C655.579 398.065 650.922 395.694 648.485 394.918C647.478 394.593 646.797 393.576 647.021 392.54C652.31 368.203 655.57 333.369 656.277 312.619C656.633 302.167 657.111 294.733 657.111 294.733C657.111 294.733 683.158 287.774 683.314 296.577C683.373 299.987 681.726 307.763 679.66 316.507Z" fill="#FF9843"/>
<path d="M679.66 316.507C677.008 327.723 673.666 340.532 672.364 347.753C672.21 348.588 671.412 355.686 671.318 356.358L666.759 304.494L673.224 305.09L679.66 316.507Z" fill="#E27830"/>
<path d="M669.405 299.594L678.597 395.714C678.597 395.714 685.398 397.924 691.545 396.219C691.545 396.219 695.117 343.67 694.781 330.823C694.445 317.979 697.675 296.45 694.044 294.078C690.414 291.703 669.405 299.594 669.405 299.594Z" fill="#FF9843"/>
<path d="M693.864 273.897C693.964 274.994 694.38 295.482 694.409 296.252C694.442 297.099 692.129 298.789 683.954 300.004C681.019 300.441 677.562 300.739 673.59 300.783C663.397 300.898 659.501 296.609 659.501 296.609C658.805 296.621 660.276 291.632 660.512 259.244C660.338 259.244 660.146 259.277 659.978 259.212C656.365 257.808 653.003 254.872 653.003 254.872C653.003 254.872 657.096 243.482 660.968 237.686C661.911 236.273 664.454 235.161 667.84 234.435C668.727 234.246 669.679 234.081 670.672 233.945C675.287 233.314 680.866 233.293 686.032 234.042C686.93 234.166 687.817 234.32 688.684 234.497C692.509 235.276 695.954 236.52 698.397 238.302C701.998 240.919 704.676 254.324 704.676 254.324C704.676 254.324 701.285 258.176 693.655 260.056C693.251 267.77 693.413 268.817 693.864 273.897Z" fill="#2A4E96"/>
<path d="M657.111 294.733L660.223 255.929C660.402 253.695 662.315 252.005 664.552 252.105L685.749 252.937C687.493 253.005 688.902 254.392 688.993 256.141C689.252 261.236 690.225 271.136 693.864 273.897L695.786 301.984L672.096 323.454C672.096 323.454 669.405 307.719 665.707 303.347C663.635 300.901 657.111 294.733 657.111 294.733Z" fill="#FF9843"/>
<path d="M688.684 234.497L686.126 254.324L683.468 253.905L686.032 234.042C686.93 234.166 687.817 234.32 688.684 234.497Z" fill="#FF9843"/>
<path d="M670.672 233.945L667.39 251.731L667.115 253.223L666.821 253.156L664.484 252.63L667.84 234.435C668.727 234.246 669.679 234.081 670.672 233.945Z" fill="#FF9843"/>
<path d="M704.676 275.469C704.676 275.469 703.085 280.31 682.628 287.007C682.628 287.007 682.395 281.537 683.639 280.806C687.484 278.546 696.646 271.802 696.961 270.614C697.168 269.826 695.081 263.87 692.441 257.881C697.292 257.342 700.418 256.905 703.993 254.987C705.322 264.407 707.155 270.997 704.676 275.469Z" fill="#FFB27D"/>
<path d="M680.297 281.068C680.297 281.068 678.591 279.762 677.279 279.567C675.971 279.375 673.761 278.537 674.12 279.313C674.477 280.092 676.893 281.316 676.893 281.316L680.297 281.068Z" fill="#FFB27D"/>
<path d="M677.026 289.697L670.357 290.514C669.621 290.603 668.928 290.149 668.713 289.438L664.151 274.298C663.88 273.39 664.487 272.454 665.427 272.339L672.096 271.525C672.833 271.434 673.525 271.888 673.74 272.599L678.302 287.741C678.576 288.65 677.966 289.585 677.026 289.697Z" fill="#233862"/>
<path d="M674.665 289.986L667.997 290.8C667.26 290.892 666.567 290.438 666.352 289.727L661.791 274.584C661.517 273.679 662.126 272.744 663.067 272.628L669.732 271.814C670.472 271.723 671.165 272.177 671.38 272.888L675.941 288.03C676.213 288.936 675.605 289.871 674.665 289.986Z" fill="#192E4F"/>
<path d="M669.951 274.729C669.756 274.753 669.547 274.617 669.482 274.425L665.018 261.141C664.953 260.952 665.059 260.778 665.253 260.755C665.448 260.731 665.66 260.867 665.722 261.056L670.189 274.339C670.251 274.528 670.145 274.702 669.951 274.729Z" fill="#192E4F"/>
<path d="M683.639 280.806C683.639 280.806 682.451 281.54 681.608 281.319C680.91 281.133 680.297 281.068 679.492 280.52C678.644 279.942 676.764 280.706 676.21 281.077C674.654 282.116 669.405 282.071 669.405 283.11C669.405 284.148 671.689 287.063 674.453 287.93C677.217 288.794 682.628 287.007 682.628 287.007L683.639 280.806Z" fill="#FFB27D"/>
<path d="M683.704 233.565C683.816 236.647 681.087 238.149 676.996 237.562C672.906 236.981 672.827 233.801 672.827 233.801L672.927 230.727L673.042 227.089L673.148 223.838L683.049 225.181C683.017 225.429 683.029 226.001 683.064 226.75V226.753C683.158 228.703 683.435 231.848 683.704 233.565Z" fill="#FFB27D"/>
<path d="M683.067 226.75L683.064 226.753C682.97 226.889 680.709 229.974 672.927 230.727L673.042 227.089L683.064 226.75H683.067Z" fill="#ED975D"/>
<path d="M671.138 228.803C671.138 228.803 683.32 231.267 684.738 223.65C686.152 216.03 688.678 211.215 680.96 209.321C673.239 207.425 671.185 210.05 670.095 212.478C669.005 214.906 668.003 227.966 671.138 228.803Z" fill="#FFB27D"/>
<path d="M684.175 225.343C684.175 225.343 688.413 226.299 688.813 218.579C688.967 215.605 689.706 205.171 681.222 205.528C672.741 205.885 668.875 210.85 668.103 211.723C662.315 218.263 676.401 213.395 678.275 214.915C680.152 216.434 678.367 218.936 680.509 219.829C682.651 220.723 684.349 220.723 683.992 222.691C683.636 224.656 684.175 225.343 684.175 225.343Z" fill="#233862"/>
<path d="M666.968 211.873C666.968 211.873 671.509 213.454 673.101 213.569C673.572 213.605 680.615 214.089 680.615 214.089L690.9 215.903C690.9 215.903 692.907 208.259 687.876 203.457H687.873C687.75 203.336 687.617 203.215 687.481 203.1C686.123 201.926 684.302 200.949 681.877 200.342C669.576 197.247 667.021 211.428 666.968 211.873Z" fill="#FF9E55"/>
<path d="M672.962 213.354L674.907 213.614C676.425 211.602 682.047 204.625 687.976 203.593C687.941 203.537 687.909 203.495 687.876 203.457H687.873C687.773 203.333 687.691 203.271 687.543 203.085L687.481 203.1C679.899 204.917 674.247 211.566 672.962 213.354Z" fill="#E27830"/>
<path d="M680.615 214.089C680.615 214.089 681.938 215.587 682.283 217.027C682.628 218.469 689.309 219.334 689.768 218.584C690.231 217.835 690.9 215.903 690.9 215.903L680.615 214.089Z" fill="#FF9E55"/>
<path d="M680.615 214.089C680.615 214.089 668.309 214.319 662.683 211.354C662.256 211.127 662.327 210.49 662.798 210.375C663.644 210.168 665.082 209.938 667.457 209.853C667.457 209.853 671.86 213.51 680.615 214.089Z" fill="#E27830"/>
<path d="M177.983 403.541H46.4727V307.784H177.983V403.541Z" fill="#AEC3FF"/>
<path d="M194.64 199.303H176.707V401.101H207.115V301.574L194.64 250.439V199.303Z" fill="#AEC3FF"/>
<path d="M294.05 250.439H194.64V199.303H294.05V250.439Z" fill="#D2E0FF"/>
<path d="M306.527 401.101H207.115V301.574H306.527V401.101Z" fill="#D2E0FF"/>
<path d="M306.527 301.574H207.115L194.64 250.439H294.05L306.527 301.574Z" fill="#C1D4F7"/>
<path d="M208.756 260.595H206.157L205.163 256.89H207.762L208.756 260.595Z" fill="#AEC3FF"/>
<path d="M214.669 260.595H212.07L211.076 256.89H213.675L214.669 260.595Z" fill="#AEC3FF"/>
<path d="M220.582 260.595H217.983L216.989 256.89H219.588L220.582 260.595Z" fill="#AEC3FF"/>
<path d="M226.495 260.595H223.896L222.902 256.89H225.501L226.495 260.595Z" fill="#AEC3FF"/>
<path d="M232.408 260.595H229.809L228.815 256.89H231.414L232.408 260.595Z" fill="#AEC3FF"/>
<path d="M238.321 260.595H235.722L234.728 256.89H237.327L238.321 260.595Z" fill="#AEC3FF"/>
<path d="M210.612 267.513H208.013L207.019 263.808H209.618L210.612 267.513Z" fill="#AEC3FF"/>
<path d="M216.525 267.513H213.926L212.932 263.808H215.53L216.525 267.513Z" fill="#AEC3FF"/>
<path d="M222.438 267.513H219.838L218.844 263.808H221.443L222.438 267.513Z" fill="#AEC3FF"/>
<path d="M228.351 267.513H225.752L224.758 263.808H227.357L228.351 267.513Z" fill="#AEC3FF"/>
<path d="M234.264 267.513H231.665L230.67 263.808H233.27L234.264 267.513Z" fill="#AEC3FF"/>
<path d="M240.177 267.513H237.578L236.583 263.808H239.182L240.177 267.513Z" fill="#AEC3FF"/>
<path d="M212.534 274.676H209.935L208.941 270.971H211.54L212.534 274.676Z" fill="#AEC3FF"/>
<path d="M218.447 274.676H215.848L214.854 270.971H217.453L218.447 274.676Z" fill="#AEC3FF"/>
<path d="M224.36 274.676H221.761L220.767 270.971H223.366L224.36 274.676Z" fill="#AEC3FF"/>
<path d="M230.273 274.676H227.674L226.679 270.971H229.279L230.273 274.676Z" fill="#AEC3FF"/>
<path d="M236.186 274.676H233.587L232.592 270.971H235.191L236.186 274.676Z" fill="#AEC3FF"/>
<path d="M242.099 274.676H239.5L238.506 270.971H241.105L242.099 274.676Z" fill="#AEC3FF"/>
<path d="M214.39 281.594H211.791L210.796 277.888H213.396L214.39 281.594Z" fill="#AEC3FF"/>
<path d="M220.303 281.594H217.704L216.709 277.888H219.308L220.303 281.594Z" fill="#AEC3FF"/>
<path d="M226.216 281.594H223.617L222.622 277.888H225.221L226.216 281.594Z" fill="#AEC3FF"/>
<path d="M232.129 281.594H229.529L228.535 277.888H231.135L232.129 281.594Z" fill="#AEC3FF"/>
<path d="M238.041 281.594H235.442L234.448 277.888H237.047L238.041 281.594Z" fill="#AEC3FF"/>
<path d="M243.955 281.594H241.356L240.361 277.888H242.96L243.955 281.594Z" fill="#AEC3FF"/>
<path d="M249.907 260.595H247.307L246.313 256.89H248.913L249.907 260.595Z" fill="#AEC3FF"/>
<path d="M255.82 260.595H253.221L252.227 256.89H254.826L255.82 260.595Z" fill="#AEC3FF"/>
<path d="M261.732 260.595H259.133L258.139 256.89H260.739L261.732 260.595Z" fill="#AEC3FF"/>
<path d="M267.646 260.595H265.047L264.054 256.89H266.653L267.646 260.595Z" fill="#AEC3FF"/>
<path d="M273.558 260.595H270.958L269.965 256.89H272.564L273.558 260.595Z" fill="#AEC3FF"/>
<path d="M279.472 260.595H276.873L275.88 256.89H278.479L279.472 260.595Z" fill="#AEC3FF"/>
<path d="M251.763 267.513H249.163L248.169 263.808H250.769L251.763 267.513Z" fill="#AEC3FF"/>
<path d="M257.677 267.513H255.076L254.083 263.808H256.681L257.677 267.513Z" fill="#AEC3FF"/>
<path d="M263.588 267.513H260.989L259.996 263.808H262.595L263.588 267.513Z" fill="#AEC3FF"/>
<path d="M269.502 267.513H266.903L265.907 263.808H268.506L269.502 267.513Z" fill="#AEC3FF"/>
<path d="M275.414 267.513H272.815L271.822 263.808H274.421L275.414 267.513Z" fill="#AEC3FF"/>
<path d="M281.328 267.513H278.729L277.733 263.808H280.332L281.328 267.513Z" fill="#AEC3FF"/>
<path d="M253.685 274.676H251.086L250.092 270.971H252.691L253.685 274.676Z" fill="#AEC3FF"/>
<path d="M259.598 274.676H256.999L256.006 270.971H258.605L259.598 274.676Z" fill="#AEC3FF"/>
<path d="M265.509 274.676H262.91L261.917 270.971H264.516L265.509 274.676Z" fill="#AEC3FF"/>
<path d="M271.424 274.676H268.825L267.832 270.971H270.431L271.424 274.676Z" fill="#AEC3FF"/>
<path d="M277.335 274.676H274.736L273.743 270.971H276.342L277.335 274.676Z" fill="#AEC3FF"/>
<path d="M283.25 274.676H280.651L279.657 270.971H282.257L283.25 274.676Z" fill="#AEC3FF"/>
<path d="M255.54 281.594H252.942L251.947 277.888H254.546L255.54 281.594Z" fill="#AEC3FF"/>
<path d="M261.455 281.594H258.855L257.859 277.888H260.459L261.455 281.594Z" fill="#AEC3FF"/>
<path d="M267.366 281.594H264.767L263.774 277.888H266.373L267.366 281.594Z" fill="#AEC3FF"/>
<path d="M273.28 281.594H270.681L269.685 277.888H272.284L273.28 281.594Z" fill="#AEC3FF"/>
<path d="M279.192 281.594H276.593L275.6 277.888H278.199L279.192 281.594Z" fill="#AEC3FF"/>
<path d="M285.106 281.594H282.507L281.511 277.888H284.11L285.106 281.594Z" fill="#AEC3FF"/>
<path d="M239.179 245.403H202.271V215.635H239.179V245.403Z" fill="#2B478B"/>
<path d="M239.22 245.403H236.583V215.635H239.22V245.403Z" fill="#699DEE"/>
<path d="M214.68 390.357H302.428V354.919H214.68V390.357ZM303.009 390.938H214.099V354.338H303.009V390.938Z" fill="#AEC3FF"/>
<path d="M261.846 207.852C261.846 208.962 261.216 209.861 260.438 209.861C259.66 209.861 259.029 208.962 259.029 207.852C259.029 206.743 259.66 205.843 260.438 205.843C261.216 205.843 261.846 206.743 261.846 207.852Z" fill="white"/>
<path d="M268.436 207.852C268.436 208.962 267.805 209.861 267.027 209.861C266.249 209.861 265.619 208.962 265.619 207.852C265.619 206.743 266.249 205.843 267.027 205.843C267.805 205.843 268.436 206.743 268.436 207.852Z" fill="#FF9E55"/>
<path d="M275.028 207.852C275.028 208.962 274.397 209.861 273.619 209.861C272.838 209.861 272.208 208.962 272.208 207.852C272.208 206.743 272.838 205.843 273.619 205.843C274.397 205.843 275.028 206.743 275.028 207.852Z" fill="#699DEE"/>
<path d="M281.617 207.852C281.617 208.962 280.986 209.861 280.208 209.861C279.43 209.861 278.8 208.962 278.8 207.852C278.8 206.743 279.43 205.843 280.208 205.843C280.986 205.843 281.617 206.743 281.617 207.852Z" fill="white"/>
<path d="M288.206 207.852C288.206 208.962 287.576 209.861 286.798 209.861C286.02 209.861 285.389 208.962 285.389 207.852C285.389 206.743 286.02 205.843 286.798 205.843C287.576 205.843 288.206 206.743 288.206 207.852Z" fill="#FF9E55"/>
<path d="M259.887 239.367H287.915V215.927H259.887V239.367ZM288.498 239.951H259.306V215.345H288.498V239.951Z" fill="#AEC3FF"/>
<path d="M216.891 219.649H212.386V218.815H216.891V219.649Z" fill="#E9F3FE"/>
<path d="M210.737 219.649H203.636V218.815H210.737V219.649Z" fill="#E9F3FE"/>
<path d="M214.379 221.874H203.636V221.039H214.379V221.874Z" fill="#E9F3FE"/>
<path d="M222.956 221.874H215.83V221.039H222.956V221.874Z" fill="#E9F3FE"/>
<path d="M225.646 219.649H217.866V218.815H225.646V219.649Z" fill="#E9F3FE"/>
<path d="M210.737 225.706H203.636V224.871H210.737V225.706Z" fill="#E9F3FE"/>
<path d="M214.379 227.93H203.636V227.095H214.379V227.93Z" fill="#E9F3FE"/>
<path d="M222.956 227.93H215.83V227.095H222.956V227.93Z" fill="#E9F3FE"/>
<path d="M216.891 225.706H212.386V224.871H216.891V225.706Z" fill="#E9F3FE"/>
<path d="M225.646 225.706H217.866V224.871H225.646V225.706Z" fill="#E9F3FE"/>
<path d="M210.737 232.376H203.636V231.541H210.737V232.376Z" fill="#E9F3FE"/>
<path d="M214.379 234.597H203.636V233.765H214.379V234.597Z" fill="#E9F3FE"/>
<path d="M222.956 234.597H215.83V233.765H222.956V234.597Z" fill="#E9F3FE"/>
<path d="M216.891 232.376H212.386V231.541H216.891V232.376Z" fill="#E9F3FE"/>
<path d="M225.646 232.376H217.866V231.541H225.646V232.376Z" fill="#E9F3FE"/>
<path d="M210.737 238.798H203.636V237.963H210.737V238.798Z" fill="#E9F3FE"/>
<path d="M214.379 241.022H203.636V240.187H214.379V241.022Z" fill="#E9F3FE"/>
<path d="M222.956 241.022H215.83V240.187H222.956V241.022Z" fill="#E9F3FE"/>
<path d="M216.891 238.798H212.386V237.963H216.891V238.798Z" fill="#E9F3FE"/>
<path d="M225.646 238.798H217.866V237.963H225.646V238.798Z" fill="#E9F3FE"/>
<path d="M207.116 313.633H42.9932V307.784H207.116V313.633Z" fill="#D2E0FF"/>
<path d="M80.6881 267.613L77.537 305.12C77.537 305.12 77.207 307.394 78.8961 307.397C81.6736 307.403 92.7211 307.397 92.7211 307.397C92.7211 307.397 90.6303 306.925 90.6559 305.86C90.6857 304.604 94.3387 267.259 94.3387 267.259L80.6881 267.613Z" fill="#D86713"/>
<path d="M93.6172 306.716C93.0712 306.719 82.5196 306.751 79.8147 306.716C78.6359 306.701 78.4291 305.668 78.4193 304.999C78.4146 304.677 78.4553 304.438 78.4553 304.438L78.5369 303.465L78.7458 300.981L78.9306 298.786L79.1675 295.966L79.3673 293.585L81.6058 266.935L95.2566 266.578C95.2566 266.578 93.718 282.207 92.6297 293.585C92.5083 294.851 92.3928 296.066 92.2858 297.202C92.2514 297.565 92.2181 297.919 92.1857 298.261C92.0849 299.338 91.9926 300.326 91.9122 301.199C91.87 301.659 91.8308 302.087 91.7955 302.48C91.6567 304.014 91.5754 304.993 91.5742 305.179C91.5736 305.288 91.583 305.388 91.601 305.483C91.8249 306.677 93.4121 306.716 93.6172 306.716Z" fill="#EE9849"/>
<path d="M47.5366 247.205L55.2118 278.068L56.2626 282.296L59.8375 296.668H126.249L113.074 247.205H47.5366Z" fill="#F1A34F"/>
<path d="M47.5365 247.205L46.4727 247.562L58.4231 297.742L59.8373 296.668L47.5365 247.205Z" fill="#EE9849"/>
<path d="M58.4231 297.742H124.426L126.249 296.668H59.8373L58.4231 297.742Z" fill="#D86713"/>
<path d="M81.6013 307.412H95.8922V306.731H81.6013V307.412Z" fill="#F1A34F"/>
<path d="M123.032 287.555L112.255 247.86H47.4304V247.205H113.073L123.813 287.467L123.032 287.555Z" fill="#F1A34F"/>
<path d="M92.2593 297.742L92.1856 298.261L78.7461 300.981L78.9306 298.786L79.0184 297.742H92.2593Z" fill="#D86713"/>
<path d="M86.1842 306.73H83.2394C81.7727 306.73 80.5238 306.725 79.8145 306.716C78.6358 306.701 78.4289 305.668 78.4192 304.999L91.7953 302.48C91.6565 304.014 91.5752 304.993 91.574 305.179C91.5735 305.288 91.5829 305.388 91.6009 305.483C91.8248 306.677 93.412 306.716 93.6171 306.716C93.3041 306.719 89.7081 306.728 86.1842 306.73Z" fill="#E58433"/>
<path d="M84.6175 306.733C84.1445 306.733 83.6818 306.733 83.2395 306.73H86.1843C85.6568 306.733 85.1305 306.733 84.6175 306.733Z" fill="#E78B37"/>
<path d="M59.8375 296.668L56.2629 282.296L89.0113 286.656L59.8375 296.668Z" fill="#E78B37"/>
<path d="M47.5366 247.205H113.073L123.707 286.96H57.0851L47.5366 247.205Z" fill="#AEC3FF"/>
<path d="M120.616 285.237H59.2536L52.3043 257.524L51.7718 255.398L51.3171 253.586L50.2512 249.335H110.729L111.9 253.586L112.399 255.398L112.984 257.524L120.616 285.237Z" fill="#8AA8ED"/>
<path d="M104.826 251.273L102.067 251.312L102.006 251.073L104.764 251.034L104.826 251.273Z" fill="#F9DDBF"/>
<path d="M104.217 251.934L102.233 251.964L102.172 251.722L104.156 251.695L104.217 251.934Z" fill="#F9DDBF"/>
<path d="M106.496 251.902L104.513 251.931L104.451 251.689L106.435 251.663L106.496 251.902Z" fill="#F9DDBF"/>
<path d="M108.145 251.878L106.916 251.896L106.854 251.657L108.084 251.639L108.145 251.878Z" fill="#F9DDBF"/>
<path d="M107.04 251.241L105.338 251.265L105.276 251.026L106.979 251.002L107.04 251.241Z" fill="#F9DDBF"/>
<path d="M109.366 251.209L107.663 251.232L107.602 250.993L109.304 250.97L109.366 251.209Z" fill="#F9DDBF"/>
<path d="M112.186 282.771L109.427 282.809L109.365 282.57L112.125 282.532L112.186 282.771Z" fill="#F9DDBF"/>
<path d="M111.577 283.431L109.593 283.461L109.532 283.222L111.516 283.192L111.577 283.431Z" fill="#F9DDBF"/>
<path d="M113.856 283.402L111.873 283.428L111.811 283.189L113.795 283.16L113.856 283.402Z" fill="#F9DDBF"/>
<path d="M115.505 283.378L114.276 283.396L114.214 283.154L115.444 283.136L115.505 283.378Z" fill="#F9DDBF"/>
<path d="M114.4 282.741L112.698 282.765L112.636 282.523L114.338 282.499L114.4 282.741Z" fill="#F9DDBF"/>
<path d="M116.725 282.706L115.023 282.732L114.962 282.49L116.664 282.467L116.725 282.706Z" fill="#F9DDBF"/>
<path d="M61.7175 253.102L55.2494 253.088L55.1218 252.545L61.5896 252.56L61.7175 253.102Z" fill="#F9DDBF"/>
<path d="M60.2464 254.574L55.5959 254.563L55.468 254.017L60.1185 254.029L60.2464 254.574Z" fill="#F9DDBF"/>
<path d="M65.5889 254.586L60.9387 254.574L60.8108 254.032L65.461 254.043L65.5889 254.586Z" fill="#F9DDBF"/>
<path d="M69.4546 254.595L66.5719 254.589L66.4443 254.043L69.3267 254.052L69.4546 254.595Z" fill="#F9DDBF"/>
<path d="M66.9076 253.117L62.9172 253.108L62.7893 252.563L66.7797 252.571L66.9076 253.117Z" fill="#F9DDBF"/>
<path d="M72.3584 253.129L68.3681 253.12L68.2405 252.577L72.2305 252.586L72.3584 253.129Z" fill="#F9DDBF"/>
<path d="M61.8389 257.89L56.3757 257.878L56.2478 257.333L61.7113 257.347L61.8389 257.89Z" fill="#F9DDBF"/>
<path d="M65.8827 257.902L62.8312 257.893L62.7036 257.35L65.7551 257.356L65.8827 257.902Z" fill="#F9DDBF"/>
<path d="M71.9458 257.917L67.267 257.905L67.1394 257.359L71.8179 257.371L71.9458 257.917Z" fill="#F9DDBF"/>
<path d="M63.1797 259.324L56.7119 259.306L56.5837 258.763L63.0518 258.778L63.1797 259.324Z" fill="#F9DDBF"/>
<path d="M61.7087 260.793L57.0583 260.781L56.9307 260.236L61.5808 260.247L61.7087 260.793Z" fill="#F9DDBF"/>
<path d="M67.051 260.805L62.4008 260.793L62.2729 260.25L66.9231 260.262L67.051 260.805Z" fill="#F9DDBF"/>
<path d="M70.9167 260.814L68.0341 260.808L67.9065 260.265L70.7888 260.271L70.9167 260.814Z" fill="#F9DDBF"/>
<path d="M68.3697 259.336L64.3794 259.327L64.2515 258.781L68.2418 258.793L68.3697 259.336Z" fill="#F9DDBF"/>
<path d="M73.8206 259.348L69.8302 259.339L69.7026 258.796L73.693 258.805L73.8206 259.348Z" fill="#F9DDBF"/>
<path d="M63.44 264.699L57.9765 264.684L57.8486 264.141L63.3121 264.156L63.44 264.699Z" fill="#163560"/>
<path d="M67.4833 264.708L64.4318 264.702L64.3042 264.156L67.3557 264.165L67.4833 264.708Z" fill="#163560"/>
<path d="M73.5466 264.722L68.8681 264.711L68.7402 264.168L73.4187 264.18L73.5466 264.722Z" fill="#163560"/>
<path d="M64.7805 266.13L58.3127 266.115L58.1848 265.572L64.6526 265.587L64.7805 266.13Z" fill="#163560"/>
<path d="M63.3093 267.599L58.6589 267.587L58.5312 267.044L63.1814 267.056L63.3093 267.599Z" fill="#163560"/>
<path d="M68.6521 267.613L64.0017 267.602L63.8738 267.059L68.5242 267.071L68.6521 267.613Z" fill="#163560"/>
<path d="M72.5176 267.622L69.6352 267.616L69.5073 267.071L72.3897 267.08L72.5176 267.622Z" fill="#163560"/>
<path d="M69.9705 266.144L65.9801 266.133L65.8525 265.59L69.8429 265.599L69.9705 266.144Z" fill="#163560"/>
<path d="M75.4214 266.156L71.4311 266.147L71.3035 265.605L75.2938 265.613L75.4214 266.156Z" fill="#163560"/>
<path d="M64.9712 271.212L59.508 271.198L59.3801 270.655L64.8436 270.667L64.9712 271.212Z" fill="#F9DDBF"/>
<path d="M69.0148 271.221L65.9633 271.215L65.8354 270.67L68.8869 270.679L69.0148 271.221Z" fill="#F9DDBF"/>
<path d="M75.0781 271.236L70.3994 271.224L70.2715 270.681L74.9502 270.693L75.0781 271.236Z" fill="#F9DDBF"/>
<path d="M66.312 272.643L59.844 272.628L59.7161 272.083L66.1842 272.1L66.312 272.643Z" fill="#F9DDBF"/>
<path d="M64.8406 274.112L60.1904 274.101L60.0625 273.558L64.713 273.57L64.8406 274.112Z" fill="#F9DDBF"/>
<path d="M70.1833 274.127L65.5332 274.115L65.4053 273.57L70.0554 273.581L70.1833 274.127Z" fill="#F9DDBF"/>
<path d="M74.049 274.136L71.1664 274.127L71.0388 273.584L73.9212 273.593L74.049 274.136Z" fill="#F9DDBF"/>
<path d="M71.502 272.655L67.5117 272.646L67.3838 272.103L71.3741 272.112L71.502 272.655Z" fill="#F9DDBF"/>
<path d="M76.953 272.67L72.9626 272.661L72.8347 272.115L76.8251 272.127L76.953 272.67Z" fill="#F9DDBF"/>
<path d="M66.544 277.9L61.0808 277.888L60.9529 277.343L66.4164 277.357L66.544 277.9Z" fill="#163560"/>
<path d="M70.5876 277.909L67.5361 277.903L67.4082 277.36L70.4597 277.366L70.5876 277.909Z" fill="#163560"/>
<path d="M76.6509 277.924L71.9721 277.915L71.8442 277.369L76.523 277.381L76.6509 277.924Z" fill="#163560"/>
<path d="M67.8848 279.331L61.4167 279.316L61.2888 278.773L67.7569 278.788L67.8848 279.331Z" fill="#163560"/>
<path d="M66.4133 280.8L61.7632 280.791L61.6353 280.245L66.2857 280.257L66.4133 280.8Z" fill="#163560"/>
<path d="M71.7561 280.815L67.1059 280.803L66.978 280.26L71.6282 280.272L71.7561 280.815Z" fill="#163560"/>
<path d="M75.6216 280.824L72.7392 280.818L72.6113 280.272L75.494 280.281L75.6216 280.824Z" fill="#163560"/>
<path d="M73.0748 279.346L69.0844 279.334L68.9565 278.791L72.9469 278.8L73.0748 279.346Z" fill="#163560"/>
<path d="M78.5255 279.357L74.5351 279.349L74.4072 278.806L78.3976 278.815L78.5255 279.357Z" fill="#163560"/>
<path d="M90.0906 253.557L83.6225 253.542L83.4949 252.999L89.9627 253.014L90.0906 253.557Z" fill="#F1A34F"/>
<path d="M88.6196 255.026L83.9692 255.017L83.8416 254.471L88.4917 254.483L88.6196 255.026Z" fill="#F1A34F"/>
<path d="M93.9619 255.041L89.3117 255.029L89.1838 254.486L93.8343 254.498L93.9619 255.041Z" fill="#F1A34F"/>
<path d="M97.8276 255.049L94.9453 255.044L94.8174 254.498L97.6997 254.507L97.8276 255.049Z" fill="#F1A34F"/>
<path d="M95.2806 253.571L91.2902 253.56L91.1624 253.017L95.1527 253.026L95.2806 253.571Z" fill="#F1A34F"/>
<path d="M100.732 253.583L96.7412 253.574L96.6133 253.032L100.604 253.041L100.732 253.583Z" fill="#F1A34F"/>
<path d="M90.2123 258.345L84.7487 258.333L84.6208 257.787L90.0844 257.802L90.2123 258.345Z" fill="#F1A34F"/>
<path d="M94.2558 258.356L91.2043 258.348L91.0767 257.805L94.1279 257.811L94.2558 258.356Z" fill="#F1A34F"/>
<path d="M100.319 258.371L95.6406 258.359L95.5127 257.814L100.191 257.825L100.319 258.371Z" fill="#F1A34F"/>
<path d="M91.553 259.778L85.0849 259.761L84.9573 259.218L91.4251 259.233L91.553 259.778Z" fill="#F1A34F"/>
<path d="M90.0818 261.247L85.4317 261.236L85.3035 260.69L89.9539 260.702L90.0818 261.247Z" fill="#F1A34F"/>
<path d="M95.4241 261.259L90.7739 261.247L90.646 260.705L95.2965 260.716L95.4241 261.259Z" fill="#F1A34F"/>
<path d="M99.2898 261.268L96.4074 261.262L96.2795 260.719L99.1619 260.725L99.2898 261.268Z" fill="#F1A34F"/>
<path d="M96.743 259.79L92.7526 259.781L92.625 259.235L96.6151 259.247L96.743 259.79Z" fill="#F1A34F"/>
<path d="M102.194 259.802L98.2033 259.793L98.0757 259.25L102.066 259.259L102.194 259.802Z" fill="#F1A34F"/>
<path d="M91.8131 265.153L86.3496 265.138L86.2217 264.596L91.6852 264.61L91.8131 265.153Z" fill="#F9DDBF"/>
<path d="M95.8566 265.162L92.8054 265.156L92.6775 264.613L95.7287 264.619L95.8566 265.162Z" fill="#F9DDBF"/>
<path d="M101.92 265.177L97.2409 265.165L97.1133 264.622L101.792 264.634L101.92 265.177Z" fill="#F9DDBF"/>
<path d="M93.1536 266.584L86.6855 266.569L86.5579 266.026L93.026 266.041L93.1536 266.584Z" fill="#F9DDBF"/>
<path d="M91.6826 268.053L87.0324 268.041L86.9045 267.498L91.5547 267.51L91.6826 268.053Z" fill="#F9DDBF"/>
<path d="M97.0252 268.068L92.3747 268.056L92.2468 267.513L96.8973 267.525L97.0252 268.068Z" fill="#F9DDBF"/>
<path d="M100.891 268.077L98.0083 268.071L97.8804 267.525L100.763 267.534L100.891 268.077Z" fill="#F9DDBF"/>
<path d="M98.3435 266.599L94.3532 266.587L94.2256 266.044L98.2157 266.053L98.3435 266.599Z" fill="#F9DDBF"/>
<path d="M103.795 266.61L99.8041 266.602L99.6765 266.059L103.667 266.068L103.795 266.61Z" fill="#F9DDBF"/>
<path d="M93.3446 271.667L87.8811 271.652L87.7532 271.109L93.2167 271.121L93.3446 271.667Z" fill="#F9DDBF"/>
<path d="M97.3879 271.676L94.3364 271.67L94.2085 271.124L97.26 271.133L97.3879 271.676Z" fill="#F9DDBF"/>
<path d="M103.451 271.69L98.7724 271.679L98.6445 271.136L103.323 271.148L103.451 271.69Z" fill="#F9DDBF"/>
<path d="M94.685 273.098L88.2169 273.083L88.0894 272.537L94.5572 272.555L94.685 273.098Z" fill="#F9DDBF"/>
<path d="M93.2139 274.567L88.5634 274.555L88.4355 274.012L93.086 274.024L93.2139 274.567Z" fill="#F9DDBF"/>
<path d="M98.5564 274.581L93.9062 274.57L93.7783 274.024L98.4288 274.036L98.5564 274.581Z" fill="#F9DDBF"/>
<path d="M102.422 274.59L99.5398 274.581L99.4116 274.039L102.294 274.047L102.422 274.59Z" fill="#F9DDBF"/>
<path d="M99.8751 273.109L95.8847 273.1L95.7568 272.558L99.7472 272.567L99.8751 273.109Z" fill="#F9DDBF"/>
<path d="M105.326 273.124L101.336 273.115L101.208 272.569L105.198 272.581L105.326 273.124Z" fill="#F9DDBF"/>
<path d="M94.9173 278.354L89.4535 278.343L89.3259 277.797L94.7891 277.812L94.9173 278.354Z" fill="#F9DDBF"/>
<path d="M98.9606 278.363L95.9091 278.357L95.7812 277.815L98.8327 277.82L98.9606 278.363Z" fill="#F9DDBF"/>
<path d="M105.024 278.378L100.345 278.369L100.217 277.823L104.896 277.835L105.024 278.378Z" fill="#F9DDBF"/>
<path d="M96.2579 279.785L89.7898 279.77L89.6619 279.228L96.13 279.242L96.2579 279.785Z" fill="#F9DDBF"/>
<path d="M94.7867 281.254L90.1362 281.245L90.0083 280.7L94.6588 280.711L94.7867 281.254Z" fill="#F9DDBF"/>
<path d="M100.129 281.269L95.479 281.257L95.3511 280.714L100.001 280.726L100.129 281.269Z" fill="#F9DDBF"/>
<path d="M103.995 281.278L101.112 281.272L100.984 280.726L103.867 280.735L103.995 281.278Z" fill="#F9DDBF"/>
<path d="M101.448 279.8L97.4575 279.788L97.3296 279.245L101.32 279.254L101.448 279.8Z" fill="#F9DDBF"/>
<path d="M106.899 279.812L102.908 279.803L102.781 279.26L106.771 279.269L106.899 279.812Z" fill="#F9DDBF"/>
<path d="M124.789 392.219C124.789 392.219 124.197 401.443 122.414 401.57C122.177 401.588 113.371 401.57 113.371 401.57L102.129 401.479C102.129 401.479 102.208 398.768 105.496 398.201C108.783 397.635 114.288 395.337 116.288 390.991C118.392 386.425 124.789 392.219 124.789 392.219Z" fill="#0E2C4F"/>
<path d="M156.967 316.342C157.397 316.701 168.846 329.121 167.911 338.658C167.636 341.461 165.225 343.567 162.413 343.567H148.467C148.467 343.567 134.236 346.113 133.897 349.193C133.557 352.27 130.645 368.866 124.875 392.449C124.875 392.449 120.622 393.915 118.043 392.868C114.632 391.484 114.137 390.015 114.137 390.015C114.137 390.015 117.576 337.207 120.292 333.493C123.007 329.776 150.983 318.728 160.042 317.628C169.101 316.527 156.967 316.342 156.967 316.342Z" fill="#163560"/>
<path d="M76.0846 303.17C76.0846 303.17 67.9928 301.285 65.9226 303.17C63.8524 305.052 63.1941 307.784 63.1941 307.784H76.0846V303.17Z" fill="#FFB27D"/>
<path d="M105.086 392.219C105.086 392.219 104.495 401.443 102.711 401.57C102.474 401.588 93.6677 401.57 93.6677 401.57L82.4263 401.479C82.4263 401.479 82.5055 398.768 85.7931 398.201C89.08 397.635 94.5854 395.337 96.5851 390.991C98.6892 386.425 105.086 392.219 105.086 392.219Z" fill="#163560"/>
<path d="M167.544 316.342C167.87 316.616 170.347 323.289 172.002 330.87C173.427 337.393 168.47 343.567 161.799 343.567H129.355C129.355 343.567 115.125 346.113 114.785 349.193C114.446 352.27 111.534 368.866 105.763 392.449C105.763 392.449 101.496 393.57 98.1641 392.145C96.3918 391.387 94.9941 389.566 94.9941 389.566C94.9941 389.566 98.4647 337.207 101.18 333.493C103.896 329.776 131.872 318.728 140.931 317.628C149.989 316.527 167.544 316.342 167.544 316.342Z" fill="#2B478B"/>
<path d="M149.561 269.133L144.544 273.953L135.995 273.956C135.985 273.269 136.014 270.398 136.044 267.796C136.047 267.643 136.049 267.493 136.05 267.342C136.057 266.764 136.065 266.206 136.071 265.699C136.088 264.265 136.102 263.227 136.102 263.227L138.3 261.722L143.183 258.377L145.823 256.572C145.825 256.616 146.042 258.979 146.074 259.321C146.659 265.442 149.561 269.133 149.561 269.133Z" fill="#FFB27D"/>
<path d="M137.131 268.262C137.295 268.192 146.545 264.038 147.626 264.398C148.708 264.755 150.056 268.062 150.056 268.062L133.769 271.746C133.769 271.746 135.051 269.139 137.131 268.262Z" fill="#163560"/>
<path d="M177.14 296.01C175.377 285.131 167.936 276.989 164.753 273.938C162.615 270.717 150.057 268.062 150.057 268.062C150.057 268.062 139.653 270.416 133.769 271.746C133.769 271.746 124.589 272.746 119.412 281.316C116.211 286.617 107.041 298.742 101.019 299.119C94.9972 299.497 76.0847 303.17 76.0847 303.17V307.825L104.918 308.618C105.271 308.627 105.62 308.601 105.967 308.536C108.448 308.067 119.083 305.949 124.373 303.193C125.217 316.828 126.215 337.649 130.972 340.956C136.003 344.452 171.385 344.921 175.132 339.591C177.05 336.862 174.699 320.711 171.761 305.138C175.413 303.397 177.878 300.571 177.14 296.01Z" fill="#2A4E96"/>
<path d="M144.456 261.227L144.02 261.498C144.02 261.498 139.997 264.398 136.071 265.699C136.088 264.265 136.102 263.227 136.102 263.227L138.3 261.722L144.456 261.227Z" fill="#EAA16E"/>
<path d="M133.106 263.304C133.106 263.304 146.26 264.861 147.103 256.645C147.946 248.43 150.212 243.099 141.849 241.757C133.486 240.414 131.531 243.382 130.583 246.055C129.635 248.728 129.707 262.687 133.106 263.304Z" fill="#FFB27D"/>
<path d="M130.931 245.214C130.931 245.214 133.414 254.126 135.212 253.383C137.011 252.639 138.654 252.032 138.889 254.813C139.125 257.595 137.118 261.233 142.976 260.64C148.835 260.044 154.349 243.6 152.238 241.078C146.148 233.798 122.471 236.523 130.931 245.214Z" fill="#163560"/>
<path d="M121.615 345.334H186.68C189.151 345.334 191.155 343.328 191.155 340.856V337.941H121.615V345.334Z" fill="#77A4E5"/>
<path d="M113.818 345.334H163.043C164.87 345.334 166.351 343.85 166.351 342.021V341.254C166.351 339.425 164.87 337.941 163.043 337.941H113.818C111.991 337.941 110.51 339.425 110.51 341.254V342.021C110.51 343.85 111.991 345.334 113.818 345.334Z" fill="#F99746"/>
<path d="M154.798 398.797H158.995L160.173 345.334H153.762L154.798 398.797Z" fill="#2B478B"/>
<path d="M136.559 398.797H177.375V395.107L156.572 393.227L136.559 395.107V398.797Z" fill="#2B478B"/>
<path d="M181.341 398.216C181.341 396.36 179.838 394.856 177.983 394.856C176.129 394.856 174.626 396.36 174.626 398.216C174.626 400.074 176.129 401.579 177.983 401.579C179.838 401.579 181.341 400.074 181.341 398.216Z" fill="#2B478B"/>
<path d="M140.524 398.216C140.524 396.36 139.021 394.856 137.167 394.856C135.312 394.856 133.809 396.36 133.809 398.216C133.809 400.074 135.312 401.579 137.167 401.579C139.021 401.579 140.524 400.074 140.524 398.216Z" fill="#2B478B"/>
<path d="M138.022 348.842H175.913C177.848 348.842 179.417 347.272 179.417 345.334H134.518C134.518 347.272 136.087 348.842 138.022 348.842Z" fill="#2B478B"/>
<path d="M184.727 345.334C186.491 345.334 187.922 343.903 187.922 342.136V292.907C187.922 283.682 181.897 276.204 174.464 276.204H144.033C136.601 276.204 130.576 283.682 130.576 292.907V345.334H184.727Z" fill="#F99746"/>
<path d="M185.328 345.334C188.546 345.334 191.155 342.723 191.155 339.502V292.907C191.155 283.682 185.13 276.204 177.698 276.204H147.266C139.834 276.204 133.809 283.682 133.809 292.907V345.334H185.328Z" fill="#CC6A27"/>
<path d="M763.473 401.069H806.42V365.618H763.473V401.069Z" fill="#7F9EF4"/>
<path d="M784.946 401.069H827.894V365.618H784.946V401.069Z" fill="#AEC3FF"/>
<path d="M763.499 392.08H770.303L769.705 390.162L770.303 388.794H763.499V392.08Z" fill="#5D86E2"/>
<path d="M784.946 376.589H791.754L791.152 374.672L791.754 373.303H784.946V376.589Z" fill="#7F9EF4"/>
<path d="M784.946 373.303H778.142L778.74 375.221L778.142 376.589H784.946V373.303Z" fill="#5D86E2"/>
<path d="M827.897 392.46H821.09L821.691 394.378L821.09 395.747H827.897V392.46Z" fill="#7F9EF4"/>
<path d="M825.083 372.834H812.724V368.023H825.083V372.834Z" fill="white"/>
<path d="M705.272 401.104H748.308V365.583H705.272V401.104Z" fill="#7F9EF4"/>
<path d="M726.79 401.104H769.826V365.583H726.79V401.104Z" fill="#D4E4F8"/>
<path d="M705.298 392.098H712.117L711.516 390.174L712.117 388.802H705.298V392.098Z" fill="#2A4E96"/>
<path d="M726.79 376.575H733.609L733.008 374.654L733.609 373.282H726.79V376.575Z" fill="#618DC1"/>
<path d="M726.79 373.282H719.971L720.572 375.203L719.971 376.575H726.79V373.282Z" fill="#2A4E96"/>
<path d="M769.826 392.478H763.007L763.608 394.399L763.007 395.77H769.826V392.478Z" fill="#618DC1"/>
<path d="M767.009 372.813H754.623V367.99H767.009V372.813Z" fill="white"/>
<path d="M727.571 365.618H767.922V332.31H727.571V365.618Z" fill="#ED823A"/>
<path d="M747.748 365.618H788.097V332.31H747.748V365.618Z" fill="#FF9E55"/>
<path d="M727.594 357.17H733.989L733.426 355.37L733.989 354.084H727.594V357.17Z" fill="#DD732C"/>
<path d="M747.748 342.617H754.14L753.577 340.818L754.14 339.532H747.748V342.617Z" fill="#FFB27D"/>
<path d="M747.748 339.532H741.353L741.916 341.331L741.353 342.617H747.748V339.532Z" fill="#DD732C"/>
<path d="M788.097 357.527H781.705L782.268 359.329L781.705 360.615H788.097V357.527Z" fill="#FFB27D"/>
<path d="M785.453 339.092H773.843V334.57H785.453V339.092Z" fill="white"/>
<path d="M243.892 226.774H242.099V224.98H243.892V226.774Z" fill="#AEC3FF"/>
<path d="M248.548 226.774H246.755V224.98H248.548V226.774Z" fill="#AEC3FF"/>
<path d="M253.204 226.774H251.411V224.98H253.204V226.774Z" fill="#AEC3FF"/>
<path d="M243.892 230.774H242.099V228.977H243.892V230.774Z" fill="#AEC3FF"/>
<path d="M248.548 230.774H246.755V228.977H248.548V230.774Z" fill="#AEC3FF"/>
<path d="M253.204 230.774H251.411V228.977H253.204V230.774Z" fill="#AEC3FF"/>
<path d="M243.892 235.202H242.099V233.408H243.892V235.202Z" fill="#AEC3FF"/>
<path d="M248.548 235.202H246.755V233.408H248.548V235.202Z" fill="#AEC3FF"/>
<path d="M253.204 235.202H251.411V233.408H253.204V235.202Z" fill="#AEC3FF"/>
<path d="M260.78 274.16L263.685 273.729C264.007 273.682 264.142 273.351 264.01 272.947L261.183 264.33C261.013 263.814 260.482 263.398 260.075 263.46L257.17 263.888C256.849 263.938 256.713 264.268 256.846 264.672L259.672 273.286C259.843 273.803 260.37 274.221 260.78 274.16Z" fill="#233862"/>
<path d="M261.808 274.009L264.714 273.578C265.035 273.531 265.171 273.201 265.038 272.794L262.212 264.18C262.041 263.663 261.511 263.247 261.104 263.306L258.198 263.737C257.877 263.784 257.742 264.115 257.874 264.519L260.7 273.136C260.871 273.652 261.399 274.068 261.808 274.009Z" fill="#192E4F"/>
<path d="M259.006 265.31C259.091 265.298 259.133 265.197 259.1 265.088L256.805 257.471C256.772 257.362 256.675 257.283 256.589 257.294C256.507 257.309 256.463 257.406 256.498 257.516L258.794 265.135C258.826 265.245 258.92 265.321 259.006 265.31Z" fill="#192E4F"/>
<path d="M258.24 236.385C258.24 236.385 256.141 232.812 254.478 231.491C252.814 230.166 248.419 229.797 248.249 230.137C247.721 231.184 249.99 232.697 250.463 233.659C250.935 234.621 250.732 236.004 252.969 237.137C255.278 238.308 256.619 239.075 256.619 239.075L258.24 236.385Z" fill="#FFB27D"/>
<path d="M256.466 235.898C257.544 234.219 257.868 234.131 257.868 234.131C257.868 234.131 275.697 241.252 277.4 241.845C279.1 242.441 304.541 243.937 304.541 243.937L312.217 260.828C312.217 260.828 278.317 253.091 274.035 251.498C266.959 248.869 255.608 238.574 255.608 238.574C255.608 238.574 255.62 237.217 256.466 235.898Z" fill="#233862"/>
<path d="M300.763 393.844C300.763 393.844 300.374 400.11 299.213 401.585H281.328C281.44 400.959 281.947 399.417 284.184 399.024C287.01 398.534 291.74 396.546 293.449 392.806C295.249 388.873 300.763 393.844 300.763 393.844Z" fill="#163560"/>
<path d="M332.501 392.971C332.501 392.971 333.615 401.11 332.085 401.251C331.882 401.269 325.284 401.266 322.7 401.251C319.484 401.231 314.348 401.269 314.348 401.269C313.682 401.299 313.249 400.579 313.588 400.004C313.959 399.375 314.666 398.703 316.016 398.443C318.833 397.9 323.528 395.829 325.172 392.062C326.905 388.097 332.501 392.971 332.501 392.971Z" fill="#163560"/>
<path d="M292.353 310.459C292.353 310.459 296.849 326.212 309.739 353.568C322.629 380.923 323.622 393.39 323.622 393.39L332.501 392.971C332.501 392.971 331.667 360.412 325.579 346.606C319.49 332.8 318.25 295.025 318.25 295.025L292.353 310.459Z" fill="#ED823A"/>
<path d="M285.133 296.904C285.133 296.904 284.776 321.298 288.99 351.246C293.207 381.197 291.778 393.909 291.778 393.909L301.874 394.245C301.874 394.245 307.909 364.285 306.18 349.296C304.45 334.304 314.443 297.857 314.443 297.857L285.133 296.904Z" fill="#FF9E55"/>
<path d="M305.057 239.822L300.295 243.353L293.411 241.904C293.508 241.276 293.962 238.671 294.374 236.311C294.401 236.172 294.424 236.034 294.448 235.898C294.805 233.892 295.108 232.166 295.108 232.166L301.538 228.96L303.934 227.762C303.928 227.806 303.748 229.992 303.725 230.311C303.274 235.975 305.057 239.822 305.057 239.822Z" fill="#FFB27D"/>
<path d="M293.894 238.04C294.044 237.978 303.256 235.255 304.258 235.588C305.257 235.919 305.849 237.857 305.849 237.857L291.628 241.91C291.628 241.91 291.97 238.851 293.894 238.04Z" fill="#163560"/>
<path d="M318.698 299.916C317.139 307.046 284.585 284.673 285.018 280.322C285.065 279.844 285.115 279.36 285.162 278.882C285.764 272.823 286.338 266.897 286.379 263.026C286.412 259.672 286.872 256.238 287.487 253.123C288.053 250.244 288.749 247.633 289.353 245.598C289.78 244.164 290.576 242.904 291.628 241.91C292.376 241.208 293.254 240.642 294.224 240.255C294.489 240.143 294.757 240.052 295.031 239.972C298.954 238.833 304.379 237.426 305.849 237.854C309.834 239.028 312.792 246.049 314.89 254.996C318.81 271.749 319.717 295.27 318.698 299.916Z" fill="#2A4E96"/>
<path d="M303.241 230.411C301.83 233.113 296.57 235.453 294.374 236.311C294.401 236.172 294.424 236.034 294.448 235.898C294.805 233.892 295.108 232.166 295.108 232.166L301.538 228.96C302.959 228.936 303.825 229.296 303.241 230.411Z" fill="#FCA56B"/>
<path d="M291.984 231.789C291.984 231.789 303.583 235.411 305.725 228.145C307.868 220.883 310.806 216.458 303.492 213.838C296.178 211.218 293.914 213.564 292.612 215.814C291.306 218.065 289.023 230.662 291.984 231.789Z" fill="#FFB27D"/>
<path d="M293.066 215.112C293.066 215.112 293.805 223.567 295.553 223.201C297.298 222.832 298.883 222.561 298.627 225.11C298.37 227.659 295.951 230.6 301.332 231.051C306.713 231.503 314.451 217.608 312.972 214.977C308.708 207.386 286.901 205.852 293.066 215.112Z" fill="#163560"/>
<path d="M286.002 296.904C289.226 298.072 285.946 293.697 286.002 292.786C286.253 288.777 284.682 283.709 285.162 278.882L304.853 267.1C304.853 267.1 309.524 296.718 286.002 296.904Z" fill="#233862"/>
<path d="M318.698 299.916C310.293 315.513 308.955 321.466 308.955 321.466C301.638 320.631 289.102 306.235 285.127 302.391C285.127 302.391 284.585 284.673 285.018 280.322L291.094 280.145C291.094 280.145 302.08 282.933 304.927 279.151C307.774 275.369 306.542 256.805 306.542 256.805L314.89 254.996C318.81 271.749 320.955 295.73 318.698 299.916Z" fill="#FF9E55"/>
<path d="M270.74 270.083C270.74 270.083 268.338 269.614 267.714 269.1C266.791 268.339 266.063 267.068 265.613 266.926C264.852 266.69 262.99 264.345 262.834 264.18C262.772 264.115 262.271 264.36 262.392 264.746C262.515 265.135 262.795 265.973 262.896 266.274C263.335 267.608 263.314 268.018 261.723 267.501C261.516 267.434 257.839 266.265 257.462 267.1C257.084 267.935 258.608 271.959 260.526 272.826C262.445 273.693 267.183 272.909 267.525 273.009C270.422 273.85 270.74 270.083 270.74 270.083Z" fill="#FFB27D"/>
<path d="M268.786 269.298C268.786 269.298 288.315 272.623 290.045 271.779C292.806 270.434 288.972 250.598 288.972 250.598C288.972 250.598 288.807 246.102 294.053 245.043C298.612 244.12 303.008 247.539 303.008 247.539C303.008 247.539 307.01 251.12 306.497 255.094C305.366 263.902 303.604 281.818 297.719 284.564C290.128 288.104 268.162 274.741 268.162 274.741C268.162 274.741 267.431 273.844 267.534 272.18C267.628 270.711 268.786 269.298 268.786 269.298Z" fill="#2A4E96"/>
<path d="M308.16 256.454L306.542 256.805C306.542 256.805 303.12 241.984 291.628 241.91C292.376 241.208 293.254 240.642 294.224 240.255C298.438 241.385 305.749 244.99 308.16 256.454Z" fill="#FF9E55"/>
<path d="M251.823 234.456C251.823 234.456 248.657 232.511 248.509 233.346C248.435 233.762 249.843 234.898 250.409 235.385C250.975 235.872 252.418 236.824 252.418 236.824L251.823 234.456Z" fill="#FFB27D"/>
<path d="M853.052 404.255H1.888C1.2609 404.255 0.747559 403.741 0.747559 403.113V402.243C0.747559 401.614 1.2609 401.101 1.888 401.101H853.052C853.679 401.101 854.192 401.614 854.192 402.243V403.113C854.192 403.741 853.679 404.255 853.052 404.255Z" fill="#2E3552"/>
</svg>
